G04 #@! TF.FileFunction,Soldermask,Top*
%FSLAX46Y46*%
G04 Gerber Fmt 4.6, Leading zero omitted, Abs format (unit mm)*
G04 Created by KiCad (PCBNEW 4.0.4-stable) date Sun Dec  4 22:44:25 2016*
%MOMM*%
%LPD*%
G01*
G04 APERTURE LIST*
%ADD10C,0.050000*%
%ADD11R,1.000000X0.900000*%
%ADD12R,0.900000X1.000000*%
%ADD13R,0.800000X1.000000*%
%ADD14R,2.400000X1.300000*%
%ADD15R,0.830000X0.680000*%
%ADD16R,1.100000X0.650000*%
%ADD17R,0.650000X1.100000*%
%ADD18R,2.125000X2.125000*%
%ADD19R,0.680000X0.830000*%
%ADD20R,1.000000X0.800000*%
%ADD21R,0.900000X1.300000*%
%ADD22R,1.400000X1.650000*%
%ADD23R,2.432000X2.432000*%
%ADD24O,2.432000X2.432000*%
%ADD25R,1.650000X1.400000*%
%ADD26R,2.127200X2.127200*%
%ADD27O,2.127200X2.127200*%
%ADD28R,1.460000X1.050000*%
%ADD29R,1.750000X0.800000*%
%ADD30O,1.350000X1.650000*%
%ADD31O,1.950000X1.400000*%
%ADD32R,6.400000X6.400000*%
%ADD33R,1.400000X0.700000*%
%ADD34R,0.700000X1.400000*%
%ADD35O,0.800000X0.800000*%
%ADD36R,1.200100X1.200100*%
%ADD37R,4.464000X1.924000*%
G04 APERTURE END LIST*
D10*
D11*
X40800000Y-92950000D03*
X41900000Y-92950000D03*
D12*
X59750000Y-94450000D03*
X59750000Y-95550000D03*
D13*
X58300000Y-94500000D03*
X57000000Y-94500000D03*
X57650000Y-94500000D03*
X57000000Y-96500000D03*
X57650000Y-96500000D03*
X58300000Y-96500000D03*
D14*
X57700000Y-95500000D03*
D11*
X57100000Y-97950000D03*
X58200000Y-97950000D03*
D15*
X57800000Y-118455000D03*
X57800000Y-117945000D03*
X56750000Y-118455000D03*
X56750000Y-117945000D03*
X55700000Y-118455000D03*
X55700000Y-117945000D03*
X54650000Y-118455000D03*
X54650000Y-117945000D03*
D16*
X52950000Y-112450000D03*
X52950000Y-112950000D03*
X52950000Y-113450000D03*
X52950000Y-113950000D03*
X52950000Y-114450000D03*
X52950000Y-114950000D03*
X52950000Y-115450000D03*
X52950000Y-115950000D03*
D17*
X53600000Y-116600000D03*
X54100000Y-116600000D03*
X54600000Y-116600000D03*
X55100000Y-116600000D03*
X55600000Y-116600000D03*
X56100000Y-116600000D03*
X56600000Y-116600000D03*
X57100000Y-116600000D03*
D16*
X57750000Y-115950000D03*
X57750000Y-115450000D03*
X57750000Y-114950000D03*
X57750000Y-114450000D03*
X57750000Y-113950000D03*
X57750000Y-113450000D03*
X57750000Y-112950000D03*
X57750000Y-112450000D03*
D17*
X57100000Y-111800000D03*
X56600000Y-111800000D03*
X56100000Y-111800000D03*
X55600000Y-111800000D03*
X55100000Y-111800000D03*
X54600000Y-111800000D03*
X54100000Y-111800000D03*
X53600000Y-111800000D03*
D18*
X56212500Y-115062500D03*
X56212500Y-113337500D03*
X54487500Y-115062500D03*
X54487500Y-113337500D03*
D19*
X59605000Y-113700000D03*
X59095000Y-113700000D03*
X59605000Y-112650000D03*
X59095000Y-112650000D03*
X59600000Y-110550000D03*
X59090000Y-110550000D03*
X59600000Y-111600000D03*
X59090000Y-111600000D03*
D12*
X48000000Y-113400000D03*
X48000000Y-114500000D03*
X51200000Y-115200000D03*
X51200000Y-116300000D03*
X49900000Y-115700000D03*
X49900000Y-116800000D03*
X48600000Y-116200000D03*
X48600000Y-117300000D03*
D11*
X49900000Y-118100000D03*
X51000000Y-118100000D03*
D19*
X59605000Y-114750000D03*
X59095000Y-114750000D03*
X59605000Y-116850000D03*
X59095000Y-116850000D03*
X59605000Y-115800000D03*
X59095000Y-115800000D03*
X59605000Y-117900000D03*
X59095000Y-117900000D03*
D20*
X55550000Y-109500000D03*
X55550000Y-108600000D03*
D15*
X56750000Y-109945000D03*
X56750000Y-110455000D03*
X57800000Y-109945000D03*
X57800000Y-110455000D03*
D13*
X53400000Y-109100000D03*
X54300000Y-109100000D03*
X58300000Y-124400000D03*
X57000000Y-124400000D03*
X57650000Y-124400000D03*
X57000000Y-126400000D03*
X57650000Y-126400000D03*
X58300000Y-126400000D03*
D14*
X57700000Y-125400000D03*
D11*
X57100000Y-127850000D03*
X58200000Y-127850000D03*
D12*
X59750000Y-124350000D03*
X59750000Y-125450000D03*
D21*
X42300000Y-124450000D03*
X40800000Y-124450000D03*
D22*
X43950000Y-119550000D03*
X45950000Y-119550000D03*
D11*
X42150000Y-118150000D03*
X41050000Y-118150000D03*
X40800000Y-122850000D03*
X41900000Y-122850000D03*
D13*
X42100000Y-119500000D03*
X40800000Y-119500000D03*
X41450000Y-119500000D03*
X40800000Y-121500000D03*
X41450000Y-121500000D03*
X42100000Y-121500000D03*
D14*
X41500000Y-120500000D03*
D23*
X52550000Y-121100000D03*
D24*
X50010000Y-121100000D03*
D25*
X39000000Y-121750000D03*
X39000000Y-123750000D03*
D12*
X44000000Y-113400000D03*
X44000000Y-114500000D03*
D13*
X46100000Y-115200000D03*
X45200000Y-115200000D03*
D21*
X45250000Y-113600000D03*
X46750000Y-113600000D03*
X46750000Y-111800000D03*
X45250000Y-111800000D03*
D13*
X46100000Y-110200000D03*
X45200000Y-110200000D03*
D12*
X44000000Y-110900000D03*
X44000000Y-112000000D03*
D20*
X40300000Y-111100000D03*
X40300000Y-112000000D03*
X40300000Y-113400000D03*
X40300000Y-114300000D03*
D10*
G36*
X38310660Y-108624264D02*
X37674264Y-109260660D01*
X36967158Y-108553554D01*
X37603554Y-107917158D01*
X38310660Y-108624264D01*
X38310660Y-108624264D01*
G37*
G36*
X37532842Y-107846446D02*
X36896446Y-108482842D01*
X36189340Y-107775736D01*
X36825736Y-107139340D01*
X37532842Y-107846446D01*
X37532842Y-107846446D01*
G37*
D11*
X42700000Y-113400000D03*
X41600000Y-113400000D03*
X42700000Y-112000000D03*
X41600000Y-112000000D03*
D21*
X42300000Y-94550000D03*
X40800000Y-94550000D03*
D23*
X52550000Y-91200000D03*
D24*
X50010000Y-91200000D03*
D12*
X48000000Y-110900000D03*
X48000000Y-112000000D03*
D13*
X50050000Y-113400000D03*
X49150000Y-113400000D03*
D11*
X53925000Y-110500000D03*
X52825000Y-110500000D03*
D12*
X51200000Y-112150000D03*
X51200000Y-113250000D03*
D13*
X50050000Y-112000000D03*
X49150000Y-112000000D03*
D26*
X73980000Y-95660000D03*
D27*
X73980000Y-98200000D03*
X71440000Y-95660000D03*
X71440000Y-98200000D03*
X68900000Y-95660000D03*
X68900000Y-98200000D03*
X66360000Y-95660000D03*
X66360000Y-98200000D03*
X63820000Y-95660000D03*
X63820000Y-98200000D03*
D15*
X71400000Y-92945000D03*
X71400000Y-93455000D03*
D13*
X77600000Y-95850000D03*
X76700000Y-95850000D03*
X75250000Y-93200000D03*
X76150000Y-93200000D03*
X77600000Y-97950000D03*
X76700000Y-97950000D03*
D15*
X74000000Y-92945000D03*
X74000000Y-93455000D03*
D20*
X66800000Y-106000000D03*
X66800000Y-106900000D03*
X68350000Y-106000000D03*
X68350000Y-106900000D03*
X65250000Y-106900000D03*
X65250000Y-106000000D03*
X69900000Y-106000000D03*
X69900000Y-106900000D03*
X63700000Y-106000000D03*
X63700000Y-106900000D03*
D19*
X68345000Y-93325000D03*
X68855000Y-93325000D03*
D20*
X69950000Y-93325000D03*
X69950000Y-92425000D03*
D13*
X62350000Y-93200000D03*
X61450000Y-93200000D03*
D15*
X63800000Y-92945000D03*
X63800000Y-93455000D03*
D28*
X86350000Y-125950000D03*
X86350000Y-126900000D03*
X86350000Y-127850000D03*
X88550000Y-127850000D03*
X88550000Y-125950000D03*
X88550000Y-126900000D03*
D11*
X88550000Y-124550000D03*
X89650000Y-124550000D03*
D20*
X90100000Y-126000000D03*
X90100000Y-126900000D03*
D13*
X87650000Y-129300000D03*
X88550000Y-129300000D03*
D15*
X86700000Y-111545000D03*
X86700000Y-112055000D03*
X87800000Y-111545000D03*
X87800000Y-112055000D03*
X88900000Y-111545000D03*
X88900000Y-112055000D03*
D13*
X87050000Y-107100000D03*
X86150000Y-107100000D03*
D15*
X90000000Y-111545000D03*
X90000000Y-112055000D03*
D29*
X93650000Y-119350000D03*
X93650000Y-118700000D03*
X93650000Y-118050000D03*
X93650000Y-117400000D03*
X93650000Y-116750000D03*
D30*
X93650000Y-120550000D03*
X93650000Y-115550000D03*
D31*
X96350000Y-121550000D03*
X96350000Y-114550000D03*
D12*
X91750000Y-121000000D03*
X91750000Y-119900000D03*
X91500000Y-116800000D03*
X91500000Y-115700000D03*
D10*
G36*
X90725736Y-114510660D02*
X90089340Y-113874264D01*
X90796446Y-113167158D01*
X91432842Y-113803554D01*
X90725736Y-114510660D01*
X90725736Y-114510660D01*
G37*
G36*
X91503554Y-113732842D02*
X90867158Y-113096446D01*
X91574264Y-112389340D01*
X92210660Y-113025736D01*
X91503554Y-113732842D01*
X91503554Y-113732842D01*
G37*
D19*
X80045000Y-117400000D03*
X80555000Y-117400000D03*
X80645000Y-114100000D03*
X81155000Y-114100000D03*
D32*
X86100000Y-118350000D03*
D33*
X89900000Y-121100000D03*
X89900000Y-120600000D03*
X89900000Y-120100000D03*
X89900000Y-119600000D03*
X89900000Y-119100000D03*
X89900000Y-118600000D03*
X89900000Y-118100000D03*
X89900000Y-117600000D03*
X89900000Y-117100000D03*
X89900000Y-116600000D03*
X89900000Y-116100000D03*
X89900000Y-115600000D03*
D34*
X88850000Y-114550000D03*
X88350000Y-114550000D03*
X87850000Y-114550000D03*
X87350000Y-114550000D03*
X86850000Y-114550000D03*
X86350000Y-114550000D03*
X85850000Y-114550000D03*
X85350000Y-114550000D03*
X84850000Y-114550000D03*
X84350000Y-114550000D03*
X83850000Y-114550000D03*
X83350000Y-114550000D03*
D33*
X82300000Y-115600000D03*
X82300000Y-116100000D03*
X82300000Y-116600000D03*
X82300000Y-117100000D03*
X82300000Y-117600000D03*
X82300000Y-118100000D03*
X82300000Y-118600000D03*
X82300000Y-119100000D03*
X82300000Y-119600000D03*
X82300000Y-120100000D03*
X82300000Y-120600000D03*
X82300000Y-121100000D03*
D34*
X83350000Y-122150000D03*
X83850000Y-122150000D03*
X84350000Y-122150000D03*
X84850000Y-122150000D03*
X85350000Y-122150000D03*
X85850000Y-122150000D03*
X86350000Y-122150000D03*
X86850000Y-122150000D03*
X87350000Y-122150000D03*
X87850000Y-122150000D03*
X88350000Y-122150000D03*
X88850000Y-122150000D03*
D19*
X80045000Y-115300000D03*
X80555000Y-115300000D03*
D20*
X79950000Y-121050000D03*
X79950000Y-121950000D03*
D10*
G36*
X82285822Y-112022721D02*
X82872721Y-111435822D01*
X83353554Y-111916655D01*
X82766655Y-112503554D01*
X82285822Y-112022721D01*
X82285822Y-112022721D01*
G37*
G36*
X82646446Y-112383345D02*
X83233345Y-111796446D01*
X83714178Y-112277279D01*
X83127279Y-112864178D01*
X82646446Y-112383345D01*
X82646446Y-112383345D01*
G37*
D19*
X81200000Y-112850000D03*
X81710000Y-112850000D03*
D10*
G36*
X83485822Y-111622721D02*
X84072721Y-111035822D01*
X84553554Y-111516655D01*
X83966655Y-112103554D01*
X83485822Y-111622721D01*
X83485822Y-111622721D01*
G37*
G36*
X83846446Y-111983345D02*
X84433345Y-111396446D01*
X84914178Y-111877279D01*
X84327279Y-112464178D01*
X83846446Y-111983345D01*
X83846446Y-111983345D01*
G37*
D15*
X85600000Y-111545000D03*
X85600000Y-112055000D03*
D21*
X92550000Y-109100000D03*
X91050000Y-109100000D03*
D13*
X89750000Y-107000000D03*
X88850000Y-107000000D03*
D21*
X92550000Y-107000000D03*
X91050000Y-107000000D03*
X78800000Y-127850000D03*
X80300000Y-127850000D03*
X78800000Y-125750000D03*
X80300000Y-125750000D03*
D13*
X77600000Y-127850000D03*
X76700000Y-127850000D03*
X77600000Y-125750000D03*
X76700000Y-125750000D03*
D11*
X84750000Y-123900000D03*
X83650000Y-123900000D03*
X81800000Y-123450000D03*
X80700000Y-123450000D03*
D20*
X84700000Y-127300000D03*
X84700000Y-126400000D03*
D35*
X63950000Y-109000000D03*
X63950000Y-109800000D03*
X63950000Y-110600000D03*
X63950000Y-111400000D03*
X63950000Y-112200000D03*
X63950000Y-113000000D03*
X63950000Y-113800000D03*
X63950000Y-114600000D03*
X63950000Y-115400000D03*
X63950000Y-116200000D03*
X63950000Y-117000000D03*
X63950000Y-117800000D03*
X63950000Y-118600000D03*
X64750000Y-109000000D03*
X64750000Y-109800000D03*
X64750000Y-110600000D03*
X64750000Y-111400000D03*
X64750000Y-112200000D03*
X64750000Y-113000000D03*
X64750000Y-113800000D03*
X64750000Y-114600000D03*
X64750000Y-115400000D03*
X64750000Y-116200000D03*
X64750000Y-117000000D03*
X64750000Y-117800000D03*
X64750000Y-118600000D03*
X65550000Y-109000000D03*
X65550000Y-109800000D03*
X65550000Y-110600000D03*
X65550000Y-111400000D03*
X65550000Y-112200000D03*
X65550000Y-113000000D03*
X65550000Y-113800000D03*
X65550000Y-114600000D03*
X65550000Y-115400000D03*
X65550000Y-116200000D03*
X65550000Y-117000000D03*
X65550000Y-117800000D03*
X65550000Y-118600000D03*
X66350000Y-109000000D03*
X66350000Y-109800000D03*
X66350000Y-110600000D03*
X66350000Y-111400000D03*
X66350000Y-112200000D03*
X66350000Y-113000000D03*
X66350000Y-113800000D03*
X66350000Y-114600000D03*
X66350000Y-115400000D03*
X66350000Y-116200000D03*
X66350000Y-117000000D03*
X66350000Y-117800000D03*
X66350000Y-118600000D03*
X67150000Y-109000000D03*
X67150000Y-109800000D03*
X67150000Y-110600000D03*
X67150000Y-111400000D03*
X67150000Y-112200000D03*
X67150000Y-113000000D03*
X67150000Y-113800000D03*
X67150000Y-114600000D03*
X67150000Y-115400000D03*
X67150000Y-116200000D03*
X67150000Y-117000000D03*
X67150000Y-117800000D03*
X67150000Y-118600000D03*
X67950000Y-109000000D03*
X67950000Y-109800000D03*
X67950000Y-110600000D03*
X67950000Y-111400000D03*
X67950000Y-112200000D03*
X67950000Y-113000000D03*
X67950000Y-113800000D03*
X67950000Y-114600000D03*
X67950000Y-115400000D03*
X67950000Y-116200000D03*
X67950000Y-117000000D03*
X67950000Y-117800000D03*
X67950000Y-118600000D03*
X68750000Y-109000000D03*
X68750000Y-109800000D03*
X68750000Y-110600000D03*
X68750000Y-111400000D03*
X68750000Y-112200000D03*
X68750000Y-113000000D03*
X68750000Y-113800000D03*
X68750000Y-114600000D03*
X68750000Y-115400000D03*
X68750000Y-116200000D03*
X68750000Y-117000000D03*
X68750000Y-117800000D03*
X68750000Y-118600000D03*
X69550000Y-109000000D03*
X69550000Y-109800000D03*
X69550000Y-110600000D03*
X69550000Y-111400000D03*
X69550000Y-112200000D03*
X69550000Y-113000000D03*
X69550000Y-113800000D03*
X69550000Y-114600000D03*
X69550000Y-115400000D03*
X69550000Y-116200000D03*
X69550000Y-117000000D03*
X69550000Y-117800000D03*
X69550000Y-118600000D03*
X70350000Y-109000000D03*
X70350000Y-109800000D03*
X70350000Y-110600000D03*
X70350000Y-111400000D03*
X70350000Y-112200000D03*
X70350000Y-113000000D03*
X70350000Y-113800000D03*
X70350000Y-114600000D03*
X70350000Y-115400000D03*
X70350000Y-116200000D03*
X70350000Y-117000000D03*
X70350000Y-117800000D03*
X70350000Y-118600000D03*
X71150000Y-109000000D03*
X71150000Y-109800000D03*
X71150000Y-110600000D03*
X71150000Y-111400000D03*
X71150000Y-112200000D03*
X71150000Y-113000000D03*
X71150000Y-113800000D03*
X71150000Y-114600000D03*
X71150000Y-115400000D03*
X71150000Y-116200000D03*
X71150000Y-117000000D03*
X71150000Y-117800000D03*
X71150000Y-118600000D03*
X71950000Y-109000000D03*
X71950000Y-109800000D03*
X71950000Y-110600000D03*
X71950000Y-111400000D03*
X71950000Y-112200000D03*
X71950000Y-113000000D03*
X71950000Y-113800000D03*
X71950000Y-114600000D03*
X71950000Y-115400000D03*
X71950000Y-116200000D03*
X71950000Y-117000000D03*
X71950000Y-117800000D03*
X71950000Y-118600000D03*
X72750000Y-109000000D03*
X72750000Y-109800000D03*
X72750000Y-110600000D03*
X72750000Y-111400000D03*
X72750000Y-112200000D03*
X72750000Y-113000000D03*
X72750000Y-113800000D03*
X72750000Y-114600000D03*
X72750000Y-115400000D03*
X72750000Y-116200000D03*
X72750000Y-117000000D03*
X72750000Y-117800000D03*
X72750000Y-118600000D03*
X73550000Y-109000000D03*
X73550000Y-109800000D03*
X73550000Y-110600000D03*
X73550000Y-111400000D03*
X73550000Y-112200000D03*
X73550000Y-113000000D03*
X73550000Y-113800000D03*
X73550000Y-114600000D03*
X73550000Y-115400000D03*
X73550000Y-116200000D03*
X73550000Y-117000000D03*
X73550000Y-117800000D03*
X73550000Y-118600000D03*
D20*
X69950000Y-123225000D03*
X69950000Y-122325000D03*
D13*
X75250000Y-123100000D03*
X76150000Y-123100000D03*
D15*
X74000000Y-122845000D03*
X74000000Y-123355000D03*
X71400000Y-122845000D03*
X71400000Y-123355000D03*
D26*
X73980000Y-125560000D03*
D27*
X73980000Y-128100000D03*
X71440000Y-125560000D03*
X71440000Y-128100000D03*
X68900000Y-125560000D03*
X68900000Y-128100000D03*
X66360000Y-125560000D03*
X66360000Y-128100000D03*
X63820000Y-125560000D03*
X63820000Y-128100000D03*
D15*
X63800000Y-122845000D03*
X63800000Y-123355000D03*
D19*
X68345000Y-123225000D03*
X68855000Y-123225000D03*
D13*
X62350000Y-123100000D03*
X61450000Y-123100000D03*
D15*
X55700000Y-88555000D03*
X55700000Y-88045000D03*
X54650000Y-88555000D03*
X54650000Y-88045000D03*
X56750000Y-88555000D03*
X56750000Y-88045000D03*
D16*
X52950000Y-82550000D03*
X52950000Y-83050000D03*
X52950000Y-83550000D03*
X52950000Y-84050000D03*
X52950000Y-84550000D03*
X52950000Y-85050000D03*
X52950000Y-85550000D03*
X52950000Y-86050000D03*
D17*
X53600000Y-86700000D03*
X54100000Y-86700000D03*
X54600000Y-86700000D03*
X55100000Y-86700000D03*
X55600000Y-86700000D03*
X56100000Y-86700000D03*
X56600000Y-86700000D03*
X57100000Y-86700000D03*
D16*
X57750000Y-86050000D03*
X57750000Y-85550000D03*
X57750000Y-85050000D03*
X57750000Y-84550000D03*
X57750000Y-84050000D03*
X57750000Y-83550000D03*
X57750000Y-83050000D03*
X57750000Y-82550000D03*
D17*
X57100000Y-81900000D03*
X56600000Y-81900000D03*
X56100000Y-81900000D03*
X55600000Y-81900000D03*
X55100000Y-81900000D03*
X54600000Y-81900000D03*
X54100000Y-81900000D03*
X53600000Y-81900000D03*
D18*
X56212500Y-85162500D03*
X56212500Y-83437500D03*
X54487500Y-85162500D03*
X54487500Y-83437500D03*
D15*
X57800000Y-88555000D03*
X57800000Y-88045000D03*
D19*
X59600000Y-81700000D03*
X59090000Y-81700000D03*
X59605000Y-82750000D03*
X59095000Y-82750000D03*
D15*
X57800000Y-80045000D03*
X57800000Y-80555000D03*
D19*
X59600000Y-80650000D03*
X59090000Y-80650000D03*
X59605000Y-83800000D03*
X59095000Y-83800000D03*
X59605000Y-88000000D03*
X59095000Y-88000000D03*
X59605000Y-86950000D03*
X59095000Y-86950000D03*
X59605000Y-84850000D03*
X59095000Y-84850000D03*
X59605000Y-85900000D03*
X59095000Y-85900000D03*
D20*
X55550000Y-79600000D03*
X55550000Y-78700000D03*
D15*
X56750000Y-80045000D03*
X56750000Y-80555000D03*
D13*
X53400000Y-79200000D03*
X54300000Y-79200000D03*
D11*
X53925000Y-80600000D03*
X52825000Y-80600000D03*
D35*
X63950000Y-79100000D03*
X63950000Y-79900000D03*
X63950000Y-80700000D03*
X63950000Y-81500000D03*
X63950000Y-82300000D03*
X63950000Y-83100000D03*
X63950000Y-83900000D03*
X63950000Y-84700000D03*
X63950000Y-85500000D03*
X63950000Y-86300000D03*
X63950000Y-87100000D03*
X63950000Y-87900000D03*
X63950000Y-88700000D03*
X64750000Y-79100000D03*
X64750000Y-79900000D03*
X64750000Y-80700000D03*
X64750000Y-81500000D03*
X64750000Y-82300000D03*
X64750000Y-83100000D03*
X64750000Y-83900000D03*
X64750000Y-84700000D03*
X64750000Y-85500000D03*
X64750000Y-86300000D03*
X64750000Y-87100000D03*
X64750000Y-87900000D03*
X64750000Y-88700000D03*
X65550000Y-79100000D03*
X65550000Y-79900000D03*
X65550000Y-80700000D03*
X65550000Y-81500000D03*
X65550000Y-82300000D03*
X65550000Y-83100000D03*
X65550000Y-83900000D03*
X65550000Y-84700000D03*
X65550000Y-85500000D03*
X65550000Y-86300000D03*
X65550000Y-87100000D03*
X65550000Y-87900000D03*
X65550000Y-88700000D03*
X66350000Y-79100000D03*
X66350000Y-79900000D03*
X66350000Y-80700000D03*
X66350000Y-81500000D03*
X66350000Y-82300000D03*
X66350000Y-83100000D03*
X66350000Y-83900000D03*
X66350000Y-84700000D03*
X66350000Y-85500000D03*
X66350000Y-86300000D03*
X66350000Y-87100000D03*
X66350000Y-87900000D03*
X66350000Y-88700000D03*
X67150000Y-79100000D03*
X67150000Y-79900000D03*
X67150000Y-80700000D03*
X67150000Y-81500000D03*
X67150000Y-82300000D03*
X67150000Y-83100000D03*
X67150000Y-83900000D03*
X67150000Y-84700000D03*
X67150000Y-85500000D03*
X67150000Y-86300000D03*
X67150000Y-87100000D03*
X67150000Y-87900000D03*
X67150000Y-88700000D03*
X67950000Y-79100000D03*
X67950000Y-79900000D03*
X67950000Y-80700000D03*
X67950000Y-81500000D03*
X67950000Y-82300000D03*
X67950000Y-83100000D03*
X67950000Y-83900000D03*
X67950000Y-84700000D03*
X67950000Y-85500000D03*
X67950000Y-86300000D03*
X67950000Y-87100000D03*
X67950000Y-87900000D03*
X67950000Y-88700000D03*
X68750000Y-79100000D03*
X68750000Y-79900000D03*
X68750000Y-80700000D03*
X68750000Y-81500000D03*
X68750000Y-82300000D03*
X68750000Y-83100000D03*
X68750000Y-83900000D03*
X68750000Y-84700000D03*
X68750000Y-85500000D03*
X68750000Y-86300000D03*
X68750000Y-87100000D03*
X68750000Y-87900000D03*
X68750000Y-88700000D03*
X69550000Y-79100000D03*
X69550000Y-79900000D03*
X69550000Y-80700000D03*
X69550000Y-81500000D03*
X69550000Y-82300000D03*
X69550000Y-83100000D03*
X69550000Y-83900000D03*
X69550000Y-84700000D03*
X69550000Y-85500000D03*
X69550000Y-86300000D03*
X69550000Y-87100000D03*
X69550000Y-87900000D03*
X69550000Y-88700000D03*
X70350000Y-79100000D03*
X70350000Y-79900000D03*
X70350000Y-80700000D03*
X70350000Y-81500000D03*
X70350000Y-82300000D03*
X70350000Y-83100000D03*
X70350000Y-83900000D03*
X70350000Y-84700000D03*
X70350000Y-85500000D03*
X70350000Y-86300000D03*
X70350000Y-87100000D03*
X70350000Y-87900000D03*
X70350000Y-88700000D03*
X71150000Y-79100000D03*
X71150000Y-79900000D03*
X71150000Y-80700000D03*
X71150000Y-81500000D03*
X71150000Y-82300000D03*
X71150000Y-83100000D03*
X71150000Y-83900000D03*
X71150000Y-84700000D03*
X71150000Y-85500000D03*
X71150000Y-86300000D03*
X71150000Y-87100000D03*
X71150000Y-87900000D03*
X71150000Y-88700000D03*
X71950000Y-79100000D03*
X71950000Y-79900000D03*
X71950000Y-80700000D03*
X71950000Y-81500000D03*
X71950000Y-82300000D03*
X71950000Y-83100000D03*
X71950000Y-83900000D03*
X71950000Y-84700000D03*
X71950000Y-85500000D03*
X71950000Y-86300000D03*
X71950000Y-87100000D03*
X71950000Y-87900000D03*
X71950000Y-88700000D03*
X72750000Y-79100000D03*
X72750000Y-79900000D03*
X72750000Y-80700000D03*
X72750000Y-81500000D03*
X72750000Y-82300000D03*
X72750000Y-83100000D03*
X72750000Y-83900000D03*
X72750000Y-84700000D03*
X72750000Y-85500000D03*
X72750000Y-86300000D03*
X72750000Y-87100000D03*
X72750000Y-87900000D03*
X72750000Y-88700000D03*
X73550000Y-79100000D03*
X73550000Y-79900000D03*
X73550000Y-80700000D03*
X73550000Y-81500000D03*
X73550000Y-82300000D03*
X73550000Y-83100000D03*
X73550000Y-83900000D03*
X73550000Y-84700000D03*
X73550000Y-85500000D03*
X73550000Y-86300000D03*
X73550000Y-87100000D03*
X73550000Y-87900000D03*
X73550000Y-88700000D03*
D20*
X68350000Y-76100000D03*
X68350000Y-77000000D03*
X65250000Y-77000000D03*
X65250000Y-76100000D03*
X66800000Y-76100000D03*
X66800000Y-77000000D03*
X69900000Y-76100000D03*
X69900000Y-77000000D03*
X63700000Y-76100000D03*
X63700000Y-77000000D03*
D21*
X78800000Y-95850000D03*
X80300000Y-95850000D03*
X78800000Y-97950000D03*
X80300000Y-97950000D03*
D11*
X81800000Y-93550000D03*
X80700000Y-93550000D03*
D29*
X93650000Y-89450000D03*
X93650000Y-88800000D03*
X93650000Y-88150000D03*
X93650000Y-87500000D03*
X93650000Y-86850000D03*
D30*
X93650000Y-90650000D03*
X93650000Y-85650000D03*
D31*
X96350000Y-91650000D03*
X96350000Y-84650000D03*
D12*
X91500000Y-86900000D03*
X91500000Y-85800000D03*
D10*
G36*
X90725736Y-84610660D02*
X90089340Y-83974264D01*
X90796446Y-83267158D01*
X91432842Y-83903554D01*
X90725736Y-84610660D01*
X90725736Y-84610660D01*
G37*
G36*
X91503554Y-83832842D02*
X90867158Y-83196446D01*
X91574264Y-82489340D01*
X92210660Y-83125736D01*
X91503554Y-83832842D01*
X91503554Y-83832842D01*
G37*
D12*
X91750000Y-91100000D03*
X91750000Y-90000000D03*
D11*
X84750000Y-94000000D03*
X83650000Y-94000000D03*
D20*
X84700000Y-97400000D03*
X84700000Y-96500000D03*
D11*
X88550000Y-94650000D03*
X89650000Y-94650000D03*
D13*
X87650000Y-99400000D03*
X88550000Y-99400000D03*
D28*
X86350000Y-96050000D03*
X86350000Y-97000000D03*
X86350000Y-97950000D03*
X88550000Y-97950000D03*
X88550000Y-96050000D03*
X88550000Y-97000000D03*
D20*
X90100000Y-96100000D03*
X90100000Y-97000000D03*
D21*
X92550000Y-79200000D03*
X91050000Y-79200000D03*
D13*
X89750000Y-77100000D03*
X88850000Y-77100000D03*
D21*
X92550000Y-77100000D03*
X91050000Y-77100000D03*
D10*
G36*
X83485822Y-81722721D02*
X84072721Y-81135822D01*
X84553554Y-81616655D01*
X83966655Y-82203554D01*
X83485822Y-81722721D01*
X83485822Y-81722721D01*
G37*
G36*
X83846446Y-82083345D02*
X84433345Y-81496446D01*
X84914178Y-81977279D01*
X84327279Y-82564178D01*
X83846446Y-82083345D01*
X83846446Y-82083345D01*
G37*
D13*
X87050000Y-77200000D03*
X86150000Y-77200000D03*
D15*
X85600000Y-81645000D03*
X85600000Y-82155000D03*
X86700000Y-81645000D03*
X86700000Y-82155000D03*
D19*
X81200000Y-82950000D03*
X81710000Y-82950000D03*
X80645000Y-84200000D03*
X81155000Y-84200000D03*
X80045000Y-85400000D03*
X80555000Y-85400000D03*
X80045000Y-87500000D03*
X80555000Y-87500000D03*
D20*
X79950000Y-91150000D03*
X79950000Y-92050000D03*
D15*
X90000000Y-81645000D03*
X90000000Y-82155000D03*
D32*
X86100000Y-88450000D03*
D33*
X89900000Y-91200000D03*
X89900000Y-90700000D03*
X89900000Y-90200000D03*
X89900000Y-89700000D03*
X89900000Y-89200000D03*
X89900000Y-88700000D03*
X89900000Y-88200000D03*
X89900000Y-87700000D03*
X89900000Y-87200000D03*
X89900000Y-86700000D03*
X89900000Y-86200000D03*
X89900000Y-85700000D03*
D34*
X88850000Y-84650000D03*
X88350000Y-84650000D03*
X87850000Y-84650000D03*
X87350000Y-84650000D03*
X86850000Y-84650000D03*
X86350000Y-84650000D03*
X85850000Y-84650000D03*
X85350000Y-84650000D03*
X84850000Y-84650000D03*
X84350000Y-84650000D03*
X83850000Y-84650000D03*
X83350000Y-84650000D03*
D33*
X82300000Y-85700000D03*
X82300000Y-86200000D03*
X82300000Y-86700000D03*
X82300000Y-87200000D03*
X82300000Y-87700000D03*
X82300000Y-88200000D03*
X82300000Y-88700000D03*
X82300000Y-89200000D03*
X82300000Y-89700000D03*
X82300000Y-90200000D03*
X82300000Y-90700000D03*
X82300000Y-91200000D03*
D34*
X83350000Y-92250000D03*
X83850000Y-92250000D03*
X84350000Y-92250000D03*
X84850000Y-92250000D03*
X85350000Y-92250000D03*
X85850000Y-92250000D03*
X86350000Y-92250000D03*
X86850000Y-92250000D03*
X87350000Y-92250000D03*
X87850000Y-92250000D03*
X88350000Y-92250000D03*
X88850000Y-92250000D03*
D10*
G36*
X82285822Y-82122721D02*
X82872721Y-81535822D01*
X83353554Y-82016655D01*
X82766655Y-82603554D01*
X82285822Y-82122721D01*
X82285822Y-82122721D01*
G37*
G36*
X82646446Y-82483345D02*
X83233345Y-81896446D01*
X83714178Y-82377279D01*
X83127279Y-82964178D01*
X82646446Y-82483345D01*
X82646446Y-82483345D01*
G37*
D15*
X88900000Y-81645000D03*
X88900000Y-82155000D03*
X87800000Y-81645000D03*
X87800000Y-82155000D03*
D20*
X40300000Y-83500000D03*
X40300000Y-84400000D03*
D10*
G36*
X38310660Y-78724264D02*
X37674264Y-79360660D01*
X36967158Y-78653554D01*
X37603554Y-78017158D01*
X38310660Y-78724264D01*
X38310660Y-78724264D01*
G37*
G36*
X37532842Y-77946446D02*
X36896446Y-78582842D01*
X36189340Y-77875736D01*
X36825736Y-77239340D01*
X37532842Y-77946446D01*
X37532842Y-77946446D01*
G37*
D20*
X38650000Y-83250000D03*
X38650000Y-82350000D03*
X40300000Y-81200000D03*
X40300000Y-82100000D03*
D10*
G36*
X36152513Y-80854594D02*
X35445406Y-80147487D01*
X36011091Y-79581802D01*
X36718198Y-80288909D01*
X36152513Y-80854594D01*
X36152513Y-80854594D01*
G37*
G36*
X36788909Y-80218198D02*
X36081802Y-79511091D01*
X36647487Y-78945406D01*
X37354594Y-79652513D01*
X36788909Y-80218198D01*
X36788909Y-80218198D01*
G37*
D13*
X37450000Y-82100000D03*
X36550000Y-82100000D03*
D10*
G36*
X29288909Y-78541853D02*
X30208147Y-79461091D01*
X29571751Y-80097487D01*
X28652513Y-79178249D01*
X29288909Y-78541853D01*
X29288909Y-78541853D01*
G37*
G36*
X28228249Y-79602513D02*
X29147487Y-80521751D01*
X28511091Y-81158147D01*
X27591853Y-80238909D01*
X28228249Y-79602513D01*
X28228249Y-79602513D01*
G37*
G36*
X29174264Y-84889340D02*
X29810660Y-85525736D01*
X29103554Y-86232842D01*
X28467158Y-85596446D01*
X29174264Y-84889340D01*
X29174264Y-84889340D01*
G37*
G36*
X28396446Y-85667158D02*
X29032842Y-86303554D01*
X28325736Y-87010660D01*
X27689340Y-86374264D01*
X28396446Y-85667158D01*
X28396446Y-85667158D01*
G37*
G36*
X30274264Y-85939340D02*
X30910660Y-86575736D01*
X30203554Y-87282842D01*
X29567158Y-86646446D01*
X30274264Y-85939340D01*
X30274264Y-85939340D01*
G37*
G36*
X29496446Y-86717158D02*
X30132842Y-87353554D01*
X29425736Y-88060660D01*
X28789340Y-87424264D01*
X29496446Y-86717158D01*
X29496446Y-86717158D01*
G37*
G36*
X34375736Y-80760660D02*
X33739340Y-80124264D01*
X34446446Y-79417158D01*
X35082842Y-80053554D01*
X34375736Y-80760660D01*
X34375736Y-80760660D01*
G37*
G36*
X35153554Y-79982842D02*
X34517158Y-79346446D01*
X35224264Y-78639340D01*
X35860660Y-79275736D01*
X35153554Y-79982842D01*
X35153554Y-79982842D01*
G37*
G36*
X31338909Y-76491853D02*
X32258147Y-77411091D01*
X31621751Y-78047487D01*
X30702513Y-77128249D01*
X31338909Y-76491853D01*
X31338909Y-76491853D01*
G37*
G36*
X30278249Y-77552513D02*
X31197487Y-78471751D01*
X30561091Y-79108147D01*
X29641853Y-78188909D01*
X30278249Y-77552513D01*
X30278249Y-77552513D01*
G37*
G36*
X33264645Y-79671751D02*
X32628249Y-79035355D01*
X33335355Y-78328249D01*
X33971751Y-78964645D01*
X33264645Y-79671751D01*
X33264645Y-79671751D01*
G37*
G36*
X34042463Y-78893933D02*
X33406067Y-78257537D01*
X34113173Y-77550431D01*
X34749569Y-78186827D01*
X34042463Y-78893933D01*
X34042463Y-78893933D01*
G37*
G36*
X29180062Y-83939429D02*
X28685087Y-83444454D01*
X29568970Y-82560571D01*
X30063945Y-83055546D01*
X29180062Y-83939429D01*
X29180062Y-83939429D01*
G37*
G36*
X29533616Y-84292982D02*
X29038641Y-83798007D01*
X29922524Y-82914124D01*
X30417499Y-83409099D01*
X29533616Y-84292982D01*
X29533616Y-84292982D01*
G37*
G36*
X29887169Y-84646536D02*
X29392194Y-84151561D01*
X30276077Y-83267678D01*
X30771052Y-83762653D01*
X29887169Y-84646536D01*
X29887169Y-84646536D01*
G37*
G36*
X30240722Y-85000089D02*
X29745747Y-84505114D01*
X30629630Y-83621231D01*
X31124605Y-84116206D01*
X30240722Y-85000089D01*
X30240722Y-85000089D01*
G37*
G36*
X30594276Y-85353642D02*
X30099301Y-84858667D01*
X30983184Y-83974784D01*
X31478159Y-84469759D01*
X30594276Y-85353642D01*
X30594276Y-85353642D01*
G37*
G36*
X30947829Y-85707196D02*
X30452854Y-85212221D01*
X31336737Y-84328338D01*
X31831712Y-84823313D01*
X30947829Y-85707196D01*
X30947829Y-85707196D01*
G37*
G36*
X32821662Y-85212221D02*
X32326687Y-85707196D01*
X31442804Y-84823313D01*
X31937779Y-84328338D01*
X32821662Y-85212221D01*
X32821662Y-85212221D01*
G37*
G36*
X33175215Y-84858667D02*
X32680240Y-85353642D01*
X31796357Y-84469759D01*
X32291332Y-83974784D01*
X33175215Y-84858667D01*
X33175215Y-84858667D01*
G37*
G36*
X33528769Y-84505114D02*
X33033794Y-85000089D01*
X32149911Y-84116206D01*
X32644886Y-83621231D01*
X33528769Y-84505114D01*
X33528769Y-84505114D01*
G37*
G36*
X33882322Y-84151561D02*
X33387347Y-84646536D01*
X32503464Y-83762653D01*
X32998439Y-83267678D01*
X33882322Y-84151561D01*
X33882322Y-84151561D01*
G37*
G36*
X34235875Y-83798007D02*
X33740900Y-84292982D01*
X32857017Y-83409099D01*
X33351992Y-82914124D01*
X34235875Y-83798007D01*
X34235875Y-83798007D01*
G37*
G36*
X34589429Y-83444454D02*
X34094454Y-83939429D01*
X33210571Y-83055546D01*
X33705546Y-82560571D01*
X34589429Y-83444454D01*
X34589429Y-83444454D01*
G37*
G36*
X33705546Y-82949479D02*
X33210571Y-82454504D01*
X34094454Y-81570621D01*
X34589429Y-82065596D01*
X33705546Y-82949479D01*
X33705546Y-82949479D01*
G37*
G36*
X33351992Y-82595926D02*
X32857017Y-82100951D01*
X33740900Y-81217068D01*
X34235875Y-81712043D01*
X33351992Y-82595926D01*
X33351992Y-82595926D01*
G37*
G36*
X32998439Y-82242372D02*
X32503464Y-81747397D01*
X33387347Y-80863514D01*
X33882322Y-81358489D01*
X32998439Y-82242372D01*
X32998439Y-82242372D01*
G37*
G36*
X32644886Y-81888819D02*
X32149911Y-81393844D01*
X33033794Y-80509961D01*
X33528769Y-81004936D01*
X32644886Y-81888819D01*
X32644886Y-81888819D01*
G37*
G36*
X32291332Y-81535266D02*
X31796357Y-81040291D01*
X32680240Y-80156408D01*
X33175215Y-80651383D01*
X32291332Y-81535266D01*
X32291332Y-81535266D01*
G37*
G36*
X31937779Y-81181712D02*
X31442804Y-80686737D01*
X32326687Y-79802854D01*
X32821662Y-80297829D01*
X31937779Y-81181712D01*
X31937779Y-81181712D01*
G37*
G36*
X31831712Y-80686737D02*
X31336737Y-81181712D01*
X30452854Y-80297829D01*
X30947829Y-79802854D01*
X31831712Y-80686737D01*
X31831712Y-80686737D01*
G37*
G36*
X31478159Y-81040291D02*
X30983184Y-81535266D01*
X30099301Y-80651383D01*
X30594276Y-80156408D01*
X31478159Y-81040291D01*
X31478159Y-81040291D01*
G37*
G36*
X31124605Y-81393844D02*
X30629630Y-81888819D01*
X29745747Y-81004936D01*
X30240722Y-80509961D01*
X31124605Y-81393844D01*
X31124605Y-81393844D01*
G37*
G36*
X30771052Y-81747397D02*
X30276077Y-82242372D01*
X29392194Y-81358489D01*
X29887169Y-80863514D01*
X30771052Y-81747397D01*
X30771052Y-81747397D01*
G37*
G36*
X30417499Y-82100951D02*
X29922524Y-82595926D01*
X29038641Y-81712043D01*
X29533616Y-81217068D01*
X30417499Y-82100951D01*
X30417499Y-82100951D01*
G37*
G36*
X30063945Y-82454504D02*
X29568970Y-82949479D01*
X28685087Y-82065596D01*
X29180062Y-81570621D01*
X30063945Y-82454504D01*
X30063945Y-82454504D01*
G37*
G36*
X31637258Y-84876345D02*
X29515938Y-82755025D01*
X31637258Y-80633705D01*
X33758578Y-82755025D01*
X31637258Y-84876345D01*
X31637258Y-84876345D01*
G37*
G36*
X34189340Y-84925736D02*
X34825736Y-84289340D01*
X35532842Y-84996446D01*
X34896446Y-85632842D01*
X34189340Y-84925736D01*
X34189340Y-84925736D01*
G37*
G36*
X34967158Y-85703554D02*
X35603554Y-85067158D01*
X36310660Y-85774264D01*
X35674264Y-86410660D01*
X34967158Y-85703554D01*
X34967158Y-85703554D01*
G37*
D21*
X37100000Y-87600000D03*
X35600000Y-87600000D03*
D25*
X33900000Y-87150000D03*
X33900000Y-89150000D03*
D13*
X37450000Y-83500000D03*
X36550000Y-83500000D03*
D11*
X42150000Y-88250000D03*
X41050000Y-88250000D03*
D13*
X42100000Y-89600000D03*
X40800000Y-89600000D03*
X41450000Y-89600000D03*
X40800000Y-91600000D03*
X41450000Y-91600000D03*
X42100000Y-91600000D03*
D14*
X41500000Y-90600000D03*
D22*
X43950000Y-89650000D03*
X45950000Y-89650000D03*
D11*
X42700000Y-82100000D03*
X41600000Y-82100000D03*
D13*
X46100000Y-80300000D03*
X45200000Y-80300000D03*
D12*
X48000000Y-81000000D03*
X48000000Y-82100000D03*
D21*
X46750000Y-81900000D03*
X45250000Y-81900000D03*
D12*
X44000000Y-81000000D03*
X44000000Y-82100000D03*
X48000000Y-83500000D03*
X48000000Y-84600000D03*
D13*
X50050000Y-82100000D03*
X49150000Y-82100000D03*
D12*
X51200000Y-82250000D03*
X51200000Y-83350000D03*
D13*
X50050000Y-83500000D03*
X49150000Y-83500000D03*
D11*
X49900000Y-88200000D03*
X51000000Y-88200000D03*
D12*
X51200000Y-85300000D03*
X51200000Y-86400000D03*
X49900000Y-85800000D03*
X49900000Y-86900000D03*
X48600000Y-86300000D03*
X48600000Y-87400000D03*
D13*
X46100000Y-85300000D03*
X45200000Y-85300000D03*
D21*
X45250000Y-83700000D03*
X46750000Y-83700000D03*
D12*
X44000000Y-83500000D03*
X44000000Y-84600000D03*
D11*
X42700000Y-83500000D03*
X41600000Y-83500000D03*
D25*
X39000000Y-91850000D03*
X39000000Y-93850000D03*
D10*
G36*
X30274264Y-115839340D02*
X30910660Y-116475736D01*
X30203554Y-117182842D01*
X29567158Y-116546446D01*
X30274264Y-115839340D01*
X30274264Y-115839340D01*
G37*
G36*
X29496446Y-116617158D02*
X30132842Y-117253554D01*
X29425736Y-117960660D01*
X28789340Y-117324264D01*
X29496446Y-116617158D01*
X29496446Y-116617158D01*
G37*
G36*
X29180062Y-113839429D02*
X28685087Y-113344454D01*
X29568970Y-112460571D01*
X30063945Y-112955546D01*
X29180062Y-113839429D01*
X29180062Y-113839429D01*
G37*
G36*
X29533616Y-114192982D02*
X29038641Y-113698007D01*
X29922524Y-112814124D01*
X30417499Y-113309099D01*
X29533616Y-114192982D01*
X29533616Y-114192982D01*
G37*
G36*
X29887169Y-114546536D02*
X29392194Y-114051561D01*
X30276077Y-113167678D01*
X30771052Y-113662653D01*
X29887169Y-114546536D01*
X29887169Y-114546536D01*
G37*
G36*
X30240722Y-114900089D02*
X29745747Y-114405114D01*
X30629630Y-113521231D01*
X31124605Y-114016206D01*
X30240722Y-114900089D01*
X30240722Y-114900089D01*
G37*
G36*
X30594276Y-115253642D02*
X30099301Y-114758667D01*
X30983184Y-113874784D01*
X31478159Y-114369759D01*
X30594276Y-115253642D01*
X30594276Y-115253642D01*
G37*
G36*
X30947829Y-115607196D02*
X30452854Y-115112221D01*
X31336737Y-114228338D01*
X31831712Y-114723313D01*
X30947829Y-115607196D01*
X30947829Y-115607196D01*
G37*
G36*
X32821662Y-115112221D02*
X32326687Y-115607196D01*
X31442804Y-114723313D01*
X31937779Y-114228338D01*
X32821662Y-115112221D01*
X32821662Y-115112221D01*
G37*
G36*
X33175215Y-114758667D02*
X32680240Y-115253642D01*
X31796357Y-114369759D01*
X32291332Y-113874784D01*
X33175215Y-114758667D01*
X33175215Y-114758667D01*
G37*
G36*
X33528769Y-114405114D02*
X33033794Y-114900089D01*
X32149911Y-114016206D01*
X32644886Y-113521231D01*
X33528769Y-114405114D01*
X33528769Y-114405114D01*
G37*
G36*
X33882322Y-114051561D02*
X33387347Y-114546536D01*
X32503464Y-113662653D01*
X32998439Y-113167678D01*
X33882322Y-114051561D01*
X33882322Y-114051561D01*
G37*
G36*
X34235875Y-113698007D02*
X33740900Y-114192982D01*
X32857017Y-113309099D01*
X33351992Y-112814124D01*
X34235875Y-113698007D01*
X34235875Y-113698007D01*
G37*
G36*
X34589429Y-113344454D02*
X34094454Y-113839429D01*
X33210571Y-112955546D01*
X33705546Y-112460571D01*
X34589429Y-113344454D01*
X34589429Y-113344454D01*
G37*
G36*
X33705546Y-112849479D02*
X33210571Y-112354504D01*
X34094454Y-111470621D01*
X34589429Y-111965596D01*
X33705546Y-112849479D01*
X33705546Y-112849479D01*
G37*
G36*
X33351992Y-112495926D02*
X32857017Y-112000951D01*
X33740900Y-111117068D01*
X34235875Y-111612043D01*
X33351992Y-112495926D01*
X33351992Y-112495926D01*
G37*
G36*
X32998439Y-112142372D02*
X32503464Y-111647397D01*
X33387347Y-110763514D01*
X33882322Y-111258489D01*
X32998439Y-112142372D01*
X32998439Y-112142372D01*
G37*
G36*
X32644886Y-111788819D02*
X32149911Y-111293844D01*
X33033794Y-110409961D01*
X33528769Y-110904936D01*
X32644886Y-111788819D01*
X32644886Y-111788819D01*
G37*
G36*
X32291332Y-111435266D02*
X31796357Y-110940291D01*
X32680240Y-110056408D01*
X33175215Y-110551383D01*
X32291332Y-111435266D01*
X32291332Y-111435266D01*
G37*
G36*
X31937779Y-111081712D02*
X31442804Y-110586737D01*
X32326687Y-109702854D01*
X32821662Y-110197829D01*
X31937779Y-111081712D01*
X31937779Y-111081712D01*
G37*
G36*
X31831712Y-110586737D02*
X31336737Y-111081712D01*
X30452854Y-110197829D01*
X30947829Y-109702854D01*
X31831712Y-110586737D01*
X31831712Y-110586737D01*
G37*
G36*
X31478159Y-110940291D02*
X30983184Y-111435266D01*
X30099301Y-110551383D01*
X30594276Y-110056408D01*
X31478159Y-110940291D01*
X31478159Y-110940291D01*
G37*
G36*
X31124605Y-111293844D02*
X30629630Y-111788819D01*
X29745747Y-110904936D01*
X30240722Y-110409961D01*
X31124605Y-111293844D01*
X31124605Y-111293844D01*
G37*
G36*
X30771052Y-111647397D02*
X30276077Y-112142372D01*
X29392194Y-111258489D01*
X29887169Y-110763514D01*
X30771052Y-111647397D01*
X30771052Y-111647397D01*
G37*
G36*
X30417499Y-112000951D02*
X29922524Y-112495926D01*
X29038641Y-111612043D01*
X29533616Y-111117068D01*
X30417499Y-112000951D01*
X30417499Y-112000951D01*
G37*
G36*
X30063945Y-112354504D02*
X29568970Y-112849479D01*
X28685087Y-111965596D01*
X29180062Y-111470621D01*
X30063945Y-112354504D01*
X30063945Y-112354504D01*
G37*
G36*
X31637258Y-114776345D02*
X29515938Y-112655025D01*
X31637258Y-110533705D01*
X33758578Y-112655025D01*
X31637258Y-114776345D01*
X31637258Y-114776345D01*
G37*
G36*
X29174264Y-114789340D02*
X29810660Y-115425736D01*
X29103554Y-116132842D01*
X28467158Y-115496446D01*
X29174264Y-114789340D01*
X29174264Y-114789340D01*
G37*
G36*
X28396446Y-115567158D02*
X29032842Y-116203554D01*
X28325736Y-116910660D01*
X27689340Y-116274264D01*
X28396446Y-115567158D01*
X28396446Y-115567158D01*
G37*
G36*
X28024264Y-113639340D02*
X28660660Y-114275736D01*
X27953554Y-114982842D01*
X27317158Y-114346446D01*
X28024264Y-113639340D01*
X28024264Y-113639340D01*
G37*
G36*
X27246446Y-114417158D02*
X27882842Y-115053554D01*
X27175736Y-115760660D01*
X26539340Y-115124264D01*
X27246446Y-114417158D01*
X27246446Y-114417158D01*
G37*
D25*
X33900000Y-117050000D03*
X33900000Y-119050000D03*
D10*
G36*
X31338909Y-106391853D02*
X32258147Y-107311091D01*
X31621751Y-107947487D01*
X30702513Y-107028249D01*
X31338909Y-106391853D01*
X31338909Y-106391853D01*
G37*
G36*
X30278249Y-107452513D02*
X31197487Y-108371751D01*
X30561091Y-109008147D01*
X29641853Y-108088909D01*
X30278249Y-107452513D01*
X30278249Y-107452513D01*
G37*
G36*
X33264645Y-109571751D02*
X32628249Y-108935355D01*
X33335355Y-108228249D01*
X33971751Y-108864645D01*
X33264645Y-109571751D01*
X33264645Y-109571751D01*
G37*
G36*
X34042463Y-108793933D02*
X33406067Y-108157537D01*
X34113173Y-107450431D01*
X34749569Y-108086827D01*
X34042463Y-108793933D01*
X34042463Y-108793933D01*
G37*
G36*
X34375736Y-110660660D02*
X33739340Y-110024264D01*
X34446446Y-109317158D01*
X35082842Y-109953554D01*
X34375736Y-110660660D01*
X34375736Y-110660660D01*
G37*
G36*
X35153554Y-109882842D02*
X34517158Y-109246446D01*
X35224264Y-108539340D01*
X35860660Y-109175736D01*
X35153554Y-109882842D01*
X35153554Y-109882842D01*
G37*
G36*
X36152513Y-110754594D02*
X35445406Y-110047487D01*
X36011091Y-109481802D01*
X36718198Y-110188909D01*
X36152513Y-110754594D01*
X36152513Y-110754594D01*
G37*
G36*
X36788909Y-110118198D02*
X36081802Y-109411091D01*
X36647487Y-108845406D01*
X37354594Y-109552513D01*
X36788909Y-110118198D01*
X36788909Y-110118198D01*
G37*
G36*
X29288909Y-108441853D02*
X30208147Y-109361091D01*
X29571751Y-109997487D01*
X28652513Y-109078249D01*
X29288909Y-108441853D01*
X29288909Y-108441853D01*
G37*
G36*
X28228249Y-109502513D02*
X29147487Y-110421751D01*
X28511091Y-111058147D01*
X27591853Y-110138909D01*
X28228249Y-109502513D01*
X28228249Y-109502513D01*
G37*
D11*
X25200000Y-112150000D03*
X24100000Y-112150000D03*
D13*
X26350000Y-112150000D03*
X27250000Y-112150000D03*
D11*
X22750000Y-112150000D03*
X21650000Y-112150000D03*
D36*
X22500000Y-115500760D03*
X24400000Y-115500760D03*
X23450000Y-113501780D03*
D21*
X37100000Y-117500000D03*
X35600000Y-117500000D03*
D13*
X37450000Y-113400000D03*
X36550000Y-113400000D03*
D20*
X38650000Y-113150000D03*
X38650000Y-112250000D03*
D13*
X37450000Y-112000000D03*
X36550000Y-112000000D03*
D10*
G36*
X34189340Y-114825736D02*
X34825736Y-114189340D01*
X35532842Y-114896446D01*
X34896446Y-115532842D01*
X34189340Y-114825736D01*
X34189340Y-114825736D01*
G37*
G36*
X34967158Y-115603554D02*
X35603554Y-114967158D01*
X36310660Y-115674264D01*
X35674264Y-116310660D01*
X34967158Y-115603554D01*
X34967158Y-115603554D01*
G37*
D37*
X17200000Y-124000000D03*
X17200000Y-121460000D03*
X17200000Y-126540000D03*
X17200000Y-112150000D03*
X17200000Y-109610000D03*
X17200000Y-114690000D03*
X17200000Y-94100000D03*
X17200000Y-91560000D03*
X17200000Y-96640000D03*
D20*
X20400000Y-112150000D03*
X20400000Y-111250000D03*
D36*
X22500000Y-85600760D03*
X24400000Y-85600760D03*
X23450000Y-83601780D03*
D10*
G36*
X28024264Y-83739340D02*
X28660660Y-84375736D01*
X27953554Y-85082842D01*
X27317158Y-84446446D01*
X28024264Y-83739340D01*
X28024264Y-83739340D01*
G37*
G36*
X27246446Y-84517158D02*
X27882842Y-85153554D01*
X27175736Y-85860660D01*
X26539340Y-85224264D01*
X27246446Y-84517158D01*
X27246446Y-84517158D01*
G37*
D20*
X20400000Y-82250000D03*
X20400000Y-81350000D03*
D11*
X22750000Y-82250000D03*
X21650000Y-82250000D03*
D13*
X26350000Y-82250000D03*
X27250000Y-82250000D03*
D11*
X25200000Y-82250000D03*
X24100000Y-82250000D03*
D37*
X17200000Y-82250000D03*
X17200000Y-79710000D03*
X17200000Y-84790000D03*
D15*
X56750000Y-50145000D03*
X56750000Y-50655000D03*
D13*
X53400000Y-49300000D03*
X54300000Y-49300000D03*
D11*
X53925000Y-50700000D03*
X52825000Y-50700000D03*
D20*
X55550000Y-49700000D03*
X55550000Y-48800000D03*
D19*
X59605000Y-58100000D03*
X59095000Y-58100000D03*
X59605000Y-54950000D03*
X59095000Y-54950000D03*
X59605000Y-57050000D03*
X59095000Y-57050000D03*
X59605000Y-56000000D03*
X59095000Y-56000000D03*
X59605000Y-53900000D03*
X59095000Y-53900000D03*
X59605000Y-52850000D03*
X59095000Y-52850000D03*
X59600000Y-50750000D03*
X59090000Y-50750000D03*
X59600000Y-51800000D03*
X59090000Y-51800000D03*
D15*
X57800000Y-50145000D03*
X57800000Y-50655000D03*
X57800000Y-58655000D03*
X57800000Y-58145000D03*
X55700000Y-58655000D03*
X55700000Y-58145000D03*
X54650000Y-58655000D03*
X54650000Y-58145000D03*
X56750000Y-58655000D03*
X56750000Y-58145000D03*
D16*
X52950000Y-52650000D03*
X52950000Y-53150000D03*
X52950000Y-53650000D03*
X52950000Y-54150000D03*
X52950000Y-54650000D03*
X52950000Y-55150000D03*
X52950000Y-55650000D03*
X52950000Y-56150000D03*
D17*
X53600000Y-56800000D03*
X54100000Y-56800000D03*
X54600000Y-56800000D03*
X55100000Y-56800000D03*
X55600000Y-56800000D03*
X56100000Y-56800000D03*
X56600000Y-56800000D03*
X57100000Y-56800000D03*
D16*
X57750000Y-56150000D03*
X57750000Y-55650000D03*
X57750000Y-55150000D03*
X57750000Y-54650000D03*
X57750000Y-54150000D03*
X57750000Y-53650000D03*
X57750000Y-53150000D03*
X57750000Y-52650000D03*
D17*
X57100000Y-52000000D03*
X56600000Y-52000000D03*
X56100000Y-52000000D03*
X55600000Y-52000000D03*
X55100000Y-52000000D03*
X54600000Y-52000000D03*
X54100000Y-52000000D03*
X53600000Y-52000000D03*
D18*
X56212500Y-55262500D03*
X56212500Y-53537500D03*
X54487500Y-55262500D03*
X54487500Y-53537500D03*
D12*
X48000000Y-51100000D03*
X48000000Y-52200000D03*
D13*
X50050000Y-52200000D03*
X49150000Y-52200000D03*
D12*
X48000000Y-53600000D03*
X48000000Y-54700000D03*
X51200000Y-52350000D03*
X51200000Y-53450000D03*
D13*
X50050000Y-53600000D03*
X49150000Y-53600000D03*
D11*
X49900000Y-58300000D03*
X51000000Y-58300000D03*
D12*
X49900000Y-55900000D03*
X49900000Y-57000000D03*
X51200000Y-55400000D03*
X51200000Y-56500000D03*
X48600000Y-56400000D03*
X48600000Y-57500000D03*
D13*
X89750000Y-47200000D03*
X88850000Y-47200000D03*
D21*
X92550000Y-47200000D03*
X91050000Y-47200000D03*
X92550000Y-49300000D03*
X91050000Y-49300000D03*
X78800000Y-68050000D03*
X80300000Y-68050000D03*
D20*
X79950000Y-61250000D03*
X79950000Y-62150000D03*
D11*
X81800000Y-63650000D03*
X80700000Y-63650000D03*
D21*
X78800000Y-65950000D03*
X80300000Y-65950000D03*
D13*
X87050000Y-47300000D03*
X86150000Y-47300000D03*
D15*
X87800000Y-51745000D03*
X87800000Y-52255000D03*
X88900000Y-51745000D03*
X88900000Y-52255000D03*
X86700000Y-51745000D03*
X86700000Y-52255000D03*
X90000000Y-51745000D03*
X90000000Y-52255000D03*
D10*
G36*
X83485822Y-51822721D02*
X84072721Y-51235822D01*
X84553554Y-51716655D01*
X83966655Y-52303554D01*
X83485822Y-51822721D01*
X83485822Y-51822721D01*
G37*
G36*
X83846446Y-52183345D02*
X84433345Y-51596446D01*
X84914178Y-52077279D01*
X84327279Y-52664178D01*
X83846446Y-52183345D01*
X83846446Y-52183345D01*
G37*
D15*
X85600000Y-51745000D03*
X85600000Y-52255000D03*
D19*
X80645000Y-54300000D03*
X81155000Y-54300000D03*
X81200000Y-53050000D03*
X81710000Y-53050000D03*
X80045000Y-57600000D03*
X80555000Y-57600000D03*
X80045000Y-55500000D03*
X80555000Y-55500000D03*
D20*
X90100000Y-66200000D03*
X90100000Y-67100000D03*
D13*
X87650000Y-69500000D03*
X88550000Y-69500000D03*
D20*
X84700000Y-67500000D03*
X84700000Y-66600000D03*
D11*
X88550000Y-64750000D03*
X89650000Y-64750000D03*
D28*
X86350000Y-66150000D03*
X86350000Y-67100000D03*
X86350000Y-68050000D03*
X88550000Y-68050000D03*
X88550000Y-66150000D03*
X88550000Y-67100000D03*
D11*
X84750000Y-64100000D03*
X83650000Y-64100000D03*
D29*
X93650000Y-59550000D03*
X93650000Y-58900000D03*
X93650000Y-58250000D03*
X93650000Y-57600000D03*
X93650000Y-56950000D03*
D30*
X93650000Y-60750000D03*
X93650000Y-55750000D03*
D31*
X96350000Y-61750000D03*
X96350000Y-54750000D03*
D10*
G36*
X82285822Y-52222721D02*
X82872721Y-51635822D01*
X83353554Y-52116655D01*
X82766655Y-52703554D01*
X82285822Y-52222721D01*
X82285822Y-52222721D01*
G37*
G36*
X82646446Y-52583345D02*
X83233345Y-51996446D01*
X83714178Y-52477279D01*
X83127279Y-53064178D01*
X82646446Y-52583345D01*
X82646446Y-52583345D01*
G37*
D12*
X91750000Y-61200000D03*
X91750000Y-60100000D03*
X91500000Y-57000000D03*
X91500000Y-55900000D03*
D10*
G36*
X90725736Y-54710660D02*
X90089340Y-54074264D01*
X90796446Y-53367158D01*
X91432842Y-54003554D01*
X90725736Y-54710660D01*
X90725736Y-54710660D01*
G37*
G36*
X91503554Y-53932842D02*
X90867158Y-53296446D01*
X91574264Y-52589340D01*
X92210660Y-53225736D01*
X91503554Y-53932842D01*
X91503554Y-53932842D01*
G37*
D32*
X86100000Y-58550000D03*
D33*
X89900000Y-61300000D03*
X89900000Y-60800000D03*
X89900000Y-60300000D03*
X89900000Y-59800000D03*
X89900000Y-59300000D03*
X89900000Y-58800000D03*
X89900000Y-58300000D03*
X89900000Y-57800000D03*
X89900000Y-57300000D03*
X89900000Y-56800000D03*
X89900000Y-56300000D03*
X89900000Y-55800000D03*
D34*
X88850000Y-54750000D03*
X88350000Y-54750000D03*
X87850000Y-54750000D03*
X87350000Y-54750000D03*
X86850000Y-54750000D03*
X86350000Y-54750000D03*
X85850000Y-54750000D03*
X85350000Y-54750000D03*
X84850000Y-54750000D03*
X84350000Y-54750000D03*
X83850000Y-54750000D03*
X83350000Y-54750000D03*
D33*
X82300000Y-55800000D03*
X82300000Y-56300000D03*
X82300000Y-56800000D03*
X82300000Y-57300000D03*
X82300000Y-57800000D03*
X82300000Y-58300000D03*
X82300000Y-58800000D03*
X82300000Y-59300000D03*
X82300000Y-59800000D03*
X82300000Y-60300000D03*
X82300000Y-60800000D03*
X82300000Y-61300000D03*
D34*
X83350000Y-62350000D03*
X83850000Y-62350000D03*
X84350000Y-62350000D03*
X84850000Y-62350000D03*
X85350000Y-62350000D03*
X85850000Y-62350000D03*
X86350000Y-62350000D03*
X86850000Y-62350000D03*
X87350000Y-62350000D03*
X87850000Y-62350000D03*
X88350000Y-62350000D03*
X88850000Y-62350000D03*
D20*
X65250000Y-47100000D03*
X65250000Y-46200000D03*
X66800000Y-46200000D03*
X66800000Y-47100000D03*
X69900000Y-46200000D03*
X69900000Y-47100000D03*
X68350000Y-46200000D03*
X68350000Y-47100000D03*
D35*
X63950000Y-49200000D03*
X63950000Y-50000000D03*
X63950000Y-50800000D03*
X63950000Y-51600000D03*
X63950000Y-52400000D03*
X63950000Y-53200000D03*
X63950000Y-54000000D03*
X63950000Y-54800000D03*
X63950000Y-55600000D03*
X63950000Y-56400000D03*
X63950000Y-57200000D03*
X63950000Y-58000000D03*
X63950000Y-58800000D03*
X64750000Y-49200000D03*
X64750000Y-50000000D03*
X64750000Y-50800000D03*
X64750000Y-51600000D03*
X64750000Y-52400000D03*
X64750000Y-53200000D03*
X64750000Y-54000000D03*
X64750000Y-54800000D03*
X64750000Y-55600000D03*
X64750000Y-56400000D03*
X64750000Y-57200000D03*
X64750000Y-58000000D03*
X64750000Y-58800000D03*
X65550000Y-49200000D03*
X65550000Y-50000000D03*
X65550000Y-50800000D03*
X65550000Y-51600000D03*
X65550000Y-52400000D03*
X65550000Y-53200000D03*
X65550000Y-54000000D03*
X65550000Y-54800000D03*
X65550000Y-55600000D03*
X65550000Y-56400000D03*
X65550000Y-57200000D03*
X65550000Y-58000000D03*
X65550000Y-58800000D03*
X66350000Y-49200000D03*
X66350000Y-50000000D03*
X66350000Y-50800000D03*
X66350000Y-51600000D03*
X66350000Y-52400000D03*
X66350000Y-53200000D03*
X66350000Y-54000000D03*
X66350000Y-54800000D03*
X66350000Y-55600000D03*
X66350000Y-56400000D03*
X66350000Y-57200000D03*
X66350000Y-58000000D03*
X66350000Y-58800000D03*
X67150000Y-49200000D03*
X67150000Y-50000000D03*
X67150000Y-50800000D03*
X67150000Y-51600000D03*
X67150000Y-52400000D03*
X67150000Y-53200000D03*
X67150000Y-54000000D03*
X67150000Y-54800000D03*
X67150000Y-55600000D03*
X67150000Y-56400000D03*
X67150000Y-57200000D03*
X67150000Y-58000000D03*
X67150000Y-58800000D03*
X67950000Y-49200000D03*
X67950000Y-50000000D03*
X67950000Y-50800000D03*
X67950000Y-51600000D03*
X67950000Y-52400000D03*
X67950000Y-53200000D03*
X67950000Y-54000000D03*
X67950000Y-54800000D03*
X67950000Y-55600000D03*
X67950000Y-56400000D03*
X67950000Y-57200000D03*
X67950000Y-58000000D03*
X67950000Y-58800000D03*
X68750000Y-49200000D03*
X68750000Y-50000000D03*
X68750000Y-50800000D03*
X68750000Y-51600000D03*
X68750000Y-52400000D03*
X68750000Y-53200000D03*
X68750000Y-54000000D03*
X68750000Y-54800000D03*
X68750000Y-55600000D03*
X68750000Y-56400000D03*
X68750000Y-57200000D03*
X68750000Y-58000000D03*
X68750000Y-58800000D03*
X69550000Y-49200000D03*
X69550000Y-50000000D03*
X69550000Y-50800000D03*
X69550000Y-51600000D03*
X69550000Y-52400000D03*
X69550000Y-53200000D03*
X69550000Y-54000000D03*
X69550000Y-54800000D03*
X69550000Y-55600000D03*
X69550000Y-56400000D03*
X69550000Y-57200000D03*
X69550000Y-58000000D03*
X69550000Y-58800000D03*
X70350000Y-49200000D03*
X70350000Y-50000000D03*
X70350000Y-50800000D03*
X70350000Y-51600000D03*
X70350000Y-52400000D03*
X70350000Y-53200000D03*
X70350000Y-54000000D03*
X70350000Y-54800000D03*
X70350000Y-55600000D03*
X70350000Y-56400000D03*
X70350000Y-57200000D03*
X70350000Y-58000000D03*
X70350000Y-58800000D03*
X71150000Y-49200000D03*
X71150000Y-50000000D03*
X71150000Y-50800000D03*
X71150000Y-51600000D03*
X71150000Y-52400000D03*
X71150000Y-53200000D03*
X71150000Y-54000000D03*
X71150000Y-54800000D03*
X71150000Y-55600000D03*
X71150000Y-56400000D03*
X71150000Y-57200000D03*
X71150000Y-58000000D03*
X71150000Y-58800000D03*
X71950000Y-49200000D03*
X71950000Y-50000000D03*
X71950000Y-50800000D03*
X71950000Y-51600000D03*
X71950000Y-52400000D03*
X71950000Y-53200000D03*
X71950000Y-54000000D03*
X71950000Y-54800000D03*
X71950000Y-55600000D03*
X71950000Y-56400000D03*
X71950000Y-57200000D03*
X71950000Y-58000000D03*
X71950000Y-58800000D03*
X72750000Y-49200000D03*
X72750000Y-50000000D03*
X72750000Y-50800000D03*
X72750000Y-51600000D03*
X72750000Y-52400000D03*
X72750000Y-53200000D03*
X72750000Y-54000000D03*
X72750000Y-54800000D03*
X72750000Y-55600000D03*
X72750000Y-56400000D03*
X72750000Y-57200000D03*
X72750000Y-58000000D03*
X72750000Y-58800000D03*
X73550000Y-49200000D03*
X73550000Y-50000000D03*
X73550000Y-50800000D03*
X73550000Y-51600000D03*
X73550000Y-52400000D03*
X73550000Y-53200000D03*
X73550000Y-54000000D03*
X73550000Y-54800000D03*
X73550000Y-55600000D03*
X73550000Y-56400000D03*
X73550000Y-57200000D03*
X73550000Y-58000000D03*
X73550000Y-58800000D03*
D20*
X63700000Y-46200000D03*
X63700000Y-47100000D03*
D13*
X62350000Y-63300000D03*
X61450000Y-63300000D03*
D20*
X69950000Y-63425000D03*
X69950000Y-62525000D03*
D15*
X63800000Y-63045000D03*
X63800000Y-63555000D03*
D19*
X68345000Y-63425000D03*
X68855000Y-63425000D03*
D13*
X75250000Y-63300000D03*
X76150000Y-63300000D03*
X77600000Y-65950000D03*
X76700000Y-65950000D03*
X77600000Y-68050000D03*
X76700000Y-68050000D03*
D15*
X74000000Y-63045000D03*
X74000000Y-63555000D03*
D26*
X73980000Y-65760000D03*
D27*
X73980000Y-68300000D03*
X71440000Y-65760000D03*
X71440000Y-68300000D03*
X68900000Y-65760000D03*
X68900000Y-68300000D03*
X66360000Y-65760000D03*
X66360000Y-68300000D03*
X63820000Y-65760000D03*
X63820000Y-68300000D03*
D15*
X71400000Y-63045000D03*
X71400000Y-63555000D03*
D11*
X57100000Y-68050000D03*
X58200000Y-68050000D03*
D13*
X58300000Y-64600000D03*
X57000000Y-64600000D03*
X57650000Y-64600000D03*
X57000000Y-66600000D03*
X57650000Y-66600000D03*
X58300000Y-66600000D03*
D14*
X57700000Y-65600000D03*
D12*
X59750000Y-64550000D03*
X59750000Y-65650000D03*
D23*
X52550000Y-61300000D03*
D24*
X50010000Y-61300000D03*
D25*
X39000000Y-61950000D03*
X39000000Y-63950000D03*
D11*
X40800000Y-63050000D03*
X41900000Y-63050000D03*
D21*
X42300000Y-64650000D03*
X40800000Y-64650000D03*
D22*
X43950000Y-59750000D03*
X45950000Y-59750000D03*
D11*
X42150000Y-58350000D03*
X41050000Y-58350000D03*
D13*
X42100000Y-59700000D03*
X40800000Y-59700000D03*
X41450000Y-59700000D03*
X40800000Y-61700000D03*
X41450000Y-61700000D03*
X42100000Y-61700000D03*
D14*
X41500000Y-60700000D03*
D12*
X44000000Y-51100000D03*
X44000000Y-52200000D03*
D21*
X46750000Y-52000000D03*
X45250000Y-52000000D03*
D13*
X46100000Y-50400000D03*
X45200000Y-50400000D03*
D10*
G36*
X36152513Y-50954594D02*
X35445406Y-50247487D01*
X36011091Y-49681802D01*
X36718198Y-50388909D01*
X36152513Y-50954594D01*
X36152513Y-50954594D01*
G37*
G36*
X36788909Y-50318198D02*
X36081802Y-49611091D01*
X36647487Y-49045406D01*
X37354594Y-49752513D01*
X36788909Y-50318198D01*
X36788909Y-50318198D01*
G37*
D13*
X37450000Y-52200000D03*
X36550000Y-52200000D03*
D10*
G36*
X38310660Y-48824264D02*
X37674264Y-49460660D01*
X36967158Y-48753554D01*
X37603554Y-48117158D01*
X38310660Y-48824264D01*
X38310660Y-48824264D01*
G37*
G36*
X37532842Y-48046446D02*
X36896446Y-48682842D01*
X36189340Y-47975736D01*
X36825736Y-47339340D01*
X37532842Y-48046446D01*
X37532842Y-48046446D01*
G37*
D20*
X38650000Y-53350000D03*
X38650000Y-52450000D03*
D13*
X37450000Y-53600000D03*
X36550000Y-53600000D03*
D21*
X37100000Y-57700000D03*
X35600000Y-57700000D03*
D25*
X33900000Y-57250000D03*
X33900000Y-59250000D03*
D12*
X44000000Y-53600000D03*
X44000000Y-54700000D03*
D21*
X45250000Y-53800000D03*
X46750000Y-53800000D03*
D13*
X46100000Y-55400000D03*
X45200000Y-55400000D03*
D20*
X40300000Y-53600000D03*
X40300000Y-54500000D03*
D11*
X42700000Y-53600000D03*
X41600000Y-53600000D03*
X42700000Y-52200000D03*
X41600000Y-52200000D03*
D20*
X40300000Y-51300000D03*
X40300000Y-52200000D03*
D10*
G36*
X34375736Y-50860660D02*
X33739340Y-50224264D01*
X34446446Y-49517158D01*
X35082842Y-50153554D01*
X34375736Y-50860660D01*
X34375736Y-50860660D01*
G37*
G36*
X35153554Y-50082842D02*
X34517158Y-49446446D01*
X35224264Y-48739340D01*
X35860660Y-49375736D01*
X35153554Y-50082842D01*
X35153554Y-50082842D01*
G37*
G36*
X29180062Y-54039429D02*
X28685087Y-53544454D01*
X29568970Y-52660571D01*
X30063945Y-53155546D01*
X29180062Y-54039429D01*
X29180062Y-54039429D01*
G37*
G36*
X29533616Y-54392982D02*
X29038641Y-53898007D01*
X29922524Y-53014124D01*
X30417499Y-53509099D01*
X29533616Y-54392982D01*
X29533616Y-54392982D01*
G37*
G36*
X29887169Y-54746536D02*
X29392194Y-54251561D01*
X30276077Y-53367678D01*
X30771052Y-53862653D01*
X29887169Y-54746536D01*
X29887169Y-54746536D01*
G37*
G36*
X30240722Y-55100089D02*
X29745747Y-54605114D01*
X30629630Y-53721231D01*
X31124605Y-54216206D01*
X30240722Y-55100089D01*
X30240722Y-55100089D01*
G37*
G36*
X30594276Y-55453642D02*
X30099301Y-54958667D01*
X30983184Y-54074784D01*
X31478159Y-54569759D01*
X30594276Y-55453642D01*
X30594276Y-55453642D01*
G37*
G36*
X30947829Y-55807196D02*
X30452854Y-55312221D01*
X31336737Y-54428338D01*
X31831712Y-54923313D01*
X30947829Y-55807196D01*
X30947829Y-55807196D01*
G37*
G36*
X32821662Y-55312221D02*
X32326687Y-55807196D01*
X31442804Y-54923313D01*
X31937779Y-54428338D01*
X32821662Y-55312221D01*
X32821662Y-55312221D01*
G37*
G36*
X33175215Y-54958667D02*
X32680240Y-55453642D01*
X31796357Y-54569759D01*
X32291332Y-54074784D01*
X33175215Y-54958667D01*
X33175215Y-54958667D01*
G37*
G36*
X33528769Y-54605114D02*
X33033794Y-55100089D01*
X32149911Y-54216206D01*
X32644886Y-53721231D01*
X33528769Y-54605114D01*
X33528769Y-54605114D01*
G37*
G36*
X33882322Y-54251561D02*
X33387347Y-54746536D01*
X32503464Y-53862653D01*
X32998439Y-53367678D01*
X33882322Y-54251561D01*
X33882322Y-54251561D01*
G37*
G36*
X34235875Y-53898007D02*
X33740900Y-54392982D01*
X32857017Y-53509099D01*
X33351992Y-53014124D01*
X34235875Y-53898007D01*
X34235875Y-53898007D01*
G37*
G36*
X34589429Y-53544454D02*
X34094454Y-54039429D01*
X33210571Y-53155546D01*
X33705546Y-52660571D01*
X34589429Y-53544454D01*
X34589429Y-53544454D01*
G37*
G36*
X33705546Y-53049479D02*
X33210571Y-52554504D01*
X34094454Y-51670621D01*
X34589429Y-52165596D01*
X33705546Y-53049479D01*
X33705546Y-53049479D01*
G37*
G36*
X33351992Y-52695926D02*
X32857017Y-52200951D01*
X33740900Y-51317068D01*
X34235875Y-51812043D01*
X33351992Y-52695926D01*
X33351992Y-52695926D01*
G37*
G36*
X32998439Y-52342372D02*
X32503464Y-51847397D01*
X33387347Y-50963514D01*
X33882322Y-51458489D01*
X32998439Y-52342372D01*
X32998439Y-52342372D01*
G37*
G36*
X32644886Y-51988819D02*
X32149911Y-51493844D01*
X33033794Y-50609961D01*
X33528769Y-51104936D01*
X32644886Y-51988819D01*
X32644886Y-51988819D01*
G37*
G36*
X32291332Y-51635266D02*
X31796357Y-51140291D01*
X32680240Y-50256408D01*
X33175215Y-50751383D01*
X32291332Y-51635266D01*
X32291332Y-51635266D01*
G37*
G36*
X31937779Y-51281712D02*
X31442804Y-50786737D01*
X32326687Y-49902854D01*
X32821662Y-50397829D01*
X31937779Y-51281712D01*
X31937779Y-51281712D01*
G37*
G36*
X31831712Y-50786737D02*
X31336737Y-51281712D01*
X30452854Y-50397829D01*
X30947829Y-49902854D01*
X31831712Y-50786737D01*
X31831712Y-50786737D01*
G37*
G36*
X31478159Y-51140291D02*
X30983184Y-51635266D01*
X30099301Y-50751383D01*
X30594276Y-50256408D01*
X31478159Y-51140291D01*
X31478159Y-51140291D01*
G37*
G36*
X31124605Y-51493844D02*
X30629630Y-51988819D01*
X29745747Y-51104936D01*
X30240722Y-50609961D01*
X31124605Y-51493844D01*
X31124605Y-51493844D01*
G37*
G36*
X30771052Y-51847397D02*
X30276077Y-52342372D01*
X29392194Y-51458489D01*
X29887169Y-50963514D01*
X30771052Y-51847397D01*
X30771052Y-51847397D01*
G37*
G36*
X30417499Y-52200951D02*
X29922524Y-52695926D01*
X29038641Y-51812043D01*
X29533616Y-51317068D01*
X30417499Y-52200951D01*
X30417499Y-52200951D01*
G37*
G36*
X30063945Y-52554504D02*
X29568970Y-53049479D01*
X28685087Y-52165596D01*
X29180062Y-51670621D01*
X30063945Y-52554504D01*
X30063945Y-52554504D01*
G37*
G36*
X31637258Y-54976345D02*
X29515938Y-52855025D01*
X31637258Y-50733705D01*
X33758578Y-52855025D01*
X31637258Y-54976345D01*
X31637258Y-54976345D01*
G37*
G36*
X34189340Y-55025736D02*
X34825736Y-54389340D01*
X35532842Y-55096446D01*
X34896446Y-55732842D01*
X34189340Y-55025736D01*
X34189340Y-55025736D01*
G37*
G36*
X34967158Y-55803554D02*
X35603554Y-55167158D01*
X36310660Y-55874264D01*
X35674264Y-56510660D01*
X34967158Y-55803554D01*
X34967158Y-55803554D01*
G37*
G36*
X31338909Y-46591853D02*
X32258147Y-47511091D01*
X31621751Y-48147487D01*
X30702513Y-47228249D01*
X31338909Y-46591853D01*
X31338909Y-46591853D01*
G37*
G36*
X30278249Y-47652513D02*
X31197487Y-48571751D01*
X30561091Y-49208147D01*
X29641853Y-48288909D01*
X30278249Y-47652513D01*
X30278249Y-47652513D01*
G37*
G36*
X29288909Y-48641853D02*
X30208147Y-49561091D01*
X29571751Y-50197487D01*
X28652513Y-49278249D01*
X29288909Y-48641853D01*
X29288909Y-48641853D01*
G37*
G36*
X28228249Y-49702513D02*
X29147487Y-50621751D01*
X28511091Y-51258147D01*
X27591853Y-50338909D01*
X28228249Y-49702513D01*
X28228249Y-49702513D01*
G37*
G36*
X33264645Y-49771751D02*
X32628249Y-49135355D01*
X33335355Y-48428249D01*
X33971751Y-49064645D01*
X33264645Y-49771751D01*
X33264645Y-49771751D01*
G37*
G36*
X34042463Y-48993933D02*
X33406067Y-48357537D01*
X34113173Y-47650431D01*
X34749569Y-48286827D01*
X34042463Y-48993933D01*
X34042463Y-48993933D01*
G37*
D13*
X26350000Y-52350000D03*
X27250000Y-52350000D03*
D10*
G36*
X29174264Y-54989340D02*
X29810660Y-55625736D01*
X29103554Y-56332842D01*
X28467158Y-55696446D01*
X29174264Y-54989340D01*
X29174264Y-54989340D01*
G37*
G36*
X28396446Y-55767158D02*
X29032842Y-56403554D01*
X28325736Y-57110660D01*
X27689340Y-56474264D01*
X28396446Y-55767158D01*
X28396446Y-55767158D01*
G37*
G36*
X28024264Y-53839340D02*
X28660660Y-54475736D01*
X27953554Y-55182842D01*
X27317158Y-54546446D01*
X28024264Y-53839340D01*
X28024264Y-53839340D01*
G37*
G36*
X27246446Y-54617158D02*
X27882842Y-55253554D01*
X27175736Y-55960660D01*
X26539340Y-55324264D01*
X27246446Y-54617158D01*
X27246446Y-54617158D01*
G37*
G36*
X30274264Y-56039340D02*
X30910660Y-56675736D01*
X30203554Y-57382842D01*
X29567158Y-56746446D01*
X30274264Y-56039340D01*
X30274264Y-56039340D01*
G37*
G36*
X29496446Y-56817158D02*
X30132842Y-57453554D01*
X29425736Y-58160660D01*
X28789340Y-57524264D01*
X29496446Y-56817158D01*
X29496446Y-56817158D01*
G37*
D37*
X17200000Y-52350000D03*
X17200000Y-49810000D03*
X17200000Y-54890000D03*
D11*
X22750000Y-52350000D03*
X21650000Y-52350000D03*
X25200000Y-52350000D03*
X24100000Y-52350000D03*
D20*
X20400000Y-52350000D03*
X20400000Y-51450000D03*
D36*
X22500000Y-55700760D03*
X24400000Y-55700760D03*
X23450000Y-53701780D03*
D37*
X17200000Y-64200000D03*
X17200000Y-61660000D03*
X17200000Y-66740000D03*
D23*
X52550000Y-31400000D03*
D24*
X50010000Y-31400000D03*
D11*
X25200000Y-22450000D03*
X24100000Y-22450000D03*
D10*
G36*
X29174264Y-25089340D02*
X29810660Y-25725736D01*
X29103554Y-26432842D01*
X28467158Y-25796446D01*
X29174264Y-25089340D01*
X29174264Y-25089340D01*
G37*
G36*
X28396446Y-25867158D02*
X29032842Y-26503554D01*
X28325736Y-27210660D01*
X27689340Y-26574264D01*
X28396446Y-25867158D01*
X28396446Y-25867158D01*
G37*
G36*
X30274264Y-26139340D02*
X30910660Y-26775736D01*
X30203554Y-27482842D01*
X29567158Y-26846446D01*
X30274264Y-26139340D01*
X30274264Y-26139340D01*
G37*
G36*
X29496446Y-26917158D02*
X30132842Y-27553554D01*
X29425736Y-28260660D01*
X28789340Y-27624264D01*
X29496446Y-26917158D01*
X29496446Y-26917158D01*
G37*
G36*
X28024264Y-23939340D02*
X28660660Y-24575736D01*
X27953554Y-25282842D01*
X27317158Y-24646446D01*
X28024264Y-23939340D01*
X28024264Y-23939340D01*
G37*
G36*
X27246446Y-24717158D02*
X27882842Y-25353554D01*
X27175736Y-26060660D01*
X26539340Y-25424264D01*
X27246446Y-24717158D01*
X27246446Y-24717158D01*
G37*
G36*
X34189340Y-25125736D02*
X34825736Y-24489340D01*
X35532842Y-25196446D01*
X34896446Y-25832842D01*
X34189340Y-25125736D01*
X34189340Y-25125736D01*
G37*
G36*
X34967158Y-25903554D02*
X35603554Y-25267158D01*
X36310660Y-25974264D01*
X35674264Y-26610660D01*
X34967158Y-25903554D01*
X34967158Y-25903554D01*
G37*
G36*
X33264645Y-19871751D02*
X32628249Y-19235355D01*
X33335355Y-18528249D01*
X33971751Y-19164645D01*
X33264645Y-19871751D01*
X33264645Y-19871751D01*
G37*
G36*
X34042463Y-19093933D02*
X33406067Y-18457537D01*
X34113173Y-17750431D01*
X34749569Y-18386827D01*
X34042463Y-19093933D01*
X34042463Y-19093933D01*
G37*
G36*
X38310660Y-18924264D02*
X37674264Y-19560660D01*
X36967158Y-18853554D01*
X37603554Y-18217158D01*
X38310660Y-18924264D01*
X38310660Y-18924264D01*
G37*
G36*
X37532842Y-18146446D02*
X36896446Y-18782842D01*
X36189340Y-18075736D01*
X36825736Y-17439340D01*
X37532842Y-18146446D01*
X37532842Y-18146446D01*
G37*
G36*
X34375736Y-20960660D02*
X33739340Y-20324264D01*
X34446446Y-19617158D01*
X35082842Y-20253554D01*
X34375736Y-20960660D01*
X34375736Y-20960660D01*
G37*
G36*
X35153554Y-20182842D02*
X34517158Y-19546446D01*
X35224264Y-18839340D01*
X35860660Y-19475736D01*
X35153554Y-20182842D01*
X35153554Y-20182842D01*
G37*
D11*
X42700000Y-22300000D03*
X41600000Y-22300000D03*
X42700000Y-23700000D03*
X41600000Y-23700000D03*
D12*
X44000000Y-21200000D03*
X44000000Y-22300000D03*
X44000000Y-23700000D03*
X44000000Y-24800000D03*
X48000000Y-21200000D03*
X48000000Y-22300000D03*
X48000000Y-23700000D03*
X48000000Y-24800000D03*
X51200000Y-22450000D03*
X51200000Y-23550000D03*
X48600000Y-26500000D03*
X48600000Y-27600000D03*
D11*
X49900000Y-28400000D03*
X51000000Y-28400000D03*
D12*
X49900000Y-26000000D03*
X49900000Y-27100000D03*
D11*
X53925000Y-20800000D03*
X52825000Y-20800000D03*
D12*
X51200000Y-25500000D03*
X51200000Y-26600000D03*
D11*
X88550000Y-34850000D03*
X89650000Y-34850000D03*
X84750000Y-34200000D03*
X83650000Y-34200000D03*
X81800000Y-33750000D03*
X80700000Y-33750000D03*
D10*
G36*
X90725736Y-24810660D02*
X90089340Y-24174264D01*
X90796446Y-23467158D01*
X91432842Y-24103554D01*
X90725736Y-24810660D01*
X90725736Y-24810660D01*
G37*
G36*
X91503554Y-24032842D02*
X90867158Y-23396446D01*
X91574264Y-22689340D01*
X92210660Y-23325736D01*
X91503554Y-24032842D01*
X91503554Y-24032842D01*
G37*
D12*
X91750000Y-31300000D03*
X91750000Y-30200000D03*
X91500000Y-27100000D03*
X91500000Y-26000000D03*
D11*
X57100000Y-38150000D03*
X58200000Y-38150000D03*
D12*
X59750000Y-34650000D03*
X59750000Y-35750000D03*
D25*
X39000000Y-32050000D03*
X39000000Y-34050000D03*
D11*
X40800000Y-33150000D03*
X41900000Y-33150000D03*
X42150000Y-28450000D03*
X41050000Y-28450000D03*
D22*
X43950000Y-29850000D03*
X45950000Y-29850000D03*
D37*
X17200000Y-22450000D03*
X17200000Y-19910000D03*
X17200000Y-24990000D03*
D10*
G36*
X31338909Y-16691853D02*
X32258147Y-17611091D01*
X31621751Y-18247487D01*
X30702513Y-17328249D01*
X31338909Y-16691853D01*
X31338909Y-16691853D01*
G37*
G36*
X30278249Y-17752513D02*
X31197487Y-18671751D01*
X30561091Y-19308147D01*
X29641853Y-18388909D01*
X30278249Y-17752513D01*
X30278249Y-17752513D01*
G37*
D13*
X26350000Y-22450000D03*
X27250000Y-22450000D03*
D10*
G36*
X29288909Y-18741853D02*
X30208147Y-19661091D01*
X29571751Y-20297487D01*
X28652513Y-19378249D01*
X29288909Y-18741853D01*
X29288909Y-18741853D01*
G37*
G36*
X28228249Y-19802513D02*
X29147487Y-20721751D01*
X28511091Y-21358147D01*
X27591853Y-20438909D01*
X28228249Y-19802513D01*
X28228249Y-19802513D01*
G37*
D21*
X46750000Y-22100000D03*
X45250000Y-22100000D03*
X45250000Y-23900000D03*
X46750000Y-23900000D03*
D29*
X93650000Y-29650000D03*
X93650000Y-29000000D03*
X93650000Y-28350000D03*
X93650000Y-27700000D03*
X93650000Y-27050000D03*
D30*
X93650000Y-30850000D03*
X93650000Y-25850000D03*
D31*
X96350000Y-31850000D03*
X96350000Y-24850000D03*
D26*
X73980000Y-35860000D03*
D27*
X73980000Y-38400000D03*
X71440000Y-35860000D03*
X71440000Y-38400000D03*
X68900000Y-35860000D03*
X68900000Y-38400000D03*
X66360000Y-35860000D03*
X66360000Y-38400000D03*
X63820000Y-35860000D03*
X63820000Y-38400000D03*
D10*
G36*
X36152513Y-21054594D02*
X35445406Y-20347487D01*
X36011091Y-19781802D01*
X36718198Y-20488909D01*
X36152513Y-21054594D01*
X36152513Y-21054594D01*
G37*
G36*
X36788909Y-20418198D02*
X36081802Y-19711091D01*
X36647487Y-19145406D01*
X37354594Y-19852513D01*
X36788909Y-20418198D01*
X36788909Y-20418198D01*
G37*
D13*
X46100000Y-20500000D03*
X45200000Y-20500000D03*
X46100000Y-25500000D03*
X45200000Y-25500000D03*
X50050000Y-22300000D03*
X49150000Y-22300000D03*
X50050000Y-23700000D03*
X49150000Y-23700000D03*
X53400000Y-19400000D03*
X54300000Y-19400000D03*
D20*
X55550000Y-19800000D03*
X55550000Y-18900000D03*
D13*
X37450000Y-23700000D03*
X36550000Y-23700000D03*
X37450000Y-22300000D03*
X36550000Y-22300000D03*
D20*
X38650000Y-23450000D03*
X38650000Y-22550000D03*
D15*
X54650000Y-28755000D03*
X54650000Y-28245000D03*
X55700000Y-28755000D03*
X55700000Y-28245000D03*
X56750000Y-28755000D03*
X56750000Y-28245000D03*
X57800000Y-28755000D03*
X57800000Y-28245000D03*
D19*
X59605000Y-28200000D03*
X59095000Y-28200000D03*
X59605000Y-27150000D03*
X59095000Y-27150000D03*
X59605000Y-26100000D03*
X59095000Y-26100000D03*
X59605000Y-25050000D03*
X59095000Y-25050000D03*
X59605000Y-24000000D03*
X59095000Y-24000000D03*
X59605000Y-22950000D03*
X59095000Y-22950000D03*
X59600000Y-21900000D03*
X59090000Y-21900000D03*
X59600000Y-20850000D03*
X59090000Y-20850000D03*
D15*
X57800000Y-20245000D03*
X57800000Y-20755000D03*
X56750000Y-20245000D03*
X56750000Y-20755000D03*
D13*
X87650000Y-39600000D03*
X88550000Y-39600000D03*
D20*
X84700000Y-37600000D03*
X84700000Y-36700000D03*
X90100000Y-36300000D03*
X90100000Y-37200000D03*
X79950000Y-31350000D03*
X79950000Y-32250000D03*
D15*
X90000000Y-21845000D03*
X90000000Y-22355000D03*
X88900000Y-21845000D03*
X88900000Y-22355000D03*
X87800000Y-21845000D03*
X87800000Y-22355000D03*
X86700000Y-21845000D03*
X86700000Y-22355000D03*
X85600000Y-21845000D03*
X85600000Y-22355000D03*
D10*
G36*
X83485822Y-21922721D02*
X84072721Y-21335822D01*
X84553554Y-21816655D01*
X83966655Y-22403554D01*
X83485822Y-21922721D01*
X83485822Y-21922721D01*
G37*
G36*
X83846446Y-22283345D02*
X84433345Y-21696446D01*
X84914178Y-22177279D01*
X84327279Y-22764178D01*
X83846446Y-22283345D01*
X83846446Y-22283345D01*
G37*
G36*
X82285822Y-22322721D02*
X82872721Y-21735822D01*
X83353554Y-22216655D01*
X82766655Y-22803554D01*
X82285822Y-22322721D01*
X82285822Y-22322721D01*
G37*
G36*
X82646446Y-22683345D02*
X83233345Y-22096446D01*
X83714178Y-22577279D01*
X83127279Y-23164178D01*
X82646446Y-22683345D01*
X82646446Y-22683345D01*
G37*
D19*
X81200000Y-23150000D03*
X81710000Y-23150000D03*
X80645000Y-24400000D03*
X81155000Y-24400000D03*
X80045000Y-25600000D03*
X80555000Y-25600000D03*
X80045000Y-27700000D03*
X80555000Y-27700000D03*
D13*
X77600000Y-38150000D03*
X76700000Y-38150000D03*
X77600000Y-36050000D03*
X76700000Y-36050000D03*
D15*
X71400000Y-33145000D03*
X71400000Y-33655000D03*
X63800000Y-33145000D03*
X63800000Y-33655000D03*
X74000000Y-33145000D03*
X74000000Y-33655000D03*
D19*
X68345000Y-33525000D03*
X68855000Y-33525000D03*
D20*
X65250000Y-17200000D03*
X65250000Y-16300000D03*
X66800000Y-16300000D03*
X66800000Y-17200000D03*
X63700000Y-16300000D03*
X63700000Y-17200000D03*
X68350000Y-16300000D03*
X68350000Y-17200000D03*
X69900000Y-16300000D03*
X69900000Y-17200000D03*
D13*
X75250000Y-33400000D03*
X76150000Y-33400000D03*
D20*
X69950000Y-33525000D03*
X69950000Y-32625000D03*
D13*
X62350000Y-33400000D03*
X61450000Y-33400000D03*
D10*
G36*
X29180062Y-24139429D02*
X28685087Y-23644454D01*
X29568970Y-22760571D01*
X30063945Y-23255546D01*
X29180062Y-24139429D01*
X29180062Y-24139429D01*
G37*
G36*
X29533616Y-24492982D02*
X29038641Y-23998007D01*
X29922524Y-23114124D01*
X30417499Y-23609099D01*
X29533616Y-24492982D01*
X29533616Y-24492982D01*
G37*
G36*
X29887169Y-24846536D02*
X29392194Y-24351561D01*
X30276077Y-23467678D01*
X30771052Y-23962653D01*
X29887169Y-24846536D01*
X29887169Y-24846536D01*
G37*
G36*
X30240722Y-25200089D02*
X29745747Y-24705114D01*
X30629630Y-23821231D01*
X31124605Y-24316206D01*
X30240722Y-25200089D01*
X30240722Y-25200089D01*
G37*
G36*
X30594276Y-25553642D02*
X30099301Y-25058667D01*
X30983184Y-24174784D01*
X31478159Y-24669759D01*
X30594276Y-25553642D01*
X30594276Y-25553642D01*
G37*
G36*
X30947829Y-25907196D02*
X30452854Y-25412221D01*
X31336737Y-24528338D01*
X31831712Y-25023313D01*
X30947829Y-25907196D01*
X30947829Y-25907196D01*
G37*
G36*
X32821662Y-25412221D02*
X32326687Y-25907196D01*
X31442804Y-25023313D01*
X31937779Y-24528338D01*
X32821662Y-25412221D01*
X32821662Y-25412221D01*
G37*
G36*
X33175215Y-25058667D02*
X32680240Y-25553642D01*
X31796357Y-24669759D01*
X32291332Y-24174784D01*
X33175215Y-25058667D01*
X33175215Y-25058667D01*
G37*
G36*
X33528769Y-24705114D02*
X33033794Y-25200089D01*
X32149911Y-24316206D01*
X32644886Y-23821231D01*
X33528769Y-24705114D01*
X33528769Y-24705114D01*
G37*
G36*
X33882322Y-24351561D02*
X33387347Y-24846536D01*
X32503464Y-23962653D01*
X32998439Y-23467678D01*
X33882322Y-24351561D01*
X33882322Y-24351561D01*
G37*
G36*
X34235875Y-23998007D02*
X33740900Y-24492982D01*
X32857017Y-23609099D01*
X33351992Y-23114124D01*
X34235875Y-23998007D01*
X34235875Y-23998007D01*
G37*
G36*
X34589429Y-23644454D02*
X34094454Y-24139429D01*
X33210571Y-23255546D01*
X33705546Y-22760571D01*
X34589429Y-23644454D01*
X34589429Y-23644454D01*
G37*
G36*
X33705546Y-23149479D02*
X33210571Y-22654504D01*
X34094454Y-21770621D01*
X34589429Y-22265596D01*
X33705546Y-23149479D01*
X33705546Y-23149479D01*
G37*
G36*
X33351992Y-22795926D02*
X32857017Y-22300951D01*
X33740900Y-21417068D01*
X34235875Y-21912043D01*
X33351992Y-22795926D01*
X33351992Y-22795926D01*
G37*
G36*
X32998439Y-22442372D02*
X32503464Y-21947397D01*
X33387347Y-21063514D01*
X33882322Y-21558489D01*
X32998439Y-22442372D01*
X32998439Y-22442372D01*
G37*
G36*
X32644886Y-22088819D02*
X32149911Y-21593844D01*
X33033794Y-20709961D01*
X33528769Y-21204936D01*
X32644886Y-22088819D01*
X32644886Y-22088819D01*
G37*
G36*
X32291332Y-21735266D02*
X31796357Y-21240291D01*
X32680240Y-20356408D01*
X33175215Y-20851383D01*
X32291332Y-21735266D01*
X32291332Y-21735266D01*
G37*
G36*
X31937779Y-21381712D02*
X31442804Y-20886737D01*
X32326687Y-20002854D01*
X32821662Y-20497829D01*
X31937779Y-21381712D01*
X31937779Y-21381712D01*
G37*
G36*
X31831712Y-20886737D02*
X31336737Y-21381712D01*
X30452854Y-20497829D01*
X30947829Y-20002854D01*
X31831712Y-20886737D01*
X31831712Y-20886737D01*
G37*
G36*
X31478159Y-21240291D02*
X30983184Y-21735266D01*
X30099301Y-20851383D01*
X30594276Y-20356408D01*
X31478159Y-21240291D01*
X31478159Y-21240291D01*
G37*
G36*
X31124605Y-21593844D02*
X30629630Y-22088819D01*
X29745747Y-21204936D01*
X30240722Y-20709961D01*
X31124605Y-21593844D01*
X31124605Y-21593844D01*
G37*
G36*
X30771052Y-21947397D02*
X30276077Y-22442372D01*
X29392194Y-21558489D01*
X29887169Y-21063514D01*
X30771052Y-21947397D01*
X30771052Y-21947397D01*
G37*
G36*
X30417499Y-22300951D02*
X29922524Y-22795926D01*
X29038641Y-21912043D01*
X29533616Y-21417068D01*
X30417499Y-22300951D01*
X30417499Y-22300951D01*
G37*
G36*
X30063945Y-22654504D02*
X29568970Y-23149479D01*
X28685087Y-22265596D01*
X29180062Y-21770621D01*
X30063945Y-22654504D01*
X30063945Y-22654504D01*
G37*
G36*
X31637258Y-25076345D02*
X29515938Y-22955025D01*
X31637258Y-20833705D01*
X33758578Y-22955025D01*
X31637258Y-25076345D01*
X31637258Y-25076345D01*
G37*
D16*
X52950000Y-22750000D03*
X52950000Y-23250000D03*
X52950000Y-23750000D03*
X52950000Y-24250000D03*
X52950000Y-24750000D03*
X52950000Y-25250000D03*
X52950000Y-25750000D03*
X52950000Y-26250000D03*
D17*
X53600000Y-26900000D03*
X54100000Y-26900000D03*
X54600000Y-26900000D03*
X55100000Y-26900000D03*
X55600000Y-26900000D03*
X56100000Y-26900000D03*
X56600000Y-26900000D03*
X57100000Y-26900000D03*
D16*
X57750000Y-26250000D03*
X57750000Y-25750000D03*
X57750000Y-25250000D03*
X57750000Y-24750000D03*
X57750000Y-24250000D03*
X57750000Y-23750000D03*
X57750000Y-23250000D03*
X57750000Y-22750000D03*
D17*
X57100000Y-22100000D03*
X56600000Y-22100000D03*
X56100000Y-22100000D03*
X55600000Y-22100000D03*
X55100000Y-22100000D03*
X54600000Y-22100000D03*
X54100000Y-22100000D03*
X53600000Y-22100000D03*
D18*
X56212500Y-25362500D03*
X56212500Y-23637500D03*
X54487500Y-25362500D03*
X54487500Y-23637500D03*
D28*
X86350000Y-36250000D03*
X86350000Y-37200000D03*
X86350000Y-38150000D03*
X88550000Y-38150000D03*
X88550000Y-36250000D03*
X88550000Y-37200000D03*
D32*
X86100000Y-28650000D03*
D33*
X89900000Y-31400000D03*
X89900000Y-30900000D03*
X89900000Y-30400000D03*
X89900000Y-29900000D03*
X89900000Y-29400000D03*
X89900000Y-28900000D03*
X89900000Y-28400000D03*
X89900000Y-27900000D03*
X89900000Y-27400000D03*
X89900000Y-26900000D03*
X89900000Y-26400000D03*
X89900000Y-25900000D03*
D34*
X88850000Y-24850000D03*
X88350000Y-24850000D03*
X87850000Y-24850000D03*
X87350000Y-24850000D03*
X86850000Y-24850000D03*
X86350000Y-24850000D03*
X85850000Y-24850000D03*
X85350000Y-24850000D03*
X84850000Y-24850000D03*
X84350000Y-24850000D03*
X83850000Y-24850000D03*
X83350000Y-24850000D03*
D33*
X82300000Y-25900000D03*
X82300000Y-26400000D03*
X82300000Y-26900000D03*
X82300000Y-27400000D03*
X82300000Y-27900000D03*
X82300000Y-28400000D03*
X82300000Y-28900000D03*
X82300000Y-29400000D03*
X82300000Y-29900000D03*
X82300000Y-30400000D03*
X82300000Y-30900000D03*
X82300000Y-31400000D03*
D34*
X83350000Y-32450000D03*
X83850000Y-32450000D03*
X84350000Y-32450000D03*
X84850000Y-32450000D03*
X85350000Y-32450000D03*
X85850000Y-32450000D03*
X86350000Y-32450000D03*
X86850000Y-32450000D03*
X87350000Y-32450000D03*
X87850000Y-32450000D03*
X88350000Y-32450000D03*
X88850000Y-32450000D03*
D13*
X58300000Y-34700000D03*
X57000000Y-34700000D03*
X57650000Y-34700000D03*
X57000000Y-36700000D03*
X57650000Y-36700000D03*
X58300000Y-36700000D03*
D14*
X57700000Y-35700000D03*
D13*
X42100000Y-29800000D03*
X40800000Y-29800000D03*
X41450000Y-29800000D03*
X40800000Y-31800000D03*
X41450000Y-31800000D03*
X42100000Y-31800000D03*
D14*
X41500000Y-30800000D03*
D35*
X63950000Y-19300000D03*
X63950000Y-20100000D03*
X63950000Y-20900000D03*
X63950000Y-21700000D03*
X63950000Y-22500000D03*
X63950000Y-23300000D03*
X63950000Y-24100000D03*
X63950000Y-24900000D03*
X63950000Y-25700000D03*
X63950000Y-26500000D03*
X63950000Y-27300000D03*
X63950000Y-28100000D03*
X63950000Y-28900000D03*
X64750000Y-19300000D03*
X64750000Y-20100000D03*
X64750000Y-20900000D03*
X64750000Y-21700000D03*
X64750000Y-22500000D03*
X64750000Y-23300000D03*
X64750000Y-24100000D03*
X64750000Y-24900000D03*
X64750000Y-25700000D03*
X64750000Y-26500000D03*
X64750000Y-27300000D03*
X64750000Y-28100000D03*
X64750000Y-28900000D03*
X65550000Y-19300000D03*
X65550000Y-20100000D03*
X65550000Y-20900000D03*
X65550000Y-21700000D03*
X65550000Y-22500000D03*
X65550000Y-23300000D03*
X65550000Y-24100000D03*
X65550000Y-24900000D03*
X65550000Y-25700000D03*
X65550000Y-26500000D03*
X65550000Y-27300000D03*
X65550000Y-28100000D03*
X65550000Y-28900000D03*
X66350000Y-19300000D03*
X66350000Y-20100000D03*
X66350000Y-20900000D03*
X66350000Y-21700000D03*
X66350000Y-22500000D03*
X66350000Y-23300000D03*
X66350000Y-24100000D03*
X66350000Y-24900000D03*
X66350000Y-25700000D03*
X66350000Y-26500000D03*
X66350000Y-27300000D03*
X66350000Y-28100000D03*
X66350000Y-28900000D03*
X67150000Y-19300000D03*
X67150000Y-20100000D03*
X67150000Y-20900000D03*
X67150000Y-21700000D03*
X67150000Y-22500000D03*
X67150000Y-23300000D03*
X67150000Y-24100000D03*
X67150000Y-24900000D03*
X67150000Y-25700000D03*
X67150000Y-26500000D03*
X67150000Y-27300000D03*
X67150000Y-28100000D03*
X67150000Y-28900000D03*
X67950000Y-19300000D03*
X67950000Y-20100000D03*
X67950000Y-20900000D03*
X67950000Y-21700000D03*
X67950000Y-22500000D03*
X67950000Y-23300000D03*
X67950000Y-24100000D03*
X67950000Y-24900000D03*
X67950000Y-25700000D03*
X67950000Y-26500000D03*
X67950000Y-27300000D03*
X67950000Y-28100000D03*
X67950000Y-28900000D03*
X68750000Y-19300000D03*
X68750000Y-20100000D03*
X68750000Y-20900000D03*
X68750000Y-21700000D03*
X68750000Y-22500000D03*
X68750000Y-23300000D03*
X68750000Y-24100000D03*
X68750000Y-24900000D03*
X68750000Y-25700000D03*
X68750000Y-26500000D03*
X68750000Y-27300000D03*
X68750000Y-28100000D03*
X68750000Y-28900000D03*
X69550000Y-19300000D03*
X69550000Y-20100000D03*
X69550000Y-20900000D03*
X69550000Y-21700000D03*
X69550000Y-22500000D03*
X69550000Y-23300000D03*
X69550000Y-24100000D03*
X69550000Y-24900000D03*
X69550000Y-25700000D03*
X69550000Y-26500000D03*
X69550000Y-27300000D03*
X69550000Y-28100000D03*
X69550000Y-28900000D03*
X70350000Y-19300000D03*
X70350000Y-20100000D03*
X70350000Y-20900000D03*
X70350000Y-21700000D03*
X70350000Y-22500000D03*
X70350000Y-23300000D03*
X70350000Y-24100000D03*
X70350000Y-24900000D03*
X70350000Y-25700000D03*
X70350000Y-26500000D03*
X70350000Y-27300000D03*
X70350000Y-28100000D03*
X70350000Y-28900000D03*
X71150000Y-19300000D03*
X71150000Y-20100000D03*
X71150000Y-20900000D03*
X71150000Y-21700000D03*
X71150000Y-22500000D03*
X71150000Y-23300000D03*
X71150000Y-24100000D03*
X71150000Y-24900000D03*
X71150000Y-25700000D03*
X71150000Y-26500000D03*
X71150000Y-27300000D03*
X71150000Y-28100000D03*
X71150000Y-28900000D03*
X71950000Y-19300000D03*
X71950000Y-20100000D03*
X71950000Y-20900000D03*
X71950000Y-21700000D03*
X71950000Y-22500000D03*
X71950000Y-23300000D03*
X71950000Y-24100000D03*
X71950000Y-24900000D03*
X71950000Y-25700000D03*
X71950000Y-26500000D03*
X71950000Y-27300000D03*
X71950000Y-28100000D03*
X71950000Y-28900000D03*
X72750000Y-19300000D03*
X72750000Y-20100000D03*
X72750000Y-20900000D03*
X72750000Y-21700000D03*
X72750000Y-22500000D03*
X72750000Y-23300000D03*
X72750000Y-24100000D03*
X72750000Y-24900000D03*
X72750000Y-25700000D03*
X72750000Y-26500000D03*
X72750000Y-27300000D03*
X72750000Y-28100000D03*
X72750000Y-28900000D03*
X73550000Y-19300000D03*
X73550000Y-20100000D03*
X73550000Y-20900000D03*
X73550000Y-21700000D03*
X73550000Y-22500000D03*
X73550000Y-23300000D03*
X73550000Y-24100000D03*
X73550000Y-24900000D03*
X73550000Y-25700000D03*
X73550000Y-26500000D03*
X73550000Y-27300000D03*
X73550000Y-28100000D03*
X73550000Y-28900000D03*
D11*
X22750000Y-22450000D03*
X21650000Y-22450000D03*
D36*
X22500000Y-25800760D03*
X24400000Y-25800760D03*
X23450000Y-23801780D03*
D21*
X37100000Y-27800000D03*
X35600000Y-27800000D03*
D25*
X33900000Y-27350000D03*
X33900000Y-29350000D03*
D21*
X78800000Y-38150000D03*
X80300000Y-38150000D03*
X78800000Y-36050000D03*
X80300000Y-36050000D03*
X42300000Y-34750000D03*
X40800000Y-34750000D03*
D20*
X20400000Y-22450000D03*
X20400000Y-21550000D03*
X40300000Y-21400000D03*
X40300000Y-22300000D03*
X40300000Y-23700000D03*
X40300000Y-24600000D03*
D37*
X17200000Y-34300000D03*
X17200000Y-31760000D03*
X17200000Y-36840000D03*
D21*
X92550000Y-19400000D03*
X91050000Y-19400000D03*
X92550000Y-17300000D03*
X91050000Y-17300000D03*
D13*
X87050000Y-17400000D03*
X86150000Y-17400000D03*
X89750000Y-17300000D03*
X88850000Y-17300000D03*
M02*
