G04 #@! TF.FileFunction,Copper,L4,Bot,Signal*
%FSLAX46Y46*%
G04 Gerber Fmt 4.6, Leading zero omitted, Abs format (unit mm)*
G04 Created by KiCad (PCBNEW 4.0.5) date Tue Apr 18 23:58:23 2017*
%MOMM*%
%LPD*%
G01*
G04 APERTURE LIST*
%ADD10C,0.050000*%
%ADD11R,0.500000X0.600000*%
%ADD12R,0.430000X0.280000*%
%ADD13R,0.600000X0.500000*%
%ADD14R,1.000000X1.250000*%
%ADD15R,0.400000X0.600000*%
%ADD16R,1.000000X2.500000*%
%ADD17R,0.500000X0.900000*%
%ADD18R,0.900000X0.500000*%
%ADD19R,0.600000X0.400000*%
%ADD20R,1.250000X1.000000*%
%ADD21R,1.500000X1.700000*%
%ADD22C,0.450000*%
%ADD23R,1.727200X1.727200*%
%ADD24O,1.727200X1.727200*%
%ADD25O,2.000000X1.300000*%
%ADD26O,2.500000X2.000000*%
%ADD27C,4.000000*%
%ADD28R,1.700000X1.700000*%
%ADD29O,1.700000X1.700000*%
%ADD30R,4.064000X1.524000*%
%ADD31C,0.400000*%
%ADD32C,0.500000*%
%ADD33C,5.000000*%
%ADD34C,3.000000*%
%ADD35C,2.400000*%
%ADD36C,0.500000*%
%ADD37C,0.300000*%
%ADD38C,0.200000*%
%ADD39C,0.150000*%
%ADD40C,0.800000*%
%ADD41C,0.254000*%
%ADD42C,0.250000*%
G04 APERTURE END LIST*
D10*
D11*
X54935000Y-114565000D03*
X54935000Y-115665000D03*
X59135000Y-112765000D03*
X59135000Y-113865000D03*
X54810000Y-111840000D03*
X54810000Y-112940000D03*
D12*
X57410000Y-109230000D03*
X57410000Y-109750000D03*
X56360000Y-109750000D03*
X56360000Y-109230000D03*
D11*
X68310000Y-113440000D03*
X68310000Y-112340000D03*
D13*
X70610000Y-112440000D03*
X69510000Y-112440000D03*
D14*
X70735000Y-118340000D03*
X68735000Y-118340000D03*
D13*
X71010000Y-114790000D03*
X72110000Y-114790000D03*
D11*
X66760000Y-113840000D03*
X66760000Y-114940000D03*
D13*
X69760000Y-115040000D03*
X68660000Y-115040000D03*
D11*
X71660000Y-106890000D03*
X71660000Y-105790000D03*
D13*
X68010000Y-107640000D03*
X69110000Y-107640000D03*
D11*
X67635000Y-106440000D03*
X67635000Y-105340000D03*
X66060000Y-106890000D03*
X66060000Y-105790000D03*
D13*
X70110000Y-105390000D03*
X69010000Y-105390000D03*
D15*
X61360000Y-106890000D03*
X62260000Y-106890000D03*
X61360000Y-105390000D03*
X62260000Y-105390000D03*
X62260000Y-108390000D03*
X61360000Y-108390000D03*
D13*
X66310000Y-110840000D03*
X67410000Y-110840000D03*
D11*
X66910000Y-109540000D03*
X66910000Y-108440000D03*
X64310000Y-109840000D03*
X64310000Y-108740000D03*
D13*
X68660000Y-111090000D03*
X69760000Y-111090000D03*
D11*
X70460000Y-109740000D03*
X70460000Y-108640000D03*
D10*
G36*
X72782182Y-107215736D02*
X73135736Y-106862182D01*
X73560000Y-107286446D01*
X73206446Y-107640000D01*
X72782182Y-107215736D01*
X72782182Y-107215736D01*
G37*
G36*
X73560000Y-107993554D02*
X73913554Y-107640000D01*
X74337818Y-108064264D01*
X73984264Y-108417818D01*
X73560000Y-107993554D01*
X73560000Y-107993554D01*
G37*
D11*
X71760000Y-110990000D03*
X71760000Y-112090000D03*
X71760000Y-109740000D03*
X71760000Y-108640000D03*
D10*
G36*
X73582182Y-109565736D02*
X73935736Y-109212182D01*
X74360000Y-109636446D01*
X74006446Y-109990000D01*
X73582182Y-109565736D01*
X73582182Y-109565736D01*
G37*
G36*
X74360000Y-110343554D02*
X74713554Y-109990000D01*
X75137818Y-110414264D01*
X74784264Y-110767818D01*
X74360000Y-110343554D01*
X74360000Y-110343554D01*
G37*
D13*
X73310000Y-112290000D03*
X74410000Y-112290000D03*
D15*
X55185000Y-107240000D03*
X54285000Y-107240000D03*
X53310000Y-105940000D03*
X54210000Y-105940000D03*
X37310000Y-108840000D03*
X38210000Y-108840000D03*
D11*
X31860000Y-109540000D03*
X31860000Y-108440000D03*
D13*
X38960000Y-110190000D03*
X40060000Y-110190000D03*
D11*
X36010000Y-107940000D03*
X36010000Y-106840000D03*
D15*
X39310000Y-108840000D03*
X40210000Y-108840000D03*
D11*
X36010000Y-78640000D03*
X36010000Y-77540000D03*
D15*
X39310000Y-79540000D03*
X40210000Y-79540000D03*
D13*
X38960000Y-80890000D03*
X40060000Y-80890000D03*
D11*
X31860000Y-80240000D03*
X31860000Y-79140000D03*
D15*
X37310000Y-79540000D03*
X38210000Y-79540000D03*
X55185000Y-77940000D03*
X54285000Y-77940000D03*
X53310000Y-76640000D03*
X54210000Y-76640000D03*
D11*
X54935000Y-85265000D03*
X54935000Y-86365000D03*
X59135000Y-83465000D03*
X59135000Y-84565000D03*
X54810000Y-82540000D03*
X54810000Y-83640000D03*
D12*
X57410000Y-79930000D03*
X57410000Y-80450000D03*
X56360000Y-80450000D03*
X56360000Y-79930000D03*
D15*
X61360000Y-77590000D03*
X62260000Y-77590000D03*
D11*
X64310000Y-80540000D03*
X64310000Y-79440000D03*
D15*
X62260000Y-79090000D03*
X61360000Y-79090000D03*
X61360000Y-76090000D03*
X62260000Y-76090000D03*
D13*
X79860000Y-92890000D03*
X78760000Y-92890000D03*
X84510000Y-91890000D03*
X83410000Y-91890000D03*
D14*
X79710000Y-94540000D03*
X77710000Y-94540000D03*
D11*
X86710000Y-90190000D03*
X86710000Y-89090000D03*
D16*
X89910000Y-94940000D03*
X92910000Y-94940000D03*
D14*
X87310000Y-93640000D03*
X85310000Y-93640000D03*
D15*
X89360000Y-97690000D03*
X88460000Y-97690000D03*
D17*
X85910000Y-91840000D03*
X87410000Y-91840000D03*
X88660000Y-92190000D03*
X90160000Y-92190000D03*
D11*
X92310000Y-88390000D03*
X92310000Y-87290000D03*
D18*
X88085000Y-84740000D03*
X88085000Y-86240000D03*
D19*
X89760000Y-87790000D03*
X89760000Y-86890000D03*
D20*
X86210000Y-85990000D03*
X86210000Y-83990000D03*
D13*
X66310000Y-81540000D03*
X67410000Y-81540000D03*
D11*
X70460000Y-80440000D03*
X70460000Y-79340000D03*
X66910000Y-80240000D03*
X66910000Y-79140000D03*
D13*
X68660000Y-81790000D03*
X69760000Y-81790000D03*
D11*
X71660000Y-77590000D03*
X71660000Y-76490000D03*
D10*
G36*
X72782182Y-77915736D02*
X73135736Y-77562182D01*
X73560000Y-77986446D01*
X73206446Y-78340000D01*
X72782182Y-77915736D01*
X72782182Y-77915736D01*
G37*
G36*
X73560000Y-78693554D02*
X73913554Y-78340000D01*
X74337818Y-78764264D01*
X73984264Y-79117818D01*
X73560000Y-78693554D01*
X73560000Y-78693554D01*
G37*
D13*
X73310000Y-82990000D03*
X74410000Y-82990000D03*
D11*
X71760000Y-80440000D03*
X71760000Y-79340000D03*
D10*
G36*
X73582182Y-80265736D02*
X73935736Y-79912182D01*
X74360000Y-80336446D01*
X74006446Y-80690000D01*
X73582182Y-80265736D01*
X73582182Y-80265736D01*
G37*
G36*
X74360000Y-81043554D02*
X74713554Y-80690000D01*
X75137818Y-81114264D01*
X74784264Y-81467818D01*
X74360000Y-81043554D01*
X74360000Y-81043554D01*
G37*
D13*
X80260000Y-84340000D03*
X81360000Y-84340000D03*
D11*
X79210000Y-76540000D03*
X79210000Y-77640000D03*
D21*
X83060000Y-76540000D03*
X83060000Y-79040000D03*
X80860000Y-79040000D03*
X80860000Y-76540000D03*
D19*
X78085000Y-78315000D03*
X78085000Y-79215000D03*
X76510000Y-79015000D03*
X76510000Y-79915000D03*
D13*
X70110000Y-76090000D03*
X69010000Y-76090000D03*
D11*
X67635000Y-77140000D03*
X67635000Y-76040000D03*
X66060000Y-77590000D03*
X66060000Y-76490000D03*
D13*
X68010000Y-78340000D03*
X69110000Y-78340000D03*
X71010000Y-85490000D03*
X72110000Y-85490000D03*
X69760000Y-85740000D03*
X68660000Y-85740000D03*
D11*
X66760000Y-84540000D03*
X66760000Y-85640000D03*
X71760000Y-81690000D03*
X71760000Y-82790000D03*
X68310000Y-84140000D03*
X68310000Y-83040000D03*
D14*
X70735000Y-89040000D03*
X68735000Y-89040000D03*
D13*
X70610000Y-83140000D03*
X69510000Y-83140000D03*
D18*
X88085000Y-114040000D03*
X88085000Y-115540000D03*
D19*
X89760000Y-117090000D03*
X89760000Y-116190000D03*
D11*
X92310000Y-117690000D03*
X92310000Y-116590000D03*
X86710000Y-119490000D03*
X86710000Y-118390000D03*
D13*
X84510000Y-121190000D03*
X83410000Y-121190000D03*
D17*
X88660000Y-121490000D03*
X90160000Y-121490000D03*
D14*
X87310000Y-122940000D03*
X85310000Y-122940000D03*
D15*
X89360000Y-126990000D03*
X88460000Y-126990000D03*
D17*
X85910000Y-121140000D03*
X87410000Y-121140000D03*
D16*
X89910000Y-124240000D03*
X92910000Y-124240000D03*
D14*
X79710000Y-123840000D03*
X77710000Y-123840000D03*
D20*
X86210000Y-115290000D03*
X86210000Y-113290000D03*
D13*
X80260000Y-113640000D03*
X81360000Y-113640000D03*
X79860000Y-122190000D03*
X78760000Y-122190000D03*
D11*
X79210000Y-105840000D03*
X79210000Y-106940000D03*
D21*
X83060000Y-105840000D03*
X83060000Y-108340000D03*
X80860000Y-108340000D03*
X80860000Y-105840000D03*
D19*
X78085000Y-107615000D03*
X78085000Y-108515000D03*
X76510000Y-108315000D03*
X76510000Y-109215000D03*
D22*
X75170000Y-90220000D03*
X74010000Y-87540000D03*
X75240000Y-88510000D03*
X74510000Y-90570000D03*
X75230000Y-89410000D03*
X69960000Y-87340000D03*
X68920000Y-90330000D03*
X68710000Y-88990000D03*
X69510000Y-90640000D03*
X72560000Y-90740000D03*
X72060000Y-89490000D03*
X72410000Y-87190000D03*
X72060000Y-88690000D03*
X62360000Y-89090000D03*
D23*
X74140000Y-94790000D03*
D24*
X74140000Y-97330000D03*
X71600000Y-94790000D03*
X71600000Y-97330000D03*
X69060000Y-94790000D03*
X69060000Y-97330000D03*
X66520000Y-94790000D03*
X66520000Y-97330000D03*
X63980000Y-94790000D03*
X63980000Y-97330000D03*
D22*
X90010000Y-82440000D03*
D25*
X90060000Y-90340000D03*
X90060000Y-85340000D03*
D26*
X92760000Y-91340000D03*
X92760000Y-84340000D03*
D22*
X93560000Y-86440000D03*
X93560000Y-87240000D03*
X93560000Y-88040000D03*
X93560000Y-88840000D03*
X90810000Y-83240000D03*
X90010000Y-83240000D03*
X91610000Y-82440000D03*
X90810000Y-82440000D03*
D27*
X92110000Y-76790000D03*
D22*
X92410000Y-82440000D03*
X93210000Y-82440000D03*
X92410000Y-111740000D03*
X93210000Y-111740000D03*
D27*
X92110000Y-106090000D03*
D22*
X92110000Y-92840000D03*
X91310000Y-92840000D03*
X92910000Y-92990000D03*
X93710000Y-92990000D03*
D27*
X92110000Y-98890000D03*
D22*
X90010000Y-111740000D03*
X90810000Y-112540000D03*
X91610000Y-111740000D03*
X90010000Y-112540000D03*
X90810000Y-111740000D03*
X92110000Y-122140000D03*
D27*
X92110000Y-128190000D03*
D22*
X93710000Y-122290000D03*
X92910000Y-122290000D03*
X91310000Y-122140000D03*
X93560000Y-118140000D03*
X93560000Y-117340000D03*
X93560000Y-115740000D03*
X93560000Y-116540000D03*
D25*
X90060000Y-119640000D03*
X90060000Y-114640000D03*
D26*
X92760000Y-120640000D03*
X92760000Y-113640000D03*
D28*
X59650000Y-126690000D03*
D29*
X57110000Y-126690000D03*
X54570000Y-126690000D03*
D22*
X75230000Y-118710000D03*
X75170000Y-119520000D03*
D23*
X74140000Y-124090000D03*
D24*
X74140000Y-126630000D03*
X71600000Y-124090000D03*
X71600000Y-126630000D03*
X69060000Y-124090000D03*
X69060000Y-126630000D03*
X66520000Y-124090000D03*
X66520000Y-126630000D03*
X63980000Y-124090000D03*
X63980000Y-126630000D03*
D22*
X74510000Y-119870000D03*
X72560000Y-120040000D03*
X68710000Y-118290000D03*
X69510000Y-119940000D03*
X68920000Y-119630000D03*
X62360000Y-118390000D03*
X75240000Y-117810000D03*
X74010000Y-116840000D03*
X69960000Y-116640000D03*
X72060000Y-118790000D03*
X72060000Y-117990000D03*
X72410000Y-116490000D03*
D27*
X45610000Y-76790000D03*
D22*
X46710000Y-87890000D03*
X47510000Y-87890000D03*
X45910000Y-87890000D03*
X48310000Y-87890000D03*
D28*
X59650000Y-97390000D03*
D29*
X57110000Y-97390000D03*
X54570000Y-97390000D03*
D22*
X40310000Y-91290000D03*
X40310000Y-90490000D03*
X43710000Y-91490000D03*
X43310000Y-93890000D03*
X44110000Y-93890000D03*
X42510000Y-93890000D03*
X44910000Y-93890000D03*
X49410000Y-90690000D03*
X49410000Y-91490000D03*
X48610000Y-91490000D03*
X48610000Y-90690000D03*
X41710000Y-93890000D03*
X41010000Y-93590000D03*
X46510000Y-93890000D03*
D27*
X45610000Y-98890000D03*
D22*
X45710000Y-93890000D03*
X43710000Y-89790000D03*
X43510000Y-87890000D03*
X44310000Y-87890000D03*
X45110000Y-87890000D03*
X43710000Y-88990000D03*
X47610000Y-89090000D03*
X47610000Y-89890000D03*
X41110000Y-89690000D03*
X40310000Y-89690000D03*
X40710000Y-88990000D03*
X19860000Y-89890000D03*
X18260000Y-89890000D03*
X20660000Y-89890000D03*
X21460000Y-97590000D03*
X19060000Y-89890000D03*
D30*
X19610000Y-91250000D03*
X19610000Y-96330000D03*
D22*
X19860000Y-97590000D03*
X19060000Y-97590000D03*
X20660000Y-97590000D03*
X18260000Y-97590000D03*
X22260000Y-95990000D03*
X22260000Y-96790000D03*
X22260000Y-97590000D03*
X22260000Y-91490000D03*
X22260000Y-90690000D03*
X22260000Y-89890000D03*
X21460000Y-89890000D03*
X19060000Y-78040000D03*
X18260000Y-78040000D03*
X19860000Y-78040000D03*
X20660000Y-78040000D03*
D30*
X19610000Y-79400000D03*
X19610000Y-84480000D03*
D22*
X18260000Y-85740000D03*
X19060000Y-85740000D03*
X19860000Y-85740000D03*
X20660000Y-85740000D03*
X22260000Y-84140000D03*
X22260000Y-84940000D03*
X21460000Y-85740000D03*
X22260000Y-85740000D03*
X21460000Y-78040000D03*
X22260000Y-78840000D03*
X22260000Y-78040000D03*
X22260000Y-79640000D03*
X41710000Y-123190000D03*
X41010000Y-122890000D03*
X40310000Y-119790000D03*
X43710000Y-119090000D03*
X40710000Y-118290000D03*
X40310000Y-118990000D03*
X41110000Y-118990000D03*
X43710000Y-120790000D03*
X44110000Y-123190000D03*
X44910000Y-123190000D03*
X46510000Y-123190000D03*
X45710000Y-123190000D03*
X40310000Y-120590000D03*
D27*
X45610000Y-128190000D03*
D22*
X42510000Y-123190000D03*
X43310000Y-123190000D03*
X18260000Y-126890000D03*
X19860000Y-119190000D03*
X20660000Y-119190000D03*
X18260000Y-119190000D03*
X19060000Y-119190000D03*
X19060000Y-126890000D03*
X22260000Y-126090000D03*
X22260000Y-125290000D03*
X22260000Y-126890000D03*
X21460000Y-119190000D03*
X22260000Y-119190000D03*
X22260000Y-120790000D03*
X22260000Y-119990000D03*
X21460000Y-126890000D03*
X20660000Y-126890000D03*
D30*
X19610000Y-120550000D03*
X19610000Y-125630000D03*
D22*
X19860000Y-126890000D03*
X48310000Y-117190000D03*
X44310000Y-117190000D03*
X45110000Y-117190000D03*
X45910000Y-117190000D03*
X47510000Y-117190000D03*
X46710000Y-117190000D03*
D27*
X45610000Y-106090000D03*
D22*
X47610000Y-118390000D03*
X47610000Y-119190000D03*
X48610000Y-120790000D03*
X49410000Y-119990000D03*
X48610000Y-119990000D03*
X49410000Y-120790000D03*
X43710000Y-118290000D03*
X43510000Y-117190000D03*
X19060000Y-107340000D03*
X19860000Y-107340000D03*
X20660000Y-107340000D03*
D30*
X19610000Y-108700000D03*
X19610000Y-113780000D03*
D22*
X21460000Y-107340000D03*
X18260000Y-107340000D03*
X21460000Y-115040000D03*
X20660000Y-115040000D03*
X19060000Y-115040000D03*
X19860000Y-115040000D03*
X18260000Y-115040000D03*
X22260000Y-115040000D03*
X22260000Y-113440000D03*
X22260000Y-114240000D03*
X22260000Y-108940000D03*
X22260000Y-107340000D03*
X22260000Y-108140000D03*
D11*
X68310000Y-54840000D03*
X68310000Y-53740000D03*
X64310000Y-51240000D03*
X64310000Y-50140000D03*
X66910000Y-50940000D03*
X66910000Y-49840000D03*
D13*
X66310000Y-52240000D03*
X67410000Y-52240000D03*
D11*
X66760000Y-55240000D03*
X66760000Y-56340000D03*
D15*
X39310000Y-50240000D03*
X40210000Y-50240000D03*
D11*
X31860000Y-50940000D03*
X31860000Y-49840000D03*
D15*
X37310000Y-50240000D03*
X38210000Y-50240000D03*
D13*
X38960000Y-51590000D03*
X40060000Y-51590000D03*
D11*
X36010000Y-49340000D03*
X36010000Y-48240000D03*
X54935000Y-55965000D03*
X54935000Y-57065000D03*
X54810000Y-53240000D03*
X54810000Y-54340000D03*
X59135000Y-54165000D03*
X59135000Y-55265000D03*
D15*
X55185000Y-48640000D03*
X54285000Y-48640000D03*
X53310000Y-47340000D03*
X54210000Y-47340000D03*
D12*
X56360000Y-51150000D03*
X56360000Y-50630000D03*
X57410000Y-50630000D03*
X57410000Y-51150000D03*
D15*
X61360000Y-46790000D03*
X62260000Y-46790000D03*
D11*
X66060000Y-48290000D03*
X66060000Y-47190000D03*
X67635000Y-47840000D03*
X67635000Y-46740000D03*
D15*
X61360000Y-48290000D03*
X62260000Y-48290000D03*
X62260000Y-49790000D03*
X61360000Y-49790000D03*
D13*
X68010000Y-49040000D03*
X69110000Y-49040000D03*
D11*
X71660000Y-48290000D03*
X71660000Y-47190000D03*
D13*
X70110000Y-46790000D03*
X69010000Y-46790000D03*
D11*
X71760000Y-51140000D03*
X71760000Y-50040000D03*
D19*
X78085000Y-49015000D03*
X78085000Y-49915000D03*
D21*
X83060000Y-47240000D03*
X83060000Y-49740000D03*
X80860000Y-49740000D03*
X80860000Y-47240000D03*
D11*
X79210000Y-47240000D03*
X79210000Y-48340000D03*
D10*
G36*
X72782182Y-48615736D02*
X73135736Y-48262182D01*
X73560000Y-48686446D01*
X73206446Y-49040000D01*
X72782182Y-48615736D01*
X72782182Y-48615736D01*
G37*
G36*
X73560000Y-49393554D02*
X73913554Y-49040000D01*
X74337818Y-49464264D01*
X73984264Y-49817818D01*
X73560000Y-49393554D01*
X73560000Y-49393554D01*
G37*
D19*
X76510000Y-49715000D03*
X76510000Y-50615000D03*
D11*
X70460000Y-51140000D03*
X70460000Y-50040000D03*
D13*
X68660000Y-52490000D03*
X69760000Y-52490000D03*
X70610000Y-53840000D03*
X69510000Y-53840000D03*
D11*
X71760000Y-52390000D03*
X71760000Y-53490000D03*
D10*
G36*
X73582182Y-50965736D02*
X73935736Y-50612182D01*
X74360000Y-51036446D01*
X74006446Y-51390000D01*
X73582182Y-50965736D01*
X73582182Y-50965736D01*
G37*
G36*
X74360000Y-51743554D02*
X74713554Y-51390000D01*
X75137818Y-51814264D01*
X74784264Y-52167818D01*
X74360000Y-51743554D01*
X74360000Y-51743554D01*
G37*
D13*
X73310000Y-53690000D03*
X74410000Y-53690000D03*
X84510000Y-62590000D03*
X83410000Y-62590000D03*
D17*
X88660000Y-62890000D03*
X90160000Y-62890000D03*
D15*
X89360000Y-68390000D03*
X88460000Y-68390000D03*
D17*
X85910000Y-62540000D03*
X87410000Y-62540000D03*
D16*
X89910000Y-65640000D03*
X92910000Y-65640000D03*
D14*
X87310000Y-64340000D03*
X85310000Y-64340000D03*
D13*
X80260000Y-55040000D03*
X81360000Y-55040000D03*
X71010000Y-56190000D03*
X72110000Y-56190000D03*
X79860000Y-63590000D03*
X78760000Y-63590000D03*
D14*
X79710000Y-65240000D03*
X77710000Y-65240000D03*
D13*
X69760000Y-56440000D03*
X68660000Y-56440000D03*
D14*
X70735000Y-59740000D03*
X68735000Y-59740000D03*
D11*
X92310000Y-59090000D03*
X92310000Y-57990000D03*
D20*
X86210000Y-56690000D03*
X86210000Y-54690000D03*
D11*
X86710000Y-60890000D03*
X86710000Y-59790000D03*
D19*
X89760000Y-58490000D03*
X89760000Y-57590000D03*
D18*
X88085000Y-55440000D03*
X88085000Y-56940000D03*
D27*
X45610000Y-47490000D03*
D22*
X75230000Y-60110000D03*
X74510000Y-61270000D03*
X75170000Y-60920000D03*
X75240000Y-59210000D03*
X74010000Y-58240000D03*
X72060000Y-59390000D03*
X72060000Y-60190000D03*
X72410000Y-57890000D03*
X69960000Y-58040000D03*
X69510000Y-61340000D03*
X72560000Y-61440000D03*
D23*
X74140000Y-65490000D03*
D24*
X74140000Y-68030000D03*
X71600000Y-65490000D03*
X71600000Y-68030000D03*
X69060000Y-65490000D03*
X69060000Y-68030000D03*
X66520000Y-65490000D03*
X66520000Y-68030000D03*
X63980000Y-65490000D03*
X63980000Y-68030000D03*
D22*
X68920000Y-61030000D03*
X68710000Y-59690000D03*
X62360000Y-59790000D03*
X48310000Y-58590000D03*
X49410000Y-61390000D03*
X48610000Y-61390000D03*
X48610000Y-62190000D03*
X49410000Y-62190000D03*
D28*
X59650000Y-68090000D03*
D29*
X57110000Y-68090000D03*
X54570000Y-68090000D03*
D22*
X93210000Y-53140000D03*
X92410000Y-53140000D03*
X91610000Y-53140000D03*
D27*
X92110000Y-47490000D03*
D22*
X90810000Y-53940000D03*
X90810000Y-53140000D03*
X90010000Y-53940000D03*
X90010000Y-53140000D03*
D27*
X92110000Y-69590000D03*
D22*
X92110000Y-63540000D03*
X91310000Y-63540000D03*
X92910000Y-63690000D03*
X93710000Y-63690000D03*
D25*
X90060000Y-61040000D03*
X90060000Y-56040000D03*
D26*
X92760000Y-62040000D03*
X92760000Y-55040000D03*
D22*
X93560000Y-58740000D03*
X93560000Y-57940000D03*
X93560000Y-59540000D03*
X93560000Y-57140000D03*
X43710000Y-59690000D03*
X40310000Y-60390000D03*
X41110000Y-60390000D03*
X40710000Y-59690000D03*
X44110000Y-64590000D03*
X43310000Y-64590000D03*
X42510000Y-64590000D03*
X44910000Y-64590000D03*
D27*
X45610000Y-69590000D03*
D22*
X45710000Y-64590000D03*
X46510000Y-64590000D03*
X41710000Y-64590000D03*
X43710000Y-62190000D03*
X40310000Y-61990000D03*
X41010000Y-64290000D03*
X40310000Y-61190000D03*
X45110000Y-58590000D03*
X43510000Y-58590000D03*
X44310000Y-58590000D03*
X43710000Y-60490000D03*
X45910000Y-58590000D03*
X46710000Y-58590000D03*
X47610000Y-60590000D03*
X47510000Y-58590000D03*
X47610000Y-59790000D03*
X22260000Y-48740000D03*
X22260000Y-50340000D03*
X22260000Y-49540000D03*
X18260000Y-60590000D03*
X20660000Y-60590000D03*
X19060000Y-60590000D03*
X19860000Y-60590000D03*
X21460000Y-60590000D03*
D30*
X19610000Y-61950000D03*
X19610000Y-67030000D03*
D22*
X18260000Y-56440000D03*
X21460000Y-48740000D03*
X19860000Y-48740000D03*
X19060000Y-48740000D03*
X20660000Y-48740000D03*
X18260000Y-48740000D03*
D30*
X19610000Y-50100000D03*
X19610000Y-55180000D03*
D22*
X22260000Y-60590000D03*
X22260000Y-67490000D03*
X22260000Y-68290000D03*
X22260000Y-66690000D03*
X22260000Y-62190000D03*
X22260000Y-61390000D03*
X19860000Y-56440000D03*
X19060000Y-56440000D03*
X20660000Y-56440000D03*
X22260000Y-55640000D03*
X21460000Y-56440000D03*
X22260000Y-54840000D03*
X22260000Y-56440000D03*
X19860000Y-68290000D03*
X20660000Y-68290000D03*
X19060000Y-68290000D03*
X21460000Y-68290000D03*
X18260000Y-68290000D03*
X75170000Y-31620000D03*
X74510000Y-31970000D03*
X75230000Y-30810000D03*
X90010000Y-24640000D03*
X90810000Y-24640000D03*
X93210000Y-23840000D03*
X92410000Y-23840000D03*
X91610000Y-23840000D03*
X90810000Y-23840000D03*
X90010000Y-23840000D03*
X93560000Y-30240000D03*
X93560000Y-27840000D03*
X93560000Y-29440000D03*
X93560000Y-28640000D03*
X92910000Y-34390000D03*
X93710000Y-34390000D03*
X91310000Y-34240000D03*
X92110000Y-34240000D03*
X62360000Y-30490000D03*
X49410000Y-32890000D03*
X48610000Y-32890000D03*
X49410000Y-32090000D03*
X48610000Y-32090000D03*
X47610000Y-31290000D03*
X47610000Y-30490000D03*
X43710000Y-31190000D03*
X43710000Y-30390000D03*
X48310000Y-29290000D03*
X47510000Y-29290000D03*
X46710000Y-29290000D03*
X45910000Y-29290000D03*
X45110000Y-29290000D03*
X44310000Y-29290000D03*
X43510000Y-29290000D03*
X41010000Y-34990000D03*
X40710000Y-30390000D03*
X41110000Y-31090000D03*
X40310000Y-31890000D03*
X40310000Y-31090000D03*
X40310000Y-32690000D03*
X43710000Y-32890000D03*
X46510000Y-35290000D03*
X45710000Y-35290000D03*
X44910000Y-35290000D03*
X44110000Y-35290000D03*
X43310000Y-35290000D03*
X42510000Y-35290000D03*
X41710000Y-35290000D03*
D15*
X61360000Y-17490000D03*
X62260000Y-17490000D03*
D22*
X69510000Y-32040000D03*
X68920000Y-31730000D03*
X68710000Y-30390000D03*
X75240000Y-29910000D03*
X69960000Y-28740000D03*
X72410000Y-28590000D03*
X74010000Y-28940000D03*
X72560000Y-32140000D03*
X72060000Y-30890000D03*
X72060000Y-30090000D03*
D27*
X45610000Y-18190000D03*
X45610000Y-40290000D03*
X92110000Y-40290000D03*
D22*
X19860000Y-27140000D03*
X20660000Y-27140000D03*
X22260000Y-27140000D03*
X19060000Y-27140000D03*
X21460000Y-27140000D03*
X18260000Y-27140000D03*
X22260000Y-25540000D03*
X22260000Y-26340000D03*
X18260000Y-19440000D03*
X19060000Y-19440000D03*
X20660000Y-19440000D03*
X19860000Y-19440000D03*
X21460000Y-19440000D03*
X22260000Y-21040000D03*
X22260000Y-20240000D03*
X22260000Y-19440000D03*
X22260000Y-37390000D03*
X22260000Y-38990000D03*
X22260000Y-38190000D03*
X21460000Y-38990000D03*
X18260000Y-38990000D03*
X19060000Y-38990000D03*
X20660000Y-38990000D03*
X19860000Y-38990000D03*
X22260000Y-32890000D03*
X22260000Y-32090000D03*
X21460000Y-31290000D03*
X22260000Y-31290000D03*
X20660000Y-31290000D03*
X19060000Y-31290000D03*
X19860000Y-31290000D03*
X18260000Y-31290000D03*
D11*
X36010000Y-20040000D03*
X36010000Y-18940000D03*
X31860000Y-21640000D03*
X31860000Y-20540000D03*
X54935000Y-26665000D03*
X54935000Y-27765000D03*
X59135000Y-24865000D03*
X59135000Y-25965000D03*
X54810000Y-23940000D03*
X54810000Y-25040000D03*
X92310000Y-29790000D03*
X92310000Y-28690000D03*
D16*
X89910000Y-36340000D03*
X92910000Y-36340000D03*
D14*
X87310000Y-35040000D03*
X85310000Y-35040000D03*
D20*
X86210000Y-27390000D03*
X86210000Y-25390000D03*
D14*
X79710000Y-35940000D03*
X77710000Y-35940000D03*
D13*
X80260000Y-25740000D03*
X81360000Y-25740000D03*
D11*
X86710000Y-31590000D03*
X86710000Y-30490000D03*
D13*
X79860000Y-34290000D03*
X78760000Y-34290000D03*
X84510000Y-33290000D03*
X83410000Y-33290000D03*
D14*
X70735000Y-30440000D03*
X68735000Y-30440000D03*
D13*
X68660000Y-23190000D03*
X69760000Y-23190000D03*
D11*
X70460000Y-21840000D03*
X70460000Y-20740000D03*
D13*
X68010000Y-19740000D03*
X69110000Y-19740000D03*
D11*
X66060000Y-18990000D03*
X66060000Y-17890000D03*
D10*
G36*
X72782182Y-19315736D02*
X73135736Y-18962182D01*
X73560000Y-19386446D01*
X73206446Y-19740000D01*
X72782182Y-19315736D01*
X72782182Y-19315736D01*
G37*
G36*
X73560000Y-20093554D02*
X73913554Y-19740000D01*
X74337818Y-20164264D01*
X73984264Y-20517818D01*
X73560000Y-20093554D01*
X73560000Y-20093554D01*
G37*
D11*
X68310000Y-25540000D03*
X68310000Y-24440000D03*
D30*
X19610000Y-20800000D03*
X19610000Y-25880000D03*
D23*
X74140000Y-36190000D03*
D24*
X74140000Y-38730000D03*
X71600000Y-36190000D03*
X71600000Y-38730000D03*
X69060000Y-36190000D03*
X69060000Y-38730000D03*
X66520000Y-36190000D03*
X66520000Y-38730000D03*
X63980000Y-36190000D03*
X63980000Y-38730000D03*
D15*
X37310000Y-20940000D03*
X38210000Y-20940000D03*
X39310000Y-20940000D03*
X40210000Y-20940000D03*
X89360000Y-39090000D03*
X88460000Y-39090000D03*
D19*
X89760000Y-29190000D03*
X89760000Y-28290000D03*
D15*
X62260000Y-20490000D03*
X61360000Y-20490000D03*
X61360000Y-18990000D03*
X62260000Y-18990000D03*
D19*
X76510000Y-20415000D03*
X76510000Y-21315000D03*
X78085000Y-19715000D03*
X78085000Y-20615000D03*
D17*
X88660000Y-33590000D03*
X90160000Y-33590000D03*
X85910000Y-33240000D03*
X87410000Y-33240000D03*
D18*
X88085000Y-26140000D03*
X88085000Y-27640000D03*
D30*
X19610000Y-32650000D03*
X19610000Y-37730000D03*
D11*
X71760000Y-21840000D03*
X71760000Y-20740000D03*
X71760000Y-23090000D03*
X71760000Y-24190000D03*
D13*
X66310000Y-22940000D03*
X67410000Y-22940000D03*
D11*
X66760000Y-25940000D03*
X66760000Y-27040000D03*
X66910000Y-21640000D03*
X66910000Y-20540000D03*
X64310000Y-21940000D03*
X64310000Y-20840000D03*
D13*
X73310000Y-24390000D03*
X74410000Y-24390000D03*
D10*
G36*
X73582182Y-21665736D02*
X73935736Y-21312182D01*
X74360000Y-21736446D01*
X74006446Y-22090000D01*
X73582182Y-21665736D01*
X73582182Y-21665736D01*
G37*
G36*
X74360000Y-22443554D02*
X74713554Y-22090000D01*
X75137818Y-22514264D01*
X74784264Y-22867818D01*
X74360000Y-22443554D01*
X74360000Y-22443554D01*
G37*
D13*
X70610000Y-24540000D03*
X69510000Y-24540000D03*
X69760000Y-27140000D03*
X68660000Y-27140000D03*
X71010000Y-26890000D03*
X72110000Y-26890000D03*
D11*
X67635000Y-18540000D03*
X67635000Y-17440000D03*
D13*
X70110000Y-17490000D03*
X69010000Y-17490000D03*
D11*
X71660000Y-18990000D03*
X71660000Y-17890000D03*
D13*
X38960000Y-22290000D03*
X40060000Y-22290000D03*
D15*
X53310000Y-18040000D03*
X54210000Y-18040000D03*
X55185000Y-19340000D03*
X54285000Y-19340000D03*
D27*
X92110000Y-18190000D03*
D28*
X59650000Y-38790000D03*
D29*
X57110000Y-38790000D03*
X54570000Y-38790000D03*
D25*
X90060000Y-31740000D03*
X90060000Y-26740000D03*
D26*
X92760000Y-32740000D03*
X92760000Y-25740000D03*
D11*
X79210000Y-17940000D03*
X79210000Y-19040000D03*
D21*
X83060000Y-17940000D03*
X83060000Y-20440000D03*
X80860000Y-20440000D03*
X80860000Y-17940000D03*
D12*
X57410000Y-21330000D03*
X57410000Y-21850000D03*
X56360000Y-21850000D03*
X56360000Y-21330000D03*
D31*
X74060000Y-114790000D03*
X74060000Y-111590000D03*
X73260000Y-108390000D03*
X72460000Y-109190000D03*
X75010000Y-106040000D03*
X74060000Y-110790000D03*
X69260000Y-109990000D03*
X66048910Y-114001090D03*
X67660000Y-112390000D03*
X66860000Y-111590000D03*
X69260000Y-113990000D03*
X66060000Y-109190000D03*
X65260000Y-109190000D03*
X66060000Y-108390000D03*
X65260000Y-108390000D03*
X68460000Y-108390000D03*
X64060000Y-105590000D03*
X70860000Y-105990000D03*
X68335000Y-104615000D03*
X66060000Y-107590000D03*
X66871090Y-105978910D03*
X79210000Y-107565000D03*
D32*
X92310000Y-115640000D03*
D31*
X87654908Y-118697638D03*
D32*
X89110000Y-111390000D03*
D31*
X85410000Y-108290000D03*
X86910000Y-112165000D03*
D32*
X83310000Y-127490000D03*
D31*
X80910000Y-123890000D03*
X78685000Y-123840000D03*
D32*
X89260000Y-126190006D03*
X87610000Y-129690000D03*
X86310000Y-122390000D03*
D31*
X77510000Y-121715000D03*
D33*
X82910000Y-117440000D03*
D31*
X78760000Y-121165000D03*
X75760000Y-120390000D03*
X78010000Y-119690000D03*
D32*
X68710000Y-116090000D03*
D31*
X64860000Y-115890000D03*
X71660000Y-113190000D03*
X71660000Y-113990000D03*
D32*
X31710000Y-89490000D03*
X31710000Y-98590000D03*
X32610000Y-94790000D03*
X33310000Y-94790000D03*
D31*
X25710000Y-86315000D03*
X27610000Y-86315000D03*
X29810000Y-85490000D03*
X23510000Y-87240000D03*
X35710000Y-88840000D03*
X56110000Y-78890000D03*
X58472742Y-93390000D03*
X53635000Y-87865000D03*
X55835000Y-87165000D03*
X50335000Y-87965000D03*
X53835000Y-86440000D03*
D34*
X57085000Y-83965000D03*
D32*
X45710000Y-85190000D03*
X49710000Y-85140000D03*
X52460000Y-80190000D03*
X45710000Y-79840010D03*
X49710000Y-79790000D03*
X37910000Y-77289976D03*
X39460000Y-76990000D03*
X41010000Y-80890000D03*
D31*
X39010000Y-78390000D03*
D32*
X41010000Y-79540000D03*
D31*
X36010000Y-76690000D03*
X32060000Y-87690000D03*
X30960000Y-86640000D03*
X42010000Y-84690000D03*
X39510000Y-86090000D03*
D35*
X34847258Y-82445025D03*
D31*
X30910000Y-79140000D03*
X36735000Y-80215000D03*
D32*
X45710000Y-114490000D03*
X49710000Y-114440000D03*
X52460000Y-109490000D03*
X49710000Y-109090000D03*
X45710000Y-109140010D03*
D31*
X53835000Y-115740000D03*
X53635000Y-117165000D03*
X55835000Y-116465000D03*
X58472742Y-122690000D03*
X50335000Y-117265000D03*
X56110000Y-108190000D03*
D34*
X57085000Y-113265000D03*
D32*
X41010000Y-108840000D03*
D31*
X36010000Y-105990000D03*
D32*
X37910000Y-106589976D03*
X41010000Y-110190000D03*
D31*
X39010000Y-107690000D03*
D32*
X39460000Y-106290000D03*
D35*
X34847258Y-111745025D03*
D31*
X36735000Y-109515000D03*
X30910000Y-108440000D03*
X39510000Y-115390000D03*
X42010000Y-113990000D03*
X35710000Y-118140000D03*
D32*
X31710000Y-118790000D03*
X32610000Y-124090000D03*
X31710000Y-127890000D03*
X33310000Y-124090000D03*
D31*
X23510000Y-116540000D03*
X25710000Y-115615000D03*
X27610000Y-115615000D03*
X29810000Y-114790000D03*
X32060000Y-116990000D03*
X30960000Y-115940000D03*
D32*
X68710000Y-86790000D03*
D31*
X71660000Y-83890000D03*
X71660000Y-84690000D03*
X69260000Y-84690000D03*
X74060000Y-85490000D03*
X75760000Y-91090000D03*
D32*
X92310000Y-86340000D03*
D33*
X82910000Y-88140000D03*
D31*
X87654908Y-89397638D03*
X79210000Y-78265000D03*
X85410000Y-78990000D03*
D32*
X89110000Y-82090000D03*
D31*
X86910000Y-82865000D03*
X70860000Y-76690000D03*
X73260000Y-79090000D03*
X72460000Y-79890000D03*
X74060000Y-82290000D03*
X74060000Y-81490000D03*
X75010000Y-76740000D03*
X68335000Y-75315000D03*
X64060000Y-76290000D03*
X69260000Y-80690000D03*
X68460000Y-79090000D03*
X66060000Y-79090000D03*
X65260000Y-79890000D03*
X65260000Y-79090000D03*
X66060000Y-79890000D03*
X66871090Y-76678910D03*
X66060000Y-78290000D03*
X66860000Y-82290000D03*
X67660000Y-83090000D03*
X66048910Y-84701090D03*
X64860000Y-86590000D03*
D32*
X89260000Y-96890006D03*
X87610000Y-100390000D03*
X83310000Y-98190000D03*
D31*
X78685000Y-94540000D03*
X80910000Y-94590000D03*
X77510000Y-92415000D03*
X78010000Y-90390000D03*
X78760000Y-91865000D03*
D32*
X86310000Y-93090000D03*
D31*
X64860000Y-57290000D03*
D32*
X68710000Y-57490000D03*
D31*
X75760000Y-61790000D03*
X74060000Y-56190000D03*
X56110000Y-49590000D03*
X50335000Y-58665000D03*
X53635000Y-58565000D03*
X58472742Y-64090000D03*
D32*
X49710000Y-50490000D03*
X49710000Y-55840000D03*
X45710000Y-55890000D03*
X45710000Y-50540010D03*
X52460000Y-50890000D03*
D31*
X55835000Y-57865000D03*
D34*
X57085000Y-54665000D03*
D31*
X53835000Y-57140000D03*
X69260000Y-51390000D03*
X66048910Y-55401090D03*
X67660000Y-53790000D03*
X66860000Y-52990000D03*
X71660000Y-55390000D03*
X71660000Y-54590000D03*
X69260000Y-55390000D03*
X75010000Y-47440000D03*
X73260000Y-49790000D03*
X74060000Y-52990000D03*
X72460000Y-50590000D03*
X74060000Y-52190000D03*
X79210000Y-48965000D03*
X66060000Y-49790000D03*
X66060000Y-50590000D03*
X65260000Y-49790000D03*
X65260000Y-50590000D03*
X66060000Y-48990000D03*
X68460000Y-49790000D03*
X70860000Y-47390000D03*
X68335000Y-46015000D03*
X64060000Y-46990000D03*
X66871090Y-47378910D03*
X85410000Y-49690000D03*
D32*
X92310000Y-57040000D03*
X89110000Y-52790000D03*
D31*
X86910000Y-53565000D03*
X77510000Y-63115000D03*
X78010000Y-61090000D03*
X78760000Y-62565000D03*
D32*
X89260000Y-67590006D03*
X87610000Y-71090000D03*
X86310000Y-63790000D03*
D33*
X82910000Y-58840000D03*
D31*
X78685000Y-65240000D03*
X80910000Y-65290000D03*
D32*
X83310000Y-68890000D03*
D31*
X87654908Y-60097638D03*
X39010000Y-49090000D03*
X36010000Y-47390000D03*
D32*
X41010000Y-50240000D03*
X37910000Y-47989976D03*
X39460000Y-47690000D03*
X41010000Y-51590000D03*
D31*
X42010000Y-55390000D03*
X39510000Y-56790000D03*
X30910000Y-49840000D03*
X29810000Y-56190000D03*
D32*
X31710000Y-69290000D03*
X32610000Y-65490000D03*
X33310000Y-65490000D03*
D31*
X23510000Y-57940000D03*
X27610000Y-57015000D03*
X25710000Y-57015000D03*
X32060000Y-58390000D03*
X30960000Y-57340000D03*
X35710000Y-59540000D03*
D32*
X31710000Y-60190000D03*
D35*
X34847258Y-53145025D03*
D31*
X36735000Y-50915000D03*
X23510000Y-28640000D03*
D32*
X89260000Y-38290006D03*
X52460000Y-21590000D03*
D31*
X75010000Y-18140000D03*
D32*
X31710000Y-30890000D03*
X31710000Y-39990000D03*
D31*
X58472742Y-34790000D03*
X39510000Y-27490000D03*
D32*
X33310000Y-36190000D03*
X32610000Y-36190000D03*
X87610000Y-41790000D03*
D31*
X85410000Y-20390000D03*
D32*
X37910000Y-18689976D03*
X39460000Y-18390000D03*
X41010000Y-22290000D03*
D31*
X68335000Y-16715000D03*
X56110000Y-20290000D03*
X64860000Y-27990000D03*
X79210000Y-19665000D03*
X78685000Y-35940000D03*
X77510000Y-33815000D03*
X75760000Y-32490000D03*
D32*
X83310000Y-39590000D03*
X86310000Y-34490000D03*
D31*
X87654908Y-30797638D03*
X42010000Y-26090000D03*
D32*
X68710000Y-28190000D03*
X45710000Y-21240010D03*
X41010000Y-20940000D03*
D31*
X36010000Y-18090000D03*
X39010000Y-19790000D03*
X80910000Y-35990000D03*
X66060000Y-19690000D03*
X35710000Y-30240000D03*
X30910000Y-20540000D03*
X32060000Y-29090000D03*
X30960000Y-28040000D03*
X29810000Y-26890000D03*
X27610000Y-27715000D03*
X25710000Y-27715000D03*
X53835000Y-27840000D03*
X36735000Y-21615000D03*
D32*
X45710000Y-26590000D03*
X49710000Y-26540000D03*
X49710000Y-21190000D03*
D31*
X78010000Y-31790000D03*
X78760000Y-33265000D03*
X86910000Y-24265000D03*
D34*
X57085000Y-25365000D03*
D31*
X64060000Y-17690000D03*
X53635000Y-29265000D03*
X50335000Y-29365000D03*
X55835000Y-28565000D03*
D32*
X89110000Y-23490000D03*
D35*
X34847258Y-23845025D03*
D32*
X92310000Y-27740000D03*
D31*
X70860000Y-18090000D03*
X74060000Y-26890000D03*
D33*
X82910000Y-29540000D03*
D31*
X72460000Y-21290000D03*
X71660000Y-26090000D03*
X69260000Y-22090000D03*
X71660000Y-25290000D03*
X74060000Y-23690000D03*
X74060000Y-22890000D03*
X66860000Y-23690000D03*
X66060000Y-20490000D03*
X69260000Y-26090000D03*
X66048910Y-26101090D03*
X67660000Y-24490000D03*
X73260000Y-20490000D03*
X68460000Y-20490000D03*
X66871090Y-18078910D03*
X66060000Y-21290000D03*
X65260000Y-20490000D03*
X65260000Y-21290000D03*
X60260000Y-83715000D03*
X56760000Y-79090000D03*
X53860000Y-85765000D03*
X54610000Y-81465000D03*
D32*
X41510000Y-88190000D03*
D31*
X53860000Y-115065000D03*
X56760000Y-108390000D03*
X54610000Y-110765000D03*
X60260000Y-113015000D03*
D32*
X41510000Y-117490000D03*
D31*
X56760000Y-49790000D03*
X53860000Y-56465000D03*
X60260000Y-54415000D03*
X54610000Y-52165000D03*
D32*
X41510000Y-58890000D03*
X41510000Y-29590000D03*
D31*
X56760000Y-20490000D03*
X54610000Y-22865000D03*
X60260000Y-25115000D03*
X53860000Y-27165000D03*
X48510000Y-84990000D03*
X48510000Y-79990000D03*
X48510000Y-114290000D03*
X48510000Y-109290000D03*
X48510000Y-50690000D03*
X48510000Y-55690000D03*
X48510000Y-26390000D03*
X48510000Y-21390000D03*
X88910000Y-113165000D03*
D32*
X84110000Y-122940000D03*
X77710000Y-126090000D03*
X91660000Y-124740000D03*
X89310000Y-127890000D03*
D31*
X80660000Y-122190000D03*
X81160000Y-122190000D03*
X77785000Y-121040000D03*
D32*
X78110000Y-116190000D03*
D31*
X79310000Y-113640000D03*
D32*
X78110000Y-86890000D03*
D31*
X79310000Y-84340000D03*
X88910000Y-83865000D03*
D32*
X91660000Y-95440000D03*
X89310000Y-98590000D03*
D31*
X81160000Y-92890000D03*
X80660000Y-92890000D03*
D32*
X77710000Y-96790000D03*
D31*
X77785000Y-91740000D03*
D32*
X84110000Y-93640000D03*
D31*
X88910000Y-54565000D03*
X79310000Y-55040000D03*
D32*
X78110000Y-57590000D03*
D31*
X77785000Y-62440000D03*
D32*
X89310000Y-69290000D03*
X91660000Y-66140000D03*
D31*
X80660000Y-63590000D03*
X81160000Y-63590000D03*
D32*
X77710000Y-67490000D03*
X84110000Y-64340000D03*
D31*
X80660000Y-34290000D03*
X81160000Y-34290000D03*
D32*
X77710000Y-38190000D03*
X89310000Y-39990000D03*
X91660000Y-36840000D03*
X84110000Y-35040000D03*
D31*
X77785000Y-33140000D03*
X88910000Y-25265000D03*
D32*
X78110000Y-28290000D03*
D31*
X79310000Y-25740000D03*
D32*
X92310000Y-118590000D03*
X88760000Y-118840000D03*
X92310000Y-89290000D03*
X88760000Y-89540000D03*
X92310000Y-59990000D03*
X88760000Y-60240000D03*
X88760000Y-30940000D03*
X92310000Y-30690000D03*
X82310000Y-123740000D03*
X84460000Y-126840000D03*
D31*
X73060000Y-117040000D03*
X73610000Y-119790000D03*
D32*
X33310000Y-95790000D03*
X32610000Y-95790000D03*
D31*
X24585000Y-86715000D03*
D32*
X49010000Y-96290000D03*
X48510000Y-95790000D03*
X49510000Y-96790000D03*
X48510000Y-125090000D03*
X49010000Y-125590000D03*
X49510000Y-126090000D03*
X32610000Y-125090000D03*
X33310000Y-125090000D03*
D31*
X24585000Y-116015000D03*
X73060000Y-87740000D03*
X73610000Y-90490000D03*
D32*
X84460000Y-97540000D03*
X82310000Y-94440000D03*
D31*
X73610000Y-61190000D03*
X73060000Y-58440000D03*
D32*
X48510000Y-66490000D03*
X49010000Y-66990000D03*
X49510000Y-67490000D03*
X84460000Y-68240000D03*
X82310000Y-65140000D03*
X32610000Y-66490000D03*
X33310000Y-66490000D03*
D31*
X24585000Y-57415000D03*
D32*
X49510000Y-38190000D03*
X49010000Y-37690000D03*
D31*
X24585000Y-28115000D03*
D32*
X48510000Y-37190000D03*
X33310000Y-37190000D03*
X32610000Y-37190000D03*
X84460000Y-38940000D03*
D31*
X73610000Y-31890000D03*
X73060000Y-29140000D03*
D32*
X82310000Y-35840000D03*
X87710000Y-119490000D03*
X87710000Y-90190000D03*
X87710000Y-60890000D03*
X87710000Y-31590000D03*
D31*
X87810000Y-116390000D03*
X87810000Y-87090000D03*
X87810000Y-57790000D03*
X87810000Y-28490000D03*
X73260000Y-111590000D03*
X72460000Y-111590000D03*
X72460000Y-107590000D03*
X72460000Y-109990000D03*
X73260000Y-109990000D03*
X73260000Y-110790000D03*
X68460000Y-109990000D03*
X66060000Y-109990000D03*
X66060000Y-113190000D03*
X67660000Y-113190000D03*
X66860000Y-112390000D03*
X66060000Y-111590000D03*
X70060000Y-113990000D03*
X70860000Y-113990000D03*
X70871581Y-110791581D03*
X65260000Y-109990000D03*
X66060000Y-112390000D03*
X67660000Y-108390000D03*
X69284266Y-109240000D03*
X70060000Y-106790000D03*
X69260000Y-106790000D03*
X70860000Y-106790000D03*
X66860000Y-107590000D03*
X63910000Y-116890000D03*
X71035000Y-115915000D03*
X70860000Y-113190000D03*
X70410000Y-120390000D03*
X66960000Y-119315000D03*
X66560000Y-119690000D03*
X60585000Y-79115000D03*
X56060000Y-77940000D03*
X55360000Y-75690000D03*
X62410000Y-92990000D03*
X62410000Y-122290000D03*
X55360000Y-104990000D03*
X56060000Y-107240000D03*
X60585000Y-108415000D03*
X70060000Y-84690000D03*
X70860000Y-84690000D03*
X70860000Y-83890000D03*
X71035000Y-86615000D03*
X70410000Y-91090000D03*
X66560000Y-90390000D03*
X66960000Y-90015000D03*
X72460000Y-78290000D03*
X70860000Y-77490000D03*
X72460000Y-80690000D03*
X73260000Y-80690000D03*
X73260000Y-82290000D03*
X70871581Y-81491581D03*
X72460000Y-82290000D03*
X73260000Y-81490000D03*
X69260000Y-77490000D03*
X70060000Y-77490000D03*
X67660000Y-79090000D03*
X68460000Y-80690000D03*
X69284266Y-79940000D03*
X65260000Y-80690000D03*
X66060000Y-80690000D03*
X66860000Y-78290000D03*
X66860000Y-83090000D03*
X66060000Y-83090000D03*
X66060000Y-82290000D03*
X66060000Y-83890000D03*
X67660000Y-83890000D03*
X63910000Y-87590000D03*
X63910000Y-58290000D03*
X62410000Y-63690000D03*
X66560000Y-61090000D03*
X66960000Y-60715000D03*
X70410000Y-61790000D03*
X71035000Y-57315000D03*
X56060000Y-48640000D03*
X55360000Y-46390000D03*
X60585000Y-49815000D03*
X65260000Y-51390000D03*
X68460000Y-51390000D03*
X66060000Y-51390000D03*
X66060000Y-54590000D03*
X66060000Y-52990000D03*
X66860000Y-53790000D03*
X66060000Y-53790000D03*
X67660000Y-54590000D03*
X70871581Y-52191581D03*
X73260000Y-51390000D03*
X72460000Y-52990000D03*
X72460000Y-51390000D03*
X73260000Y-52190000D03*
X73260000Y-52990000D03*
X70860000Y-55390000D03*
X70060000Y-55390000D03*
X70860000Y-54590000D03*
X72460000Y-48990000D03*
X69284266Y-50640000D03*
X67660000Y-49790000D03*
X70860000Y-48190000D03*
X70060000Y-48190000D03*
X69260000Y-48190000D03*
X66860000Y-48990000D03*
X66560000Y-31790000D03*
X66960000Y-31415000D03*
X63910000Y-28990000D03*
X56060000Y-19340000D03*
X55360000Y-17090000D03*
X60585000Y-20515000D03*
X71035000Y-28015000D03*
X62410000Y-34390000D03*
X70410000Y-32490000D03*
X70860000Y-25290000D03*
X69260000Y-18890000D03*
X70871581Y-22891581D03*
X69284266Y-21340000D03*
X70060000Y-18890000D03*
X70860000Y-18890000D03*
X72460000Y-22090000D03*
X70060000Y-26090000D03*
X70860000Y-26090000D03*
X68460000Y-22090000D03*
X72460000Y-23690000D03*
X73260000Y-22890000D03*
X73260000Y-23690000D03*
X73260000Y-22090000D03*
X66060000Y-23690000D03*
X66060000Y-25290000D03*
X66860000Y-24490000D03*
X66060000Y-24490000D03*
X67660000Y-25290000D03*
X72460000Y-19690000D03*
X67660000Y-20490000D03*
X66860000Y-19690000D03*
X66060000Y-22090000D03*
X65260000Y-22090000D03*
X56810000Y-80790000D03*
X56810000Y-110090000D03*
X56810000Y-51490000D03*
X56810000Y-22190000D03*
D32*
X88410000Y-126040000D03*
X88410000Y-96740000D03*
X88410000Y-67440000D03*
X88410000Y-38140000D03*
D31*
X88760000Y-118189998D03*
X88760000Y-88889998D03*
X88760000Y-59589998D03*
X88760000Y-30289998D03*
X76760000Y-110140000D03*
X76160000Y-116690000D03*
X76160000Y-87390000D03*
X76760000Y-80840000D03*
X76160000Y-58090000D03*
X76760000Y-51540000D03*
X76760000Y-22240000D03*
X76160000Y-28790000D03*
X68460000Y-109190000D03*
X71660000Y-120290000D03*
X71660000Y-90990000D03*
X68460000Y-79890000D03*
X71660000Y-61690000D03*
X68460000Y-50590000D03*
X71660000Y-32390000D03*
X68460000Y-21290000D03*
X67660000Y-109990000D03*
X65860000Y-121340000D03*
X65860000Y-92040000D03*
X67660000Y-80690000D03*
X65860000Y-62740000D03*
X67660000Y-51390000D03*
X65860000Y-33440000D03*
X67660000Y-22090000D03*
X65260000Y-110790000D03*
X72610000Y-122190000D03*
X72610000Y-92890000D03*
X65260000Y-81490000D03*
X72610000Y-63590000D03*
X65260000Y-52190000D03*
X72610000Y-34290000D03*
X65260000Y-22890000D03*
X64110000Y-110765000D03*
X65110000Y-122290000D03*
X65110000Y-92990000D03*
X64110000Y-81465000D03*
X65110000Y-63690000D03*
X64110000Y-52165000D03*
X65110000Y-34390000D03*
X64110000Y-22865000D03*
X65260001Y-111612506D03*
X67660000Y-109190000D03*
X67660000Y-79890000D03*
X65260001Y-82312506D03*
X65260001Y-53012506D03*
X67660000Y-50590000D03*
X65260001Y-23712506D03*
X67660000Y-21290000D03*
X63210000Y-105390000D03*
X68410000Y-106814266D03*
X68410000Y-77514266D03*
X63210000Y-76090000D03*
X68410000Y-48214266D03*
X63210000Y-46790000D03*
X63210000Y-17490000D03*
X68410000Y-18914266D03*
X63260000Y-105965000D03*
X66860000Y-106790000D03*
X63260000Y-76665000D03*
X66860000Y-77490000D03*
X66860000Y-48190000D03*
X63260000Y-47365000D03*
X63260000Y-18065000D03*
X66860000Y-18890000D03*
X69260000Y-108390000D03*
X78735000Y-109365000D03*
X78735000Y-80065000D03*
X69260000Y-79090000D03*
X78735000Y-50765000D03*
X69260000Y-49790000D03*
X78735000Y-21465000D03*
X69260000Y-20490000D03*
X70060000Y-107590000D03*
X79160000Y-108415000D03*
X79160000Y-79115000D03*
X70060000Y-78290000D03*
X79160000Y-49815000D03*
X70060000Y-48990000D03*
X79160000Y-20515000D03*
X70060000Y-19690000D03*
D32*
X32130532Y-84101091D03*
X32110000Y-81040000D03*
X35660000Y-86840000D03*
X35935000Y-79540000D03*
X32110000Y-110340000D03*
X35935000Y-108840000D03*
X35660000Y-116140000D03*
X32130532Y-113401091D03*
X32130532Y-54801091D03*
X32110000Y-51740000D03*
X35660000Y-57540000D03*
X35935000Y-50240000D03*
X35935000Y-20940000D03*
X32110000Y-22440000D03*
X32130532Y-25501091D03*
X35660000Y-28240000D03*
D31*
X78060000Y-118190000D03*
X73260000Y-114790000D03*
X73260000Y-85490000D03*
X78060000Y-88890000D03*
X73260000Y-56190000D03*
X78060000Y-59590000D03*
X78060000Y-30290000D03*
X73260000Y-26890000D03*
X75310000Y-109640000D03*
X76810000Y-111740000D03*
X76810000Y-82440000D03*
X75310000Y-80340000D03*
X75310000Y-51040000D03*
X76810000Y-53140000D03*
X76810000Y-23840000D03*
X75310000Y-21740000D03*
X67660000Y-116640000D03*
X33410000Y-93790000D03*
D32*
X22360000Y-93790000D03*
D31*
X33410000Y-123090000D03*
D32*
X22360000Y-123090000D03*
D31*
X67660000Y-87340000D03*
X67660000Y-58040000D03*
X33410000Y-64490000D03*
D32*
X22360000Y-64490000D03*
D31*
X33410000Y-35190000D03*
X67660000Y-28740000D03*
D32*
X22360000Y-35190000D03*
D31*
X32710000Y-92290000D03*
X35660000Y-85990000D03*
X59510000Y-76890000D03*
X59510000Y-106190000D03*
X35660000Y-115290000D03*
X32710000Y-121590000D03*
X59510000Y-47590000D03*
X32710000Y-62990000D03*
X35660000Y-56690000D03*
X32710000Y-33690000D03*
X59510000Y-18290000D03*
X35660000Y-27390000D03*
D32*
X35610000Y-87990000D03*
D31*
X36160000Y-85490000D03*
X59510000Y-76190000D03*
X59510000Y-105490000D03*
X36160000Y-114790000D03*
D32*
X35610000Y-117290000D03*
D31*
X59510000Y-46890000D03*
D32*
X35610000Y-58690000D03*
D31*
X36160000Y-56190000D03*
D32*
X35610000Y-29390000D03*
D31*
X59510000Y-17590000D03*
X36160000Y-26890000D03*
D32*
X37460000Y-80890000D03*
X37460000Y-110190000D03*
X37460000Y-51590000D03*
X37460000Y-22290000D03*
D31*
X65237494Y-105990001D03*
X36610000Y-84940000D03*
X36610000Y-114240000D03*
X65237494Y-76690001D03*
X65237494Y-47390001D03*
X36610000Y-55640000D03*
X36610000Y-26340000D03*
X65237494Y-18090001D03*
X73310000Y-104390000D03*
X85910000Y-107690000D03*
X85910000Y-78390000D03*
X73310000Y-75090000D03*
X73310000Y-45790000D03*
X85910000Y-49090000D03*
X73310000Y-16490000D03*
X85910000Y-19790000D03*
X65260000Y-114790000D03*
X64010000Y-116040000D03*
X65260000Y-85490000D03*
X64010000Y-86740000D03*
X65260000Y-56190000D03*
X64010000Y-57440000D03*
X64010000Y-28140000D03*
X65260000Y-26890000D03*
X63910000Y-114490000D03*
X65260000Y-113190000D03*
X65260000Y-83890000D03*
X63910000Y-85190000D03*
X63910000Y-55890000D03*
X65260000Y-54590000D03*
X63910000Y-26590000D03*
X65260000Y-25290000D03*
X65260000Y-112390000D03*
X63860002Y-112840000D03*
X65260000Y-83090000D03*
X63860002Y-83540000D03*
X65260000Y-53790000D03*
X63860002Y-54240000D03*
X63860002Y-24940000D03*
X65260000Y-24490000D03*
X67660000Y-114790000D03*
X60060000Y-91940000D03*
X61160000Y-93040000D03*
X60060000Y-121240000D03*
X61160000Y-122340000D03*
X67660000Y-85490000D03*
X67660000Y-56190000D03*
X60060000Y-62640000D03*
X61160000Y-63740000D03*
X61160000Y-34440000D03*
X60060000Y-33340000D03*
X67660000Y-26890000D03*
D32*
X83110000Y-125790000D03*
X86609998Y-121090000D03*
X83110000Y-96490000D03*
X86609998Y-91790000D03*
X86609998Y-62490000D03*
X83110000Y-67190000D03*
X83110000Y-37890000D03*
X86609998Y-33190000D03*
D31*
X72460000Y-110790000D03*
X78235000Y-110540000D03*
X78235000Y-81240000D03*
X72460000Y-81490000D03*
X72460000Y-52190000D03*
X78235000Y-51940000D03*
X78235000Y-22640000D03*
X72460000Y-22890000D03*
D32*
X75510000Y-106690000D03*
D31*
X74071090Y-106001090D03*
D32*
X75510000Y-77390000D03*
D31*
X74071090Y-76701090D03*
X74071090Y-47401090D03*
D32*
X75510000Y-48090000D03*
X75510000Y-18790000D03*
D31*
X74071090Y-18101090D03*
X75460000Y-105040000D03*
X73260000Y-105990000D03*
X73260000Y-76690000D03*
X75460000Y-75740000D03*
X73260000Y-47390000D03*
X75460000Y-46440000D03*
X75460000Y-17140000D03*
X73260000Y-18090000D03*
X65260000Y-113990000D03*
X32860000Y-93290000D03*
X32860000Y-122590000D03*
X65260000Y-84690000D03*
X65260000Y-55390000D03*
X32860000Y-63990000D03*
X32860000Y-34690000D03*
X65260000Y-26090000D03*
D36*
X31860000Y-79140000D02*
X30910000Y-79140000D01*
X54810000Y-83640000D02*
X56760000Y-83640000D01*
D37*
X53910000Y-86365000D02*
X53835000Y-86440000D01*
X36010000Y-77540000D02*
X36010000Y-76690000D01*
D38*
X40060000Y-80890000D02*
X41010000Y-80890000D01*
D37*
X40210000Y-79540000D02*
X41010000Y-79540000D01*
X57085000Y-84765000D02*
X56110000Y-85740000D01*
D36*
X56760000Y-83640000D02*
X57085000Y-83965000D01*
X56685000Y-83565000D02*
X57085000Y-83965000D01*
X57685000Y-84565000D02*
X57085000Y-83965000D01*
D37*
X56110000Y-85740000D02*
X56435000Y-85415000D01*
X57085000Y-83965000D02*
X57085000Y-84765000D01*
D36*
X59135000Y-84565000D02*
X57685000Y-84565000D01*
D37*
X54935000Y-86365000D02*
X55485000Y-86365000D01*
X55485000Y-86365000D02*
X56110000Y-85740000D01*
X54935000Y-86365000D02*
X53910000Y-86365000D01*
D38*
X56360000Y-79930000D02*
X56110000Y-79680000D01*
X56110000Y-79680000D02*
X56110000Y-78890000D01*
D39*
X69210000Y-109940000D02*
X69260000Y-109990000D01*
D37*
X69760000Y-110490000D02*
X69260000Y-109990000D01*
X67710000Y-112340000D02*
X67660000Y-112390000D01*
X68310000Y-112340000D02*
X67710000Y-112340000D01*
X69510000Y-112440000D02*
X68410000Y-112440000D01*
X68410000Y-112440000D02*
X68310000Y-112340000D01*
X69760000Y-111090000D02*
X69760000Y-110490000D01*
X71660000Y-112190000D02*
X71760000Y-112090000D01*
X70460000Y-108640000D02*
X71760000Y-108640000D01*
D39*
X71360000Y-108640000D02*
X71760000Y-108640000D01*
X68460000Y-108240000D02*
X69110000Y-107590000D01*
D37*
X69110000Y-107740000D02*
X68460000Y-108390000D01*
X69110000Y-107640000D02*
X69110000Y-107740000D01*
D39*
X68460000Y-108390000D02*
X68460000Y-108240000D01*
D37*
X71660000Y-105790000D02*
X71060000Y-105790000D01*
X71060000Y-105790000D02*
X70860000Y-105990000D01*
D39*
X69010000Y-105390000D02*
X69010000Y-105290000D01*
X67635000Y-105340000D02*
X67810000Y-105340000D01*
X69010000Y-105290000D02*
X68335000Y-104615000D01*
X67635000Y-105315000D02*
X68335000Y-104615000D01*
X67635000Y-105340000D02*
X67635000Y-105315000D01*
D37*
X73587818Y-108390000D02*
X73948909Y-108028909D01*
X73260000Y-108390000D02*
X73587818Y-108390000D01*
D39*
X71910000Y-108640000D02*
X72460000Y-109190000D01*
X71760000Y-108640000D02*
X71910000Y-108640000D01*
D37*
X74410000Y-112290000D02*
X74410000Y-111940000D01*
X74337818Y-110790000D02*
X74748909Y-110378909D01*
X74410000Y-111940000D02*
X74060000Y-111590000D01*
X74060000Y-110790000D02*
X74337818Y-110790000D01*
X68660000Y-115040000D02*
X68660000Y-114590000D01*
X68660000Y-114590000D02*
X69260000Y-113990000D01*
X69510000Y-113740000D02*
X69260000Y-113990000D01*
X69510000Y-112440000D02*
X69510000Y-113740000D01*
X71660000Y-113190000D02*
X71660000Y-112190000D01*
D36*
X72260000Y-114940000D02*
X72110000Y-114790000D01*
D37*
X72110000Y-114790000D02*
X72110000Y-114440000D01*
X72110000Y-114440000D02*
X71660000Y-113990000D01*
D36*
X86210000Y-83990000D02*
X86210000Y-83565000D01*
X86210000Y-83565000D02*
X86910000Y-82865000D01*
X92310000Y-86340000D02*
X92310000Y-87290000D01*
X90460000Y-85340000D02*
X90460000Y-86190000D01*
X90460000Y-86190000D02*
X89760000Y-86890000D01*
D37*
X92910000Y-94940000D02*
X92910000Y-91490000D01*
X92910000Y-91490000D02*
X92760000Y-91340000D01*
D36*
X78760000Y-92890000D02*
X78760000Y-91865000D01*
D38*
X77710000Y-94540000D02*
X78685000Y-94540000D01*
D37*
X68660000Y-85740000D02*
X68660000Y-86740000D01*
X68660000Y-86740000D02*
X68710000Y-86790000D01*
X66682180Y-105790000D02*
X66871090Y-105978910D01*
D39*
X65910000Y-105790000D02*
X66682180Y-105790000D01*
D37*
X66060000Y-105790000D02*
X66682180Y-105790000D01*
X83060000Y-108340000D02*
X85360000Y-108340000D01*
X85360000Y-108340000D02*
X85410000Y-108290000D01*
D39*
X79160000Y-107615000D02*
X79210000Y-107565000D01*
D38*
X79210000Y-106940000D02*
X79210000Y-107565000D01*
D39*
X78085000Y-107615000D02*
X79160000Y-107615000D01*
D37*
X83410000Y-91890000D02*
X83360000Y-91890000D01*
D36*
X85310000Y-93640000D02*
X85760000Y-93640000D01*
X85760000Y-93640000D02*
X86310000Y-93090000D01*
X81360000Y-84340000D02*
X81360000Y-86590000D01*
X81360000Y-86590000D02*
X82910000Y-88140000D01*
D38*
X83060000Y-88290000D02*
X82910000Y-88140000D01*
D37*
X83410000Y-91940000D02*
X83310000Y-91940000D01*
D36*
X83410000Y-88640000D02*
X82910000Y-88140000D01*
D40*
X82210000Y-88840000D02*
X82910000Y-88140000D01*
D36*
X83410000Y-91890000D02*
X83410000Y-88640000D01*
D38*
X86710000Y-89090000D02*
X87347270Y-89090000D01*
X87347270Y-89090000D02*
X87654908Y-89397638D01*
D37*
X66110000Y-108440000D02*
X66060000Y-108390000D01*
X66910000Y-108440000D02*
X66110000Y-108440000D01*
X64310000Y-108740000D02*
X64810000Y-108740000D01*
X64810000Y-108740000D02*
X65260000Y-109190000D01*
D39*
X65210000Y-109140000D02*
X65260000Y-109190000D01*
D37*
X67410000Y-111040000D02*
X66860000Y-111590000D01*
X67410000Y-110840000D02*
X67410000Y-111040000D01*
X66760000Y-114940000D02*
X66360000Y-114940000D01*
X66048910Y-114628910D02*
X66360000Y-114940000D01*
X66048910Y-114001090D02*
X66048910Y-114628910D01*
D36*
X78760000Y-122190000D02*
X78760000Y-121165000D01*
D38*
X77710000Y-123840000D02*
X78685000Y-123840000D01*
D37*
X83410000Y-121240000D02*
X83310000Y-121240000D01*
X83410000Y-121190000D02*
X83360000Y-121190000D01*
D36*
X85760000Y-122940000D02*
X86310000Y-122390000D01*
X85310000Y-122940000D02*
X85760000Y-122940000D01*
X83410000Y-121190000D02*
X83410000Y-117940000D01*
X83410000Y-117940000D02*
X82910000Y-117440000D01*
D40*
X82210000Y-118140000D02*
X82910000Y-117440000D01*
D36*
X81360000Y-115890000D02*
X82910000Y-117440000D01*
D38*
X83060000Y-117590000D02*
X82910000Y-117440000D01*
D37*
X92910000Y-120790000D02*
X92760000Y-120640000D01*
X92910000Y-124240000D02*
X92910000Y-120790000D01*
D38*
X87347270Y-118390000D02*
X87654908Y-118697638D01*
X86710000Y-118390000D02*
X87347270Y-118390000D01*
D36*
X86210000Y-113290000D02*
X86210000Y-112865000D01*
X86210000Y-112865000D02*
X86910000Y-112165000D01*
X92310000Y-115640000D02*
X92310000Y-116590000D01*
X90460000Y-114640000D02*
X90460000Y-115490000D01*
X90460000Y-115490000D02*
X89760000Y-116190000D01*
X81360000Y-113640000D02*
X81360000Y-115890000D01*
D37*
X68660000Y-116040000D02*
X68710000Y-116090000D01*
X68660000Y-115040000D02*
X68660000Y-116040000D01*
D39*
X71360000Y-79340000D02*
X71760000Y-79340000D01*
D37*
X70460000Y-79340000D02*
X71760000Y-79340000D01*
D39*
X71910000Y-79340000D02*
X72460000Y-79890000D01*
X71760000Y-79340000D02*
X71910000Y-79340000D01*
D37*
X69760000Y-81790000D02*
X69760000Y-81190000D01*
X69760000Y-81190000D02*
X69260000Y-80690000D01*
D39*
X69210000Y-80640000D02*
X69260000Y-80690000D01*
D37*
X71060000Y-76490000D02*
X70860000Y-76690000D01*
X71660000Y-76490000D02*
X71060000Y-76490000D01*
D39*
X68460000Y-79090000D02*
X68460000Y-78940000D01*
X68460000Y-78940000D02*
X69110000Y-78290000D01*
D37*
X69110000Y-78340000D02*
X69110000Y-78440000D01*
X69110000Y-78440000D02*
X68460000Y-79090000D01*
D36*
X72260000Y-85640000D02*
X72110000Y-85490000D01*
D37*
X72110000Y-85490000D02*
X72110000Y-85140000D01*
X72110000Y-85140000D02*
X71660000Y-84690000D01*
X71660000Y-83890000D02*
X71660000Y-82890000D01*
X71660000Y-82890000D02*
X71760000Y-82790000D01*
X69510000Y-84440000D02*
X69260000Y-84690000D01*
X68660000Y-85290000D02*
X69260000Y-84690000D01*
X69510000Y-83140000D02*
X69510000Y-84440000D01*
X69510000Y-83140000D02*
X68410000Y-83140000D01*
X68660000Y-85740000D02*
X68660000Y-85290000D01*
X68410000Y-83140000D02*
X68310000Y-83040000D01*
X74060000Y-81490000D02*
X74337818Y-81490000D01*
X74337818Y-81490000D02*
X74748909Y-81078909D01*
X74410000Y-82640000D02*
X74060000Y-82290000D01*
X74410000Y-82990000D02*
X74410000Y-82640000D01*
X73260000Y-79090000D02*
X73587818Y-79090000D01*
D39*
X78085000Y-78315000D02*
X79160000Y-78315000D01*
X79160000Y-78315000D02*
X79210000Y-78265000D01*
D38*
X79210000Y-77640000D02*
X79210000Y-78265000D01*
D37*
X73587818Y-79090000D02*
X73948909Y-78728909D01*
X85360000Y-79040000D02*
X85410000Y-78990000D01*
X83060000Y-79040000D02*
X85360000Y-79040000D01*
D39*
X67635000Y-76040000D02*
X67635000Y-76015000D01*
X69010000Y-76090000D02*
X69010000Y-75990000D01*
X69010000Y-75990000D02*
X68335000Y-75315000D01*
X67635000Y-76015000D02*
X68335000Y-75315000D01*
D37*
X66910000Y-79140000D02*
X66110000Y-79140000D01*
X66110000Y-79140000D02*
X66060000Y-79090000D01*
X66682180Y-76490000D02*
X66871090Y-76678910D01*
D39*
X65910000Y-76490000D02*
X66682180Y-76490000D01*
D37*
X66060000Y-76490000D02*
X66682180Y-76490000D01*
D39*
X67635000Y-76040000D02*
X67810000Y-76040000D01*
X65210000Y-79840000D02*
X65260000Y-79890000D01*
D37*
X64810000Y-79440000D02*
X65260000Y-79890000D01*
X64310000Y-79440000D02*
X64810000Y-79440000D01*
X67410000Y-81740000D02*
X66860000Y-82290000D01*
X67410000Y-81540000D02*
X67410000Y-81740000D01*
X67710000Y-83040000D02*
X67660000Y-83090000D01*
X68310000Y-83040000D02*
X67710000Y-83040000D01*
X66760000Y-85640000D02*
X66360000Y-85640000D01*
X66048910Y-85328910D02*
X66360000Y-85640000D01*
X66048910Y-84701090D02*
X66048910Y-85328910D01*
D36*
X59135000Y-113865000D02*
X57685000Y-113865000D01*
D37*
X56110000Y-115040000D02*
X56435000Y-114715000D01*
X57085000Y-114065000D02*
X56110000Y-115040000D01*
X57085000Y-113265000D02*
X57085000Y-114065000D01*
D36*
X57685000Y-113865000D02*
X57085000Y-113265000D01*
X54810000Y-112940000D02*
X56760000Y-112940000D01*
D38*
X56110000Y-108980000D02*
X56110000Y-108190000D01*
X56360000Y-109230000D02*
X56110000Y-108980000D01*
D36*
X56685000Y-112865000D02*
X57085000Y-113265000D01*
X56760000Y-112940000D02*
X57085000Y-113265000D01*
D38*
X40060000Y-110190000D02*
X41010000Y-110190000D01*
D37*
X40210000Y-108840000D02*
X41010000Y-108840000D01*
D36*
X31860000Y-108440000D02*
X30910000Y-108440000D01*
D37*
X36010000Y-106840000D02*
X36010000Y-105990000D01*
X54935000Y-115665000D02*
X55485000Y-115665000D01*
X55485000Y-115665000D02*
X56110000Y-115040000D01*
X54935000Y-115665000D02*
X53910000Y-115665000D01*
X53910000Y-115665000D02*
X53835000Y-115740000D01*
D36*
X31860000Y-49840000D02*
X30910000Y-49840000D01*
D37*
X36010000Y-48240000D02*
X36010000Y-47390000D01*
D38*
X56360000Y-50630000D02*
X56110000Y-50380000D01*
X56110000Y-50380000D02*
X56110000Y-49590000D01*
D36*
X56760000Y-54340000D02*
X57085000Y-54665000D01*
X56685000Y-54265000D02*
X57085000Y-54665000D01*
X54810000Y-54340000D02*
X56760000Y-54340000D01*
D37*
X57085000Y-54665000D02*
X57085000Y-55465000D01*
X56110000Y-56440000D02*
X56435000Y-56115000D01*
X57085000Y-55465000D02*
X56110000Y-56440000D01*
D36*
X59135000Y-55265000D02*
X57685000Y-55265000D01*
D37*
X40210000Y-50240000D02*
X41010000Y-50240000D01*
D38*
X40060000Y-51590000D02*
X41010000Y-51590000D01*
D37*
X55485000Y-57065000D02*
X56110000Y-56440000D01*
X54935000Y-57065000D02*
X55485000Y-57065000D01*
D36*
X57685000Y-55265000D02*
X57085000Y-54665000D01*
D37*
X54935000Y-57065000D02*
X53910000Y-57065000D01*
X53910000Y-57065000D02*
X53835000Y-57140000D01*
D39*
X71360000Y-50040000D02*
X71760000Y-50040000D01*
D37*
X70460000Y-50040000D02*
X71760000Y-50040000D01*
D39*
X71910000Y-50040000D02*
X72460000Y-50590000D01*
X71760000Y-50040000D02*
X71910000Y-50040000D01*
X69210000Y-51340000D02*
X69260000Y-51390000D01*
D37*
X69760000Y-51890000D02*
X69260000Y-51390000D01*
X69760000Y-52490000D02*
X69760000Y-51890000D01*
X71660000Y-47190000D02*
X71060000Y-47190000D01*
X71060000Y-47190000D02*
X70860000Y-47390000D01*
X69110000Y-49140000D02*
X68460000Y-49790000D01*
X69110000Y-49040000D02*
X69110000Y-49140000D01*
D39*
X68460000Y-49640000D02*
X69110000Y-48990000D01*
X68460000Y-49790000D02*
X68460000Y-49640000D01*
D37*
X71660000Y-54590000D02*
X71660000Y-53590000D01*
X71660000Y-53590000D02*
X71760000Y-53490000D01*
X68660000Y-55990000D02*
X69260000Y-55390000D01*
X68660000Y-56440000D02*
X68660000Y-55990000D01*
X69510000Y-53840000D02*
X69510000Y-55140000D01*
X69510000Y-53840000D02*
X68410000Y-53840000D01*
X69510000Y-55140000D02*
X69260000Y-55390000D01*
X72110000Y-55840000D02*
X71660000Y-55390000D01*
X72110000Y-56190000D02*
X72110000Y-55840000D01*
D36*
X72260000Y-56340000D02*
X72110000Y-56190000D01*
D37*
X74410000Y-53340000D02*
X74060000Y-52990000D01*
X74410000Y-53690000D02*
X74410000Y-53340000D01*
X74337818Y-52190000D02*
X74748909Y-51778909D01*
X74060000Y-52190000D02*
X74337818Y-52190000D01*
X68660000Y-56440000D02*
X68660000Y-57440000D01*
X68660000Y-57440000D02*
X68710000Y-57490000D01*
X66048910Y-56028910D02*
X66360000Y-56340000D01*
X66760000Y-56340000D02*
X66360000Y-56340000D01*
X66048910Y-55401090D02*
X66048910Y-56028910D01*
D39*
X65910000Y-47190000D02*
X66682180Y-47190000D01*
D37*
X66060000Y-47190000D02*
X66682180Y-47190000D01*
X66682180Y-47190000D02*
X66871090Y-47378910D01*
X68410000Y-53840000D02*
X68310000Y-53740000D01*
X67710000Y-53740000D02*
X67660000Y-53790000D01*
X68310000Y-53740000D02*
X67710000Y-53740000D01*
X67410000Y-52240000D02*
X67410000Y-52440000D01*
D39*
X65210000Y-50540000D02*
X65260000Y-50590000D01*
D37*
X64810000Y-50140000D02*
X65260000Y-50590000D01*
X64310000Y-50140000D02*
X64810000Y-50140000D01*
X66110000Y-49840000D02*
X66060000Y-49790000D01*
X66910000Y-49840000D02*
X66110000Y-49840000D01*
D39*
X67635000Y-46740000D02*
X67810000Y-46740000D01*
X67635000Y-46740000D02*
X67635000Y-46715000D01*
X69010000Y-46690000D02*
X68335000Y-46015000D01*
X67635000Y-46715000D02*
X68335000Y-46015000D01*
X69010000Y-46790000D02*
X69010000Y-46690000D01*
D37*
X67410000Y-52440000D02*
X66860000Y-52990000D01*
X73587818Y-49790000D02*
X73948909Y-49428909D01*
X73260000Y-49790000D02*
X73587818Y-49790000D01*
X85360000Y-49740000D02*
X85410000Y-49690000D01*
X83060000Y-49740000D02*
X85360000Y-49740000D01*
D39*
X79160000Y-49015000D02*
X79210000Y-48965000D01*
D38*
X79210000Y-48340000D02*
X79210000Y-48965000D01*
D39*
X78085000Y-49015000D02*
X79160000Y-49015000D01*
D36*
X78760000Y-63590000D02*
X78760000Y-62565000D01*
D38*
X77710000Y-65240000D02*
X78685000Y-65240000D01*
D37*
X83410000Y-62640000D02*
X83310000Y-62640000D01*
X83410000Y-62590000D02*
X83360000Y-62590000D01*
D36*
X85310000Y-64340000D02*
X85760000Y-64340000D01*
X85760000Y-64340000D02*
X86310000Y-63790000D01*
D37*
X92910000Y-65640000D02*
X92910000Y-62190000D01*
X92910000Y-62190000D02*
X92760000Y-62040000D01*
D40*
X82210000Y-59540000D02*
X82910000Y-58840000D01*
D36*
X81360000Y-55040000D02*
X81360000Y-57290000D01*
D38*
X83060000Y-58990000D02*
X82910000Y-58840000D01*
D36*
X81360000Y-57290000D02*
X82910000Y-58840000D01*
X83410000Y-59340000D02*
X82910000Y-58840000D01*
X86210000Y-54265000D02*
X86910000Y-53565000D01*
X86210000Y-54690000D02*
X86210000Y-54265000D01*
D38*
X87347270Y-59790000D02*
X87654908Y-60097638D01*
D36*
X83410000Y-62590000D02*
X83410000Y-59340000D01*
D38*
X86710000Y-59790000D02*
X87347270Y-59790000D01*
D36*
X90460000Y-56890000D02*
X89760000Y-57590000D01*
X90460000Y-56040000D02*
X90460000Y-56890000D01*
X92310000Y-57040000D02*
X92310000Y-57990000D01*
D37*
X92910000Y-36340000D02*
X92910000Y-32890000D01*
X92910000Y-32890000D02*
X92760000Y-32740000D01*
X83060000Y-20440000D02*
X85360000Y-20440000D01*
X85360000Y-20440000D02*
X85410000Y-20390000D01*
D38*
X40060000Y-22290000D02*
X41010000Y-22290000D01*
D39*
X78085000Y-19715000D02*
X79160000Y-19715000D01*
X79160000Y-19715000D02*
X79210000Y-19665000D01*
D38*
X56360000Y-21330000D02*
X56110000Y-21080000D01*
X56110000Y-21080000D02*
X56110000Y-20290000D01*
D36*
X54810000Y-25040000D02*
X56760000Y-25040000D01*
X56760000Y-25040000D02*
X57085000Y-25365000D01*
D38*
X79210000Y-19040000D02*
X79210000Y-19665000D01*
X77710000Y-35940000D02*
X78685000Y-35940000D01*
D36*
X72260000Y-27040000D02*
X72110000Y-26890000D01*
X85310000Y-35040000D02*
X85760000Y-35040000D01*
X85760000Y-35040000D02*
X86310000Y-34490000D01*
D37*
X83410000Y-33340000D02*
X83310000Y-33340000D01*
X83410000Y-33290000D02*
X83360000Y-33290000D01*
D38*
X86710000Y-30490000D02*
X87347270Y-30490000D01*
X87347270Y-30490000D02*
X87654908Y-30797638D01*
X83060000Y-29690000D02*
X82910000Y-29540000D01*
D40*
X82210000Y-30240000D02*
X82910000Y-29540000D01*
D37*
X68660000Y-27140000D02*
X68660000Y-28140000D01*
X68660000Y-28140000D02*
X68710000Y-28190000D01*
X40210000Y-20940000D02*
X41010000Y-20940000D01*
X36010000Y-18940000D02*
X36010000Y-18090000D01*
X64310000Y-20840000D02*
X64810000Y-20840000D01*
X64810000Y-20840000D02*
X65260000Y-21290000D01*
X66910000Y-20540000D02*
X66110000Y-20540000D01*
X66110000Y-20540000D02*
X66060000Y-20490000D01*
X69110000Y-19740000D02*
X69110000Y-19840000D01*
X69110000Y-19840000D02*
X68460000Y-20490000D01*
X66060000Y-17890000D02*
X66682180Y-17890000D01*
X66682180Y-17890000D02*
X66871090Y-18078910D01*
X71660000Y-17890000D02*
X71060000Y-17890000D01*
X71060000Y-17890000D02*
X70860000Y-18090000D01*
X73260000Y-20490000D02*
X73587818Y-20490000D01*
X73587818Y-20490000D02*
X73948909Y-20128909D01*
X74060000Y-22890000D02*
X74337818Y-22890000D01*
X74337818Y-22890000D02*
X74748909Y-22478909D01*
X74410000Y-24390000D02*
X74410000Y-24040000D01*
X74410000Y-24040000D02*
X74060000Y-23690000D01*
X70460000Y-20740000D02*
X71760000Y-20740000D01*
X69760000Y-23190000D02*
X69760000Y-22590000D01*
X69760000Y-22590000D02*
X69260000Y-22090000D01*
X67410000Y-22940000D02*
X67410000Y-23140000D01*
X67410000Y-23140000D02*
X66860000Y-23690000D01*
X68310000Y-24440000D02*
X67710000Y-24440000D01*
X67710000Y-24440000D02*
X67660000Y-24490000D01*
X69510000Y-24540000D02*
X68410000Y-24540000D01*
X68410000Y-24540000D02*
X68310000Y-24440000D01*
X69510000Y-24540000D02*
X69510000Y-25840000D01*
X69510000Y-25840000D02*
X69260000Y-26090000D01*
X71660000Y-25290000D02*
X71660000Y-24290000D01*
X71660000Y-24290000D02*
X71760000Y-24190000D01*
X72110000Y-26890000D02*
X72110000Y-26540000D01*
X72110000Y-26540000D02*
X71660000Y-26090000D01*
X68660000Y-27140000D02*
X68660000Y-26690000D01*
X68660000Y-26690000D02*
X69260000Y-26090000D01*
X66760000Y-27040000D02*
X66360000Y-27040000D01*
X66048910Y-26101090D02*
X66048910Y-26728910D01*
X66048910Y-26728910D02*
X66360000Y-27040000D01*
D36*
X31860000Y-20540000D02*
X30910000Y-20540000D01*
X56685000Y-24965000D02*
X57085000Y-25365000D01*
X59135000Y-25965000D02*
X57685000Y-25965000D01*
X57685000Y-25965000D02*
X57085000Y-25365000D01*
D37*
X55485000Y-27765000D02*
X56110000Y-27140000D01*
X56110000Y-27140000D02*
X56435000Y-26815000D01*
X57085000Y-25365000D02*
X57085000Y-26165000D01*
X57085000Y-26165000D02*
X56110000Y-27140000D01*
X54935000Y-27765000D02*
X55485000Y-27765000D01*
X54935000Y-27765000D02*
X53910000Y-27765000D01*
X53910000Y-27765000D02*
X53835000Y-27840000D01*
D36*
X90460000Y-26740000D02*
X90460000Y-27590000D01*
X90460000Y-27590000D02*
X89760000Y-28290000D01*
X78760000Y-34290000D02*
X78760000Y-33265000D01*
X83410000Y-33290000D02*
X83410000Y-30040000D01*
X83410000Y-30040000D02*
X82910000Y-29540000D01*
X81360000Y-25740000D02*
X81360000Y-27990000D01*
X81360000Y-27990000D02*
X82910000Y-29540000D01*
X86210000Y-25390000D02*
X86210000Y-24965000D01*
X86210000Y-24965000D02*
X86910000Y-24265000D01*
X92310000Y-27740000D02*
X92310000Y-28690000D01*
D39*
X69010000Y-17490000D02*
X69010000Y-17390000D01*
X69010000Y-17390000D02*
X68335000Y-16715000D01*
X67635000Y-17440000D02*
X67635000Y-17415000D01*
X67635000Y-17415000D02*
X68335000Y-16715000D01*
X67635000Y-17440000D02*
X67810000Y-17440000D01*
X68460000Y-20490000D02*
X68460000Y-20340000D01*
X68460000Y-20340000D02*
X69110000Y-19690000D01*
X65910000Y-17890000D02*
X66682180Y-17890000D01*
X71360000Y-20740000D02*
X71760000Y-20740000D01*
X71760000Y-20740000D02*
X71910000Y-20740000D01*
X71910000Y-20740000D02*
X72460000Y-21290000D01*
X69210000Y-22040000D02*
X69260000Y-22090000D01*
X65210000Y-21240000D02*
X65260000Y-21290000D01*
D36*
X54760000Y-81615000D02*
X54610000Y-81465000D01*
X54810000Y-81665000D02*
X54610000Y-81465000D01*
X54810000Y-82540000D02*
X54810000Y-81665000D01*
X59135000Y-83465000D02*
X60010000Y-83465000D01*
X60010000Y-83465000D02*
X60260000Y-83715000D01*
D37*
X54360000Y-85265000D02*
X53860000Y-85765000D01*
X54935000Y-85265000D02*
X54360000Y-85265000D01*
D38*
X57410000Y-79740000D02*
X56760000Y-79090000D01*
X57410000Y-79930000D02*
X57410000Y-79740000D01*
D36*
X60010000Y-112765000D02*
X60260000Y-113015000D01*
X59135000Y-112765000D02*
X60010000Y-112765000D01*
X54760000Y-110915000D02*
X54610000Y-110765000D01*
X54810000Y-110965000D02*
X54610000Y-110765000D01*
X54810000Y-111840000D02*
X54810000Y-110965000D01*
D38*
X57410000Y-109040000D02*
X56760000Y-108390000D01*
X57410000Y-109230000D02*
X57410000Y-109040000D01*
D37*
X54360000Y-114565000D02*
X53860000Y-115065000D01*
X54935000Y-114565000D02*
X54360000Y-114565000D01*
D38*
X57410000Y-50440000D02*
X56760000Y-49790000D01*
X57410000Y-50630000D02*
X57410000Y-50440000D01*
D36*
X54760000Y-52315000D02*
X54610000Y-52165000D01*
X54810000Y-52365000D02*
X54610000Y-52165000D01*
X54810000Y-53240000D02*
X54810000Y-52365000D01*
D37*
X54935000Y-55965000D02*
X54360000Y-55965000D01*
D36*
X60010000Y-54165000D02*
X60260000Y-54415000D01*
X59135000Y-54165000D02*
X60010000Y-54165000D01*
D37*
X54360000Y-55965000D02*
X53860000Y-56465000D01*
D38*
X57410000Y-21330000D02*
X57410000Y-21140000D01*
X57410000Y-21140000D02*
X56760000Y-20490000D01*
D36*
X54810000Y-23940000D02*
X54810000Y-23065000D01*
X54810000Y-23065000D02*
X54610000Y-22865000D01*
X54760000Y-23015000D02*
X54610000Y-22865000D01*
X59135000Y-24865000D02*
X60010000Y-24865000D01*
X60010000Y-24865000D02*
X60260000Y-25115000D01*
D37*
X54935000Y-26665000D02*
X54360000Y-26665000D01*
X54360000Y-26665000D02*
X53860000Y-27165000D01*
D36*
X88085000Y-84690000D02*
X88910000Y-83865000D01*
X88085000Y-84740000D02*
X88085000Y-84690000D01*
D37*
X89360000Y-98540000D02*
X89310000Y-98590000D01*
X89360000Y-97690000D02*
X89360000Y-98540000D01*
D40*
X79860000Y-92890000D02*
X79860000Y-94390000D01*
D36*
X81160000Y-92890000D02*
X80660000Y-92890000D01*
X80660000Y-92890000D02*
X79860000Y-92890000D01*
D40*
X79860000Y-94390000D02*
X79710000Y-94540000D01*
D37*
X84510000Y-92440000D02*
X84110000Y-92840000D01*
X84110000Y-93640000D02*
X84110000Y-92940000D01*
X84110000Y-92840000D02*
X84110000Y-92940000D01*
X84510000Y-91890000D02*
X85860000Y-91890000D01*
X84510000Y-91890000D02*
X84510000Y-92440000D01*
X85860000Y-91890000D02*
X85910000Y-91840000D01*
D40*
X79860000Y-123690000D02*
X79710000Y-123840000D01*
X79860000Y-122190000D02*
X79860000Y-123690000D01*
D36*
X80660000Y-122190000D02*
X79860000Y-122190000D01*
D37*
X84110000Y-122140000D02*
X84110000Y-122240000D01*
X84510000Y-121740000D02*
X84110000Y-122140000D01*
X84510000Y-121190000D02*
X84510000Y-121740000D01*
D36*
X81160000Y-122190000D02*
X80660000Y-122190000D01*
D37*
X84110000Y-122940000D02*
X84110000Y-122240000D01*
X89360000Y-127840000D02*
X89310000Y-127890000D01*
X89360000Y-126990000D02*
X89360000Y-127840000D01*
X85860000Y-121190000D02*
X85910000Y-121140000D01*
X84510000Y-121190000D02*
X85860000Y-121190000D01*
D36*
X88085000Y-113990000D02*
X88910000Y-113165000D01*
X88085000Y-114040000D02*
X88085000Y-113990000D01*
D39*
X79310000Y-113640000D02*
X80260000Y-113640000D01*
X79310000Y-84340000D02*
X80260000Y-84340000D01*
X79310000Y-55040000D02*
X80260000Y-55040000D01*
D37*
X89360000Y-69240000D02*
X89310000Y-69290000D01*
X89360000Y-68390000D02*
X89360000Y-69240000D01*
D36*
X81160000Y-63590000D02*
X80660000Y-63590000D01*
D40*
X79860000Y-63590000D02*
X79860000Y-65090000D01*
X79860000Y-65090000D02*
X79710000Y-65240000D01*
D36*
X80660000Y-63590000D02*
X79860000Y-63590000D01*
D37*
X84110000Y-63540000D02*
X84110000Y-63640000D01*
X84110000Y-64340000D02*
X84110000Y-63640000D01*
X84510000Y-63140000D02*
X84110000Y-63540000D01*
X85860000Y-62590000D02*
X85910000Y-62540000D01*
X84510000Y-62590000D02*
X85860000Y-62590000D01*
X84510000Y-62590000D02*
X84510000Y-63140000D01*
D36*
X88085000Y-55440000D02*
X88085000Y-55390000D01*
X88085000Y-55390000D02*
X88910000Y-54565000D01*
X80660000Y-34290000D02*
X79860000Y-34290000D01*
X81160000Y-34290000D02*
X80660000Y-34290000D01*
D37*
X89360000Y-39090000D02*
X89360000Y-39940000D01*
X89360000Y-39940000D02*
X89310000Y-39990000D01*
X84110000Y-35040000D02*
X84110000Y-34340000D01*
X84510000Y-33840000D02*
X84110000Y-34240000D01*
X84510000Y-33290000D02*
X84510000Y-33840000D01*
X84110000Y-34240000D02*
X84110000Y-34340000D01*
X84510000Y-33290000D02*
X85860000Y-33290000D01*
X85860000Y-33290000D02*
X85910000Y-33240000D01*
D36*
X88085000Y-26140000D02*
X88085000Y-26090000D01*
X88085000Y-26090000D02*
X88910000Y-25265000D01*
D40*
X79860000Y-34290000D02*
X79860000Y-35790000D01*
X79860000Y-35790000D02*
X79710000Y-35940000D01*
D39*
X79310000Y-25740000D02*
X80260000Y-25740000D01*
D36*
X92310000Y-88390000D02*
X92310000Y-88890000D01*
X92310000Y-88890000D02*
X92310000Y-89240000D01*
X92310000Y-88390000D02*
X92310000Y-89290000D01*
D37*
X88660000Y-91440000D02*
X88410000Y-91190000D01*
X88410000Y-89890000D02*
X88760000Y-89540000D01*
X88410000Y-91190000D02*
X88410000Y-89890000D01*
X88660000Y-92190000D02*
X88660000Y-91440000D01*
X88410000Y-119190000D02*
X88760000Y-118840000D01*
X88410000Y-120490000D02*
X88410000Y-119190000D01*
X88660000Y-120740000D02*
X88410000Y-120490000D01*
X88660000Y-121490000D02*
X88660000Y-120740000D01*
D36*
X92310000Y-117690000D02*
X92310000Y-118590000D01*
X92310000Y-118190000D02*
X92310000Y-118540000D01*
X92310000Y-117690000D02*
X92310000Y-118190000D01*
X92310000Y-59090000D02*
X92310000Y-59990000D01*
X92310000Y-59590000D02*
X92310000Y-59940000D01*
D37*
X88660000Y-62890000D02*
X88660000Y-62140000D01*
D36*
X92310000Y-59090000D02*
X92310000Y-59590000D01*
D37*
X88660000Y-62140000D02*
X88410000Y-61890000D01*
X88410000Y-60590000D02*
X88760000Y-60240000D01*
X88410000Y-61890000D02*
X88410000Y-60590000D01*
X88410000Y-32590000D02*
X88410000Y-31290000D01*
X88410000Y-31290000D02*
X88760000Y-30940000D01*
X88660000Y-33590000D02*
X88660000Y-32840000D01*
X88660000Y-32840000D02*
X88410000Y-32590000D01*
D36*
X92310000Y-29790000D02*
X92310000Y-30290000D01*
X92310000Y-30290000D02*
X92310000Y-30640000D01*
X92310000Y-29790000D02*
X92310000Y-30690000D01*
D40*
X33310000Y-95790000D02*
X32610000Y-95790000D01*
X49510000Y-96790000D02*
X49010000Y-96290000D01*
X49010000Y-96290000D02*
X48510000Y-95790000D01*
X63635000Y-99865000D02*
X52585000Y-99865000D01*
X52585000Y-99865000D02*
X49510000Y-96790000D01*
X48510000Y-95790000D02*
X33310000Y-95790000D01*
D37*
X86010000Y-97540000D02*
X86210000Y-97340000D01*
D40*
X88610000Y-94940000D02*
X87960000Y-95590000D01*
X87960000Y-95590000D02*
X86210000Y-97340000D01*
D36*
X82310000Y-94440000D02*
X83460000Y-95590000D01*
X83460000Y-95590000D02*
X87960000Y-95590000D01*
D37*
X90160000Y-94690000D02*
X89910000Y-94940000D01*
X90160000Y-92190000D02*
X90160000Y-94690000D01*
D40*
X89910000Y-94940000D02*
X88610000Y-94940000D01*
X89910000Y-94940000D02*
X88910000Y-94940000D01*
X78310000Y-99865000D02*
X77410000Y-99865000D01*
X79385000Y-99865000D02*
X77010000Y-97490000D01*
X78310000Y-98790000D02*
X77010000Y-97490000D01*
X77410000Y-99865000D02*
X63635000Y-99865000D01*
X74660000Y-92040000D02*
X76110000Y-93490000D01*
X76110000Y-93490000D02*
X76110000Y-96590000D01*
X76110000Y-96590000D02*
X77010000Y-97490000D01*
X73585000Y-90965000D02*
X74660000Y-92040000D01*
D38*
X73610000Y-90940000D02*
X73585000Y-90965000D01*
D40*
X73585000Y-88265000D02*
X73585000Y-90965000D01*
D38*
X73610000Y-90490000D02*
X73610000Y-90940000D01*
D40*
X73060000Y-87740000D02*
X73585000Y-88265000D01*
X80810000Y-99865000D02*
X79385000Y-99865000D01*
X80810000Y-99865000D02*
X78310000Y-99865000D01*
D37*
X85210000Y-98290000D02*
X85210000Y-98340000D01*
X84460000Y-97540000D02*
X86010000Y-97540000D01*
D40*
X85210000Y-98340000D02*
X83685000Y-99865000D01*
X83685000Y-99865000D02*
X80810000Y-99865000D01*
X86210000Y-97340000D02*
X85210000Y-98340000D01*
X80810000Y-129165000D02*
X78310000Y-129165000D01*
X80810000Y-129165000D02*
X79385000Y-129165000D01*
X79385000Y-129165000D02*
X77010000Y-126790000D01*
X78310000Y-129165000D02*
X77410000Y-129165000D01*
X78310000Y-128090000D02*
X77010000Y-126790000D01*
D37*
X90160000Y-121490000D02*
X90160000Y-123990000D01*
D40*
X89910000Y-124240000D02*
X88910000Y-124240000D01*
X89910000Y-124240000D02*
X88610000Y-124240000D01*
D37*
X90160000Y-123990000D02*
X89910000Y-124240000D01*
D40*
X88610000Y-124240000D02*
X87960000Y-124890000D01*
X85210000Y-127640000D02*
X83685000Y-129165000D01*
D36*
X82310000Y-123740000D02*
X83460000Y-124890000D01*
D40*
X83685000Y-129165000D02*
X80810000Y-129165000D01*
D37*
X85210000Y-127590000D02*
X85210000Y-127640000D01*
D40*
X87960000Y-124890000D02*
X86210000Y-126640000D01*
D36*
X83460000Y-124890000D02*
X87960000Y-124890000D01*
D40*
X86210000Y-126640000D02*
X85210000Y-127640000D01*
D37*
X86010000Y-126840000D02*
X86210000Y-126640000D01*
X84460000Y-126840000D02*
X86010000Y-126840000D01*
D38*
X73610000Y-120240000D02*
X73585000Y-120265000D01*
D40*
X73060000Y-117040000D02*
X73585000Y-117565000D01*
X73585000Y-117565000D02*
X73585000Y-120265000D01*
D38*
X73610000Y-119790000D02*
X73610000Y-120240000D01*
D40*
X73585000Y-120265000D02*
X74660000Y-121340000D01*
X77410000Y-129165000D02*
X63635000Y-129165000D01*
X74660000Y-121340000D02*
X76110000Y-122790000D01*
X76110000Y-122790000D02*
X76110000Y-125890000D01*
X76110000Y-125890000D02*
X77010000Y-126790000D01*
X33310000Y-125090000D02*
X32610000Y-125090000D01*
X49510000Y-126090000D02*
X49010000Y-125590000D01*
X49010000Y-125590000D02*
X48510000Y-125090000D01*
X52585000Y-129165000D02*
X49510000Y-126090000D01*
X63635000Y-129165000D02*
X52585000Y-129165000D01*
X48510000Y-125090000D02*
X33310000Y-125090000D01*
X48510000Y-66490000D02*
X33310000Y-66490000D01*
X33310000Y-66490000D02*
X32610000Y-66490000D01*
X52585000Y-70565000D02*
X49510000Y-67490000D01*
X63635000Y-70565000D02*
X52585000Y-70565000D01*
X49510000Y-67490000D02*
X49010000Y-66990000D01*
X49010000Y-66990000D02*
X48510000Y-66490000D01*
D38*
X73610000Y-61640000D02*
X73585000Y-61665000D01*
D40*
X73585000Y-58965000D02*
X73585000Y-61665000D01*
X73060000Y-58440000D02*
X73585000Y-58965000D01*
D38*
X73610000Y-61190000D02*
X73610000Y-61640000D01*
D40*
X76110000Y-67290000D02*
X77010000Y-68190000D01*
X74660000Y-62740000D02*
X76110000Y-64190000D01*
X77410000Y-70565000D02*
X63635000Y-70565000D01*
X73585000Y-61665000D02*
X74660000Y-62740000D01*
X76110000Y-64190000D02*
X76110000Y-67290000D01*
D37*
X86010000Y-68240000D02*
X86210000Y-68040000D01*
D40*
X87960000Y-66290000D02*
X86210000Y-68040000D01*
D36*
X82310000Y-65140000D02*
X83460000Y-66290000D01*
X83460000Y-66290000D02*
X87960000Y-66290000D01*
D37*
X84460000Y-68240000D02*
X86010000Y-68240000D01*
X85210000Y-68990000D02*
X85210000Y-69040000D01*
D40*
X85210000Y-69040000D02*
X83685000Y-70565000D01*
X86210000Y-68040000D02*
X85210000Y-69040000D01*
D37*
X90160000Y-65390000D02*
X89910000Y-65640000D01*
D40*
X89910000Y-65640000D02*
X88610000Y-65640000D01*
X88610000Y-65640000D02*
X87960000Y-66290000D01*
D37*
X90160000Y-62890000D02*
X90160000Y-65390000D01*
D40*
X89910000Y-65640000D02*
X88910000Y-65640000D01*
X78310000Y-70565000D02*
X77410000Y-70565000D01*
X80810000Y-70565000D02*
X78310000Y-70565000D01*
X80810000Y-70565000D02*
X79385000Y-70565000D01*
X78310000Y-69490000D02*
X77010000Y-68190000D01*
X79385000Y-70565000D02*
X77010000Y-68190000D01*
X83685000Y-70565000D02*
X80810000Y-70565000D01*
D38*
X73610000Y-31890000D02*
X73610000Y-32340000D01*
X73610000Y-32340000D02*
X73585000Y-32365000D01*
D40*
X73060000Y-29140000D02*
X73585000Y-29665000D01*
X73585000Y-29665000D02*
X73585000Y-32365000D01*
X73585000Y-32365000D02*
X74660000Y-33440000D01*
X52585000Y-41265000D02*
X49510000Y-38190000D01*
X49510000Y-38190000D02*
X49010000Y-37690000D01*
X49010000Y-37690000D02*
X48510000Y-37190000D01*
X33310000Y-37190000D02*
X32610000Y-37190000D01*
X48510000Y-37190000D02*
X33310000Y-37190000D01*
X63635000Y-41265000D02*
X52585000Y-41265000D01*
X77410000Y-41265000D02*
X63635000Y-41265000D01*
X87960000Y-36990000D02*
X86210000Y-38740000D01*
X86210000Y-38740000D02*
X85210000Y-39740000D01*
D37*
X84460000Y-38940000D02*
X86010000Y-38940000D01*
X86010000Y-38940000D02*
X86210000Y-38740000D01*
D40*
X85210000Y-39740000D02*
X83685000Y-41265000D01*
D37*
X85210000Y-39690000D02*
X85210000Y-39740000D01*
D40*
X74660000Y-33440000D02*
X76110000Y-34890000D01*
X76110000Y-34890000D02*
X76110000Y-37990000D01*
X76110000Y-37990000D02*
X77010000Y-38890000D01*
X80810000Y-41265000D02*
X78310000Y-41265000D01*
X79385000Y-41265000D02*
X77010000Y-38890000D01*
X83685000Y-41265000D02*
X80810000Y-41265000D01*
X78310000Y-40190000D02*
X77010000Y-38890000D01*
X80810000Y-41265000D02*
X79385000Y-41265000D01*
X78310000Y-41265000D02*
X77410000Y-41265000D01*
X88610000Y-36340000D02*
X87960000Y-36990000D01*
D36*
X83460000Y-36990000D02*
X87960000Y-36990000D01*
X82310000Y-35840000D02*
X83460000Y-36990000D01*
D40*
X89910000Y-36340000D02*
X88610000Y-36340000D01*
X89910000Y-36340000D02*
X88910000Y-36340000D01*
D37*
X90160000Y-33590000D02*
X90160000Y-36090000D01*
X90160000Y-36090000D02*
X89910000Y-36340000D01*
X87410000Y-91840000D02*
X87410000Y-93540000D01*
X87410000Y-93540000D02*
X87310000Y-93640000D01*
D38*
X87710000Y-90190000D02*
X87710000Y-91540000D01*
X86710000Y-90190000D02*
X87710000Y-90190000D01*
X87710000Y-91540000D02*
X87410000Y-91840000D01*
D37*
X87410000Y-121140000D02*
X87410000Y-122840000D01*
X87410000Y-122840000D02*
X87310000Y-122940000D01*
D38*
X87710000Y-119490000D02*
X87710000Y-120840000D01*
X86710000Y-119490000D02*
X87710000Y-119490000D01*
X87710000Y-120840000D02*
X87410000Y-121140000D01*
D37*
X87410000Y-64240000D02*
X87310000Y-64340000D01*
X87410000Y-62540000D02*
X87410000Y-64240000D01*
D38*
X86710000Y-60890000D02*
X87710000Y-60890000D01*
X87710000Y-62240000D02*
X87410000Y-62540000D01*
X87710000Y-60890000D02*
X87710000Y-62240000D01*
D37*
X87410000Y-33240000D02*
X87410000Y-34940000D01*
X87410000Y-34940000D02*
X87310000Y-35040000D01*
D38*
X87710000Y-31590000D02*
X87710000Y-32940000D01*
X87710000Y-32940000D02*
X87410000Y-33240000D01*
X86710000Y-31590000D02*
X87710000Y-31590000D01*
D36*
X86460000Y-86240000D02*
X86210000Y-85990000D01*
X88085000Y-86240000D02*
X86460000Y-86240000D01*
X88085000Y-86815000D02*
X87810000Y-87090000D01*
X88085000Y-86240000D02*
X88085000Y-86815000D01*
X86460000Y-115540000D02*
X86210000Y-115290000D01*
X88085000Y-115540000D02*
X88085000Y-116115000D01*
X88085000Y-115540000D02*
X86460000Y-115540000D01*
X88085000Y-116115000D02*
X87810000Y-116390000D01*
X88085000Y-56940000D02*
X86460000Y-56940000D01*
X88085000Y-56940000D02*
X88085000Y-57515000D01*
X88085000Y-57515000D02*
X87810000Y-57790000D01*
X86460000Y-56940000D02*
X86210000Y-56690000D01*
X88085000Y-27640000D02*
X88085000Y-28215000D01*
X88085000Y-28215000D02*
X87810000Y-28490000D01*
X88085000Y-27640000D02*
X86460000Y-27640000D01*
X86460000Y-27640000D02*
X86210000Y-27390000D01*
D39*
X61360000Y-79090000D02*
X61360000Y-78640000D01*
X60610000Y-79090000D02*
X60585000Y-79115000D01*
X61360000Y-79090000D02*
X60610000Y-79090000D01*
X61360000Y-78640000D02*
X61360000Y-77590000D01*
X61360000Y-77590000D02*
X61360000Y-76090000D01*
D36*
X62410000Y-89090000D02*
X63910000Y-87590000D01*
X62360000Y-89090000D02*
X62410000Y-89090000D01*
D39*
X53310000Y-76640000D02*
X53310000Y-76540000D01*
X53310000Y-76540000D02*
X54160000Y-75690000D01*
X54160000Y-75690000D02*
X55360000Y-75690000D01*
X55185000Y-77940000D02*
X56060000Y-77940000D01*
D37*
X68460000Y-109990000D02*
X68460000Y-110890000D01*
X68460000Y-110890000D02*
X68660000Y-111090000D01*
D39*
X67910000Y-113440000D02*
X67660000Y-113190000D01*
X68310000Y-113440000D02*
X67910000Y-113440000D01*
D37*
X70610000Y-112940000D02*
X70860000Y-113190000D01*
X70610000Y-112440000D02*
X70610000Y-112940000D01*
D39*
X67660000Y-107940000D02*
X68010000Y-107590000D01*
D37*
X67660000Y-108390000D02*
X67660000Y-107990000D01*
D39*
X67660000Y-108390000D02*
X67660000Y-107940000D01*
D37*
X67660000Y-107990000D02*
X68010000Y-107640000D01*
X69784266Y-109740000D02*
X69284266Y-109240000D01*
X70460000Y-109740000D02*
X69784266Y-109740000D01*
X70960000Y-106890000D02*
X70860000Y-106790000D01*
X71660000Y-106890000D02*
X70960000Y-106890000D01*
D39*
X70060000Y-105540000D02*
X69910000Y-105390000D01*
D37*
X70060000Y-106790000D02*
X70060000Y-105440000D01*
D39*
X70060000Y-106790000D02*
X70060000Y-105540000D01*
D37*
X70060000Y-105440000D02*
X70110000Y-105390000D01*
X69260000Y-106790000D02*
X69260000Y-106507158D01*
X69260000Y-106507158D02*
X68892842Y-106140000D01*
X68344264Y-106140000D02*
X68892842Y-106140000D01*
X68044264Y-106440000D02*
X68344264Y-106140000D01*
X71760000Y-109740000D02*
X72210000Y-109740000D01*
X73260000Y-109990000D02*
X73582182Y-109990000D01*
X72210000Y-109740000D02*
X72460000Y-109990000D01*
X73582182Y-109990000D02*
X73971091Y-109601091D01*
X71760000Y-106890000D02*
X72460000Y-107590000D01*
X72832182Y-107590000D02*
X73171091Y-107251091D01*
X71660000Y-106890000D02*
X71760000Y-106890000D01*
X72460000Y-107590000D02*
X72832182Y-107590000D01*
D39*
X76510000Y-108315000D02*
X75257182Y-108315000D01*
X75257182Y-108315000D02*
X75060000Y-108512182D01*
D38*
X73971091Y-109601091D02*
X75060000Y-108512182D01*
D39*
X72960000Y-107462182D02*
X73171091Y-107251091D01*
D37*
X71010000Y-114140000D02*
X70860000Y-113990000D01*
D39*
X71035000Y-114815000D02*
X71010000Y-114790000D01*
D37*
X70760000Y-115040000D02*
X71010000Y-114790000D01*
X69760000Y-115040000D02*
X69760000Y-114290000D01*
X71010000Y-114790000D02*
X71010000Y-114140000D01*
X69760000Y-115040000D02*
X70760000Y-115040000D01*
X73310000Y-111640000D02*
X73260000Y-111590000D01*
X73310000Y-112290000D02*
X73310000Y-111640000D01*
X71760000Y-110990000D02*
X71860000Y-110990000D01*
X71070000Y-110990000D02*
X70871581Y-110791581D01*
X71860000Y-110990000D02*
X72460000Y-111590000D01*
X71760000Y-110990000D02*
X71070000Y-110990000D01*
X69760000Y-114290000D02*
X70060000Y-113990000D01*
D36*
X71035000Y-86615000D02*
X71035000Y-88740000D01*
X69709999Y-88014999D02*
X67914999Y-88014999D01*
D39*
X71035000Y-86615000D02*
X71035000Y-85515000D01*
D36*
X70735000Y-89040000D02*
X69709999Y-88014999D01*
X71035000Y-88740000D02*
X70735000Y-89040000D01*
D37*
X70735000Y-89040000D02*
X70735000Y-90765000D01*
X70735000Y-90765000D02*
X70410000Y-91090000D01*
D36*
X66935000Y-90015000D02*
X66560000Y-90390000D01*
X66960000Y-88969998D02*
X66960000Y-90015000D01*
X67914999Y-88014999D02*
X66960000Y-88969998D01*
X66960000Y-90015000D02*
X66935000Y-90015000D01*
D37*
X66060000Y-106890000D02*
X66160000Y-106890000D01*
X66160000Y-106890000D02*
X66860000Y-107590000D01*
D38*
X80860000Y-105840000D02*
X79210000Y-105840000D01*
X77732182Y-105840000D02*
X80860000Y-105840000D01*
X79210000Y-105840000D02*
X77732182Y-105840000D01*
X80860000Y-105840000D02*
X83060000Y-105840000D01*
X75060000Y-108512182D02*
X77710000Y-105862182D01*
D37*
X67635000Y-106440000D02*
X68044264Y-106440000D01*
D38*
X77732182Y-105840000D02*
X77710000Y-105862182D01*
D37*
X66460000Y-109990000D02*
X66910000Y-109540000D01*
X66060000Y-109990000D02*
X66460000Y-109990000D01*
X65260000Y-109990000D02*
X64460000Y-109990000D01*
X64460000Y-109990000D02*
X64310000Y-109840000D01*
X66060000Y-111090000D02*
X66310000Y-110840000D01*
X66060000Y-111590000D02*
X66060000Y-111090000D01*
X66710000Y-113840000D02*
X66060000Y-113190000D01*
X66760000Y-113840000D02*
X66710000Y-113840000D01*
D36*
X66935000Y-119315000D02*
X66560000Y-119690000D01*
X66960000Y-119315000D02*
X66935000Y-119315000D01*
X66960000Y-118269998D02*
X66960000Y-119315000D01*
X67914999Y-117314999D02*
X66960000Y-118269998D01*
X69709999Y-117314999D02*
X67914999Y-117314999D01*
D39*
X71035000Y-115915000D02*
X71035000Y-114815000D01*
D36*
X70735000Y-118340000D02*
X69709999Y-117314999D01*
D37*
X70735000Y-118340000D02*
X70735000Y-120065000D01*
D36*
X71035000Y-118040000D02*
X70735000Y-118340000D01*
X71035000Y-115915000D02*
X71035000Y-118040000D01*
D37*
X70735000Y-120065000D02*
X70410000Y-120390000D01*
X72210000Y-80440000D02*
X72460000Y-80690000D01*
X71760000Y-80440000D02*
X72210000Y-80440000D01*
X70460000Y-80440000D02*
X69784266Y-80440000D01*
X69784266Y-80440000D02*
X69284266Y-79940000D01*
X72832182Y-78290000D02*
X73171091Y-77951091D01*
X72460000Y-78290000D02*
X72832182Y-78290000D01*
X71760000Y-77590000D02*
X72460000Y-78290000D01*
D39*
X72960000Y-78162182D02*
X73171091Y-77951091D01*
D37*
X69260000Y-77207158D02*
X68892842Y-76840000D01*
X69260000Y-77490000D02*
X69260000Y-77207158D01*
X70060000Y-77490000D02*
X70060000Y-76140000D01*
D39*
X70060000Y-77490000D02*
X70060000Y-76240000D01*
X70060000Y-76240000D02*
X69910000Y-76090000D01*
D37*
X70060000Y-76140000D02*
X70110000Y-76090000D01*
X70960000Y-77590000D02*
X70860000Y-77490000D01*
X71660000Y-77590000D02*
X71760000Y-77590000D01*
X71660000Y-77590000D02*
X70960000Y-77590000D01*
X71010000Y-85490000D02*
X71010000Y-84840000D01*
D39*
X71035000Y-85515000D02*
X71010000Y-85490000D01*
D37*
X71860000Y-81690000D02*
X72460000Y-82290000D01*
X71760000Y-81690000D02*
X71070000Y-81690000D01*
X71070000Y-81690000D02*
X70871581Y-81491581D01*
X71760000Y-81690000D02*
X71860000Y-81690000D01*
X70610000Y-83640000D02*
X70860000Y-83890000D01*
X70610000Y-83140000D02*
X70610000Y-83640000D01*
X69760000Y-84990000D02*
X70060000Y-84690000D01*
X69760000Y-85740000D02*
X69760000Y-84990000D01*
X71010000Y-84840000D02*
X70860000Y-84690000D01*
X70760000Y-85740000D02*
X71010000Y-85490000D01*
X69760000Y-85740000D02*
X70760000Y-85740000D01*
X73582182Y-80690000D02*
X73971091Y-80301091D01*
X73260000Y-80690000D02*
X73582182Y-80690000D01*
X73310000Y-82990000D02*
X73310000Y-82340000D01*
X73310000Y-82340000D02*
X73260000Y-82290000D01*
D39*
X76510000Y-79015000D02*
X75257182Y-79015000D01*
D38*
X73971091Y-80301091D02*
X75060000Y-79212182D01*
D39*
X75257182Y-79015000D02*
X75060000Y-79212182D01*
D38*
X80860000Y-76540000D02*
X79210000Y-76540000D01*
X77732182Y-76540000D02*
X80860000Y-76540000D01*
X79210000Y-76540000D02*
X77732182Y-76540000D01*
X77732182Y-76540000D02*
X77710000Y-76562182D01*
X80860000Y-76540000D02*
X83060000Y-76540000D01*
X75060000Y-79212182D02*
X77710000Y-76562182D01*
D37*
X66060000Y-77590000D02*
X66160000Y-77590000D01*
X66160000Y-77590000D02*
X66860000Y-78290000D01*
X67660000Y-78690000D02*
X68010000Y-78340000D01*
D39*
X67660000Y-78640000D02*
X68010000Y-78290000D01*
D37*
X67660000Y-79090000D02*
X67660000Y-78690000D01*
D39*
X67660000Y-79090000D02*
X67660000Y-78640000D01*
D37*
X68044264Y-77140000D02*
X68344264Y-76840000D01*
X67635000Y-77140000D02*
X68044264Y-77140000D01*
X68344264Y-76840000D02*
X68892842Y-76840000D01*
X66460000Y-80690000D02*
X66910000Y-80240000D01*
X66060000Y-80690000D02*
X66460000Y-80690000D01*
X66710000Y-84540000D02*
X66060000Y-83890000D01*
X65260000Y-80690000D02*
X64460000Y-80690000D01*
X64460000Y-80690000D02*
X64310000Y-80540000D01*
X66060000Y-81790000D02*
X66310000Y-81540000D01*
X68460000Y-80690000D02*
X68460000Y-81590000D01*
X68460000Y-81590000D02*
X68660000Y-81790000D01*
X66060000Y-82290000D02*
X66060000Y-81790000D01*
D39*
X68310000Y-84140000D02*
X67910000Y-84140000D01*
X67910000Y-84140000D02*
X67660000Y-83890000D01*
D37*
X66760000Y-84540000D02*
X66710000Y-84540000D01*
D39*
X53310000Y-105840000D02*
X54160000Y-104990000D01*
X53310000Y-105940000D02*
X53310000Y-105840000D01*
X61360000Y-106890000D02*
X61360000Y-105390000D01*
X54160000Y-104990000D02*
X55360000Y-104990000D01*
X55185000Y-107240000D02*
X56060000Y-107240000D01*
X61360000Y-107940000D02*
X61360000Y-106890000D01*
X61360000Y-108390000D02*
X60610000Y-108390000D01*
X61360000Y-108390000D02*
X61360000Y-107940000D01*
X60610000Y-108390000D02*
X60585000Y-108415000D01*
D36*
X62360000Y-118390000D02*
X62410000Y-118390000D01*
X62410000Y-118390000D02*
X63910000Y-116890000D01*
D39*
X55185000Y-48640000D02*
X56060000Y-48640000D01*
X61360000Y-49790000D02*
X61360000Y-49340000D01*
X61360000Y-48290000D02*
X61360000Y-46790000D01*
X61360000Y-49340000D02*
X61360000Y-48290000D01*
D36*
X62410000Y-59790000D02*
X63910000Y-58290000D01*
X62360000Y-59790000D02*
X62410000Y-59790000D01*
D39*
X60610000Y-49790000D02*
X60585000Y-49815000D01*
X61360000Y-49790000D02*
X60610000Y-49790000D01*
X54160000Y-46390000D02*
X55360000Y-46390000D01*
X53310000Y-47240000D02*
X54160000Y-46390000D01*
X53310000Y-47340000D02*
X53310000Y-47240000D01*
D37*
X68460000Y-52290000D02*
X68660000Y-52490000D01*
X69784266Y-51140000D02*
X69284266Y-50640000D01*
X70460000Y-51140000D02*
X69784266Y-51140000D01*
X68460000Y-51390000D02*
X68460000Y-52290000D01*
D39*
X72960000Y-48862182D02*
X73171091Y-48651091D01*
D37*
X71660000Y-48290000D02*
X71760000Y-48290000D01*
X72832182Y-48990000D02*
X73171091Y-48651091D01*
X71760000Y-48290000D02*
X72460000Y-48990000D01*
X72460000Y-48990000D02*
X72832182Y-48990000D01*
X71660000Y-48290000D02*
X70960000Y-48290000D01*
X70060000Y-48190000D02*
X70060000Y-46840000D01*
D39*
X70060000Y-48190000D02*
X70060000Y-46940000D01*
D37*
X70060000Y-46840000D02*
X70110000Y-46790000D01*
X70960000Y-48290000D02*
X70860000Y-48190000D01*
D39*
X70060000Y-46940000D02*
X69910000Y-46790000D01*
D37*
X69260000Y-47907158D02*
X68892842Y-47540000D01*
X69260000Y-48190000D02*
X69260000Y-47907158D01*
X72210000Y-51140000D02*
X72460000Y-51390000D01*
X71070000Y-52390000D02*
X70871581Y-52191581D01*
X71760000Y-52390000D02*
X71070000Y-52390000D01*
X71760000Y-51140000D02*
X72210000Y-51140000D01*
X71760000Y-52390000D02*
X71860000Y-52390000D01*
X69760000Y-55690000D02*
X70060000Y-55390000D01*
X71010000Y-56190000D02*
X71010000Y-55540000D01*
X70610000Y-53840000D02*
X70610000Y-54340000D01*
X69760000Y-56440000D02*
X69760000Y-55690000D01*
X70610000Y-54340000D02*
X70860000Y-54590000D01*
X70760000Y-56440000D02*
X71010000Y-56190000D01*
X69760000Y-56440000D02*
X70760000Y-56440000D01*
X71010000Y-55540000D02*
X70860000Y-55390000D01*
X71860000Y-52390000D02*
X72460000Y-52990000D01*
X73310000Y-53040000D02*
X73260000Y-52990000D01*
X73310000Y-53690000D02*
X73310000Y-53040000D01*
D39*
X71035000Y-56215000D02*
X71010000Y-56190000D01*
D36*
X69709999Y-58714999D02*
X67914999Y-58714999D01*
D39*
X68310000Y-54840000D02*
X67910000Y-54840000D01*
X67910000Y-54840000D02*
X67660000Y-54590000D01*
D37*
X66710000Y-55240000D02*
X66060000Y-54590000D01*
X66760000Y-55240000D02*
X66710000Y-55240000D01*
D36*
X67914999Y-58714999D02*
X66960000Y-59669998D01*
X66960000Y-60715000D02*
X66935000Y-60715000D01*
X66935000Y-60715000D02*
X66560000Y-61090000D01*
X66960000Y-59669998D02*
X66960000Y-60715000D01*
D37*
X70735000Y-61465000D02*
X70410000Y-61790000D01*
D36*
X71035000Y-59440000D02*
X70735000Y-59740000D01*
D37*
X70735000Y-59740000D02*
X70735000Y-61465000D01*
D36*
X71035000Y-57315000D02*
X71035000Y-59440000D01*
D39*
X71035000Y-57315000D02*
X71035000Y-56215000D01*
D36*
X70735000Y-59740000D02*
X69709999Y-58714999D01*
D37*
X64460000Y-51390000D02*
X64310000Y-51240000D01*
X65260000Y-51390000D02*
X64460000Y-51390000D01*
X66160000Y-48290000D02*
X66860000Y-48990000D01*
X67660000Y-49790000D02*
X67660000Y-49390000D01*
X66060000Y-48290000D02*
X66160000Y-48290000D01*
D39*
X67660000Y-49790000D02*
X67660000Y-49340000D01*
D37*
X68344264Y-47540000D02*
X68892842Y-47540000D01*
X67660000Y-49390000D02*
X68010000Y-49040000D01*
X67635000Y-47840000D02*
X68044264Y-47840000D01*
D39*
X67660000Y-49340000D02*
X68010000Y-48990000D01*
D37*
X68044264Y-47840000D02*
X68344264Y-47540000D01*
X66060000Y-52490000D02*
X66310000Y-52240000D01*
X66460000Y-51390000D02*
X66910000Y-50940000D01*
X66060000Y-51390000D02*
X66460000Y-51390000D01*
X66060000Y-52990000D02*
X66060000Y-52490000D01*
X73582182Y-51390000D02*
X73971091Y-51001091D01*
D38*
X73971091Y-51001091D02*
X75060000Y-49912182D01*
D37*
X73260000Y-51390000D02*
X73582182Y-51390000D01*
D38*
X77732182Y-47240000D02*
X80860000Y-47240000D01*
X80860000Y-47240000D02*
X79210000Y-47240000D01*
X79210000Y-47240000D02*
X77732182Y-47240000D01*
X80860000Y-47240000D02*
X83060000Y-47240000D01*
X77732182Y-47240000D02*
X77710000Y-47262182D01*
D39*
X76510000Y-49715000D02*
X75257182Y-49715000D01*
D38*
X75060000Y-49912182D02*
X77710000Y-47262182D01*
D39*
X75257182Y-49715000D02*
X75060000Y-49912182D01*
D36*
X66960000Y-31415000D02*
X66935000Y-31415000D01*
X66935000Y-31415000D02*
X66560000Y-31790000D01*
X70735000Y-30440000D02*
X69709999Y-29414999D01*
X69709999Y-29414999D02*
X67914999Y-29414999D01*
X66960000Y-30369998D02*
X66960000Y-31415000D01*
X67914999Y-29414999D02*
X66960000Y-30369998D01*
X62360000Y-30490000D02*
X62410000Y-30490000D01*
X62410000Y-30490000D02*
X63910000Y-28990000D01*
D37*
X70735000Y-30440000D02*
X70735000Y-32165000D01*
X70735000Y-32165000D02*
X70410000Y-32490000D01*
D39*
X55185000Y-19340000D02*
X56060000Y-19340000D01*
X53310000Y-18040000D02*
X53310000Y-17940000D01*
X53310000Y-17940000D02*
X54160000Y-17090000D01*
X54160000Y-17090000D02*
X55360000Y-17090000D01*
X61360000Y-20490000D02*
X60610000Y-20490000D01*
X60610000Y-20490000D02*
X60585000Y-20515000D01*
X61360000Y-18990000D02*
X61360000Y-17490000D01*
X61360000Y-20490000D02*
X61360000Y-20040000D01*
X61360000Y-20040000D02*
X61360000Y-18990000D01*
D38*
X73971091Y-21701091D02*
X75060000Y-20612182D01*
X75060000Y-20612182D02*
X77710000Y-17962182D01*
D39*
X76510000Y-20415000D02*
X75257182Y-20415000D01*
X75257182Y-20415000D02*
X75060000Y-20612182D01*
D36*
X71035000Y-28015000D02*
X71035000Y-30140000D01*
X71035000Y-30140000D02*
X70735000Y-30440000D01*
D39*
X71035000Y-28015000D02*
X71035000Y-26915000D01*
X71035000Y-26915000D02*
X71010000Y-26890000D01*
D38*
X79210000Y-17940000D02*
X77732182Y-17940000D01*
X77732182Y-17940000D02*
X77710000Y-17962182D01*
X80860000Y-17940000D02*
X79210000Y-17940000D01*
X80860000Y-17940000D02*
X83060000Y-17940000D01*
X77732182Y-17940000D02*
X80860000Y-17940000D01*
D37*
X66760000Y-25940000D02*
X66710000Y-25940000D01*
X66710000Y-25940000D02*
X66060000Y-25290000D01*
X65260000Y-22090000D02*
X64460000Y-22090000D01*
X64460000Y-22090000D02*
X64310000Y-21940000D01*
X66060000Y-22090000D02*
X66460000Y-22090000D01*
X66460000Y-22090000D02*
X66910000Y-21640000D01*
X67660000Y-20490000D02*
X67660000Y-20090000D01*
X67660000Y-20090000D02*
X68010000Y-19740000D01*
X66060000Y-18990000D02*
X66160000Y-18990000D01*
X66160000Y-18990000D02*
X66860000Y-19690000D01*
X69260000Y-18890000D02*
X69260000Y-18607158D01*
X69260000Y-18607158D02*
X68892842Y-18240000D01*
X67635000Y-18540000D02*
X68044264Y-18540000D01*
X68044264Y-18540000D02*
X68344264Y-18240000D01*
X68344264Y-18240000D02*
X68892842Y-18240000D01*
X70060000Y-18890000D02*
X70060000Y-17540000D01*
X70060000Y-17540000D02*
X70110000Y-17490000D01*
X71660000Y-18990000D02*
X70960000Y-18990000D01*
X70960000Y-18990000D02*
X70860000Y-18890000D01*
X71660000Y-18990000D02*
X71760000Y-18990000D01*
X71760000Y-18990000D02*
X72460000Y-19690000D01*
X72460000Y-19690000D02*
X72832182Y-19690000D01*
X72832182Y-19690000D02*
X73171091Y-19351091D01*
D39*
X72960000Y-19562182D02*
X73171091Y-19351091D01*
D37*
X73260000Y-22090000D02*
X73582182Y-22090000D01*
X73582182Y-22090000D02*
X73971091Y-21701091D01*
X73310000Y-24390000D02*
X73310000Y-23740000D01*
X73310000Y-23740000D02*
X73260000Y-23690000D01*
X71760000Y-23090000D02*
X71860000Y-23090000D01*
X71860000Y-23090000D02*
X72460000Y-23690000D01*
X71760000Y-23090000D02*
X71070000Y-23090000D01*
X71070000Y-23090000D02*
X70871581Y-22891581D01*
X71760000Y-21840000D02*
X72210000Y-21840000D01*
X72210000Y-21840000D02*
X72460000Y-22090000D01*
X70460000Y-21840000D02*
X69784266Y-21840000D01*
X69784266Y-21840000D02*
X69284266Y-21340000D01*
X68460000Y-22090000D02*
X68460000Y-22990000D01*
X68460000Y-22990000D02*
X68660000Y-23190000D01*
X66060000Y-23690000D02*
X66060000Y-23190000D01*
X66060000Y-23190000D02*
X66310000Y-22940000D01*
X70610000Y-24540000D02*
X70610000Y-25040000D01*
X70610000Y-25040000D02*
X70860000Y-25290000D01*
X71010000Y-26890000D02*
X71010000Y-26240000D01*
X71010000Y-26240000D02*
X70860000Y-26090000D01*
X69760000Y-27140000D02*
X70760000Y-27140000D01*
X70760000Y-27140000D02*
X71010000Y-26890000D01*
X69760000Y-27140000D02*
X69760000Y-26390000D01*
X69760000Y-26390000D02*
X70060000Y-26090000D01*
D39*
X67660000Y-20490000D02*
X67660000Y-20040000D01*
X67660000Y-20040000D02*
X68010000Y-19690000D01*
X70060000Y-18890000D02*
X70060000Y-17640000D01*
X70060000Y-17640000D02*
X69910000Y-17490000D01*
X68310000Y-25540000D02*
X67910000Y-25540000D01*
X67910000Y-25540000D02*
X67660000Y-25290000D01*
D38*
X56700000Y-80790000D02*
X56360000Y-80450000D01*
X56810000Y-80790000D02*
X57070000Y-80790000D01*
X57070000Y-80790000D02*
X57410000Y-80450000D01*
X56810000Y-80790000D02*
X56700000Y-80790000D01*
X56700000Y-110090000D02*
X56360000Y-109750000D01*
X56810000Y-110090000D02*
X57070000Y-110090000D01*
X57070000Y-110090000D02*
X57410000Y-109750000D01*
X56810000Y-110090000D02*
X56700000Y-110090000D01*
X57070000Y-51490000D02*
X57410000Y-51150000D01*
X56810000Y-51490000D02*
X56700000Y-51490000D01*
X56700000Y-51490000D02*
X56360000Y-51150000D01*
X56810000Y-51490000D02*
X57070000Y-51490000D01*
X56810000Y-22190000D02*
X57070000Y-22190000D01*
X57070000Y-22190000D02*
X57410000Y-21850000D01*
X56810000Y-22190000D02*
X56700000Y-22190000D01*
X56700000Y-22190000D02*
X56360000Y-21850000D01*
X88410000Y-97640000D02*
X88460000Y-97690000D01*
X88410000Y-96740000D02*
X88410000Y-97640000D01*
X88410000Y-126940000D02*
X88460000Y-126990000D01*
X88410000Y-126040000D02*
X88410000Y-126940000D01*
X88410000Y-67440000D02*
X88410000Y-68340000D01*
X88410000Y-68340000D02*
X88460000Y-68390000D01*
X88410000Y-38140000D02*
X88410000Y-39040000D01*
X88410000Y-39040000D02*
X88460000Y-39090000D01*
X89760000Y-87790000D02*
X89760000Y-87889998D01*
X89760000Y-87889998D02*
X88760000Y-88889998D01*
X89760000Y-117189998D02*
X88760000Y-118189998D01*
X89760000Y-117090000D02*
X89760000Y-117189998D01*
X89760000Y-58589998D02*
X88760000Y-59589998D01*
X89760000Y-58490000D02*
X89760000Y-58589998D01*
X89760000Y-29190000D02*
X89760000Y-29289998D01*
X89760000Y-29289998D02*
X88760000Y-30289998D01*
D39*
X77235001Y-86314999D02*
X76359999Y-87190001D01*
X76359999Y-87190001D02*
X76160000Y-87390000D01*
X77235001Y-110615001D02*
X77235001Y-115614999D01*
X77235001Y-115614999D02*
X76359999Y-116490001D01*
X76359999Y-116490001D02*
X76160000Y-116690000D01*
X76760000Y-110140000D02*
X77235001Y-110615001D01*
X76760000Y-80840000D02*
X77235001Y-81315001D01*
X77235001Y-81315001D02*
X77235001Y-86314999D01*
X76760000Y-51540000D02*
X77235001Y-52015001D01*
X77235001Y-52015001D02*
X77235001Y-57014999D01*
X77235001Y-57014999D02*
X76359999Y-57890001D01*
X76359999Y-57890001D02*
X76160000Y-58090000D01*
X76760000Y-22240000D02*
X77235001Y-22715001D01*
X77235001Y-22715001D02*
X77235001Y-27714999D01*
X76359999Y-28590001D02*
X76160000Y-28790000D01*
X77235001Y-27714999D02*
X76359999Y-28590001D01*
X63210000Y-79590000D02*
X62710000Y-79090000D01*
X62710000Y-79090000D02*
X62260000Y-79090000D01*
X63210000Y-81440000D02*
X63210000Y-79590000D01*
X64082506Y-82312506D02*
X63210000Y-81440000D01*
X63210000Y-110740000D02*
X63210000Y-108890000D01*
X64082506Y-111612506D02*
X63210000Y-110740000D01*
X65260001Y-111612506D02*
X64082506Y-111612506D01*
X65260001Y-82312506D02*
X64082506Y-82312506D01*
X63210000Y-108890000D02*
X62710000Y-108390000D01*
X62710000Y-108390000D02*
X62260000Y-108390000D01*
X62710000Y-49790000D02*
X62260000Y-49790000D01*
X63210000Y-52140000D02*
X63210000Y-50290000D01*
X64082506Y-53012506D02*
X63210000Y-52140000D01*
X63210000Y-50290000D02*
X62710000Y-49790000D01*
X65260001Y-53012506D02*
X64082506Y-53012506D01*
X65260001Y-23712506D02*
X64082506Y-23712506D01*
X64082506Y-23712506D02*
X63210000Y-22840000D01*
X63210000Y-22840000D02*
X63210000Y-20990000D01*
X63210000Y-20990000D02*
X62710000Y-20490000D01*
X62710000Y-20490000D02*
X62260000Y-20490000D01*
X62260000Y-76090000D02*
X63210000Y-76090000D01*
X62260000Y-105390000D02*
X63210000Y-105390000D01*
X62260000Y-46790000D02*
X63210000Y-46790000D01*
X62260000Y-17490000D02*
X63210000Y-17490000D01*
X62260000Y-77590000D02*
X62335000Y-77590000D01*
X62335000Y-77590000D02*
X63260000Y-76665000D01*
X62260000Y-106890000D02*
X62335000Y-106890000D01*
X62335000Y-106890000D02*
X63260000Y-105965000D01*
X62335000Y-48290000D02*
X63260000Y-47365000D01*
X62260000Y-48290000D02*
X62335000Y-48290000D01*
X62260000Y-18990000D02*
X62335000Y-18990000D01*
X62335000Y-18990000D02*
X63260000Y-18065000D01*
X78735000Y-109365000D02*
X76660000Y-109365000D01*
X76660000Y-109365000D02*
X76510000Y-109215000D01*
X78735000Y-80065000D02*
X76660000Y-80065000D01*
X76660000Y-80065000D02*
X76510000Y-79915000D01*
X76660000Y-50765000D02*
X76510000Y-50615000D01*
X78735000Y-50765000D02*
X76660000Y-50765000D01*
X78735000Y-21465000D02*
X76660000Y-21465000D01*
X76660000Y-21465000D02*
X76510000Y-21315000D01*
X78085000Y-108515000D02*
X79060000Y-108515000D01*
X79060000Y-108515000D02*
X79160000Y-108415000D01*
X78085000Y-79215000D02*
X79060000Y-79215000D01*
X79060000Y-79215000D02*
X79160000Y-79115000D01*
X78085000Y-49915000D02*
X79060000Y-49915000D01*
X79060000Y-49915000D02*
X79160000Y-49815000D01*
X78085000Y-20615000D02*
X79060000Y-20615000D01*
X79060000Y-20615000D02*
X79160000Y-20515000D01*
D36*
X35660000Y-86840000D02*
X34869441Y-86840000D01*
X34869441Y-86840000D02*
X32130532Y-84101091D01*
X32130532Y-82490000D02*
X32130532Y-81060532D01*
X32130532Y-84101091D02*
X32130532Y-82490000D01*
X32210000Y-82490000D02*
X32130532Y-82490000D01*
X35160000Y-79540000D02*
X32210000Y-82490000D01*
X32110000Y-81040000D02*
X32110000Y-80490000D01*
X32110000Y-80490000D02*
X31860000Y-80240000D01*
X32130532Y-81060532D02*
X32110000Y-81040000D01*
X36010000Y-78640000D02*
X36010000Y-78690000D01*
X37310000Y-79540000D02*
X36610000Y-79540000D01*
X35935000Y-79540000D02*
X35160000Y-79540000D01*
X36010000Y-78690000D02*
X35160000Y-79540000D01*
X36610000Y-79540000D02*
X35935000Y-79540000D01*
X37310000Y-108840000D02*
X36610000Y-108840000D01*
X36010000Y-107940000D02*
X36010000Y-107990000D01*
X35935000Y-108840000D02*
X35160000Y-108840000D01*
X36610000Y-108840000D02*
X35935000Y-108840000D01*
X36010000Y-107990000D02*
X35160000Y-108840000D01*
X32210000Y-111790000D02*
X32130532Y-111790000D01*
X35160000Y-108840000D02*
X32210000Y-111790000D01*
X32130532Y-111790000D02*
X32130532Y-110360532D01*
X32110000Y-110340000D02*
X32110000Y-109790000D01*
X32110000Y-109790000D02*
X31860000Y-109540000D01*
X32130532Y-110360532D02*
X32110000Y-110340000D01*
X32130532Y-113401091D02*
X32130532Y-111790000D01*
X35660000Y-116140000D02*
X34869441Y-116140000D01*
X34869441Y-116140000D02*
X32130532Y-113401091D01*
X35660000Y-57540000D02*
X34869441Y-57540000D01*
X32110000Y-51740000D02*
X32110000Y-51190000D01*
X32110000Y-51190000D02*
X31860000Y-50940000D01*
X36010000Y-49340000D02*
X36010000Y-49390000D01*
X37310000Y-50240000D02*
X36610000Y-50240000D01*
X36010000Y-49390000D02*
X35160000Y-50240000D01*
X36610000Y-50240000D02*
X35935000Y-50240000D01*
X35935000Y-50240000D02*
X35160000Y-50240000D01*
X34869441Y-57540000D02*
X32130532Y-54801091D01*
X32210000Y-53190000D02*
X32130532Y-53190000D01*
X32130532Y-51760532D02*
X32110000Y-51740000D01*
X32130532Y-53190000D02*
X32130532Y-51760532D01*
X32130532Y-54801091D02*
X32130532Y-53190000D01*
X35160000Y-50240000D02*
X32210000Y-53190000D01*
X35935000Y-20940000D02*
X35160000Y-20940000D01*
X36610000Y-20940000D02*
X35935000Y-20940000D01*
X36010000Y-20090000D02*
X35160000Y-20940000D01*
X35160000Y-20940000D02*
X32210000Y-23890000D01*
X37310000Y-20940000D02*
X36610000Y-20940000D01*
X32130532Y-25501091D02*
X32130532Y-23890000D01*
X32130532Y-23890000D02*
X32130532Y-22460532D01*
X36010000Y-20040000D02*
X36010000Y-20090000D01*
X32210000Y-23890000D02*
X32130532Y-23890000D01*
X32110000Y-22440000D02*
X32110000Y-21890000D01*
X32110000Y-21890000D02*
X31860000Y-21640000D01*
X32130532Y-22460532D02*
X32110000Y-22440000D01*
X35660000Y-28240000D02*
X34869441Y-28240000D01*
X34869441Y-28240000D02*
X32130532Y-25501091D01*
D39*
X73260000Y-85490000D02*
X76660000Y-88890000D01*
X76660000Y-88890000D02*
X78060000Y-88890000D01*
X76660000Y-118190000D02*
X78060000Y-118190000D01*
X73260000Y-114790000D02*
X76660000Y-118190000D01*
X73260000Y-56190000D02*
X76660000Y-59590000D01*
X76660000Y-59590000D02*
X78060000Y-59590000D01*
X73260000Y-26890000D02*
X76660000Y-30290000D01*
X76660000Y-30290000D02*
X78060000Y-30290000D01*
X76810000Y-111140000D02*
X76810000Y-111740000D01*
X75310000Y-109640000D02*
X76810000Y-111140000D01*
X76810000Y-81840000D02*
X76810000Y-82440000D01*
X75310000Y-80340000D02*
X76810000Y-81840000D01*
X75310000Y-51040000D02*
X76810000Y-52540000D01*
X76810000Y-52540000D02*
X76810000Y-53140000D01*
X75310000Y-21740000D02*
X76810000Y-23240000D01*
X76810000Y-23240000D02*
X76810000Y-23840000D01*
D38*
X37134999Y-93790000D02*
X22360000Y-93790000D01*
D39*
X37134999Y-93790000D02*
X33410000Y-93790000D01*
D38*
X60035001Y-92864999D02*
X38060000Y-92864999D01*
X64160000Y-90840000D02*
X62060000Y-90840000D01*
X62060000Y-90840000D02*
X60035001Y-92864999D01*
X38060000Y-92864999D02*
X37134999Y-93790000D01*
X67660000Y-87340000D02*
X64160000Y-90840000D01*
X67660000Y-116640000D02*
X64160000Y-120140000D01*
X37134999Y-123090000D02*
X22360000Y-123090000D01*
X62060000Y-120140000D02*
X60035001Y-122164999D01*
X64160000Y-120140000D02*
X62060000Y-120140000D01*
X60035001Y-122164999D02*
X38060000Y-122164999D01*
X38060000Y-122164999D02*
X37134999Y-123090000D01*
D39*
X37134999Y-123090000D02*
X33410000Y-123090000D01*
D38*
X38060000Y-63564999D02*
X37134999Y-64490000D01*
D39*
X37134999Y-64490000D02*
X33410000Y-64490000D01*
D38*
X37134999Y-64490000D02*
X22360000Y-64490000D01*
X64160000Y-61540000D02*
X62060000Y-61540000D01*
X62060000Y-61540000D02*
X60035001Y-63564999D01*
X60035001Y-63564999D02*
X38060000Y-63564999D01*
X67660000Y-58040000D02*
X64160000Y-61540000D01*
X37134999Y-35190000D02*
X22360000Y-35190000D01*
X38060000Y-34264999D02*
X37134999Y-35190000D01*
X62060000Y-32240000D02*
X60035001Y-34264999D01*
X60035001Y-34264999D02*
X38060000Y-34264999D01*
X67660000Y-28740000D02*
X64160000Y-32240000D01*
X64160000Y-32240000D02*
X62060000Y-32240000D01*
D39*
X37134999Y-35190000D02*
X33410000Y-35190000D01*
X32710000Y-92290000D02*
X33063553Y-92290000D01*
X54335000Y-77565000D02*
X45384999Y-86515001D01*
X38838552Y-86515001D02*
X39110000Y-86515001D01*
X36185001Y-86515001D02*
X35660000Y-85990000D01*
X35660000Y-85990000D02*
X35710000Y-85990000D01*
X38838552Y-86515001D02*
X36185001Y-86515001D01*
X45384999Y-86515001D02*
X39110000Y-86515001D01*
X33063553Y-92290000D02*
X38838552Y-86515001D01*
X59510000Y-76890000D02*
X55010000Y-76890000D01*
X54285000Y-77615000D02*
X54335000Y-77565000D01*
X55010000Y-76890000D02*
X54335000Y-77565000D01*
X54285000Y-77940000D02*
X54285000Y-77615000D01*
X54285000Y-106915000D02*
X54335000Y-106865000D01*
X54285000Y-107240000D02*
X54285000Y-106915000D01*
X59510000Y-106190000D02*
X55010000Y-106190000D01*
X55010000Y-106190000D02*
X54335000Y-106865000D01*
X38838552Y-115815001D02*
X39110000Y-115815001D01*
X38838552Y-115815001D02*
X36185001Y-115815001D01*
X35660000Y-115290000D02*
X35710000Y-115290000D01*
X36185001Y-115815001D02*
X35660000Y-115290000D01*
X32710000Y-121590000D02*
X33063553Y-121590000D01*
X45384999Y-115815001D02*
X39110000Y-115815001D01*
X54335000Y-106865000D02*
X45384999Y-115815001D01*
X33063553Y-121590000D02*
X38838552Y-115815001D01*
X33063553Y-62990000D02*
X38838552Y-57215001D01*
X32710000Y-62990000D02*
X33063553Y-62990000D01*
X38838552Y-57215001D02*
X36185001Y-57215001D01*
X36185001Y-57215001D02*
X35660000Y-56690000D01*
X35660000Y-56690000D02*
X35710000Y-56690000D01*
X54285000Y-48640000D02*
X54285000Y-48315000D01*
X55010000Y-47590000D02*
X54335000Y-48265000D01*
X54285000Y-48315000D02*
X54335000Y-48265000D01*
X59510000Y-47590000D02*
X55010000Y-47590000D01*
X38838552Y-57215001D02*
X39110000Y-57215001D01*
X45384999Y-57215001D02*
X39110000Y-57215001D01*
X54335000Y-48265000D02*
X45384999Y-57215001D01*
X38838552Y-27915001D02*
X36185001Y-27915001D01*
X36185001Y-27915001D02*
X35660000Y-27390000D01*
X35660000Y-27390000D02*
X35710000Y-27390000D01*
X45384999Y-27915001D02*
X39110000Y-27915001D01*
X32710000Y-33690000D02*
X33063553Y-33690000D01*
X33063553Y-33690000D02*
X38838552Y-27915001D01*
X38838552Y-27915001D02*
X39110000Y-27915001D01*
X54335000Y-18965000D02*
X45384999Y-27915001D01*
X55010000Y-18290000D02*
X54335000Y-18965000D01*
X54285000Y-19340000D02*
X54285000Y-19015000D01*
X54285000Y-19015000D02*
X54335000Y-18965000D01*
X59510000Y-18290000D02*
X55010000Y-18290000D01*
X45610000Y-84390000D02*
X46710000Y-84390000D01*
X46710000Y-84390000D02*
X54185000Y-76915000D01*
X44510000Y-85490000D02*
X45610000Y-84390000D01*
X36160000Y-85490000D02*
X44510000Y-85490000D01*
X54910000Y-76190000D02*
X59510000Y-76190000D01*
X54185000Y-76915000D02*
X54910000Y-76190000D01*
X54210000Y-76640000D02*
X54210000Y-76890000D01*
X54210000Y-76890000D02*
X54185000Y-76915000D01*
X54910000Y-105490000D02*
X59510000Y-105490000D01*
X54210000Y-106190000D02*
X54185000Y-106215000D01*
X54185000Y-106215000D02*
X54910000Y-105490000D01*
X54210000Y-105940000D02*
X54210000Y-106190000D01*
X46710000Y-113690000D02*
X54185000Y-106215000D01*
X45610000Y-113690000D02*
X46710000Y-113690000D01*
X44510000Y-114790000D02*
X45610000Y-113690000D01*
X36160000Y-114790000D02*
X44510000Y-114790000D01*
X36160000Y-56190000D02*
X44510000Y-56190000D01*
X54210000Y-47340000D02*
X54210000Y-47590000D01*
X54210000Y-47590000D02*
X54185000Y-47615000D01*
X54185000Y-47615000D02*
X54910000Y-46890000D01*
X54910000Y-46890000D02*
X59510000Y-46890000D01*
X45610000Y-55090000D02*
X46710000Y-55090000D01*
X44510000Y-56190000D02*
X45610000Y-55090000D01*
X46710000Y-55090000D02*
X54185000Y-47615000D01*
X46710000Y-25790000D02*
X54185000Y-18315000D01*
X54185000Y-18315000D02*
X54910000Y-17590000D01*
X54210000Y-18040000D02*
X54210000Y-18290000D01*
X54210000Y-18290000D02*
X54185000Y-18315000D01*
X36160000Y-26890000D02*
X44510000Y-26890000D01*
X44510000Y-26890000D02*
X45610000Y-25790000D01*
X45610000Y-25790000D02*
X46710000Y-25790000D01*
X54910000Y-17590000D02*
X59510000Y-17590000D01*
D37*
X37560000Y-80790000D02*
X37460000Y-80890000D01*
D38*
X38210000Y-80140000D02*
X38960000Y-80890000D01*
X38210000Y-80140000D02*
X37460000Y-80890000D01*
X38210000Y-79540000D02*
X38210000Y-80140000D01*
X38210000Y-79540000D02*
X39310000Y-79540000D01*
X38210000Y-108840000D02*
X39310000Y-108840000D01*
X38210000Y-109440000D02*
X38960000Y-110190000D01*
X38210000Y-109440000D02*
X37460000Y-110190000D01*
X38210000Y-108840000D02*
X38210000Y-109440000D01*
D37*
X37560000Y-110090000D02*
X37460000Y-110190000D01*
D38*
X38210000Y-50840000D02*
X37460000Y-51590000D01*
D37*
X37560000Y-51490000D02*
X37460000Y-51590000D01*
D38*
X38210000Y-50240000D02*
X39310000Y-50240000D01*
X38210000Y-50240000D02*
X38210000Y-50840000D01*
X38210000Y-50840000D02*
X38960000Y-51590000D01*
X38210000Y-20940000D02*
X38210000Y-21540000D01*
X38210000Y-21540000D02*
X38960000Y-22290000D01*
X38210000Y-20940000D02*
X39310000Y-20940000D01*
X38210000Y-21540000D02*
X37460000Y-22290000D01*
D37*
X37560000Y-22190000D02*
X37460000Y-22290000D01*
D39*
X63712493Y-75165000D02*
X52035000Y-75165000D01*
X52035000Y-75165000D02*
X43210000Y-83990000D01*
X43210000Y-83990000D02*
X41510000Y-83990000D01*
X40560000Y-84940000D02*
X36610000Y-84940000D01*
X41510000Y-83990000D02*
X40560000Y-84940000D01*
X65237494Y-105990001D02*
X63712493Y-104465000D01*
X65237494Y-76690001D02*
X63712493Y-75165000D01*
X63712493Y-104465000D02*
X52035000Y-104465000D01*
X40560000Y-114240000D02*
X36610000Y-114240000D01*
X52035000Y-104465000D02*
X43210000Y-113290000D01*
X43210000Y-113290000D02*
X41510000Y-113290000D01*
X41510000Y-113290000D02*
X40560000Y-114240000D01*
X40560000Y-55640000D02*
X36610000Y-55640000D01*
X63712493Y-45865000D02*
X52035000Y-45865000D01*
X41510000Y-54690000D02*
X40560000Y-55640000D01*
X43210000Y-54690000D02*
X41510000Y-54690000D01*
X52035000Y-45865000D02*
X43210000Y-54690000D01*
X65237494Y-47390001D02*
X63712493Y-45865000D01*
X65237494Y-18090001D02*
X63712493Y-16565000D01*
X40560000Y-26340000D02*
X36610000Y-26340000D01*
X63712493Y-16565000D02*
X52035000Y-16565000D01*
X52035000Y-16565000D02*
X43210000Y-25390000D01*
X43210000Y-25390000D02*
X41510000Y-25390000D01*
X41510000Y-25390000D02*
X40560000Y-26340000D01*
X84060000Y-104390000D02*
X73592842Y-104390000D01*
X85910000Y-106240000D02*
X84060000Y-104390000D01*
X85910000Y-107690000D02*
X85910000Y-106240000D01*
X73592842Y-104390000D02*
X73310000Y-104390000D01*
X73592842Y-75090000D02*
X73310000Y-75090000D01*
X85910000Y-78390000D02*
X85910000Y-76940000D01*
X85910000Y-76940000D02*
X84060000Y-75090000D01*
X84060000Y-75090000D02*
X73592842Y-75090000D01*
X85910000Y-49090000D02*
X85910000Y-47640000D01*
X85910000Y-47640000D02*
X84060000Y-45790000D01*
X84060000Y-45790000D02*
X73592842Y-45790000D01*
X73592842Y-45790000D02*
X73310000Y-45790000D01*
X85910000Y-19790000D02*
X85910000Y-18340000D01*
X85910000Y-18340000D02*
X84060000Y-16490000D01*
X84060000Y-16490000D02*
X73592842Y-16490000D01*
X73592842Y-16490000D02*
X73310000Y-16490000D01*
X65260000Y-85490000D02*
X64010000Y-86740000D01*
X65260000Y-114790000D02*
X64010000Y-116040000D01*
X65260000Y-56190000D02*
X64010000Y-57440000D01*
X65260000Y-26890000D02*
X64010000Y-28140000D01*
X63960000Y-114490000D02*
X63910000Y-114490000D01*
X65260000Y-113190000D02*
X63960000Y-114490000D01*
X65260000Y-83890000D02*
X63960000Y-85190000D01*
X63960000Y-85190000D02*
X63910000Y-85190000D01*
X65260000Y-54590000D02*
X63960000Y-55890000D01*
X63960000Y-55890000D02*
X63910000Y-55890000D01*
X65260000Y-25290000D02*
X63960000Y-26590000D01*
X63960000Y-26590000D02*
X63910000Y-26590000D01*
X64810000Y-112840000D02*
X65260000Y-112390000D01*
X63860002Y-112840000D02*
X64810000Y-112840000D01*
X64810000Y-83540000D02*
X65260000Y-83090000D01*
X63860002Y-83540000D02*
X64810000Y-83540000D01*
X64810000Y-54240000D02*
X65260000Y-53790000D01*
X63860002Y-54240000D02*
X64810000Y-54240000D01*
X63860002Y-24940000D02*
X64810000Y-24940000D01*
X64810000Y-24940000D02*
X65260000Y-24490000D01*
X61160000Y-93040000D02*
X57110000Y-97090000D01*
X57110000Y-97090000D02*
X57110000Y-97390000D01*
X63810000Y-90240000D02*
X61760000Y-90240000D01*
X61760000Y-90240000D02*
X60060000Y-91940000D01*
X67660000Y-85490000D02*
X67660000Y-86390000D01*
X67660000Y-86390000D02*
X63810000Y-90240000D01*
X67660000Y-114790000D02*
X67660000Y-115690000D01*
X67660000Y-115690000D02*
X63810000Y-119540000D01*
X57110000Y-126390000D02*
X57110000Y-126690000D01*
X61160000Y-122340000D02*
X57110000Y-126390000D01*
X61760000Y-119540000D02*
X60060000Y-121240000D01*
X63810000Y-119540000D02*
X61760000Y-119540000D01*
X63810000Y-60940000D02*
X61760000Y-60940000D01*
X61760000Y-60940000D02*
X60060000Y-62640000D01*
X57110000Y-67790000D02*
X57110000Y-68090000D01*
X61160000Y-63740000D02*
X57110000Y-67790000D01*
X67660000Y-56190000D02*
X67660000Y-57090000D01*
X67660000Y-57090000D02*
X63810000Y-60940000D01*
X61160000Y-34440000D02*
X57110000Y-38490000D01*
X57110000Y-38490000D02*
X57110000Y-38790000D01*
X61760000Y-31640000D02*
X60060000Y-33340000D01*
X63810000Y-31640000D02*
X61760000Y-31640000D01*
X67660000Y-27790000D02*
X63810000Y-31640000D01*
X67660000Y-26890000D02*
X67660000Y-27790000D01*
X80860000Y-108440000D02*
X78760000Y-110540000D01*
X78760000Y-110540000D02*
X78235000Y-110540000D01*
X80860000Y-108340000D02*
X80860000Y-108440000D01*
X78760000Y-81240000D02*
X78235000Y-81240000D01*
X80860000Y-79040000D02*
X80860000Y-79140000D01*
X80860000Y-79140000D02*
X78760000Y-81240000D01*
X78760000Y-51940000D02*
X78235000Y-51940000D01*
X80860000Y-49740000D02*
X80860000Y-49840000D01*
X80860000Y-49840000D02*
X78760000Y-51940000D01*
X80860000Y-20440000D02*
X80860000Y-20540000D01*
X80860000Y-20540000D02*
X78760000Y-22640000D01*
X78760000Y-22640000D02*
X78235000Y-22640000D01*
X74760000Y-106690000D02*
X74071090Y-106001090D01*
X75510000Y-106690000D02*
X74760000Y-106690000D01*
X75510000Y-77390000D02*
X74760000Y-77390000D01*
X74760000Y-77390000D02*
X74071090Y-76701090D01*
X74760000Y-48090000D02*
X74071090Y-47401090D01*
X75510000Y-48090000D02*
X74760000Y-48090000D01*
X75510000Y-18790000D02*
X74760000Y-18790000D01*
X74760000Y-18790000D02*
X74071090Y-18101090D01*
X73260000Y-105990000D02*
X74210000Y-105040000D01*
X74210000Y-105040000D02*
X74960000Y-105040000D01*
X75460000Y-105040000D02*
X74210000Y-105040000D01*
X74210000Y-75740000D02*
X74960000Y-75740000D01*
X73260000Y-76690000D02*
X74210000Y-75740000D01*
X75460000Y-75740000D02*
X74210000Y-75740000D01*
X74210000Y-46440000D02*
X74960000Y-46440000D01*
X75460000Y-46440000D02*
X74210000Y-46440000D01*
X73260000Y-47390000D02*
X74210000Y-46440000D01*
X75460000Y-17140000D02*
X74210000Y-17140000D01*
X73260000Y-18090000D02*
X74210000Y-17140000D01*
X74210000Y-17140000D02*
X74960000Y-17140000D01*
D38*
X36710000Y-93290000D02*
X32860000Y-93290000D01*
X65260000Y-84690000D02*
X57660000Y-92290000D01*
X37710000Y-92290000D02*
X36710000Y-93290000D01*
X57660000Y-92290000D02*
X37710000Y-92290000D01*
X36710000Y-122590000D02*
X32860000Y-122590000D01*
X65260000Y-113990000D02*
X57660000Y-121590000D01*
X57660000Y-121590000D02*
X37710000Y-121590000D01*
X37710000Y-121590000D02*
X36710000Y-122590000D01*
X37710000Y-62990000D02*
X36710000Y-63990000D01*
X36710000Y-63990000D02*
X32860000Y-63990000D01*
X65260000Y-55390000D02*
X57660000Y-62990000D01*
X57660000Y-62990000D02*
X37710000Y-62990000D01*
X36710000Y-34690000D02*
X32860000Y-34690000D01*
X65260000Y-26090000D02*
X57660000Y-33690000D01*
X57660000Y-33690000D02*
X37710000Y-33690000D01*
X37710000Y-33690000D02*
X36710000Y-34690000D01*
G36*
X22510000Y-33290000D02*
X17710000Y-33290000D01*
X17710000Y-30990000D01*
X22510000Y-30990000D01*
X22510000Y-33290000D01*
X22510000Y-33290000D01*
G37*
X22510000Y-33290000D02*
X17710000Y-33290000D01*
X17710000Y-30990000D01*
X22510000Y-30990000D01*
X22510000Y-33290000D01*
G36*
X22510000Y-39390000D02*
X17710000Y-39390000D01*
X17710000Y-37090000D01*
X22510000Y-37090000D01*
X22510000Y-39390000D01*
X22510000Y-39390000D01*
G37*
X22510000Y-39390000D02*
X17710000Y-39390000D01*
X17710000Y-37090000D01*
X22510000Y-37090000D01*
X22510000Y-39390000D01*
G36*
X22510000Y-21440000D02*
X17710000Y-21440000D01*
X17710000Y-19140000D01*
X22510000Y-19140000D01*
X22510000Y-21440000D01*
X22510000Y-21440000D01*
G37*
X22510000Y-21440000D02*
X17710000Y-21440000D01*
X17710000Y-19140000D01*
X22510000Y-19140000D01*
X22510000Y-21440000D01*
G36*
X22510000Y-27540000D02*
X17710000Y-27540000D01*
X17710000Y-25240000D01*
X22510000Y-25240000D01*
X22510000Y-27540000D01*
X22510000Y-27540000D01*
G37*
X22510000Y-27540000D02*
X17710000Y-27540000D01*
X17710000Y-25240000D01*
X22510000Y-25240000D01*
X22510000Y-27540000D01*
D41*
G36*
X93385000Y-32240000D02*
X93653000Y-32240000D01*
X93653000Y-33240000D01*
X93385000Y-33240000D01*
X93385000Y-34142959D01*
X93624688Y-34223819D01*
X93973000Y-33991064D01*
X93973000Y-34789867D01*
X93948327Y-34730301D01*
X93769698Y-34551673D01*
X93536309Y-34455000D01*
X93195750Y-34455000D01*
X93037000Y-34613750D01*
X93037000Y-35462530D01*
X92783000Y-35462530D01*
X92783000Y-34613750D01*
X92624250Y-34455000D01*
X92283691Y-34455000D01*
X92050302Y-34551673D01*
X91871673Y-34730301D01*
X91775000Y-34963690D01*
X91775000Y-35462530D01*
X90947324Y-35462530D01*
X90947324Y-35090000D01*
X90910577Y-34894706D01*
X90837000Y-34780364D01*
X90837000Y-34348556D01*
X90904990Y-34249049D01*
X90947324Y-34040000D01*
X90947324Y-33613002D01*
X91160905Y-33613002D01*
X91374269Y-33875639D01*
X91895312Y-34223819D01*
X92135000Y-34142959D01*
X92135000Y-33240000D01*
X91867000Y-33240000D01*
X91867000Y-32240000D01*
X92135000Y-32240000D01*
X92135000Y-31847000D01*
X93385000Y-31847000D01*
X93385000Y-32240000D01*
X93385000Y-32240000D01*
G37*
X93385000Y-32240000D02*
X93653000Y-32240000D01*
X93653000Y-33240000D01*
X93385000Y-33240000D01*
X93385000Y-34142959D01*
X93624688Y-34223819D01*
X93973000Y-33991064D01*
X93973000Y-34789867D01*
X93948327Y-34730301D01*
X93769698Y-34551673D01*
X93536309Y-34455000D01*
X93195750Y-34455000D01*
X93037000Y-34613750D01*
X93037000Y-35462530D01*
X92783000Y-35462530D01*
X92783000Y-34613750D01*
X92624250Y-34455000D01*
X92283691Y-34455000D01*
X92050302Y-34551673D01*
X91871673Y-34730301D01*
X91775000Y-34963690D01*
X91775000Y-35462530D01*
X90947324Y-35462530D01*
X90947324Y-35090000D01*
X90910577Y-34894706D01*
X90837000Y-34780364D01*
X90837000Y-34348556D01*
X90904990Y-34249049D01*
X90947324Y-34040000D01*
X90947324Y-33613002D01*
X91160905Y-33613002D01*
X91374269Y-33875639D01*
X91895312Y-34223819D01*
X92135000Y-34142959D01*
X92135000Y-33240000D01*
X91867000Y-33240000D01*
X91867000Y-32240000D01*
X92135000Y-32240000D01*
X92135000Y-31847000D01*
X93385000Y-31847000D01*
X93385000Y-32240000D01*
G36*
X93973000Y-24488936D02*
X93624688Y-24256181D01*
X93385000Y-24337041D01*
X93385000Y-25240000D01*
X93653000Y-25240000D01*
X93653000Y-26240000D01*
X93385000Y-26240000D01*
X93385000Y-27142959D01*
X93624688Y-27223819D01*
X93973000Y-26991064D01*
X93973000Y-31488936D01*
X93633002Y-31261737D01*
X93633002Y-31105000D01*
X92979000Y-31105000D01*
X93086865Y-30845233D01*
X93087134Y-30536123D01*
X93087000Y-30535799D01*
X93087000Y-30140981D01*
X93097324Y-30090000D01*
X93097324Y-29490000D01*
X93075264Y-29372761D01*
X93098327Y-29349698D01*
X93195000Y-29116309D01*
X93195000Y-28975750D01*
X93036250Y-28817000D01*
X92435000Y-28817000D01*
X92435000Y-28837000D01*
X92185000Y-28837000D01*
X92185000Y-28817000D01*
X91583750Y-28817000D01*
X91425000Y-28975750D01*
X91425000Y-29116309D01*
X91521673Y-29349698D01*
X91546135Y-29374160D01*
X91522676Y-29490000D01*
X91522676Y-30090000D01*
X91533000Y-30144867D01*
X91533000Y-30689897D01*
X91532866Y-30843877D01*
X91542419Y-30866998D01*
X91295387Y-30866998D01*
X91193888Y-30747892D01*
X90754555Y-30523431D01*
X90560000Y-30643259D01*
X90560000Y-31415000D01*
X90953000Y-31415000D01*
X90953000Y-31866998D01*
X90875000Y-31866998D01*
X90875000Y-32065000D01*
X90560000Y-32065000D01*
X90560000Y-32390000D01*
X89560000Y-32390000D01*
X89560000Y-32065000D01*
X89167000Y-32065000D01*
X89167000Y-31612546D01*
X89199560Y-31599092D01*
X89383974Y-31415000D01*
X89560000Y-31415000D01*
X89560000Y-30643259D01*
X89450148Y-30575600D01*
X89439396Y-30549580D01*
X89476511Y-30460199D01*
X90009386Y-29927324D01*
X90060000Y-29927324D01*
X90255294Y-29890577D01*
X90434660Y-29775158D01*
X90554990Y-29599049D01*
X90597324Y-29390000D01*
X90597324Y-28990000D01*
X90575264Y-28872761D01*
X90598327Y-28849698D01*
X90695000Y-28616309D01*
X90695000Y-28548750D01*
X90536250Y-28390000D01*
X89887000Y-28390000D01*
X89887000Y-28437000D01*
X89633000Y-28437000D01*
X89633000Y-28390000D01*
X89613000Y-28390000D01*
X89613000Y-28263691D01*
X91425000Y-28263691D01*
X91425000Y-28404250D01*
X91583750Y-28563000D01*
X92185000Y-28563000D01*
X92185000Y-27913750D01*
X92435000Y-27913750D01*
X92435000Y-28563000D01*
X93036250Y-28563000D01*
X93195000Y-28404250D01*
X93195000Y-28263691D01*
X93098327Y-28030302D01*
X92919699Y-27851673D01*
X92686310Y-27755000D01*
X92593750Y-27755000D01*
X92435000Y-27913750D01*
X92185000Y-27913750D01*
X92026250Y-27755000D01*
X91933690Y-27755000D01*
X91700301Y-27851673D01*
X91521673Y-28030302D01*
X91425000Y-28263691D01*
X89613000Y-28263691D01*
X89613000Y-28190000D01*
X89633000Y-28190000D01*
X89633000Y-28025000D01*
X89887000Y-28025000D01*
X89887000Y-28190000D01*
X90536250Y-28190000D01*
X90695000Y-28031250D01*
X90695000Y-28025000D01*
X90933002Y-28025000D01*
X90933002Y-27865398D01*
X91193888Y-27732108D01*
X91295387Y-27613002D01*
X91695000Y-27613002D01*
X91695000Y-27089963D01*
X91895312Y-27223819D01*
X92135000Y-27142959D01*
X92135000Y-26240000D01*
X91867000Y-26240000D01*
X91867000Y-25240000D01*
X92135000Y-25240000D01*
X92135000Y-24337041D01*
X91895312Y-24256181D01*
X91374269Y-24604361D01*
X91160905Y-24866998D01*
X90875000Y-24866998D01*
X90875000Y-25584968D01*
X90754555Y-25523431D01*
X90560000Y-25643259D01*
X90560000Y-26415000D01*
X90875000Y-26415000D01*
X90875000Y-26613002D01*
X90953000Y-26613002D01*
X90953000Y-27065000D01*
X90560000Y-27065000D01*
X90560000Y-27390000D01*
X89560000Y-27390000D01*
X89560000Y-27065000D01*
X89167000Y-27065000D01*
X89167000Y-26415000D01*
X89560000Y-26415000D01*
X89560000Y-25663896D01*
X89627854Y-25562345D01*
X89687000Y-25265000D01*
X89627854Y-24967655D01*
X89459422Y-24715578D01*
X89207345Y-24547146D01*
X88910000Y-24488000D01*
X88612655Y-24547146D01*
X88360578Y-24715578D01*
X88137000Y-24939156D01*
X88137000Y-23016530D01*
X93973000Y-23016530D01*
X93973000Y-24488936D01*
X93973000Y-24488936D01*
G37*
X93973000Y-24488936D02*
X93624688Y-24256181D01*
X93385000Y-24337041D01*
X93385000Y-25240000D01*
X93653000Y-25240000D01*
X93653000Y-26240000D01*
X93385000Y-26240000D01*
X93385000Y-27142959D01*
X93624688Y-27223819D01*
X93973000Y-26991064D01*
X93973000Y-31488936D01*
X93633002Y-31261737D01*
X93633002Y-31105000D01*
X92979000Y-31105000D01*
X93086865Y-30845233D01*
X93087134Y-30536123D01*
X93087000Y-30535799D01*
X93087000Y-30140981D01*
X93097324Y-30090000D01*
X93097324Y-29490000D01*
X93075264Y-29372761D01*
X93098327Y-29349698D01*
X93195000Y-29116309D01*
X93195000Y-28975750D01*
X93036250Y-28817000D01*
X92435000Y-28817000D01*
X92435000Y-28837000D01*
X92185000Y-28837000D01*
X92185000Y-28817000D01*
X91583750Y-28817000D01*
X91425000Y-28975750D01*
X91425000Y-29116309D01*
X91521673Y-29349698D01*
X91546135Y-29374160D01*
X91522676Y-29490000D01*
X91522676Y-30090000D01*
X91533000Y-30144867D01*
X91533000Y-30689897D01*
X91532866Y-30843877D01*
X91542419Y-30866998D01*
X91295387Y-30866998D01*
X91193888Y-30747892D01*
X90754555Y-30523431D01*
X90560000Y-30643259D01*
X90560000Y-31415000D01*
X90953000Y-31415000D01*
X90953000Y-31866998D01*
X90875000Y-31866998D01*
X90875000Y-32065000D01*
X90560000Y-32065000D01*
X90560000Y-32390000D01*
X89560000Y-32390000D01*
X89560000Y-32065000D01*
X89167000Y-32065000D01*
X89167000Y-31612546D01*
X89199560Y-31599092D01*
X89383974Y-31415000D01*
X89560000Y-31415000D01*
X89560000Y-30643259D01*
X89450148Y-30575600D01*
X89439396Y-30549580D01*
X89476511Y-30460199D01*
X90009386Y-29927324D01*
X90060000Y-29927324D01*
X90255294Y-29890577D01*
X90434660Y-29775158D01*
X90554990Y-29599049D01*
X90597324Y-29390000D01*
X90597324Y-28990000D01*
X90575264Y-28872761D01*
X90598327Y-28849698D01*
X90695000Y-28616309D01*
X90695000Y-28548750D01*
X90536250Y-28390000D01*
X89887000Y-28390000D01*
X89887000Y-28437000D01*
X89633000Y-28437000D01*
X89633000Y-28390000D01*
X89613000Y-28390000D01*
X89613000Y-28263691D01*
X91425000Y-28263691D01*
X91425000Y-28404250D01*
X91583750Y-28563000D01*
X92185000Y-28563000D01*
X92185000Y-27913750D01*
X92435000Y-27913750D01*
X92435000Y-28563000D01*
X93036250Y-28563000D01*
X93195000Y-28404250D01*
X93195000Y-28263691D01*
X93098327Y-28030302D01*
X92919699Y-27851673D01*
X92686310Y-27755000D01*
X92593750Y-27755000D01*
X92435000Y-27913750D01*
X92185000Y-27913750D01*
X92026250Y-27755000D01*
X91933690Y-27755000D01*
X91700301Y-27851673D01*
X91521673Y-28030302D01*
X91425000Y-28263691D01*
X89613000Y-28263691D01*
X89613000Y-28190000D01*
X89633000Y-28190000D01*
X89633000Y-28025000D01*
X89887000Y-28025000D01*
X89887000Y-28190000D01*
X90536250Y-28190000D01*
X90695000Y-28031250D01*
X90695000Y-28025000D01*
X90933002Y-28025000D01*
X90933002Y-27865398D01*
X91193888Y-27732108D01*
X91295387Y-27613002D01*
X91695000Y-27613002D01*
X91695000Y-27089963D01*
X91895312Y-27223819D01*
X92135000Y-27142959D01*
X92135000Y-26240000D01*
X91867000Y-26240000D01*
X91867000Y-25240000D01*
X92135000Y-25240000D01*
X92135000Y-24337041D01*
X91895312Y-24256181D01*
X91374269Y-24604361D01*
X91160905Y-24866998D01*
X90875000Y-24866998D01*
X90875000Y-25584968D01*
X90754555Y-25523431D01*
X90560000Y-25643259D01*
X90560000Y-26415000D01*
X90875000Y-26415000D01*
X90875000Y-26613002D01*
X90953000Y-26613002D01*
X90953000Y-27065000D01*
X90560000Y-27065000D01*
X90560000Y-27390000D01*
X89560000Y-27390000D01*
X89560000Y-27065000D01*
X89167000Y-27065000D01*
X89167000Y-26415000D01*
X89560000Y-26415000D01*
X89560000Y-25663896D01*
X89627854Y-25562345D01*
X89687000Y-25265000D01*
X89627854Y-24967655D01*
X89459422Y-24715578D01*
X89207345Y-24547146D01*
X88910000Y-24488000D01*
X88612655Y-24547146D01*
X88360578Y-24715578D01*
X88137000Y-24939156D01*
X88137000Y-23016530D01*
X93973000Y-23016530D01*
X93973000Y-24488936D01*
D42*
G36*
X47958224Y-35715000D02*
X41311776Y-35715000D01*
X40336775Y-34739999D01*
X48933225Y-34739999D01*
X47958224Y-35715000D01*
X47958224Y-35715000D01*
G37*
X47958224Y-35715000D02*
X41311776Y-35715000D01*
X40336775Y-34739999D01*
X48933225Y-34739999D01*
X47958224Y-35715000D01*
G36*
X49985000Y-30441776D02*
X49985000Y-33215000D01*
X39935000Y-33215000D01*
X39935000Y-30641776D01*
X40884911Y-29691865D01*
X40884892Y-29713775D01*
X40979842Y-29943571D01*
X41155504Y-30119540D01*
X41385134Y-30214891D01*
X41633775Y-30215108D01*
X41863571Y-30120158D01*
X42039540Y-29944496D01*
X42134891Y-29714866D01*
X42135108Y-29466225D01*
X42040158Y-29236429D01*
X41864496Y-29060460D01*
X41634866Y-28965109D01*
X41611687Y-28965089D01*
X41861776Y-28715000D01*
X48258224Y-28715000D01*
X49985000Y-30441776D01*
X49985000Y-30441776D01*
G37*
X49985000Y-30441776D02*
X49985000Y-33215000D01*
X39935000Y-33215000D01*
X39935000Y-30641776D01*
X40884911Y-29691865D01*
X40884892Y-29713775D01*
X40979842Y-29943571D01*
X41155504Y-30119540D01*
X41385134Y-30214891D01*
X41633775Y-30215108D01*
X41863571Y-30120158D01*
X42039540Y-29944496D01*
X42134891Y-29714866D01*
X42135108Y-29466225D01*
X42040158Y-29236429D01*
X41864496Y-29060460D01*
X41634866Y-28965109D01*
X41611687Y-28965089D01*
X41861776Y-28715000D01*
X48258224Y-28715000D01*
X49985000Y-30441776D01*
D41*
G36*
X93385000Y-61540000D02*
X93653000Y-61540000D01*
X93653000Y-62540000D01*
X93385000Y-62540000D01*
X93385000Y-63442959D01*
X93624688Y-63523819D01*
X93973000Y-63291064D01*
X93973000Y-64089867D01*
X93948327Y-64030301D01*
X93769698Y-63851673D01*
X93536309Y-63755000D01*
X93195750Y-63755000D01*
X93037000Y-63913750D01*
X93037000Y-64762530D01*
X92783000Y-64762530D01*
X92783000Y-63913750D01*
X92624250Y-63755000D01*
X92283691Y-63755000D01*
X92050302Y-63851673D01*
X91871673Y-64030301D01*
X91775000Y-64263690D01*
X91775000Y-64762530D01*
X90947324Y-64762530D01*
X90947324Y-64390000D01*
X90910577Y-64194706D01*
X90837000Y-64080364D01*
X90837000Y-63648556D01*
X90904990Y-63549049D01*
X90947324Y-63340000D01*
X90947324Y-62913002D01*
X91160905Y-62913002D01*
X91374269Y-63175639D01*
X91895312Y-63523819D01*
X92135000Y-63442959D01*
X92135000Y-62540000D01*
X91867000Y-62540000D01*
X91867000Y-61540000D01*
X92135000Y-61540000D01*
X92135000Y-61147000D01*
X93385000Y-61147000D01*
X93385000Y-61540000D01*
X93385000Y-61540000D01*
G37*
X93385000Y-61540000D02*
X93653000Y-61540000D01*
X93653000Y-62540000D01*
X93385000Y-62540000D01*
X93385000Y-63442959D01*
X93624688Y-63523819D01*
X93973000Y-63291064D01*
X93973000Y-64089867D01*
X93948327Y-64030301D01*
X93769698Y-63851673D01*
X93536309Y-63755000D01*
X93195750Y-63755000D01*
X93037000Y-63913750D01*
X93037000Y-64762530D01*
X92783000Y-64762530D01*
X92783000Y-63913750D01*
X92624250Y-63755000D01*
X92283691Y-63755000D01*
X92050302Y-63851673D01*
X91871673Y-64030301D01*
X91775000Y-64263690D01*
X91775000Y-64762530D01*
X90947324Y-64762530D01*
X90947324Y-64390000D01*
X90910577Y-64194706D01*
X90837000Y-64080364D01*
X90837000Y-63648556D01*
X90904990Y-63549049D01*
X90947324Y-63340000D01*
X90947324Y-62913002D01*
X91160905Y-62913002D01*
X91374269Y-63175639D01*
X91895312Y-63523819D01*
X92135000Y-63442959D01*
X92135000Y-62540000D01*
X91867000Y-62540000D01*
X91867000Y-61540000D01*
X92135000Y-61540000D01*
X92135000Y-61147000D01*
X93385000Y-61147000D01*
X93385000Y-61540000D01*
G36*
X93973000Y-53788936D02*
X93624688Y-53556181D01*
X93385000Y-53637041D01*
X93385000Y-54540000D01*
X93653000Y-54540000D01*
X93653000Y-55540000D01*
X93385000Y-55540000D01*
X93385000Y-56442959D01*
X93624688Y-56523819D01*
X93973000Y-56291064D01*
X93973000Y-60788936D01*
X93633002Y-60561737D01*
X93633002Y-60405000D01*
X92979000Y-60405000D01*
X93086865Y-60145233D01*
X93087134Y-59836123D01*
X93087000Y-59835799D01*
X93087000Y-59440981D01*
X93097324Y-59390000D01*
X93097324Y-58790000D01*
X93075264Y-58672761D01*
X93098327Y-58649698D01*
X93195000Y-58416309D01*
X93195000Y-58275750D01*
X93036250Y-58117000D01*
X92435000Y-58117000D01*
X92435000Y-58137000D01*
X92185000Y-58137000D01*
X92185000Y-58117000D01*
X91583750Y-58117000D01*
X91425000Y-58275750D01*
X91425000Y-58416309D01*
X91521673Y-58649698D01*
X91546135Y-58674160D01*
X91522676Y-58790000D01*
X91522676Y-59390000D01*
X91533000Y-59444867D01*
X91533000Y-59989897D01*
X91532866Y-60143877D01*
X91542419Y-60166998D01*
X91295387Y-60166998D01*
X91193888Y-60047892D01*
X90754555Y-59823431D01*
X90560000Y-59943259D01*
X90560000Y-60715000D01*
X90953000Y-60715000D01*
X90953000Y-61166998D01*
X90875000Y-61166998D01*
X90875000Y-61365000D01*
X90560000Y-61365000D01*
X90560000Y-61690000D01*
X89560000Y-61690000D01*
X89560000Y-61365000D01*
X89167000Y-61365000D01*
X89167000Y-60912546D01*
X89199560Y-60899092D01*
X89383974Y-60715000D01*
X89560000Y-60715000D01*
X89560000Y-59943259D01*
X89450148Y-59875600D01*
X89439396Y-59849580D01*
X89476511Y-59760199D01*
X90009386Y-59227324D01*
X90060000Y-59227324D01*
X90255294Y-59190577D01*
X90434660Y-59075158D01*
X90554990Y-58899049D01*
X90597324Y-58690000D01*
X90597324Y-58290000D01*
X90575264Y-58172761D01*
X90598327Y-58149698D01*
X90695000Y-57916309D01*
X90695000Y-57848750D01*
X90536250Y-57690000D01*
X89887000Y-57690000D01*
X89887000Y-57737000D01*
X89633000Y-57737000D01*
X89633000Y-57690000D01*
X89613000Y-57690000D01*
X89613000Y-57563691D01*
X91425000Y-57563691D01*
X91425000Y-57704250D01*
X91583750Y-57863000D01*
X92185000Y-57863000D01*
X92185000Y-57213750D01*
X92435000Y-57213750D01*
X92435000Y-57863000D01*
X93036250Y-57863000D01*
X93195000Y-57704250D01*
X93195000Y-57563691D01*
X93098327Y-57330302D01*
X92919699Y-57151673D01*
X92686310Y-57055000D01*
X92593750Y-57055000D01*
X92435000Y-57213750D01*
X92185000Y-57213750D01*
X92026250Y-57055000D01*
X91933690Y-57055000D01*
X91700301Y-57151673D01*
X91521673Y-57330302D01*
X91425000Y-57563691D01*
X89613000Y-57563691D01*
X89613000Y-57490000D01*
X89633000Y-57490000D01*
X89633000Y-57325000D01*
X89887000Y-57325000D01*
X89887000Y-57490000D01*
X90536250Y-57490000D01*
X90695000Y-57331250D01*
X90695000Y-57325000D01*
X90933002Y-57325000D01*
X90933002Y-57165398D01*
X91193888Y-57032108D01*
X91295387Y-56913002D01*
X91695000Y-56913002D01*
X91695000Y-56389963D01*
X91895312Y-56523819D01*
X92135000Y-56442959D01*
X92135000Y-55540000D01*
X91867000Y-55540000D01*
X91867000Y-54540000D01*
X92135000Y-54540000D01*
X92135000Y-53637041D01*
X91895312Y-53556181D01*
X91374269Y-53904361D01*
X91160905Y-54166998D01*
X90875000Y-54166998D01*
X90875000Y-54884968D01*
X90754555Y-54823431D01*
X90560000Y-54943259D01*
X90560000Y-55715000D01*
X90875000Y-55715000D01*
X90875000Y-55913002D01*
X90953000Y-55913002D01*
X90953000Y-56365000D01*
X90560000Y-56365000D01*
X90560000Y-56690000D01*
X89560000Y-56690000D01*
X89560000Y-56365000D01*
X89167000Y-56365000D01*
X89167000Y-55715000D01*
X89560000Y-55715000D01*
X89560000Y-54963896D01*
X89627854Y-54862345D01*
X89687000Y-54565000D01*
X89627854Y-54267655D01*
X89459422Y-54015578D01*
X89207345Y-53847146D01*
X88910000Y-53788000D01*
X88612655Y-53847146D01*
X88360578Y-54015578D01*
X88137000Y-54239156D01*
X88137000Y-52316530D01*
X93973000Y-52316530D01*
X93973000Y-53788936D01*
X93973000Y-53788936D01*
G37*
X93973000Y-53788936D02*
X93624688Y-53556181D01*
X93385000Y-53637041D01*
X93385000Y-54540000D01*
X93653000Y-54540000D01*
X93653000Y-55540000D01*
X93385000Y-55540000D01*
X93385000Y-56442959D01*
X93624688Y-56523819D01*
X93973000Y-56291064D01*
X93973000Y-60788936D01*
X93633002Y-60561737D01*
X93633002Y-60405000D01*
X92979000Y-60405000D01*
X93086865Y-60145233D01*
X93087134Y-59836123D01*
X93087000Y-59835799D01*
X93087000Y-59440981D01*
X93097324Y-59390000D01*
X93097324Y-58790000D01*
X93075264Y-58672761D01*
X93098327Y-58649698D01*
X93195000Y-58416309D01*
X93195000Y-58275750D01*
X93036250Y-58117000D01*
X92435000Y-58117000D01*
X92435000Y-58137000D01*
X92185000Y-58137000D01*
X92185000Y-58117000D01*
X91583750Y-58117000D01*
X91425000Y-58275750D01*
X91425000Y-58416309D01*
X91521673Y-58649698D01*
X91546135Y-58674160D01*
X91522676Y-58790000D01*
X91522676Y-59390000D01*
X91533000Y-59444867D01*
X91533000Y-59989897D01*
X91532866Y-60143877D01*
X91542419Y-60166998D01*
X91295387Y-60166998D01*
X91193888Y-60047892D01*
X90754555Y-59823431D01*
X90560000Y-59943259D01*
X90560000Y-60715000D01*
X90953000Y-60715000D01*
X90953000Y-61166998D01*
X90875000Y-61166998D01*
X90875000Y-61365000D01*
X90560000Y-61365000D01*
X90560000Y-61690000D01*
X89560000Y-61690000D01*
X89560000Y-61365000D01*
X89167000Y-61365000D01*
X89167000Y-60912546D01*
X89199560Y-60899092D01*
X89383974Y-60715000D01*
X89560000Y-60715000D01*
X89560000Y-59943259D01*
X89450148Y-59875600D01*
X89439396Y-59849580D01*
X89476511Y-59760199D01*
X90009386Y-59227324D01*
X90060000Y-59227324D01*
X90255294Y-59190577D01*
X90434660Y-59075158D01*
X90554990Y-58899049D01*
X90597324Y-58690000D01*
X90597324Y-58290000D01*
X90575264Y-58172761D01*
X90598327Y-58149698D01*
X90695000Y-57916309D01*
X90695000Y-57848750D01*
X90536250Y-57690000D01*
X89887000Y-57690000D01*
X89887000Y-57737000D01*
X89633000Y-57737000D01*
X89633000Y-57690000D01*
X89613000Y-57690000D01*
X89613000Y-57563691D01*
X91425000Y-57563691D01*
X91425000Y-57704250D01*
X91583750Y-57863000D01*
X92185000Y-57863000D01*
X92185000Y-57213750D01*
X92435000Y-57213750D01*
X92435000Y-57863000D01*
X93036250Y-57863000D01*
X93195000Y-57704250D01*
X93195000Y-57563691D01*
X93098327Y-57330302D01*
X92919699Y-57151673D01*
X92686310Y-57055000D01*
X92593750Y-57055000D01*
X92435000Y-57213750D01*
X92185000Y-57213750D01*
X92026250Y-57055000D01*
X91933690Y-57055000D01*
X91700301Y-57151673D01*
X91521673Y-57330302D01*
X91425000Y-57563691D01*
X89613000Y-57563691D01*
X89613000Y-57490000D01*
X89633000Y-57490000D01*
X89633000Y-57325000D01*
X89887000Y-57325000D01*
X89887000Y-57490000D01*
X90536250Y-57490000D01*
X90695000Y-57331250D01*
X90695000Y-57325000D01*
X90933002Y-57325000D01*
X90933002Y-57165398D01*
X91193888Y-57032108D01*
X91295387Y-56913002D01*
X91695000Y-56913002D01*
X91695000Y-56389963D01*
X91895312Y-56523819D01*
X92135000Y-56442959D01*
X92135000Y-55540000D01*
X91867000Y-55540000D01*
X91867000Y-54540000D01*
X92135000Y-54540000D01*
X92135000Y-53637041D01*
X91895312Y-53556181D01*
X91374269Y-53904361D01*
X91160905Y-54166998D01*
X90875000Y-54166998D01*
X90875000Y-54884968D01*
X90754555Y-54823431D01*
X90560000Y-54943259D01*
X90560000Y-55715000D01*
X90875000Y-55715000D01*
X90875000Y-55913002D01*
X90953000Y-55913002D01*
X90953000Y-56365000D01*
X90560000Y-56365000D01*
X90560000Y-56690000D01*
X89560000Y-56690000D01*
X89560000Y-56365000D01*
X89167000Y-56365000D01*
X89167000Y-55715000D01*
X89560000Y-55715000D01*
X89560000Y-54963896D01*
X89627854Y-54862345D01*
X89687000Y-54565000D01*
X89627854Y-54267655D01*
X89459422Y-54015578D01*
X89207345Y-53847146D01*
X88910000Y-53788000D01*
X88612655Y-53847146D01*
X88360578Y-54015578D01*
X88137000Y-54239156D01*
X88137000Y-52316530D01*
X93973000Y-52316530D01*
X93973000Y-53788936D01*
D42*
G36*
X47958224Y-65015000D02*
X41311776Y-65015000D01*
X40336775Y-64039999D01*
X48933225Y-64039999D01*
X47958224Y-65015000D01*
X47958224Y-65015000D01*
G37*
X47958224Y-65015000D02*
X41311776Y-65015000D01*
X40336775Y-64039999D01*
X48933225Y-64039999D01*
X47958224Y-65015000D01*
G36*
X49985000Y-59741776D02*
X49985000Y-62515000D01*
X39935000Y-62515000D01*
X39935000Y-59941776D01*
X40884911Y-58991865D01*
X40884892Y-59013775D01*
X40979842Y-59243571D01*
X41155504Y-59419540D01*
X41385134Y-59514891D01*
X41633775Y-59515108D01*
X41863571Y-59420158D01*
X42039540Y-59244496D01*
X42134891Y-59014866D01*
X42135108Y-58766225D01*
X42040158Y-58536429D01*
X41864496Y-58360460D01*
X41634866Y-58265109D01*
X41611687Y-58265089D01*
X41861776Y-58015000D01*
X48258224Y-58015000D01*
X49985000Y-59741776D01*
X49985000Y-59741776D01*
G37*
X49985000Y-59741776D02*
X49985000Y-62515000D01*
X39935000Y-62515000D01*
X39935000Y-59941776D01*
X40884911Y-58991865D01*
X40884892Y-59013775D01*
X40979842Y-59243571D01*
X41155504Y-59419540D01*
X41385134Y-59514891D01*
X41633775Y-59515108D01*
X41863571Y-59420158D01*
X42039540Y-59244496D01*
X42134891Y-59014866D01*
X42135108Y-58766225D01*
X42040158Y-58536429D01*
X41864496Y-58360460D01*
X41634866Y-58265109D01*
X41611687Y-58265089D01*
X41861776Y-58015000D01*
X48258224Y-58015000D01*
X49985000Y-59741776D01*
D38*
G36*
X22510000Y-62590000D02*
X17710000Y-62590000D01*
X17710000Y-60290000D01*
X22510000Y-60290000D01*
X22510000Y-62590000D01*
X22510000Y-62590000D01*
G37*
X22510000Y-62590000D02*
X17710000Y-62590000D01*
X17710000Y-60290000D01*
X22510000Y-60290000D01*
X22510000Y-62590000D01*
G36*
X22510000Y-68690000D02*
X17710000Y-68690000D01*
X17710000Y-66390000D01*
X22510000Y-66390000D01*
X22510000Y-68690000D01*
X22510000Y-68690000D01*
G37*
X22510000Y-68690000D02*
X17710000Y-68690000D01*
X17710000Y-66390000D01*
X22510000Y-66390000D01*
X22510000Y-68690000D01*
G36*
X22510000Y-50740000D02*
X17710000Y-50740000D01*
X17710000Y-48440000D01*
X22510000Y-48440000D01*
X22510000Y-50740000D01*
X22510000Y-50740000D01*
G37*
X22510000Y-50740000D02*
X17710000Y-50740000D01*
X17710000Y-48440000D01*
X22510000Y-48440000D01*
X22510000Y-50740000D01*
G36*
X22510000Y-56840000D02*
X17710000Y-56840000D01*
X17710000Y-54540000D01*
X22510000Y-54540000D01*
X22510000Y-56840000D01*
X22510000Y-56840000D01*
G37*
X22510000Y-56840000D02*
X17710000Y-56840000D01*
X17710000Y-54540000D01*
X22510000Y-54540000D01*
X22510000Y-56840000D01*
D42*
G36*
X47958224Y-123615000D02*
X41311776Y-123615000D01*
X40336775Y-122639999D01*
X48933225Y-122639999D01*
X47958224Y-123615000D01*
X47958224Y-123615000D01*
G37*
X47958224Y-123615000D02*
X41311776Y-123615000D01*
X40336775Y-122639999D01*
X48933225Y-122639999D01*
X47958224Y-123615000D01*
G36*
X49985000Y-118341776D02*
X49985000Y-121115000D01*
X39935000Y-121115000D01*
X39935000Y-118541776D01*
X40884911Y-117591865D01*
X40884892Y-117613775D01*
X40979842Y-117843571D01*
X41155504Y-118019540D01*
X41385134Y-118114891D01*
X41633775Y-118115108D01*
X41863571Y-118020158D01*
X42039540Y-117844496D01*
X42134891Y-117614866D01*
X42135108Y-117366225D01*
X42040158Y-117136429D01*
X41864496Y-116960460D01*
X41634866Y-116865109D01*
X41611687Y-116865089D01*
X41861776Y-116615000D01*
X48258224Y-116615000D01*
X49985000Y-118341776D01*
X49985000Y-118341776D01*
G37*
X49985000Y-118341776D02*
X49985000Y-121115000D01*
X39935000Y-121115000D01*
X39935000Y-118541776D01*
X40884911Y-117591865D01*
X40884892Y-117613775D01*
X40979842Y-117843571D01*
X41155504Y-118019540D01*
X41385134Y-118114891D01*
X41633775Y-118115108D01*
X41863571Y-118020158D01*
X42039540Y-117844496D01*
X42134891Y-117614866D01*
X42135108Y-117366225D01*
X42040158Y-117136429D01*
X41864496Y-116960460D01*
X41634866Y-116865109D01*
X41611687Y-116865089D01*
X41861776Y-116615000D01*
X48258224Y-116615000D01*
X49985000Y-118341776D01*
D38*
G36*
X22510000Y-115440000D02*
X17710000Y-115440000D01*
X17710000Y-113140000D01*
X22510000Y-113140000D01*
X22510000Y-115440000D01*
X22510000Y-115440000D01*
G37*
X22510000Y-115440000D02*
X17710000Y-115440000D01*
X17710000Y-113140000D01*
X22510000Y-113140000D01*
X22510000Y-115440000D01*
G36*
X22510000Y-121190000D02*
X17710000Y-121190000D01*
X17710000Y-118890000D01*
X22510000Y-118890000D01*
X22510000Y-121190000D01*
X22510000Y-121190000D01*
G37*
X22510000Y-121190000D02*
X17710000Y-121190000D01*
X17710000Y-118890000D01*
X22510000Y-118890000D01*
X22510000Y-121190000D01*
G36*
X22510000Y-127290000D02*
X17710000Y-127290000D01*
X17710000Y-124990000D01*
X22510000Y-124990000D01*
X22510000Y-127290000D01*
X22510000Y-127290000D01*
G37*
X22510000Y-127290000D02*
X17710000Y-127290000D01*
X17710000Y-124990000D01*
X22510000Y-124990000D01*
X22510000Y-127290000D01*
G36*
X22510000Y-109340000D02*
X17710000Y-109340000D01*
X17710000Y-107040000D01*
X22510000Y-107040000D01*
X22510000Y-109340000D01*
X22510000Y-109340000D01*
G37*
X22510000Y-109340000D02*
X17710000Y-109340000D01*
X17710000Y-107040000D01*
X22510000Y-107040000D01*
X22510000Y-109340000D01*
D41*
G36*
X93385000Y-120140000D02*
X93653000Y-120140000D01*
X93653000Y-121140000D01*
X93385000Y-121140000D01*
X93385000Y-122042959D01*
X93624688Y-122123819D01*
X93973000Y-121891064D01*
X93973000Y-122689867D01*
X93948327Y-122630301D01*
X93769698Y-122451673D01*
X93536309Y-122355000D01*
X93195750Y-122355000D01*
X93037000Y-122513750D01*
X93037000Y-123362530D01*
X92783000Y-123362530D01*
X92783000Y-122513750D01*
X92624250Y-122355000D01*
X92283691Y-122355000D01*
X92050302Y-122451673D01*
X91871673Y-122630301D01*
X91775000Y-122863690D01*
X91775000Y-123362530D01*
X90947324Y-123362530D01*
X90947324Y-122990000D01*
X90910577Y-122794706D01*
X90837000Y-122680364D01*
X90837000Y-122248556D01*
X90904990Y-122149049D01*
X90947324Y-121940000D01*
X90947324Y-121513002D01*
X91160905Y-121513002D01*
X91374269Y-121775639D01*
X91895312Y-122123819D01*
X92135000Y-122042959D01*
X92135000Y-121140000D01*
X91867000Y-121140000D01*
X91867000Y-120140000D01*
X92135000Y-120140000D01*
X92135000Y-119747000D01*
X93385000Y-119747000D01*
X93385000Y-120140000D01*
X93385000Y-120140000D01*
G37*
X93385000Y-120140000D02*
X93653000Y-120140000D01*
X93653000Y-121140000D01*
X93385000Y-121140000D01*
X93385000Y-122042959D01*
X93624688Y-122123819D01*
X93973000Y-121891064D01*
X93973000Y-122689867D01*
X93948327Y-122630301D01*
X93769698Y-122451673D01*
X93536309Y-122355000D01*
X93195750Y-122355000D01*
X93037000Y-122513750D01*
X93037000Y-123362530D01*
X92783000Y-123362530D01*
X92783000Y-122513750D01*
X92624250Y-122355000D01*
X92283691Y-122355000D01*
X92050302Y-122451673D01*
X91871673Y-122630301D01*
X91775000Y-122863690D01*
X91775000Y-123362530D01*
X90947324Y-123362530D01*
X90947324Y-122990000D01*
X90910577Y-122794706D01*
X90837000Y-122680364D01*
X90837000Y-122248556D01*
X90904990Y-122149049D01*
X90947324Y-121940000D01*
X90947324Y-121513002D01*
X91160905Y-121513002D01*
X91374269Y-121775639D01*
X91895312Y-122123819D01*
X92135000Y-122042959D01*
X92135000Y-121140000D01*
X91867000Y-121140000D01*
X91867000Y-120140000D01*
X92135000Y-120140000D01*
X92135000Y-119747000D01*
X93385000Y-119747000D01*
X93385000Y-120140000D01*
G36*
X93973000Y-112388936D02*
X93624688Y-112156181D01*
X93385000Y-112237041D01*
X93385000Y-113140000D01*
X93653000Y-113140000D01*
X93653000Y-114140000D01*
X93385000Y-114140000D01*
X93385000Y-115042959D01*
X93624688Y-115123819D01*
X93973000Y-114891064D01*
X93973000Y-119388936D01*
X93633002Y-119161737D01*
X93633002Y-119005000D01*
X92979000Y-119005000D01*
X93086865Y-118745233D01*
X93087134Y-118436123D01*
X93087000Y-118435799D01*
X93087000Y-118040981D01*
X93097324Y-117990000D01*
X93097324Y-117390000D01*
X93075264Y-117272761D01*
X93098327Y-117249698D01*
X93195000Y-117016309D01*
X93195000Y-116875750D01*
X93036250Y-116717000D01*
X92435000Y-116717000D01*
X92435000Y-116737000D01*
X92185000Y-116737000D01*
X92185000Y-116717000D01*
X91583750Y-116717000D01*
X91425000Y-116875750D01*
X91425000Y-117016309D01*
X91521673Y-117249698D01*
X91546135Y-117274160D01*
X91522676Y-117390000D01*
X91522676Y-117990000D01*
X91533000Y-118044867D01*
X91533000Y-118589897D01*
X91532866Y-118743877D01*
X91542419Y-118766998D01*
X91295387Y-118766998D01*
X91193888Y-118647892D01*
X90754555Y-118423431D01*
X90560000Y-118543259D01*
X90560000Y-119315000D01*
X90953000Y-119315000D01*
X90953000Y-119766998D01*
X90875000Y-119766998D01*
X90875000Y-119965000D01*
X90560000Y-119965000D01*
X90560000Y-120290000D01*
X89560000Y-120290000D01*
X89560000Y-119965000D01*
X89167000Y-119965000D01*
X89167000Y-119512546D01*
X89199560Y-119499092D01*
X89383974Y-119315000D01*
X89560000Y-119315000D01*
X89560000Y-118543259D01*
X89450148Y-118475600D01*
X89439396Y-118449580D01*
X89476511Y-118360199D01*
X90009386Y-117827324D01*
X90060000Y-117827324D01*
X90255294Y-117790577D01*
X90434660Y-117675158D01*
X90554990Y-117499049D01*
X90597324Y-117290000D01*
X90597324Y-116890000D01*
X90575264Y-116772761D01*
X90598327Y-116749698D01*
X90695000Y-116516309D01*
X90695000Y-116448750D01*
X90536250Y-116290000D01*
X89887000Y-116290000D01*
X89887000Y-116337000D01*
X89633000Y-116337000D01*
X89633000Y-116290000D01*
X89613000Y-116290000D01*
X89613000Y-116163691D01*
X91425000Y-116163691D01*
X91425000Y-116304250D01*
X91583750Y-116463000D01*
X92185000Y-116463000D01*
X92185000Y-115813750D01*
X92435000Y-115813750D01*
X92435000Y-116463000D01*
X93036250Y-116463000D01*
X93195000Y-116304250D01*
X93195000Y-116163691D01*
X93098327Y-115930302D01*
X92919699Y-115751673D01*
X92686310Y-115655000D01*
X92593750Y-115655000D01*
X92435000Y-115813750D01*
X92185000Y-115813750D01*
X92026250Y-115655000D01*
X91933690Y-115655000D01*
X91700301Y-115751673D01*
X91521673Y-115930302D01*
X91425000Y-116163691D01*
X89613000Y-116163691D01*
X89613000Y-116090000D01*
X89633000Y-116090000D01*
X89633000Y-115925000D01*
X89887000Y-115925000D01*
X89887000Y-116090000D01*
X90536250Y-116090000D01*
X90695000Y-115931250D01*
X90695000Y-115925000D01*
X90933002Y-115925000D01*
X90933002Y-115765398D01*
X91193888Y-115632108D01*
X91295387Y-115513002D01*
X91695000Y-115513002D01*
X91695000Y-114989963D01*
X91895312Y-115123819D01*
X92135000Y-115042959D01*
X92135000Y-114140000D01*
X91867000Y-114140000D01*
X91867000Y-113140000D01*
X92135000Y-113140000D01*
X92135000Y-112237041D01*
X91895312Y-112156181D01*
X91374269Y-112504361D01*
X91160905Y-112766998D01*
X90875000Y-112766998D01*
X90875000Y-113484968D01*
X90754555Y-113423431D01*
X90560000Y-113543259D01*
X90560000Y-114315000D01*
X90875000Y-114315000D01*
X90875000Y-114513002D01*
X90953000Y-114513002D01*
X90953000Y-114965000D01*
X90560000Y-114965000D01*
X90560000Y-115290000D01*
X89560000Y-115290000D01*
X89560000Y-114965000D01*
X89167000Y-114965000D01*
X89167000Y-114315000D01*
X89560000Y-114315000D01*
X89560000Y-113563896D01*
X89627854Y-113462345D01*
X89687000Y-113165000D01*
X89627854Y-112867655D01*
X89459422Y-112615578D01*
X89207345Y-112447146D01*
X88910000Y-112388000D01*
X88612655Y-112447146D01*
X88360578Y-112615578D01*
X88137000Y-112839156D01*
X88137000Y-110916530D01*
X93973000Y-110916530D01*
X93973000Y-112388936D01*
X93973000Y-112388936D01*
G37*
X93973000Y-112388936D02*
X93624688Y-112156181D01*
X93385000Y-112237041D01*
X93385000Y-113140000D01*
X93653000Y-113140000D01*
X93653000Y-114140000D01*
X93385000Y-114140000D01*
X93385000Y-115042959D01*
X93624688Y-115123819D01*
X93973000Y-114891064D01*
X93973000Y-119388936D01*
X93633002Y-119161737D01*
X93633002Y-119005000D01*
X92979000Y-119005000D01*
X93086865Y-118745233D01*
X93087134Y-118436123D01*
X93087000Y-118435799D01*
X93087000Y-118040981D01*
X93097324Y-117990000D01*
X93097324Y-117390000D01*
X93075264Y-117272761D01*
X93098327Y-117249698D01*
X93195000Y-117016309D01*
X93195000Y-116875750D01*
X93036250Y-116717000D01*
X92435000Y-116717000D01*
X92435000Y-116737000D01*
X92185000Y-116737000D01*
X92185000Y-116717000D01*
X91583750Y-116717000D01*
X91425000Y-116875750D01*
X91425000Y-117016309D01*
X91521673Y-117249698D01*
X91546135Y-117274160D01*
X91522676Y-117390000D01*
X91522676Y-117990000D01*
X91533000Y-118044867D01*
X91533000Y-118589897D01*
X91532866Y-118743877D01*
X91542419Y-118766998D01*
X91295387Y-118766998D01*
X91193888Y-118647892D01*
X90754555Y-118423431D01*
X90560000Y-118543259D01*
X90560000Y-119315000D01*
X90953000Y-119315000D01*
X90953000Y-119766998D01*
X90875000Y-119766998D01*
X90875000Y-119965000D01*
X90560000Y-119965000D01*
X90560000Y-120290000D01*
X89560000Y-120290000D01*
X89560000Y-119965000D01*
X89167000Y-119965000D01*
X89167000Y-119512546D01*
X89199560Y-119499092D01*
X89383974Y-119315000D01*
X89560000Y-119315000D01*
X89560000Y-118543259D01*
X89450148Y-118475600D01*
X89439396Y-118449580D01*
X89476511Y-118360199D01*
X90009386Y-117827324D01*
X90060000Y-117827324D01*
X90255294Y-117790577D01*
X90434660Y-117675158D01*
X90554990Y-117499049D01*
X90597324Y-117290000D01*
X90597324Y-116890000D01*
X90575264Y-116772761D01*
X90598327Y-116749698D01*
X90695000Y-116516309D01*
X90695000Y-116448750D01*
X90536250Y-116290000D01*
X89887000Y-116290000D01*
X89887000Y-116337000D01*
X89633000Y-116337000D01*
X89633000Y-116290000D01*
X89613000Y-116290000D01*
X89613000Y-116163691D01*
X91425000Y-116163691D01*
X91425000Y-116304250D01*
X91583750Y-116463000D01*
X92185000Y-116463000D01*
X92185000Y-115813750D01*
X92435000Y-115813750D01*
X92435000Y-116463000D01*
X93036250Y-116463000D01*
X93195000Y-116304250D01*
X93195000Y-116163691D01*
X93098327Y-115930302D01*
X92919699Y-115751673D01*
X92686310Y-115655000D01*
X92593750Y-115655000D01*
X92435000Y-115813750D01*
X92185000Y-115813750D01*
X92026250Y-115655000D01*
X91933690Y-115655000D01*
X91700301Y-115751673D01*
X91521673Y-115930302D01*
X91425000Y-116163691D01*
X89613000Y-116163691D01*
X89613000Y-116090000D01*
X89633000Y-116090000D01*
X89633000Y-115925000D01*
X89887000Y-115925000D01*
X89887000Y-116090000D01*
X90536250Y-116090000D01*
X90695000Y-115931250D01*
X90695000Y-115925000D01*
X90933002Y-115925000D01*
X90933002Y-115765398D01*
X91193888Y-115632108D01*
X91295387Y-115513002D01*
X91695000Y-115513002D01*
X91695000Y-114989963D01*
X91895312Y-115123819D01*
X92135000Y-115042959D01*
X92135000Y-114140000D01*
X91867000Y-114140000D01*
X91867000Y-113140000D01*
X92135000Y-113140000D01*
X92135000Y-112237041D01*
X91895312Y-112156181D01*
X91374269Y-112504361D01*
X91160905Y-112766998D01*
X90875000Y-112766998D01*
X90875000Y-113484968D01*
X90754555Y-113423431D01*
X90560000Y-113543259D01*
X90560000Y-114315000D01*
X90875000Y-114315000D01*
X90875000Y-114513002D01*
X90953000Y-114513002D01*
X90953000Y-114965000D01*
X90560000Y-114965000D01*
X90560000Y-115290000D01*
X89560000Y-115290000D01*
X89560000Y-114965000D01*
X89167000Y-114965000D01*
X89167000Y-114315000D01*
X89560000Y-114315000D01*
X89560000Y-113563896D01*
X89627854Y-113462345D01*
X89687000Y-113165000D01*
X89627854Y-112867655D01*
X89459422Y-112615578D01*
X89207345Y-112447146D01*
X88910000Y-112388000D01*
X88612655Y-112447146D01*
X88360578Y-112615578D01*
X88137000Y-112839156D01*
X88137000Y-110916530D01*
X93973000Y-110916530D01*
X93973000Y-112388936D01*
G36*
X93385000Y-90840000D02*
X93653000Y-90840000D01*
X93653000Y-91840000D01*
X93385000Y-91840000D01*
X93385000Y-92742959D01*
X93624688Y-92823819D01*
X93973000Y-92591064D01*
X93973000Y-93389867D01*
X93948327Y-93330301D01*
X93769698Y-93151673D01*
X93536309Y-93055000D01*
X93195750Y-93055000D01*
X93037000Y-93213750D01*
X93037000Y-94062530D01*
X92783000Y-94062530D01*
X92783000Y-93213750D01*
X92624250Y-93055000D01*
X92283691Y-93055000D01*
X92050302Y-93151673D01*
X91871673Y-93330301D01*
X91775000Y-93563690D01*
X91775000Y-94062530D01*
X90947324Y-94062530D01*
X90947324Y-93690000D01*
X90910577Y-93494706D01*
X90837000Y-93380364D01*
X90837000Y-92948556D01*
X90904990Y-92849049D01*
X90947324Y-92640000D01*
X90947324Y-92213002D01*
X91160905Y-92213002D01*
X91374269Y-92475639D01*
X91895312Y-92823819D01*
X92135000Y-92742959D01*
X92135000Y-91840000D01*
X91867000Y-91840000D01*
X91867000Y-90840000D01*
X92135000Y-90840000D01*
X92135000Y-90447000D01*
X93385000Y-90447000D01*
X93385000Y-90840000D01*
X93385000Y-90840000D01*
G37*
X93385000Y-90840000D02*
X93653000Y-90840000D01*
X93653000Y-91840000D01*
X93385000Y-91840000D01*
X93385000Y-92742959D01*
X93624688Y-92823819D01*
X93973000Y-92591064D01*
X93973000Y-93389867D01*
X93948327Y-93330301D01*
X93769698Y-93151673D01*
X93536309Y-93055000D01*
X93195750Y-93055000D01*
X93037000Y-93213750D01*
X93037000Y-94062530D01*
X92783000Y-94062530D01*
X92783000Y-93213750D01*
X92624250Y-93055000D01*
X92283691Y-93055000D01*
X92050302Y-93151673D01*
X91871673Y-93330301D01*
X91775000Y-93563690D01*
X91775000Y-94062530D01*
X90947324Y-94062530D01*
X90947324Y-93690000D01*
X90910577Y-93494706D01*
X90837000Y-93380364D01*
X90837000Y-92948556D01*
X90904990Y-92849049D01*
X90947324Y-92640000D01*
X90947324Y-92213002D01*
X91160905Y-92213002D01*
X91374269Y-92475639D01*
X91895312Y-92823819D01*
X92135000Y-92742959D01*
X92135000Y-91840000D01*
X91867000Y-91840000D01*
X91867000Y-90840000D01*
X92135000Y-90840000D01*
X92135000Y-90447000D01*
X93385000Y-90447000D01*
X93385000Y-90840000D01*
G36*
X93973000Y-83088936D02*
X93624688Y-82856181D01*
X93385000Y-82937041D01*
X93385000Y-83840000D01*
X93653000Y-83840000D01*
X93653000Y-84840000D01*
X93385000Y-84840000D01*
X93385000Y-85742959D01*
X93624688Y-85823819D01*
X93973000Y-85591064D01*
X93973000Y-90088936D01*
X93633002Y-89861737D01*
X93633002Y-89705000D01*
X92979000Y-89705000D01*
X93086865Y-89445233D01*
X93087134Y-89136123D01*
X93087000Y-89135799D01*
X93087000Y-88740981D01*
X93097324Y-88690000D01*
X93097324Y-88090000D01*
X93075264Y-87972761D01*
X93098327Y-87949698D01*
X93195000Y-87716309D01*
X93195000Y-87575750D01*
X93036250Y-87417000D01*
X92435000Y-87417000D01*
X92435000Y-87437000D01*
X92185000Y-87437000D01*
X92185000Y-87417000D01*
X91583750Y-87417000D01*
X91425000Y-87575750D01*
X91425000Y-87716309D01*
X91521673Y-87949698D01*
X91546135Y-87974160D01*
X91522676Y-88090000D01*
X91522676Y-88690000D01*
X91533000Y-88744867D01*
X91533000Y-89289897D01*
X91532866Y-89443877D01*
X91542419Y-89466998D01*
X91295387Y-89466998D01*
X91193888Y-89347892D01*
X90754555Y-89123431D01*
X90560000Y-89243259D01*
X90560000Y-90015000D01*
X90953000Y-90015000D01*
X90953000Y-90466998D01*
X90875000Y-90466998D01*
X90875000Y-90665000D01*
X90560000Y-90665000D01*
X90560000Y-90990000D01*
X89560000Y-90990000D01*
X89560000Y-90665000D01*
X89167000Y-90665000D01*
X89167000Y-90212546D01*
X89199560Y-90199092D01*
X89383974Y-90015000D01*
X89560000Y-90015000D01*
X89560000Y-89243259D01*
X89450148Y-89175600D01*
X89439396Y-89149580D01*
X89476511Y-89060199D01*
X90009386Y-88527324D01*
X90060000Y-88527324D01*
X90255294Y-88490577D01*
X90434660Y-88375158D01*
X90554990Y-88199049D01*
X90597324Y-87990000D01*
X90597324Y-87590000D01*
X90575264Y-87472761D01*
X90598327Y-87449698D01*
X90695000Y-87216309D01*
X90695000Y-87148750D01*
X90536250Y-86990000D01*
X89887000Y-86990000D01*
X89887000Y-87037000D01*
X89633000Y-87037000D01*
X89633000Y-86990000D01*
X89613000Y-86990000D01*
X89613000Y-86863691D01*
X91425000Y-86863691D01*
X91425000Y-87004250D01*
X91583750Y-87163000D01*
X92185000Y-87163000D01*
X92185000Y-86513750D01*
X92435000Y-86513750D01*
X92435000Y-87163000D01*
X93036250Y-87163000D01*
X93195000Y-87004250D01*
X93195000Y-86863691D01*
X93098327Y-86630302D01*
X92919699Y-86451673D01*
X92686310Y-86355000D01*
X92593750Y-86355000D01*
X92435000Y-86513750D01*
X92185000Y-86513750D01*
X92026250Y-86355000D01*
X91933690Y-86355000D01*
X91700301Y-86451673D01*
X91521673Y-86630302D01*
X91425000Y-86863691D01*
X89613000Y-86863691D01*
X89613000Y-86790000D01*
X89633000Y-86790000D01*
X89633000Y-86625000D01*
X89887000Y-86625000D01*
X89887000Y-86790000D01*
X90536250Y-86790000D01*
X90695000Y-86631250D01*
X90695000Y-86625000D01*
X90933002Y-86625000D01*
X90933002Y-86465398D01*
X91193888Y-86332108D01*
X91295387Y-86213002D01*
X91695000Y-86213002D01*
X91695000Y-85689963D01*
X91895312Y-85823819D01*
X92135000Y-85742959D01*
X92135000Y-84840000D01*
X91867000Y-84840000D01*
X91867000Y-83840000D01*
X92135000Y-83840000D01*
X92135000Y-82937041D01*
X91895312Y-82856181D01*
X91374269Y-83204361D01*
X91160905Y-83466998D01*
X90875000Y-83466998D01*
X90875000Y-84184968D01*
X90754555Y-84123431D01*
X90560000Y-84243259D01*
X90560000Y-85015000D01*
X90875000Y-85015000D01*
X90875000Y-85213002D01*
X90953000Y-85213002D01*
X90953000Y-85665000D01*
X90560000Y-85665000D01*
X90560000Y-85990000D01*
X89560000Y-85990000D01*
X89560000Y-85665000D01*
X89167000Y-85665000D01*
X89167000Y-85015000D01*
X89560000Y-85015000D01*
X89560000Y-84263896D01*
X89627854Y-84162345D01*
X89687000Y-83865000D01*
X89627854Y-83567655D01*
X89459422Y-83315578D01*
X89207345Y-83147146D01*
X88910000Y-83088000D01*
X88612655Y-83147146D01*
X88360578Y-83315578D01*
X88137000Y-83539156D01*
X88137000Y-81616530D01*
X93973000Y-81616530D01*
X93973000Y-83088936D01*
X93973000Y-83088936D01*
G37*
X93973000Y-83088936D02*
X93624688Y-82856181D01*
X93385000Y-82937041D01*
X93385000Y-83840000D01*
X93653000Y-83840000D01*
X93653000Y-84840000D01*
X93385000Y-84840000D01*
X93385000Y-85742959D01*
X93624688Y-85823819D01*
X93973000Y-85591064D01*
X93973000Y-90088936D01*
X93633002Y-89861737D01*
X93633002Y-89705000D01*
X92979000Y-89705000D01*
X93086865Y-89445233D01*
X93087134Y-89136123D01*
X93087000Y-89135799D01*
X93087000Y-88740981D01*
X93097324Y-88690000D01*
X93097324Y-88090000D01*
X93075264Y-87972761D01*
X93098327Y-87949698D01*
X93195000Y-87716309D01*
X93195000Y-87575750D01*
X93036250Y-87417000D01*
X92435000Y-87417000D01*
X92435000Y-87437000D01*
X92185000Y-87437000D01*
X92185000Y-87417000D01*
X91583750Y-87417000D01*
X91425000Y-87575750D01*
X91425000Y-87716309D01*
X91521673Y-87949698D01*
X91546135Y-87974160D01*
X91522676Y-88090000D01*
X91522676Y-88690000D01*
X91533000Y-88744867D01*
X91533000Y-89289897D01*
X91532866Y-89443877D01*
X91542419Y-89466998D01*
X91295387Y-89466998D01*
X91193888Y-89347892D01*
X90754555Y-89123431D01*
X90560000Y-89243259D01*
X90560000Y-90015000D01*
X90953000Y-90015000D01*
X90953000Y-90466998D01*
X90875000Y-90466998D01*
X90875000Y-90665000D01*
X90560000Y-90665000D01*
X90560000Y-90990000D01*
X89560000Y-90990000D01*
X89560000Y-90665000D01*
X89167000Y-90665000D01*
X89167000Y-90212546D01*
X89199560Y-90199092D01*
X89383974Y-90015000D01*
X89560000Y-90015000D01*
X89560000Y-89243259D01*
X89450148Y-89175600D01*
X89439396Y-89149580D01*
X89476511Y-89060199D01*
X90009386Y-88527324D01*
X90060000Y-88527324D01*
X90255294Y-88490577D01*
X90434660Y-88375158D01*
X90554990Y-88199049D01*
X90597324Y-87990000D01*
X90597324Y-87590000D01*
X90575264Y-87472761D01*
X90598327Y-87449698D01*
X90695000Y-87216309D01*
X90695000Y-87148750D01*
X90536250Y-86990000D01*
X89887000Y-86990000D01*
X89887000Y-87037000D01*
X89633000Y-87037000D01*
X89633000Y-86990000D01*
X89613000Y-86990000D01*
X89613000Y-86863691D01*
X91425000Y-86863691D01*
X91425000Y-87004250D01*
X91583750Y-87163000D01*
X92185000Y-87163000D01*
X92185000Y-86513750D01*
X92435000Y-86513750D01*
X92435000Y-87163000D01*
X93036250Y-87163000D01*
X93195000Y-87004250D01*
X93195000Y-86863691D01*
X93098327Y-86630302D01*
X92919699Y-86451673D01*
X92686310Y-86355000D01*
X92593750Y-86355000D01*
X92435000Y-86513750D01*
X92185000Y-86513750D01*
X92026250Y-86355000D01*
X91933690Y-86355000D01*
X91700301Y-86451673D01*
X91521673Y-86630302D01*
X91425000Y-86863691D01*
X89613000Y-86863691D01*
X89613000Y-86790000D01*
X89633000Y-86790000D01*
X89633000Y-86625000D01*
X89887000Y-86625000D01*
X89887000Y-86790000D01*
X90536250Y-86790000D01*
X90695000Y-86631250D01*
X90695000Y-86625000D01*
X90933002Y-86625000D01*
X90933002Y-86465398D01*
X91193888Y-86332108D01*
X91295387Y-86213002D01*
X91695000Y-86213002D01*
X91695000Y-85689963D01*
X91895312Y-85823819D01*
X92135000Y-85742959D01*
X92135000Y-84840000D01*
X91867000Y-84840000D01*
X91867000Y-83840000D01*
X92135000Y-83840000D01*
X92135000Y-82937041D01*
X91895312Y-82856181D01*
X91374269Y-83204361D01*
X91160905Y-83466998D01*
X90875000Y-83466998D01*
X90875000Y-84184968D01*
X90754555Y-84123431D01*
X90560000Y-84243259D01*
X90560000Y-85015000D01*
X90875000Y-85015000D01*
X90875000Y-85213002D01*
X90953000Y-85213002D01*
X90953000Y-85665000D01*
X90560000Y-85665000D01*
X90560000Y-85990000D01*
X89560000Y-85990000D01*
X89560000Y-85665000D01*
X89167000Y-85665000D01*
X89167000Y-85015000D01*
X89560000Y-85015000D01*
X89560000Y-84263896D01*
X89627854Y-84162345D01*
X89687000Y-83865000D01*
X89627854Y-83567655D01*
X89459422Y-83315578D01*
X89207345Y-83147146D01*
X88910000Y-83088000D01*
X88612655Y-83147146D01*
X88360578Y-83315578D01*
X88137000Y-83539156D01*
X88137000Y-81616530D01*
X93973000Y-81616530D01*
X93973000Y-83088936D01*
D42*
G36*
X47958224Y-94315000D02*
X41311776Y-94315000D01*
X40336775Y-93339999D01*
X48933225Y-93339999D01*
X47958224Y-94315000D01*
X47958224Y-94315000D01*
G37*
X47958224Y-94315000D02*
X41311776Y-94315000D01*
X40336775Y-93339999D01*
X48933225Y-93339999D01*
X47958224Y-94315000D01*
G36*
X49985000Y-89041776D02*
X49985000Y-91815000D01*
X39935000Y-91815000D01*
X39935000Y-89241776D01*
X40884911Y-88291865D01*
X40884892Y-88313775D01*
X40979842Y-88543571D01*
X41155504Y-88719540D01*
X41385134Y-88814891D01*
X41633775Y-88815108D01*
X41863571Y-88720158D01*
X42039540Y-88544496D01*
X42134891Y-88314866D01*
X42135108Y-88066225D01*
X42040158Y-87836429D01*
X41864496Y-87660460D01*
X41634866Y-87565109D01*
X41611687Y-87565089D01*
X41861776Y-87315000D01*
X48258224Y-87315000D01*
X49985000Y-89041776D01*
X49985000Y-89041776D01*
G37*
X49985000Y-89041776D02*
X49985000Y-91815000D01*
X39935000Y-91815000D01*
X39935000Y-89241776D01*
X40884911Y-88291865D01*
X40884892Y-88313775D01*
X40979842Y-88543571D01*
X41155504Y-88719540D01*
X41385134Y-88814891D01*
X41633775Y-88815108D01*
X41863571Y-88720158D01*
X42039540Y-88544496D01*
X42134891Y-88314866D01*
X42135108Y-88066225D01*
X42040158Y-87836429D01*
X41864496Y-87660460D01*
X41634866Y-87565109D01*
X41611687Y-87565089D01*
X41861776Y-87315000D01*
X48258224Y-87315000D01*
X49985000Y-89041776D01*
D38*
G36*
X22510000Y-97990000D02*
X17710000Y-97990000D01*
X17710000Y-95690000D01*
X22510000Y-95690000D01*
X22510000Y-97990000D01*
X22510000Y-97990000D01*
G37*
X22510000Y-97990000D02*
X17710000Y-97990000D01*
X17710000Y-95690000D01*
X22510000Y-95690000D01*
X22510000Y-97990000D01*
G36*
X22510000Y-86140000D02*
X17710000Y-86140000D01*
X17710000Y-83840000D01*
X22510000Y-83840000D01*
X22510000Y-86140000D01*
X22510000Y-86140000D01*
G37*
X22510000Y-86140000D02*
X17710000Y-86140000D01*
X17710000Y-83840000D01*
X22510000Y-83840000D01*
X22510000Y-86140000D01*
G36*
X22510000Y-80040000D02*
X17710000Y-80040000D01*
X17710000Y-77740000D01*
X22510000Y-77740000D01*
X22510000Y-80040000D01*
X22510000Y-80040000D01*
G37*
X22510000Y-80040000D02*
X17710000Y-80040000D01*
X17710000Y-77740000D01*
X22510000Y-77740000D01*
X22510000Y-80040000D01*
G36*
X22510000Y-91890000D02*
X17710000Y-91890000D01*
X17710000Y-89590000D01*
X22510000Y-89590000D01*
X22510000Y-91890000D01*
X22510000Y-91890000D01*
G37*
X22510000Y-91890000D02*
X17710000Y-91890000D01*
X17710000Y-89590000D01*
X22510000Y-89590000D01*
X22510000Y-91890000D01*
M02*
