G04 #@! TF.FileFunction,Profile,NP*
%FSLAX46Y46*%
G04 Gerber Fmt 4.6, Leading zero omitted, Abs format (unit mm)*
G04 Created by KiCad (PCBNEW 4.0.5) date Tue Apr 18 23:58:23 2017*
%MOMM*%
%LPD*%
G01*
G04 APERTURE LIST*
%ADD10C,0.050000*%
%ADD11C,2.400000*%
G04 APERTURE END LIST*
D10*
D11*
X18800000Y-102500000D02*
G75*
G03X16100000Y-105200000I0J-2700000D01*
G01*
X16100000Y-105200000D02*
X16100000Y-129000000D01*
X16100000Y-99800000D02*
G75*
G03X18800000Y-102500000I2700000J0D01*
G01*
X16100000Y-129100000D02*
G75*
G03X18800000Y-131800000I2700000J0D01*
G01*
X95700000Y-99700000D02*
X95700000Y-76000000D01*
X95700000Y-75900000D02*
G75*
G03X93000000Y-73200000I-2700000J0D01*
G01*
X92900000Y-73200000D02*
X18700000Y-73200000D01*
X18800000Y-73200000D02*
G75*
G03X16100000Y-75900000I0J-2700000D01*
G01*
X92900000Y-102500000D02*
X18700000Y-102500000D01*
X18900000Y-131800000D02*
X93100000Y-131800000D01*
X16100000Y-75900000D02*
X16100000Y-99700000D01*
X18900000Y-102500000D02*
X93100000Y-102500000D01*
X93000000Y-102500000D02*
G75*
G03X95700000Y-99800000I0J2700000D01*
G01*
X93000000Y-131800000D02*
G75*
G03X95700000Y-129100000I0J2700000D01*
G01*
X95700000Y-129000000D02*
X95700000Y-105300000D01*
X95700000Y-105200000D02*
G75*
G03X93000000Y-102500000I-2700000J0D01*
G01*
X95700000Y-70400000D02*
X95700000Y-46700000D01*
X95700000Y-46600000D02*
G75*
G03X93000000Y-43900000I-2700000J0D01*
G01*
X93000000Y-73200000D02*
G75*
G03X95700000Y-70500000I0J2700000D01*
G01*
X18800000Y-43900000D02*
G75*
G03X16100000Y-46600000I0J-2700000D01*
G01*
X16100000Y-46600000D02*
X16100000Y-70400000D01*
X18900000Y-73200000D02*
X93100000Y-73200000D01*
X92900000Y-43900000D02*
X18700000Y-43900000D01*
X16100000Y-70500000D02*
G75*
G03X18800000Y-73200000I2700000J0D01*
G01*
X92900000Y-14600000D02*
X18700000Y-14600000D01*
X95700000Y-41100000D02*
X95700000Y-17400000D01*
X18900000Y-43900000D02*
X93100000Y-43900000D01*
X16100000Y-17300000D02*
X16100000Y-41100000D01*
X16100000Y-41200000D02*
G75*
G03X18800000Y-43900000I2700000J0D01*
G01*
X93000000Y-43900000D02*
G75*
G03X95700000Y-41200000I0J2700000D01*
G01*
X95700000Y-17300000D02*
G75*
G03X93000000Y-14600000I-2700000J0D01*
G01*
X18800000Y-14600000D02*
G75*
G03X16100000Y-17300000I0J-2700000D01*
G01*
M02*
