M48
INCH,TZ
T1C0.012
T2C0.014
T3C0.020
T4C0.022
T5C0.040
T6C0.071
T7C0.079
T8C0.102
T9C0.165
%
G90
G05
T1
X8858Y-10561
X8858Y-22333
X8858Y-34104
X8858Y-45876
X9606Y-10561
X9606Y-22333
X9606Y-34104
X9606Y-45876
X10472Y-10236
X10472Y-22008
X10472Y-33780
X10472Y-45551
X10906Y-7736
X10906Y-19508
X10906Y-31280
X10906Y-43051
X10925Y-10689
X10925Y-22461
X10925Y-34232
X10925Y-46004
X11358Y-11102
X11358Y-22874
X11358Y-34646
X11358Y-46417
X12776Y-10433
X12776Y-22205
X12776Y-33976
X12776Y-45748
X12795Y-11555
X12795Y-23327
X12795Y-35098
X12795Y-46870
X12913Y-6772
X12913Y-18543
X12913Y-30315
X12913Y-42087
X12972Y-10236
X12972Y-22008
X12972Y-33780
X12972Y-45551
X13150Y-10020
X13150Y-21791
X13150Y-33563
X13150Y-45335
X13199Y-8159
X13199Y-19931
X13199Y-31703
X13199Y-43474
X13661Y-7008
X13661Y-18780
X13661Y-30551
X13661Y-42323
X14094Y-7441
X14094Y-19213
X14094Y-30984
X14094Y-42756
X14606Y-8386
X14606Y-20157
X14606Y-31929
X14606Y-43701
X18425Y-8071
X18425Y-10039
X18425Y-19843
X18425Y-21811
X18425Y-31614
X18425Y-33583
X18425Y-43386
X18425Y-45354
X19134Y-11220
X19134Y-22992
X19134Y-34764
X19134Y-46535
X20433Y-11181
X20433Y-22953
X20433Y-34724
X20433Y-46496
X20512Y-10620
X20512Y-22392
X20512Y-34163
X20512Y-45935
X20522Y-10354
X20522Y-22126
X20522Y-33898
X20522Y-45669
X20728Y-7638
X20728Y-19409
X20728Y-31181
X20728Y-42953
X20817Y-8661
X20817Y-20433
X20817Y-32205
X20817Y-43976
X21299Y-10906
X21299Y-22677
X21299Y-34449
X21299Y-46220
X21521Y-8371
X21521Y-20143
X21521Y-31915
X21521Y-43686
X21526Y-8100
X21526Y-19872
X21526Y-31644
X21526Y-43415
X21880Y-8346
X21880Y-20118
X21880Y-31890
X21880Y-43661
X22106Y-14646
X22106Y-26417
X22106Y-38189
X22106Y-49961
X22244Y-7441
X22244Y-19213
X22244Y-30984
X22244Y-42756
X22480Y-16043
X22480Y-27815
X22480Y-39587
X22480Y-51358
X23012Y-6516
X23012Y-18287
X23012Y-30059
X23012Y-41831
X23041Y-9547
X23041Y-21319
X23041Y-33091
X23041Y-44862
X23268Y-14449
X23268Y-26220
X23268Y-37992
X23268Y-49764
X24232Y-6654
X24232Y-18425
X24232Y-30197
X24232Y-41969
X24606Y-7618
X24606Y-19390
X24606Y-31161
X24606Y-42933
X24622Y-10600
X24622Y-22372
X24622Y-34144
X24622Y-45915
X24626Y-7028
X24626Y-18799
X24626Y-30571
X24626Y-42343
X24803Y-11575
X24803Y-23346
X24803Y-35118
X24803Y-46890
X24823Y-10925
X24823Y-22697
X24823Y-34469
X24823Y-46240
X24862Y-7244
X24862Y-7598
X24862Y-19016
X24862Y-19370
X24862Y-30787
X24862Y-31142
X24862Y-42559
X24862Y-42913
X24882Y-9636
X24882Y-21407
X24882Y-33179
X24882Y-44951
X24902Y-10266
X24902Y-22037
X24902Y-33809
X24902Y-45581
X25039Y-11594
X25039Y-23366
X25039Y-35138
X25039Y-46909
X25118Y-12795
X25118Y-24567
X25118Y-36339
X25118Y-48110
X25326Y-7756
X25326Y-19528
X25326Y-31299
X25326Y-43071
X25335Y-8701
X25335Y-9016
X25335Y-9331
X25335Y-9646
X25335Y-10276
X25335Y-10591
X25335Y-10906
X25335Y-11220
X25335Y-20472
X25335Y-20787
X25335Y-21102
X25335Y-21417
X25335Y-22047
X25335Y-22362
X25335Y-22677
X25335Y-22992
X25335Y-32244
X25335Y-32559
X25335Y-32874
X25335Y-33189
X25335Y-33819
X25335Y-34134
X25335Y-34449
X25335Y-34764
X25335Y-44016
X25335Y-44331
X25335Y-44646
X25335Y-44961
X25335Y-45591
X25335Y-45906
X25335Y-46220
X25335Y-46535
X25354Y-7008
X25354Y-18780
X25354Y-30551
X25354Y-42323
X25645Y-10910
X25645Y-22682
X25645Y-34453
X25645Y-46225
X25650Y-8386
X25650Y-8701
X25650Y-9016
X25650Y-9331
X25650Y-9961
X25650Y-10276
X25650Y-10591
X25650Y-20157
X25650Y-20472
X25650Y-20787
X25650Y-21102
X25650Y-21732
X25650Y-22047
X25650Y-22362
X25650Y-31929
X25650Y-32244
X25650Y-32559
X25650Y-32874
X25650Y-33504
X25650Y-33819
X25650Y-34134
X25650Y-43701
X25650Y-44016
X25650Y-44331
X25650Y-44646
X25650Y-45276
X25650Y-45591
X25650Y-45906
X25689Y-7028
X25689Y-18799
X25689Y-30571
X25689Y-42343
X25965Y-8071
X25965Y-8386
X25965Y-9961
X25965Y-10276
X25965Y-19843
X25965Y-20157
X25965Y-21732
X25965Y-22047
X25965Y-31614
X25965Y-31929
X25965Y-33504
X25965Y-33819
X25965Y-43386
X25965Y-43701
X25965Y-45276
X25965Y-45591
X25969Y-7752
X25969Y-19523
X25969Y-31295
X25969Y-43067
X26280Y-8701
X26280Y-9016
X26280Y-9331
X26280Y-10276
X26280Y-10591
X26280Y-20472
X26280Y-20787
X26280Y-21102
X26280Y-22047
X26280Y-22362
X26280Y-32244
X26280Y-32559
X26280Y-32874
X26280Y-33819
X26280Y-34134
X26280Y-44016
X26280Y-44331
X26280Y-44646
X26280Y-45591
X26280Y-45906
X26299Y-7106
X26299Y-18878
X26299Y-30650
X26299Y-42421
X26545Y-7215
X26545Y-18986
X26545Y-30758
X26545Y-42530
X26575Y-8080
X26575Y-19852
X26575Y-31624
X26575Y-43395
X26594Y-8701
X26594Y-9016
X26594Y-9331
X26594Y-13248
X26594Y-20472
X26594Y-20787
X26594Y-21102
X26594Y-25020
X26594Y-32244
X26594Y-32559
X26594Y-32874
X26594Y-36791
X26594Y-44016
X26594Y-44331
X26594Y-44646
X26594Y-48563
X26909Y-6122
X26909Y-7126
X26909Y-8071
X26909Y-8701
X26909Y-9331
X26909Y-10906
X26909Y-17894
X26909Y-18898
X26909Y-19843
X26909Y-20472
X26909Y-21102
X26909Y-22677
X26909Y-29665
X26909Y-30669
X26909Y-31614
X26909Y-32244
X26909Y-32874
X26909Y-34449
X26909Y-41437
X26909Y-42441
X26909Y-43386
X26909Y-44016
X26909Y-44646
X26909Y-46220
X26919Y-9035
X26919Y-20807
X26919Y-32579
X26919Y-44350
X27224Y-8071
X27224Y-8386
X27224Y-10906
X27224Y-19843
X27224Y-20157
X27224Y-22677
X27224Y-31614
X27224Y-31929
X27224Y-34449
X27224Y-43386
X27224Y-43701
X27224Y-46220
X27520Y-7126
X27520Y-18898
X27520Y-30669
X27520Y-42441
X27539Y-7756
X27539Y-8071
X27539Y-10591
X27539Y-10906
X27539Y-19528
X27539Y-19843
X27539Y-22362
X27539Y-22677
X27539Y-31299
X27539Y-31614
X27539Y-34134
X27539Y-34449
X27539Y-43071
X27539Y-43386
X27539Y-45906
X27539Y-46220
X27544Y-9646
X27544Y-21418
X27544Y-33190
X27544Y-44961
X27854Y-10591
X27854Y-10906
X27854Y-12185
X27854Y-22362
X27854Y-22677
X27854Y-23957
X27854Y-34134
X27854Y-34449
X27854Y-35728
X27854Y-45906
X27854Y-46220
X27854Y-47500
X27874Y-6417
X27874Y-18189
X27874Y-29961
X27874Y-41732
X28110Y-12776
X28110Y-24547
X28110Y-36319
X28110Y-48091
X28169Y-8386
X28169Y-9016
X28169Y-9331
X28169Y-9646
X28169Y-9961
X28169Y-20157
X28169Y-20787
X28169Y-21102
X28169Y-21417
X28169Y-21732
X28169Y-31929
X28169Y-32559
X28169Y-32874
X28169Y-33189
X28169Y-33504
X28169Y-43701
X28169Y-44331
X28169Y-44646
X28169Y-44961
X28169Y-45276
X28484Y-7756
X28484Y-8701
X28484Y-9331
X28484Y-9646
X28484Y-9961
X28484Y-19528
X28484Y-20472
X28484Y-21102
X28484Y-21417
X28484Y-21732
X28484Y-31299
X28484Y-32244
X28484Y-32874
X28484Y-33189
X28484Y-33504
X28484Y-43071
X28484Y-44016
X28484Y-44646
X28484Y-44961
X28484Y-45276
X28504Y-7323
X28504Y-19094
X28504Y-30866
X28504Y-42638
X28799Y-7756
X28799Y-8071
X28799Y-9646
X28799Y-9961
X28799Y-11220
X28799Y-13051
X28799Y-19528
X28799Y-19843
X28799Y-21417
X28799Y-21732
X28799Y-22992
X28799Y-24823
X28799Y-31299
X28799Y-31614
X28799Y-33189
X28799Y-33504
X28799Y-34764
X28799Y-36594
X28799Y-43071
X28799Y-43386
X28799Y-44961
X28799Y-45276
X28799Y-46535
X28799Y-48366
X29154Y-7402
X29154Y-19173
X29154Y-30945
X29154Y-42717
X29331Y-8061
X29331Y-19833
X29331Y-31604
X29331Y-43376
X29449Y-7608
X29449Y-19380
X29449Y-31152
X29449Y-42923
X30020Y-10118
X30020Y-21890
X30020Y-33661
X30020Y-45433
X30295Y-13150
X30295Y-24921
X30295Y-36693
X30295Y-48465
X30492Y-10591
X30492Y-22362
X30492Y-34134
X30492Y-45906
X31024Y-10394
X31024Y-22165
X31024Y-33937
X31024Y-45709
X31260Y-10591
X31260Y-22362
X31260Y-34134
X31260Y-45906
X31880Y-12697
X31880Y-24469
X31880Y-36240
X31880Y-48012
X31969Y-12165
X31969Y-23937
X31969Y-35709
X31969Y-47480
X32264Y-12746
X32264Y-24518
X32264Y-36289
X32264Y-48061
X32480Y-9783
X32480Y-21555
X32480Y-33327
X32480Y-45098
X33110Y-13819
X33110Y-25591
X33110Y-37362
X33110Y-49134
X33524Y-14272
X33524Y-26043
X33524Y-37815
X33524Y-49587
X33701Y-13169
X33701Y-24941
X33701Y-36713
X33701Y-48484
X33720Y-13445
X33720Y-25217
X33720Y-36988
X33720Y-48760
X34193Y-13898
X34193Y-25669
X34193Y-37441
X34193Y-49213
X34213Y-15413
X34213Y-27185
X34213Y-38957
X34213Y-50728
X34429Y-14646
X34429Y-26417
X34429Y-38189
X34429Y-49961
X34705Y-13189
X34705Y-24961
X34705Y-36732
X34705Y-48504
X35295Y-14055
X35295Y-15020
X35295Y-25827
X35295Y-26791
X35295Y-37598
X35295Y-38563
X35295Y-49370
X35295Y-50335
X35472Y-9203
X35472Y-20974
X35472Y-32746
X35472Y-44518
X35768Y-11772
X35768Y-23543
X35768Y-35315
X35768Y-47087
X35827Y-10866
X35827Y-22638
X35827Y-34409
X35827Y-46181
X35925Y-11585
X35925Y-23356
X35925Y-35128
X35925Y-46900
X36260Y-9596
X36260Y-21368
X36260Y-33140
X36260Y-44911
T2
X6240Y-7303
X6240Y-10335
X6240Y-11969
X6240Y-15000
X6240Y-19075
X6240Y-22106
X6240Y-23740
X6240Y-26772
X6240Y-30846
X6240Y-33878
X6240Y-35512
X6240Y-38543
X6240Y-42618
X6240Y-45650
X6240Y-47283
X6240Y-50315
X6555Y-7303
X6555Y-10335
X6555Y-11969
X6555Y-15000
X6555Y-19075
X6555Y-22106
X6555Y-23740
X6555Y-26772
X6555Y-30846
X6555Y-33878
X6555Y-35512
X6555Y-38543
X6555Y-42618
X6555Y-45650
X6555Y-47283
X6555Y-50315
X6870Y-7303
X6870Y-10335
X6870Y-11969
X6870Y-15000
X6870Y-19075
X6870Y-22106
X6870Y-23740
X6870Y-26772
X6870Y-30846
X6870Y-33878
X6870Y-35512
X6870Y-38543
X6870Y-42618
X6870Y-45650
X6870Y-47283
X6870Y-50315
X7185Y-7303
X7185Y-10335
X7185Y-11969
X7185Y-15000
X7185Y-19075
X7185Y-22106
X7185Y-23740
X7185Y-26772
X7185Y-30846
X7185Y-33878
X7185Y-35512
X7185Y-38543
X7185Y-42618
X7185Y-45650
X7185Y-47283
X7185Y-50315
X7500Y-7303
X7500Y-10335
X7500Y-11969
X7500Y-15000
X7500Y-19075
X7500Y-22106
X7500Y-23740
X7500Y-26772
X7500Y-30846
X7500Y-33878
X7500Y-35512
X7500Y-38543
X7500Y-42618
X7500Y-45650
X7500Y-47283
X7500Y-50315
X7815Y-7303
X7815Y-7618
X7815Y-7933
X7815Y-9705
X7815Y-10020
X7815Y-10335
X7815Y-11969
X7815Y-12283
X7815Y-12598
X7815Y-14370
X7815Y-14685
X7815Y-15000
X7815Y-19075
X7815Y-19390
X7815Y-19705
X7815Y-21476
X7815Y-21791
X7815Y-22106
X7815Y-23740
X7815Y-24055
X7815Y-24370
X7815Y-26142
X7815Y-26457
X7815Y-26772
X7815Y-30846
X7815Y-31161
X7815Y-31476
X7815Y-33248
X7815Y-33563
X7815Y-33878
X7815Y-35512
X7815Y-35827
X7815Y-36142
X7815Y-37913
X7815Y-38228
X7815Y-38543
X7815Y-42618
X7815Y-42933
X7815Y-43248
X7815Y-45020
X7815Y-45335
X7815Y-45650
X7815Y-47283
X7815Y-47598
X7815Y-47913
X7815Y-49685
X7815Y-50000
X7815Y-50315
X8071Y-13504
X8071Y-25276
X8071Y-37047
X8071Y-48819
X11378Y-8484
X11378Y-20256
X11378Y-32028
X11378Y-43799
X11386Y-9689
X11386Y-21461
X11386Y-33233
X11386Y-45004
X12776Y-10768
X12776Y-22539
X12776Y-34311
X12776Y-46083
X12884Y-7894
X12884Y-19665
X12884Y-31437
X12884Y-43209
X13484Y-8425
X13484Y-20197
X13484Y-31969
X13484Y-43740
X14134Y-11870
X14134Y-12185
X14134Y-12500
X14134Y-12815
X14134Y-13130
X14134Y-23642
X14134Y-23957
X14134Y-24272
X14134Y-24587
X14134Y-24902
X14134Y-35413
X14134Y-35728
X14134Y-36043
X14134Y-36358
X14134Y-36673
X14134Y-47185
X14134Y-47500
X14134Y-47815
X14134Y-48130
X14134Y-48445
X14251Y-9920
X14251Y-21692
X14251Y-33463
X14251Y-45235
X14272Y-6890
X14272Y-18661
X14272Y-30433
X14272Y-42205
X14449Y-11555
X14449Y-11870
X14449Y-12185
X14449Y-12500
X14449Y-12815
X14449Y-13130
X14449Y-23327
X14449Y-23642
X14449Y-23957
X14449Y-24272
X14449Y-24587
X14449Y-24902
X14449Y-35098
X14449Y-35413
X14449Y-35728
X14449Y-36043
X14449Y-36358
X14449Y-36673
X14449Y-46870
X14449Y-47185
X14449Y-47500
X14449Y-47815
X14449Y-48130
X14449Y-48445
X14744Y-13917
X14744Y-25689
X14744Y-37461
X14744Y-49232
X14764Y-11555
X14764Y-11870
X14764Y-12185
X14764Y-12500
X14764Y-12815
X14764Y-13130
X14764Y-23327
X14764Y-23642
X14764Y-23957
X14764Y-24272
X14764Y-24587
X14764Y-24902
X14764Y-35098
X14764Y-35413
X14764Y-35728
X14764Y-36043
X14764Y-36358
X14764Y-36673
X14764Y-46870
X14764Y-47185
X14764Y-47500
X14764Y-47815
X14764Y-48130
X14764Y-48445
X14882Y-7894
X14882Y-19665
X14882Y-31437
X14882Y-43209
X15010Y-10945
X15010Y-22717
X15010Y-34488
X15010Y-46260
X15059Y-13917
X15059Y-14232
X15059Y-25689
X15059Y-26004
X15059Y-37461
X15059Y-37776
X15059Y-49232
X15059Y-49547
X15079Y-11417
X15079Y-11732
X15079Y-12047
X15079Y-23189
X15079Y-23504
X15079Y-23819
X15079Y-34961
X15079Y-35276
X15079Y-35591
X15079Y-46732
X15079Y-47047
X15079Y-47362
X15374Y-13917
X15374Y-14232
X15374Y-25689
X15374Y-26004
X15374Y-37461
X15374Y-37776
X15374Y-49232
X15374Y-49547
X15394Y-11417
X15394Y-11732
X15394Y-12047
X15394Y-23189
X15394Y-23504
X15394Y-23819
X15394Y-34961
X15394Y-35276
X15394Y-35591
X15394Y-46732
X15394Y-47047
X15394Y-47362
X15689Y-14232
X15689Y-26004
X15689Y-37776
X15689Y-49547
X15709Y-11417
X15709Y-11732
X15709Y-12047
X15709Y-23189
X15709Y-23504
X15709Y-23819
X15709Y-34961
X15709Y-35276
X15709Y-35591
X15709Y-46732
X15709Y-47047
X15709Y-47362
X15728Y-10728
X15728Y-22500
X15728Y-34272
X15728Y-46043
X15807Y-12736
X15807Y-24508
X15807Y-36280
X15807Y-48051
X16004Y-14232
X16004Y-26004
X16004Y-37776
X16004Y-49547
X16043Y-10728
X16043Y-22500
X16043Y-34272
X16043Y-46043
X16358Y-10728
X16358Y-22500
X16358Y-34272
X16358Y-46043
X16673Y-10728
X16673Y-22500
X16673Y-34272
X16673Y-46043
X16890Y-12520
X16890Y-24291
X16890Y-36063
X16890Y-47835
X16988Y-10728
X16988Y-22500
X16988Y-34272
X16988Y-46043
X17303Y-10728
X17303Y-11181
X17303Y-22500
X17303Y-22953
X17303Y-34272
X17303Y-34724
X17303Y-46043
X17303Y-46496
X17323Y-8012
X17323Y-10118
X17323Y-12480
X17323Y-12795
X17323Y-13110
X17323Y-19783
X17323Y-21890
X17323Y-24252
X17323Y-24567
X17323Y-24882
X17323Y-31555
X17323Y-33661
X17323Y-36024
X17323Y-36339
X17323Y-36654
X17323Y-43327
X17323Y-45433
X17323Y-47795
X17323Y-48110
X17323Y-48425
X17343Y-14449
X17343Y-26220
X17343Y-37992
X17343Y-49764
X17618Y-10728
X17618Y-22500
X17618Y-34272
X17618Y-46043
X17638Y-12480
X17638Y-12795
X17638Y-24252
X17638Y-24567
X17638Y-36024
X17638Y-36339
X17638Y-47795
X17638Y-48110
X17657Y-14449
X17657Y-26220
X17657Y-37992
X17657Y-49764
X17933Y-14449
X17933Y-26220
X17933Y-37992
X17933Y-49764
X17953Y-12480
X17953Y-24252
X17953Y-36024
X17953Y-47795
X18209Y-14449
X18209Y-26220
X18209Y-37992
X18209Y-49764
X18268Y-13110
X18268Y-24882
X18268Y-36654
X18268Y-48425
X18484Y-14449
X18484Y-26220
X18484Y-37992
X18484Y-49764
X18583Y-11850
X18583Y-12795
X18583Y-13110
X18583Y-23622
X18583Y-24567
X18583Y-24882
X18583Y-35394
X18583Y-36339
X18583Y-36654
X18583Y-47165
X18583Y-48110
X18583Y-48425
X18898Y-7992
X18898Y-10098
X18898Y-19764
X18898Y-21870
X18898Y-31535
X18898Y-33642
X18898Y-43307
X18898Y-45413
X20453Y-8189
X20453Y-19961
X20453Y-31732
X20453Y-43504
X21220Y-14469
X21220Y-14783
X21220Y-26240
X21220Y-26555
X21220Y-38012
X21220Y-38327
X21220Y-49783
X21220Y-50098
X21299Y-16043
X21299Y-27815
X21299Y-39587
X21299Y-51358
X21378Y-13524
X21378Y-13839
X21378Y-14154
X21378Y-25295
X21378Y-25610
X21378Y-25925
X21378Y-37067
X21378Y-37382
X21378Y-37697
X21378Y-48839
X21378Y-49154
X21378Y-49469
X21535Y-14469
X21535Y-14783
X21535Y-26240
X21535Y-26555
X21535Y-38012
X21535Y-38327
X21535Y-49783
X21535Y-50098
X21693Y-13524
X21693Y-13839
X21693Y-14154
X21693Y-16043
X21693Y-25295
X21693Y-25610
X21693Y-25925
X21693Y-27815
X21693Y-37067
X21693Y-37382
X21693Y-37697
X21693Y-39587
X21693Y-48839
X21693Y-49154
X21693Y-49469
X21693Y-51358
X21850Y-13209
X21850Y-24980
X21850Y-36752
X21850Y-48524
X22008Y-13524
X22008Y-13839
X22008Y-14154
X22008Y-25295
X22008Y-25610
X22008Y-25925
X22008Y-37067
X22008Y-37382
X22008Y-37697
X22008Y-48839
X22008Y-49154
X22008Y-49469
X22087Y-16043
X22087Y-27815
X22087Y-39587
X22087Y-51358
X22165Y-13209
X22165Y-24980
X22165Y-36752
X22165Y-48524
X22480Y-13209
X22480Y-16043
X22480Y-24980
X22480Y-27815
X22480Y-36752
X22480Y-39587
X22480Y-48524
X22480Y-51358
X22717Y-14055
X22717Y-25827
X22717Y-37598
X22717Y-49370
X22874Y-16043
X22874Y-27815
X22874Y-39587
X22874Y-51358
X23268Y-16043
X23268Y-27815
X23268Y-39587
X23268Y-51358
X23524Y-12933
X23524Y-13248
X23524Y-24705
X23524Y-25020
X23524Y-36476
X23524Y-36791
X23524Y-48248
X23524Y-48563
X23543Y-14724
X23543Y-15039
X23543Y-26496
X23543Y-26811
X23543Y-38268
X23543Y-38583
X23543Y-50039
X23543Y-50354
X23661Y-16043
X23661Y-27815
X23661Y-39587
X23661Y-51358
X23839Y-12933
X23839Y-13248
X23839Y-24705
X23839Y-25020
X23839Y-36476
X23839Y-36791
X23839Y-48248
X23839Y-48563
X23858Y-14724
X23858Y-15039
X23858Y-26496
X23858Y-26811
X23858Y-38268
X23858Y-38583
X23858Y-50039
X23858Y-50354
X25457Y-11678
X25457Y-23449
X25457Y-35221
X25457Y-46992
X25906Y-11693
X25906Y-23465
X25906Y-35236
X25906Y-47008
X26693Y-11732
X26693Y-23504
X26693Y-35276
X26693Y-47047
X29409Y-9803
X29409Y-21575
X29409Y-33346
X29409Y-45118
X30138Y-12303
X30138Y-24075
X30138Y-35846
X30138Y-47618
X30197Y-15433
X30197Y-27205
X30197Y-38976
X30197Y-50748
X31122Y-9587
X31122Y-21358
X31122Y-33130
X31122Y-44902
X31198Y-10081
X31198Y-21853
X31198Y-33624
X31198Y-45396
X31260Y-13701
X31260Y-25472
X31260Y-37244
X31260Y-49016
X31385Y-8910
X31385Y-20681
X31385Y-32453
X31385Y-44225
X31398Y-13287
X31398Y-25059
X31398Y-36831
X31398Y-48602
X31614Y-16043
X31614Y-27815
X31614Y-39587
X31614Y-51358
X32008Y-10787
X32008Y-22559
X32008Y-34331
X32008Y-46102
X33209Y-13150
X33209Y-24921
X33209Y-36693
X33209Y-48465
X35041Y-13161
X35041Y-24933
X35041Y-36704
X35041Y-48476
X35699Y-12697
X35699Y-24469
X35699Y-36240
X35699Y-48012
X35787Y-12087
X35787Y-23858
X35787Y-35630
X35787Y-47402
X36024Y-14173
X36024Y-25945
X36024Y-37717
X36024Y-49488
X36142Y-12972
X36142Y-24744
X36142Y-36516
X36142Y-48287
X36339Y-8898
X36339Y-20669
X36339Y-32441
X36339Y-44213
X36378Y-14173
X36378Y-25945
X36378Y-37717
X36378Y-49488
X36437Y-7224
X36437Y-18996
X36437Y-30768
X36437Y-42539
X37598Y-10571
X37598Y-11732
X37598Y-22343
X37598Y-23504
X37598Y-34114
X37598Y-35276
X37598Y-45886
X37598Y-47047
T5
X19689Y-12362
X19689Y-24134
X19689Y-35906
X19689Y-47677
X20689Y-12362
X20689Y-24134
X20689Y-35906
X20689Y-47677
X25126Y-14118
X25126Y-15118
X25126Y-25890
X25126Y-26890
X25126Y-37661
X25126Y-38661
X25126Y-49433
X25126Y-50433
X26126Y-14118
X26126Y-15118
X26126Y-25890
X26126Y-26890
X26126Y-37661
X26126Y-38661
X26126Y-49433
X26126Y-50433
X27126Y-14118
X27126Y-15118
X27126Y-25890
X27126Y-26890
X27126Y-37661
X27126Y-38661
X27126Y-49433
X27126Y-50433
X28126Y-14118
X28126Y-15118
X28126Y-25890
X28126Y-26890
X28126Y-37661
X28126Y-38661
X28126Y-49433
X28126Y-50433
X29126Y-14118
X29126Y-15118
X29126Y-25890
X29126Y-26890
X29126Y-37661
X29126Y-38661
X29126Y-49433
X29126Y-50433
T6
X12456Y-9037
X12456Y-20809
X12456Y-32581
X12456Y-44352
T7
X17146Y-6693
X17146Y-15630
X17146Y-18465
X17146Y-27402
X17146Y-30236
X17146Y-39173
X17146Y-42008
X17146Y-50945
X37520Y-6693
X37520Y-15630
X37520Y-18465
X37520Y-27402
X37520Y-30236
X37520Y-39173
X37520Y-42008
X37520Y-50945
T8
X21791Y-9646
X21791Y-21417
X21791Y-33189
X21791Y-44961
T9
X33898Y-11280
X33898Y-23051
X33898Y-34823
X33898Y-46594
T3
X38061Y-9783G85X37805Y-9783
G05
X38061Y-12539G85X37805Y-12539
G05
X38061Y-21555G85X37805Y-21555
G05
X38061Y-24311G85X37805Y-24311
G05
X38061Y-33327G85X37805Y-33327
G05
X38061Y-36083G85X37805Y-36083
G05
X38061Y-45098G85X37805Y-45098
G05
X38061Y-47854G85X37805Y-47854
G05
T4
X36870Y-10236G85X36870Y-10118
G05
X36870Y-12205G85X36870Y-12087
G05
X36870Y-22008G85X36870Y-21890
G05
X36870Y-23976G85X36870Y-23858
G05
X36870Y-33780G85X36870Y-33661
G05
X36870Y-35748G85X36870Y-35630
G05
X36870Y-45551G85X36870Y-45433
G05
X36870Y-47520G85X36870Y-47402
G05
T0
M30
