M48
INCH,TZ
T1C0.012
T2C0.014
T3C0.020
T4C0.022
T5C0.039
T6C0.040
T7C0.063
T8C0.079
T9C0.094
T10C0.157
%
G90
G05
T1
X9256Y-11276
X9256Y-22811
X9256Y-34346
X9256Y-45882
X9679Y-11069
X9679Y-22604
X9679Y-34140
X9679Y-45675
X10122Y-10911
X10122Y-22447
X10122Y-33982
X10122Y-45518
X10870Y-10911
X10870Y-22447
X10870Y-33982
X10870Y-45518
X11736Y-10587
X11736Y-22122
X11736Y-33657
X11736Y-45193
X12169Y-8087
X12169Y-19622
X12169Y-31157
X12169Y-42693
X12189Y-11039
X12189Y-22575
X12189Y-34110
X12189Y-45646
X12622Y-11453
X12622Y-22988
X12622Y-34524
X12622Y-46059
X12878Y-13264
X12878Y-24799
X12878Y-36335
X12878Y-47870
X12937Y-13657
X12937Y-25193
X12937Y-36728
X12937Y-48264
X13154Y-13854
X13154Y-25390
X13154Y-36925
X13154Y-48461
X14039Y-10783
X14039Y-22319
X14039Y-33854
X14039Y-45390
X14059Y-11906
X14059Y-23441
X14059Y-34976
X14059Y-46512
X14177Y-7122
X14177Y-18657
X14177Y-30193
X14177Y-41728
X14236Y-10587
X14236Y-22122
X14236Y-33657
X14236Y-45193
X14413Y-10370
X14413Y-21906
X14413Y-33441
X14413Y-44976
X14463Y-8510
X14463Y-20045
X14463Y-31581
X14463Y-43116
X15358Y-7791
X15358Y-19327
X15358Y-30862
X15358Y-42398
X15555Y-10823
X15555Y-22358
X15555Y-33894
X15555Y-45429
X16539Y-10272
X16539Y-21807
X16539Y-33343
X16539Y-44878
X19098Y-8421
X19098Y-10390
X19098Y-19957
X19098Y-21925
X19098Y-31492
X19098Y-33461
X19098Y-43028
X19098Y-44996
X19817Y-11561
X19817Y-23096
X19817Y-34632
X19817Y-46167
X21116Y-11522
X21116Y-23057
X21116Y-34593
X21116Y-46128
X21195Y-10961
X21195Y-22496
X21195Y-34031
X21195Y-45567
X21205Y-10695
X21205Y-22230
X21205Y-33766
X21205Y-45301
X21500Y-9002
X21500Y-20537
X21500Y-32073
X21500Y-43608
X21795Y-6728
X21795Y-18264
X21795Y-29799
X21795Y-41335
X21982Y-11246
X21982Y-22781
X21982Y-34317
X21982Y-45852
X22071Y-7614
X22071Y-19150
X22071Y-30685
X22071Y-42220
X22091Y-7988
X22091Y-19524
X22091Y-31059
X22091Y-42594
X22346Y-8067
X22346Y-19602
X22346Y-31138
X22346Y-42673
X22366Y-8736
X22366Y-20272
X22366Y-31807
X22366Y-43343
X23021Y-13697
X23021Y-25232
X23021Y-36768
X23021Y-48303
X23429Y-6925
X23429Y-7201
X23429Y-18461
X23429Y-18736
X23429Y-29996
X23429Y-30272
X23429Y-41531
X23429Y-41807
X23646Y-13126
X23646Y-24661
X23646Y-36197
X23646Y-47732
X23724Y-9888
X23724Y-21423
X23724Y-32959
X23724Y-44494
X23852Y-8077
X23852Y-19612
X23852Y-31148
X23852Y-42683
X24079Y-13559
X24079Y-25094
X24079Y-36630
X24079Y-48165
X24571Y-13539
X24571Y-25075
X24571Y-36610
X24571Y-48146
X24886Y-6886
X24886Y-18421
X24886Y-29957
X24886Y-41492
X24906Y-7112
X24906Y-18648
X24906Y-30183
X24906Y-41719
X25142Y-9819
X25142Y-21354
X25142Y-32890
X25142Y-44425
X25161Y-10469
X25161Y-11413
X25161Y-22004
X25161Y-22949
X25161Y-33539
X25161Y-34484
X25161Y-45075
X25161Y-46020
X25201Y-11079
X25201Y-22614
X25201Y-34150
X25201Y-45685
X25220Y-6965
X25220Y-18500
X25220Y-30035
X25220Y-41571
X25240Y-9002
X25240Y-20537
X25240Y-32073
X25240Y-43608
X25535Y-11020
X25535Y-22555
X25535Y-34091
X25535Y-45626
X25634Y-13539
X25634Y-25075
X25634Y-36610
X25634Y-48146
X25684Y-7122
X25684Y-18657
X25684Y-30193
X25684Y-41728
X25693Y-8067
X25693Y-8382
X25693Y-8697
X25693Y-9012
X25693Y-9642
X25693Y-9957
X25693Y-10272
X25693Y-10587
X25693Y-19602
X25693Y-19917
X25693Y-20232
X25693Y-20547
X25693Y-21177
X25693Y-21492
X25693Y-21807
X25693Y-22122
X25693Y-31138
X25693Y-31453
X25693Y-31768
X25693Y-32083
X25693Y-32713
X25693Y-33028
X25693Y-33343
X25693Y-33657
X25693Y-42673
X25693Y-42988
X25693Y-43303
X25693Y-43618
X25693Y-44248
X25693Y-44563
X25693Y-44878
X25693Y-45193
X25693Y-9336
X25693Y-20871
X25693Y-32406
X25693Y-43942
X25929Y-13165
X25929Y-24701
X25929Y-36236
X25929Y-47772
X26004Y-10276
X26004Y-21811
X26004Y-33347
X26004Y-44882
X26008Y-7752
X26008Y-8067
X26008Y-8382
X26008Y-8697
X26008Y-9327
X26008Y-9642
X26008Y-9957
X26008Y-19287
X26008Y-19602
X26008Y-19917
X26008Y-20232
X26008Y-20862
X26008Y-21177
X26008Y-21492
X26008Y-30823
X26008Y-31138
X26008Y-31453
X26008Y-31768
X26008Y-32398
X26008Y-32713
X26008Y-33028
X26008Y-42358
X26008Y-42673
X26008Y-42988
X26008Y-43303
X26008Y-43933
X26008Y-44248
X26008Y-44563
X26205Y-12516
X26205Y-24051
X26205Y-35587
X26205Y-47122
X26323Y-7437
X26323Y-7752
X26323Y-9327
X26323Y-9642
X26323Y-18972
X26323Y-19287
X26323Y-20862
X26323Y-21177
X26323Y-30508
X26323Y-30823
X26323Y-32398
X26323Y-32713
X26323Y-42043
X26323Y-42358
X26323Y-43933
X26323Y-44248
X26327Y-7118
X26327Y-18653
X26327Y-30189
X26327Y-41724
X26362Y-12368
X26362Y-23904
X26362Y-35439
X26362Y-46974
X26638Y-8067
X26638Y-8382
X26638Y-8697
X26638Y-9642
X26638Y-9957
X26638Y-10587
X26638Y-11315
X26638Y-19602
X26638Y-19917
X26638Y-20232
X26638Y-21177
X26638Y-21492
X26638Y-22122
X26638Y-22850
X26638Y-31138
X26638Y-31453
X26638Y-31768
X26638Y-32713
X26638Y-33028
X26638Y-33657
X26638Y-34386
X26638Y-42673
X26638Y-42988
X26638Y-43303
X26638Y-44248
X26638Y-44563
X26638Y-45193
X26638Y-45921
X26904Y-6581
X26904Y-18116
X26904Y-29652
X26904Y-41187
X26933Y-7447
X26933Y-18982
X26933Y-30517
X26933Y-42053
X26953Y-8067
X26953Y-8382
X26953Y-8697
X26953Y-19602
X26953Y-19917
X26953Y-20232
X26953Y-31138
X26953Y-31453
X26953Y-31768
X26953Y-42673
X26953Y-42988
X26953Y-43303
X27268Y-7437
X27268Y-8067
X27268Y-8697
X27268Y-10272
X27268Y-18972
X27268Y-19602
X27268Y-20232
X27268Y-21807
X27268Y-30508
X27268Y-31138
X27268Y-31768
X27268Y-33343
X27268Y-42043
X27268Y-42673
X27268Y-43303
X27268Y-44878
X27277Y-8402
X27277Y-19937
X27277Y-31472
X27277Y-43008
X27583Y-7437
X27583Y-7752
X27583Y-10272
X27583Y-18972
X27583Y-19287
X27583Y-21807
X27583Y-30508
X27583Y-30823
X27583Y-33343
X27583Y-42043
X27583Y-42358
X27583Y-44878
X27720Y-12791
X27720Y-24327
X27720Y-35862
X27720Y-47398
X27898Y-7122
X27898Y-7437
X27898Y-9957
X27898Y-10272
X27898Y-18657
X27898Y-18972
X27898Y-21492
X27898Y-21807
X27898Y-30193
X27898Y-30508
X27898Y-33028
X27898Y-33343
X27898Y-41728
X27898Y-42043
X27898Y-44563
X27898Y-44878
X27902Y-9012
X27902Y-20548
X27902Y-32083
X27902Y-43619
X27967Y-11030
X27967Y-22565
X27967Y-34100
X27967Y-45636
X28213Y-9957
X28213Y-10272
X28213Y-12752
X28213Y-21492
X28213Y-21807
X28213Y-24287
X28213Y-33028
X28213Y-33343
X28213Y-35823
X28213Y-44563
X28213Y-44878
X28213Y-47358
X28528Y-7752
X28528Y-8382
X28528Y-8697
X28528Y-9012
X28528Y-9327
X28528Y-19287
X28528Y-19917
X28528Y-20232
X28528Y-20547
X28528Y-20862
X28528Y-30823
X28528Y-31453
X28528Y-31768
X28528Y-32083
X28528Y-32398
X28528Y-42358
X28528Y-42988
X28528Y-43303
X28528Y-43618
X28528Y-43933
X28587Y-13500
X28587Y-25035
X28587Y-36571
X28587Y-48106
X28764Y-11472
X28764Y-23008
X28764Y-34543
X28764Y-46079
X28843Y-7122
X28843Y-8067
X28843Y-8697
X28843Y-9012
X28843Y-9327
X28843Y-10587
X28843Y-18657
X28843Y-19602
X28843Y-20232
X28843Y-20547
X28843Y-20862
X28843Y-22122
X28843Y-30193
X28843Y-31138
X28843Y-31768
X28843Y-32083
X28843Y-32398
X28843Y-33657
X28843Y-41728
X28843Y-42673
X28843Y-43303
X28843Y-43618
X28843Y-43933
X28843Y-45193
X28862Y-6492
X28862Y-18028
X28862Y-29563
X28862Y-41098
X28980Y-12555
X28980Y-24091
X28980Y-35626
X28980Y-47161
X29157Y-9012
X29157Y-9327
X29157Y-10587
X29157Y-20547
X29157Y-20862
X29157Y-22122
X29157Y-32083
X29157Y-32398
X29157Y-33657
X29157Y-43618
X29157Y-43933
X29157Y-45193
X29162Y-7126
X29162Y-18662
X29162Y-30197
X29162Y-41733
X29531Y-7142
X29531Y-18677
X29531Y-30213
X29531Y-41748
X29650Y-8559
X29650Y-20094
X29650Y-31630
X29650Y-43165
X29709Y-6748
X29709Y-18283
X29709Y-29819
X29709Y-41354
X29827Y-12791
X29827Y-24327
X29827Y-35862
X29827Y-47398
X29984Y-11335
X29984Y-22870
X29984Y-34406
X29984Y-45941
X30220Y-8756
X30220Y-20291
X30220Y-31827
X30220Y-43362
X30240Y-9386
X30240Y-20921
X30240Y-32457
X30240Y-43992
X30516Y-13313
X30516Y-24848
X30516Y-36384
X30516Y-47919
X30624Y-13047
X30624Y-24583
X30624Y-36118
X30624Y-47654
X30713Y-12516
X30713Y-24051
X30713Y-35587
X30713Y-47122
X30732Y-11925
X30732Y-23461
X30732Y-34996
X30732Y-46531
X30801Y-8913
X30801Y-20449
X30801Y-31984
X30801Y-43520
X30978Y-14150
X30978Y-25685
X30978Y-37220
X30978Y-48756
X30998Y-8451
X30998Y-19986
X30998Y-31522
X30998Y-43057
X31008Y-13096
X31008Y-24632
X31008Y-36167
X31008Y-47703
X31165Y-8077
X31165Y-19612
X31165Y-31148
X31165Y-42683
X31185Y-7742
X31185Y-19278
X31185Y-30813
X31185Y-42348
X31224Y-10134
X31224Y-21669
X31224Y-33205
X31224Y-44740
X31756Y-13500
X31756Y-25035
X31756Y-36571
X31756Y-48106
X31854Y-14169
X31854Y-25705
X31854Y-37240
X31854Y-48776
X31953Y-13500
X31953Y-25035
X31953Y-36571
X31953Y-48106
X33626Y-8028
X33626Y-19563
X33626Y-31098
X33626Y-42634
X33823Y-7791
X33823Y-19327
X33823Y-30862
X33823Y-42398
X34217Y-9553
X34217Y-21089
X34217Y-32624
X34217Y-44159
X34510Y-12125
X34510Y-23660
X34510Y-35196
X34510Y-46731
X34571Y-11217
X34571Y-22752
X34571Y-34287
X34571Y-45823
X34945Y-11925
X34945Y-23461
X34945Y-34996
X34945Y-46531
X35004Y-9947
X35004Y-21482
X35004Y-33018
X35004Y-44553
T2
X7189Y-7654
X7189Y-10685
X7189Y-12319
X7189Y-15350
X7189Y-19189
X7189Y-22220
X7189Y-23854
X7189Y-26886
X7189Y-30724
X7189Y-33756
X7189Y-35390
X7189Y-38421
X7189Y-42260
X7189Y-45291
X7189Y-46925
X7189Y-49957
X7504Y-7654
X7504Y-10685
X7504Y-12319
X7504Y-15350
X7504Y-19189
X7504Y-22220
X7504Y-23854
X7504Y-26886
X7504Y-30724
X7504Y-33756
X7504Y-35390
X7504Y-38421
X7504Y-42260
X7504Y-45291
X7504Y-46925
X7504Y-49957
X7819Y-7654
X7819Y-10685
X7819Y-12319
X7819Y-15350
X7819Y-19189
X7819Y-22220
X7819Y-23854
X7819Y-26886
X7819Y-30724
X7819Y-33756
X7819Y-35390
X7819Y-38421
X7819Y-42260
X7819Y-45291
X7819Y-46925
X7819Y-49957
X8134Y-7654
X8134Y-10685
X8134Y-12319
X8134Y-15350
X8134Y-19189
X8134Y-22220
X8134Y-23854
X8134Y-26886
X8134Y-30724
X8134Y-33756
X8134Y-35390
X8134Y-38421
X8134Y-42260
X8134Y-45291
X8134Y-46925
X8134Y-49957
X8449Y-7654
X8449Y-10685
X8449Y-12319
X8449Y-15350
X8449Y-19189
X8449Y-22220
X8449Y-23854
X8449Y-26886
X8449Y-30724
X8449Y-33756
X8449Y-35390
X8449Y-38421
X8449Y-42260
X8449Y-45291
X8449Y-46925
X8449Y-49957
X8764Y-7654
X8764Y-7969
X8764Y-8283
X8764Y-10055
X8764Y-10370
X8764Y-10685
X8764Y-12319
X8764Y-12634
X8764Y-12949
X8764Y-14720
X8764Y-15035
X8764Y-15350
X8764Y-19189
X8764Y-19504
X8764Y-19819
X8764Y-21591
X8764Y-21906
X8764Y-22220
X8764Y-23854
X8764Y-24169
X8764Y-24484
X8764Y-26256
X8764Y-26571
X8764Y-26886
X8764Y-30724
X8764Y-31039
X8764Y-31354
X8764Y-33126
X8764Y-33441
X8764Y-33756
X8764Y-35390
X8764Y-35705
X8764Y-36020
X8764Y-37791
X8764Y-38106
X8764Y-38421
X8764Y-42260
X8764Y-42575
X8764Y-42890
X8764Y-44661
X8764Y-44976
X8764Y-45291
X8764Y-46925
X8764Y-47240
X8764Y-47555
X8764Y-49327
X8764Y-49642
X8764Y-49957
X8803Y-13854
X8803Y-25390
X8803Y-36925
X8803Y-48461
X12484Y-12161
X12484Y-15744
X12484Y-23697
X12484Y-27280
X12484Y-35232
X12484Y-38815
X12484Y-46768
X12484Y-50350
X12642Y-8835
X12642Y-20370
X12642Y-31906
X12642Y-43441
X12650Y-10040
X12650Y-21575
X12650Y-33111
X12650Y-44646
X12839Y-14248
X12839Y-14642
X12839Y-25783
X12839Y-26177
X12839Y-37319
X12839Y-37713
X12839Y-48854
X12839Y-49248
X13114Y-14248
X13114Y-14642
X13114Y-25783
X13114Y-26177
X13114Y-37319
X13114Y-37713
X13114Y-48854
X13114Y-49248
X14020Y-11571
X14020Y-23106
X14020Y-34642
X14020Y-46177
X14039Y-11118
X14039Y-22654
X14039Y-34189
X14039Y-45724
X14148Y-8244
X14148Y-19780
X14148Y-31315
X14148Y-42850
X14748Y-8776
X14748Y-20311
X14748Y-31846
X14748Y-43382
X14925Y-7358
X14925Y-18894
X14925Y-30429
X14925Y-41965
X15535Y-7240
X15535Y-18776
X15535Y-30311
X15535Y-41846
X15870Y-12240
X15870Y-12555
X15870Y-12870
X15870Y-23776
X15870Y-24091
X15870Y-24406
X15870Y-35311
X15870Y-35626
X15870Y-35941
X15870Y-46846
X15870Y-47161
X15870Y-47476
X16028Y-11965
X16028Y-23500
X16028Y-35035
X16028Y-46571
X16146Y-8244
X16146Y-8776
X16146Y-13776
X16146Y-19780
X16146Y-20311
X16146Y-25311
X16146Y-31315
X16146Y-31846
X16146Y-36846
X16146Y-42850
X16146Y-43382
X16146Y-48382
X16185Y-12240
X16185Y-23776
X16185Y-35311
X16185Y-46846
X16343Y-11650
X16343Y-23185
X16343Y-34720
X16343Y-46256
X16421Y-13894
X16421Y-25429
X16421Y-36965
X16421Y-48500
X16736Y-13894
X16736Y-25429
X16736Y-36965
X16736Y-48500
X17051Y-13894
X17051Y-25429
X17051Y-36965
X17051Y-48500
X17130Y-11531
X17130Y-23067
X17130Y-34602
X17130Y-46138
X17209Y-11965
X17209Y-12280
X17209Y-12949
X17209Y-23500
X17209Y-23815
X17209Y-24484
X17209Y-35035
X17209Y-35350
X17209Y-36020
X17209Y-46571
X17209Y-46886
X17209Y-47555
X17366Y-13894
X17366Y-25429
X17366Y-36965
X17366Y-48500
X17445Y-11531
X17445Y-23067
X17445Y-34602
X17445Y-46138
X17681Y-13894
X17681Y-25429
X17681Y-36965
X17681Y-48500
X17760Y-11531
X17760Y-23067
X17760Y-34602
X17760Y-46138
X17996Y-8362
X17996Y-10469
X17996Y-13894
X17996Y-19898
X17996Y-22004
X17996Y-25429
X17996Y-31433
X17996Y-33539
X17996Y-36965
X17996Y-42969
X17996Y-45075
X17996Y-48500
X18075Y-11531
X18075Y-23067
X18075Y-34602
X18075Y-46138
X18311Y-13894
X18311Y-25429
X18311Y-36965
X18311Y-48500
X18390Y-11531
X18390Y-23067
X18390Y-34602
X18390Y-46138
X18705Y-11531
X18705Y-23067
X18705Y-34602
X18705Y-46138
X18744Y-12004
X18744Y-12319
X18744Y-23539
X18744Y-23854
X18744Y-35075
X18744Y-35390
X18744Y-46610
X18744Y-46925
X19020Y-11531
X19020Y-23067
X19020Y-34602
X19020Y-46138
X19098Y-14642
X19098Y-26177
X19098Y-37713
X19098Y-49248
X19138Y-12634
X19138Y-12949
X19138Y-24169
X19138Y-24484
X19138Y-35705
X19138Y-36020
X19138Y-47240
X19138Y-47555
X19295Y-14839
X19295Y-26374
X19295Y-37909
X19295Y-49445
X19453Y-12634
X19453Y-12949
X19453Y-24169
X19453Y-24484
X19453Y-35705
X19453Y-36020
X19453Y-47240
X19453Y-47555
X19492Y-15035
X19492Y-26571
X19492Y-38106
X19492Y-49642
X19571Y-8343
X19571Y-10449
X19571Y-19878
X19571Y-21984
X19571Y-31413
X19571Y-33520
X19571Y-42949
X19571Y-45055
X20654Y-8500
X20654Y-20035
X20654Y-31571
X20654Y-43106
X24551Y-12004
X24551Y-23539
X24551Y-35075
X24551Y-46610
X27051Y-11098
X27051Y-11965
X27051Y-22634
X27051Y-23500
X27051Y-34169
X27051Y-35035
X27051Y-45705
X27051Y-46571
X27134Y-12492
X27134Y-24028
X27134Y-35563
X27134Y-47098
X27366Y-12614
X27366Y-24150
X27366Y-35685
X27366Y-47220
X27543Y-11315
X27543Y-22850
X27543Y-34386
X27543Y-45921
X28370Y-11846
X28370Y-12161
X28370Y-23382
X28370Y-23697
X28370Y-34917
X28370Y-35232
X28370Y-46453
X28370Y-46768
X28508Y-11256
X28508Y-22791
X28508Y-34327
X28508Y-45862
X28567Y-12654
X28567Y-24189
X28567Y-35724
X28567Y-47260
X29138Y-11394
X29138Y-22929
X29138Y-34465
X29138Y-46000
X29335Y-12587
X29335Y-24122
X29335Y-35657
X29335Y-47193
X29594Y-12449
X29594Y-23984
X29594Y-35520
X29594Y-47055
X29618Y-12130
X29618Y-23665
X29618Y-35201
X29618Y-46736
X29622Y-11776
X29622Y-23311
X29622Y-34846
X29622Y-46382
X29728Y-7398
X29728Y-18933
X29728Y-30469
X29728Y-42004
X30594Y-15035
X30594Y-26571
X30594Y-38106
X30594Y-49642
X30752Y-11138
X30752Y-22673
X30752Y-34209
X30752Y-45744
X32406Y-14110
X32406Y-25646
X32406Y-37181
X32406Y-48717
X32720Y-14917
X32720Y-26453
X32720Y-37988
X32720Y-49524
X32799Y-15587
X32799Y-27122
X32799Y-38657
X32799Y-50193
X33114Y-13795
X33114Y-25331
X33114Y-36866
X33114Y-48402
X33252Y-15331
X33252Y-26866
X33252Y-38402
X33252Y-49937
X33980Y-13579
X33980Y-25114
X33980Y-36650
X33980Y-48185
X34098Y-13067
X34098Y-24602
X34098Y-36138
X34098Y-47673
X34492Y-16453
X34492Y-27988
X34492Y-39524
X34492Y-51059
X34531Y-12437
X34531Y-23972
X34531Y-35508
X34531Y-47043
X34807Y-15016
X34807Y-26551
X34807Y-38087
X34807Y-49622
X34945Y-12181
X34945Y-23717
X34945Y-35252
X34945Y-46787
X35083Y-9248
X35083Y-20783
X35083Y-32319
X35083Y-43854
X35142Y-15075
X35142Y-26610
X35142Y-38146
X35142Y-49681
X35161Y-15744
X35161Y-27280
X35161Y-38815
X35161Y-50350
X35437Y-9386
X35437Y-9701
X35437Y-20921
X35437Y-21236
X35437Y-32457
X35437Y-32772
X35437Y-43992
X35437Y-44307
X35752Y-9386
X35752Y-9701
X35752Y-20921
X35752Y-21236
X35752Y-32457
X35752Y-32772
X35752Y-43992
X35752Y-44307
X35949Y-13480
X35949Y-25016
X35949Y-36551
X35949Y-48087
X36067Y-9386
X36067Y-20921
X36067Y-32457
X36067Y-43992
X36087Y-14504
X36087Y-26039
X36087Y-37575
X36087Y-49110
X36264Y-13480
X36264Y-25016
X36264Y-36551
X36264Y-48087
X36343Y-10921
X36343Y-12083
X36343Y-22457
X36343Y-23618
X36343Y-33992
X36343Y-35154
X36343Y-45528
X36343Y-46689
X36382Y-9386
X36382Y-20921
X36382Y-32457
X36382Y-43992
X36579Y-13539
X36579Y-25075
X36579Y-36610
X36579Y-48146
X36697Y-9386
X36697Y-20921
X36697Y-32457
X36697Y-43992
X36835Y-10961
X36835Y-11276
X36835Y-11591
X36835Y-11906
X36835Y-22496
X36835Y-22811
X36835Y-23126
X36835Y-23441
X36835Y-34031
X36835Y-34346
X36835Y-34661
X36835Y-34976
X36835Y-45567
X36835Y-45882
X36835Y-46197
X36835Y-46512
X36894Y-13539
X36894Y-25075
X36894Y-36610
X36894Y-48146
T5
X21484Y-15272
X21484Y-26807
X21484Y-38343
X21484Y-49878
X22484Y-15272
X22484Y-26807
X22484Y-38343
X22484Y-49878
X23484Y-15272
X23484Y-26807
X23484Y-38343
X23484Y-49878
T6
X25189Y-14248
X25189Y-15248
X25189Y-25783
X25189Y-26783
X25189Y-37319
X25189Y-38319
X25189Y-48854
X25189Y-49854
X26189Y-14248
X26189Y-15248
X26189Y-25783
X26189Y-26783
X26189Y-37319
X26189Y-38319
X26189Y-48854
X26189Y-49854
X27189Y-14248
X27189Y-15248
X27189Y-25783
X27189Y-26783
X27189Y-37319
X27189Y-38319
X27189Y-48854
X27189Y-49854
X28189Y-14248
X28189Y-15248
X28189Y-25783
X28189Y-26783
X28189Y-37319
X28189Y-38319
X28189Y-48854
X28189Y-49854
X29189Y-14248
X29189Y-15248
X29189Y-25783
X29189Y-26783
X29189Y-37319
X29189Y-38319
X29189Y-48854
X29189Y-49854
T7
X13719Y-9388
X13719Y-20923
X13719Y-32459
X13719Y-43994
T8
X17957Y-7161
X17957Y-15862
X17957Y-18697
X17957Y-27398
X17957Y-30232
X17957Y-38933
X17957Y-41768
X17957Y-50469
X36264Y-7161
X36264Y-15862
X36264Y-18697
X36264Y-27398
X36264Y-30232
X36264Y-38933
X36264Y-41768
X36264Y-50469
T9
X22474Y-9986
X22474Y-21522
X22474Y-33057
X22474Y-44593
T10
X32642Y-11630
X32642Y-23165
X32642Y-34701
X32642Y-46236
T3
X36648Y-10134G85X36392Y-10134
G05
X36648Y-12890G85X36392Y-12890
G05
X36648Y-21669G85X36392Y-21669
G05
X36648Y-24425G85X36392Y-24425
G05
X36648Y-33205G85X36392Y-33205
G05
X36648Y-35961G85X36392Y-35961
G05
X36648Y-44740G85X36392Y-44740
G05
X36648Y-47496G85X36392Y-47496
G05
T4
X35457Y-10587G85X35457Y-10469
G05
X35457Y-12555G85X35457Y-12437
G05
X35457Y-22122G85X35457Y-22004
G05
X35457Y-24091G85X35457Y-23972
G05
X35457Y-33657G85X35457Y-33539
G05
X35457Y-35626G85X35457Y-35508
G05
X35457Y-45193G85X35457Y-45075
G05
X35457Y-47161G85X35457Y-47043
G05
T0
M30
