G04 #@! TF.FileFunction,Soldermask,Bot*
%FSLAX46Y46*%
G04 Gerber Fmt 4.6, Leading zero omitted, Abs format (unit mm)*
G04 Created by KiCad (PCBNEW 4.0.5) date Tue Apr 18 23:58:23 2017*
%MOMM*%
%LPD*%
G01*
G04 APERTURE LIST*
%ADD10C,0.050000*%
%ADD11R,0.900000X1.000000*%
%ADD12R,0.830000X0.680000*%
%ADD13R,1.000000X0.900000*%
%ADD14R,1.400000X1.650000*%
%ADD15R,0.800000X1.000000*%
%ADD16R,1.400000X2.900000*%
%ADD17R,0.900000X1.300000*%
%ADD18R,1.300000X0.900000*%
%ADD19R,1.000000X0.800000*%
%ADD20R,1.650000X1.400000*%
%ADD21R,1.900000X2.100000*%
%ADD22R,2.127200X2.127200*%
%ADD23O,2.127200X2.127200*%
%ADD24O,2.400000X1.700000*%
%ADD25O,2.900000X2.400000*%
%ADD26C,4.400000*%
%ADD27R,2.100000X2.100000*%
%ADD28O,2.100000X2.100000*%
%ADD29R,4.464000X1.924000*%
G04 APERTURE END LIST*
D10*
D11*
X54935000Y-114565000D03*
X54935000Y-115665000D03*
X59135000Y-112765000D03*
X59135000Y-113865000D03*
X54810000Y-111840000D03*
X54810000Y-112940000D03*
D12*
X57410000Y-109230000D03*
X57410000Y-109750000D03*
X56360000Y-109750000D03*
X56360000Y-109230000D03*
D11*
X68310000Y-113440000D03*
X68310000Y-112340000D03*
D13*
X70610000Y-112440000D03*
X69510000Y-112440000D03*
D14*
X70735000Y-118340000D03*
X68735000Y-118340000D03*
D13*
X71010000Y-114790000D03*
X72110000Y-114790000D03*
D11*
X66760000Y-113840000D03*
X66760000Y-114940000D03*
D13*
X69760000Y-115040000D03*
X68660000Y-115040000D03*
D11*
X71660000Y-106890000D03*
X71660000Y-105790000D03*
D13*
X68010000Y-107640000D03*
X69110000Y-107640000D03*
D11*
X67635000Y-106440000D03*
X67635000Y-105340000D03*
X66060000Y-106890000D03*
X66060000Y-105790000D03*
D13*
X70110000Y-105390000D03*
X69010000Y-105390000D03*
D15*
X61360000Y-106890000D03*
X62260000Y-106890000D03*
X61360000Y-105390000D03*
X62260000Y-105390000D03*
X62260000Y-108390000D03*
X61360000Y-108390000D03*
D13*
X66310000Y-110840000D03*
X67410000Y-110840000D03*
D11*
X66910000Y-109540000D03*
X66910000Y-108440000D03*
X64310000Y-109840000D03*
X64310000Y-108740000D03*
D13*
X68660000Y-111090000D03*
X69760000Y-111090000D03*
D11*
X70460000Y-109740000D03*
X70460000Y-108640000D03*
D10*
G36*
X72499340Y-107215736D02*
X73135736Y-106579340D01*
X73842842Y-107286446D01*
X73206446Y-107922842D01*
X72499340Y-107215736D01*
X72499340Y-107215736D01*
G37*
G36*
X73277158Y-107993554D02*
X73913554Y-107357158D01*
X74620660Y-108064264D01*
X73984264Y-108700660D01*
X73277158Y-107993554D01*
X73277158Y-107993554D01*
G37*
D11*
X71760000Y-110990000D03*
X71760000Y-112090000D03*
X71760000Y-109740000D03*
X71760000Y-108640000D03*
D10*
G36*
X73299340Y-109565736D02*
X73935736Y-108929340D01*
X74642842Y-109636446D01*
X74006446Y-110272842D01*
X73299340Y-109565736D01*
X73299340Y-109565736D01*
G37*
G36*
X74077158Y-110343554D02*
X74713554Y-109707158D01*
X75420660Y-110414264D01*
X74784264Y-111050660D01*
X74077158Y-110343554D01*
X74077158Y-110343554D01*
G37*
D13*
X73310000Y-112290000D03*
X74410000Y-112290000D03*
D15*
X55185000Y-107240000D03*
X54285000Y-107240000D03*
X53310000Y-105940000D03*
X54210000Y-105940000D03*
X37310000Y-108840000D03*
X38210000Y-108840000D03*
D11*
X31860000Y-109540000D03*
X31860000Y-108440000D03*
D13*
X38960000Y-110190000D03*
X40060000Y-110190000D03*
D11*
X36010000Y-107940000D03*
X36010000Y-106840000D03*
D15*
X39310000Y-108840000D03*
X40210000Y-108840000D03*
D11*
X36010000Y-78640000D03*
X36010000Y-77540000D03*
D15*
X39310000Y-79540000D03*
X40210000Y-79540000D03*
D13*
X38960000Y-80890000D03*
X40060000Y-80890000D03*
D11*
X31860000Y-80240000D03*
X31860000Y-79140000D03*
D15*
X37310000Y-79540000D03*
X38210000Y-79540000D03*
X55185000Y-77940000D03*
X54285000Y-77940000D03*
X53310000Y-76640000D03*
X54210000Y-76640000D03*
D11*
X54935000Y-85265000D03*
X54935000Y-86365000D03*
X59135000Y-83465000D03*
X59135000Y-84565000D03*
X54810000Y-82540000D03*
X54810000Y-83640000D03*
D12*
X57410000Y-79930000D03*
X57410000Y-80450000D03*
X56360000Y-80450000D03*
X56360000Y-79930000D03*
D15*
X61360000Y-77590000D03*
X62260000Y-77590000D03*
D11*
X64310000Y-80540000D03*
X64310000Y-79440000D03*
D15*
X62260000Y-79090000D03*
X61360000Y-79090000D03*
X61360000Y-76090000D03*
X62260000Y-76090000D03*
D13*
X79860000Y-92890000D03*
X78760000Y-92890000D03*
X84510000Y-91890000D03*
X83410000Y-91890000D03*
D14*
X79710000Y-94540000D03*
X77710000Y-94540000D03*
D11*
X86710000Y-90190000D03*
X86710000Y-89090000D03*
D16*
X89910000Y-94940000D03*
X92910000Y-94940000D03*
D14*
X87310000Y-93640000D03*
X85310000Y-93640000D03*
D15*
X89360000Y-97690000D03*
X88460000Y-97690000D03*
D17*
X85910000Y-91840000D03*
X87410000Y-91840000D03*
X88660000Y-92190000D03*
X90160000Y-92190000D03*
D11*
X92310000Y-88390000D03*
X92310000Y-87290000D03*
D18*
X88085000Y-84740000D03*
X88085000Y-86240000D03*
D19*
X89760000Y-87790000D03*
X89760000Y-86890000D03*
D20*
X86210000Y-85990000D03*
X86210000Y-83990000D03*
D13*
X66310000Y-81540000D03*
X67410000Y-81540000D03*
D11*
X70460000Y-80440000D03*
X70460000Y-79340000D03*
X66910000Y-80240000D03*
X66910000Y-79140000D03*
D13*
X68660000Y-81790000D03*
X69760000Y-81790000D03*
D11*
X71660000Y-77590000D03*
X71660000Y-76490000D03*
D10*
G36*
X72499340Y-77915736D02*
X73135736Y-77279340D01*
X73842842Y-77986446D01*
X73206446Y-78622842D01*
X72499340Y-77915736D01*
X72499340Y-77915736D01*
G37*
G36*
X73277158Y-78693554D02*
X73913554Y-78057158D01*
X74620660Y-78764264D01*
X73984264Y-79400660D01*
X73277158Y-78693554D01*
X73277158Y-78693554D01*
G37*
D13*
X73310000Y-82990000D03*
X74410000Y-82990000D03*
D11*
X71760000Y-80440000D03*
X71760000Y-79340000D03*
D10*
G36*
X73299340Y-80265736D02*
X73935736Y-79629340D01*
X74642842Y-80336446D01*
X74006446Y-80972842D01*
X73299340Y-80265736D01*
X73299340Y-80265736D01*
G37*
G36*
X74077158Y-81043554D02*
X74713554Y-80407158D01*
X75420660Y-81114264D01*
X74784264Y-81750660D01*
X74077158Y-81043554D01*
X74077158Y-81043554D01*
G37*
D13*
X80260000Y-84340000D03*
X81360000Y-84340000D03*
D11*
X79210000Y-76540000D03*
X79210000Y-77640000D03*
D21*
X83060000Y-76540000D03*
X83060000Y-79040000D03*
X80860000Y-79040000D03*
X80860000Y-76540000D03*
D19*
X78085000Y-78315000D03*
X78085000Y-79215000D03*
X76510000Y-79015000D03*
X76510000Y-79915000D03*
D13*
X70110000Y-76090000D03*
X69010000Y-76090000D03*
D11*
X67635000Y-77140000D03*
X67635000Y-76040000D03*
X66060000Y-77590000D03*
X66060000Y-76490000D03*
D13*
X68010000Y-78340000D03*
X69110000Y-78340000D03*
X71010000Y-85490000D03*
X72110000Y-85490000D03*
X69760000Y-85740000D03*
X68660000Y-85740000D03*
D11*
X66760000Y-84540000D03*
X66760000Y-85640000D03*
X71760000Y-81690000D03*
X71760000Y-82790000D03*
X68310000Y-84140000D03*
X68310000Y-83040000D03*
D14*
X70735000Y-89040000D03*
X68735000Y-89040000D03*
D13*
X70610000Y-83140000D03*
X69510000Y-83140000D03*
D18*
X88085000Y-114040000D03*
X88085000Y-115540000D03*
D19*
X89760000Y-117090000D03*
X89760000Y-116190000D03*
D11*
X92310000Y-117690000D03*
X92310000Y-116590000D03*
X86710000Y-119490000D03*
X86710000Y-118390000D03*
D13*
X84510000Y-121190000D03*
X83410000Y-121190000D03*
D17*
X88660000Y-121490000D03*
X90160000Y-121490000D03*
D14*
X87310000Y-122940000D03*
X85310000Y-122940000D03*
D15*
X89360000Y-126990000D03*
X88460000Y-126990000D03*
D17*
X85910000Y-121140000D03*
X87410000Y-121140000D03*
D16*
X89910000Y-124240000D03*
X92910000Y-124240000D03*
D14*
X79710000Y-123840000D03*
X77710000Y-123840000D03*
D20*
X86210000Y-115290000D03*
X86210000Y-113290000D03*
D13*
X80260000Y-113640000D03*
X81360000Y-113640000D03*
X79860000Y-122190000D03*
X78760000Y-122190000D03*
D11*
X79210000Y-105840000D03*
X79210000Y-106940000D03*
D21*
X83060000Y-105840000D03*
X83060000Y-108340000D03*
X80860000Y-108340000D03*
X80860000Y-105840000D03*
D19*
X78085000Y-107615000D03*
X78085000Y-108515000D03*
X76510000Y-108315000D03*
X76510000Y-109215000D03*
D22*
X74140000Y-94790000D03*
D23*
X74140000Y-97330000D03*
X71600000Y-94790000D03*
X71600000Y-97330000D03*
X69060000Y-94790000D03*
X69060000Y-97330000D03*
X66520000Y-94790000D03*
X66520000Y-97330000D03*
X63980000Y-94790000D03*
X63980000Y-97330000D03*
D24*
X90060000Y-90340000D03*
X90060000Y-85340000D03*
D25*
X92760000Y-91340000D03*
X92760000Y-84340000D03*
D26*
X92110000Y-76790000D03*
X92110000Y-106090000D03*
X92110000Y-98890000D03*
X92110000Y-128190000D03*
D24*
X90060000Y-119640000D03*
X90060000Y-114640000D03*
D25*
X92760000Y-120640000D03*
X92760000Y-113640000D03*
D27*
X59650000Y-126690000D03*
D28*
X57110000Y-126690000D03*
X54570000Y-126690000D03*
D22*
X74140000Y-124090000D03*
D23*
X74140000Y-126630000D03*
X71600000Y-124090000D03*
X71600000Y-126630000D03*
X69060000Y-124090000D03*
X69060000Y-126630000D03*
X66520000Y-124090000D03*
X66520000Y-126630000D03*
X63980000Y-124090000D03*
X63980000Y-126630000D03*
D26*
X45610000Y-76790000D03*
D27*
X59650000Y-97390000D03*
D28*
X57110000Y-97390000D03*
X54570000Y-97390000D03*
D26*
X45610000Y-98890000D03*
D29*
X19610000Y-91250000D03*
X19610000Y-96330000D03*
X19610000Y-79400000D03*
X19610000Y-84480000D03*
D26*
X45610000Y-128190000D03*
D29*
X19610000Y-120550000D03*
X19610000Y-125630000D03*
D26*
X45610000Y-106090000D03*
D29*
X19610000Y-108700000D03*
X19610000Y-113780000D03*
D11*
X68310000Y-54840000D03*
X68310000Y-53740000D03*
X64310000Y-51240000D03*
X64310000Y-50140000D03*
X66910000Y-50940000D03*
X66910000Y-49840000D03*
D13*
X66310000Y-52240000D03*
X67410000Y-52240000D03*
D11*
X66760000Y-55240000D03*
X66760000Y-56340000D03*
D15*
X39310000Y-50240000D03*
X40210000Y-50240000D03*
D11*
X31860000Y-50940000D03*
X31860000Y-49840000D03*
D15*
X37310000Y-50240000D03*
X38210000Y-50240000D03*
D13*
X38960000Y-51590000D03*
X40060000Y-51590000D03*
D11*
X36010000Y-49340000D03*
X36010000Y-48240000D03*
X54935000Y-55965000D03*
X54935000Y-57065000D03*
X54810000Y-53240000D03*
X54810000Y-54340000D03*
X59135000Y-54165000D03*
X59135000Y-55265000D03*
D15*
X55185000Y-48640000D03*
X54285000Y-48640000D03*
X53310000Y-47340000D03*
X54210000Y-47340000D03*
D12*
X56360000Y-51150000D03*
X56360000Y-50630000D03*
X57410000Y-50630000D03*
X57410000Y-51150000D03*
D15*
X61360000Y-46790000D03*
X62260000Y-46790000D03*
D11*
X66060000Y-48290000D03*
X66060000Y-47190000D03*
X67635000Y-47840000D03*
X67635000Y-46740000D03*
D15*
X61360000Y-48290000D03*
X62260000Y-48290000D03*
X62260000Y-49790000D03*
X61360000Y-49790000D03*
D13*
X68010000Y-49040000D03*
X69110000Y-49040000D03*
D11*
X71660000Y-48290000D03*
X71660000Y-47190000D03*
D13*
X70110000Y-46790000D03*
X69010000Y-46790000D03*
D11*
X71760000Y-51140000D03*
X71760000Y-50040000D03*
D19*
X78085000Y-49015000D03*
X78085000Y-49915000D03*
D21*
X83060000Y-47240000D03*
X83060000Y-49740000D03*
X80860000Y-49740000D03*
X80860000Y-47240000D03*
D11*
X79210000Y-47240000D03*
X79210000Y-48340000D03*
D10*
G36*
X72499340Y-48615736D02*
X73135736Y-47979340D01*
X73842842Y-48686446D01*
X73206446Y-49322842D01*
X72499340Y-48615736D01*
X72499340Y-48615736D01*
G37*
G36*
X73277158Y-49393554D02*
X73913554Y-48757158D01*
X74620660Y-49464264D01*
X73984264Y-50100660D01*
X73277158Y-49393554D01*
X73277158Y-49393554D01*
G37*
D19*
X76510000Y-49715000D03*
X76510000Y-50615000D03*
D11*
X70460000Y-51140000D03*
X70460000Y-50040000D03*
D13*
X68660000Y-52490000D03*
X69760000Y-52490000D03*
X70610000Y-53840000D03*
X69510000Y-53840000D03*
D11*
X71760000Y-52390000D03*
X71760000Y-53490000D03*
D10*
G36*
X73299340Y-50965736D02*
X73935736Y-50329340D01*
X74642842Y-51036446D01*
X74006446Y-51672842D01*
X73299340Y-50965736D01*
X73299340Y-50965736D01*
G37*
G36*
X74077158Y-51743554D02*
X74713554Y-51107158D01*
X75420660Y-51814264D01*
X74784264Y-52450660D01*
X74077158Y-51743554D01*
X74077158Y-51743554D01*
G37*
D13*
X73310000Y-53690000D03*
X74410000Y-53690000D03*
X84510000Y-62590000D03*
X83410000Y-62590000D03*
D17*
X88660000Y-62890000D03*
X90160000Y-62890000D03*
D15*
X89360000Y-68390000D03*
X88460000Y-68390000D03*
D17*
X85910000Y-62540000D03*
X87410000Y-62540000D03*
D16*
X89910000Y-65640000D03*
X92910000Y-65640000D03*
D14*
X87310000Y-64340000D03*
X85310000Y-64340000D03*
D13*
X80260000Y-55040000D03*
X81360000Y-55040000D03*
X71010000Y-56190000D03*
X72110000Y-56190000D03*
X79860000Y-63590000D03*
X78760000Y-63590000D03*
D14*
X79710000Y-65240000D03*
X77710000Y-65240000D03*
D13*
X69760000Y-56440000D03*
X68660000Y-56440000D03*
D14*
X70735000Y-59740000D03*
X68735000Y-59740000D03*
D11*
X92310000Y-59090000D03*
X92310000Y-57990000D03*
D20*
X86210000Y-56690000D03*
X86210000Y-54690000D03*
D11*
X86710000Y-60890000D03*
X86710000Y-59790000D03*
D19*
X89760000Y-58490000D03*
X89760000Y-57590000D03*
D18*
X88085000Y-55440000D03*
X88085000Y-56940000D03*
D26*
X45610000Y-47490000D03*
D22*
X74140000Y-65490000D03*
D23*
X74140000Y-68030000D03*
X71600000Y-65490000D03*
X71600000Y-68030000D03*
X69060000Y-65490000D03*
X69060000Y-68030000D03*
X66520000Y-65490000D03*
X66520000Y-68030000D03*
X63980000Y-65490000D03*
X63980000Y-68030000D03*
D27*
X59650000Y-68090000D03*
D28*
X57110000Y-68090000D03*
X54570000Y-68090000D03*
D26*
X92110000Y-47490000D03*
X92110000Y-69590000D03*
D24*
X90060000Y-61040000D03*
X90060000Y-56040000D03*
D25*
X92760000Y-62040000D03*
X92760000Y-55040000D03*
D26*
X45610000Y-69590000D03*
D29*
X19610000Y-61950000D03*
X19610000Y-67030000D03*
X19610000Y-50100000D03*
X19610000Y-55180000D03*
D15*
X61360000Y-17490000D03*
X62260000Y-17490000D03*
D26*
X45610000Y-18190000D03*
X45610000Y-40290000D03*
X92110000Y-40290000D03*
D11*
X36010000Y-20040000D03*
X36010000Y-18940000D03*
X31860000Y-21640000D03*
X31860000Y-20540000D03*
X54935000Y-26665000D03*
X54935000Y-27765000D03*
X59135000Y-24865000D03*
X59135000Y-25965000D03*
X54810000Y-23940000D03*
X54810000Y-25040000D03*
X92310000Y-29790000D03*
X92310000Y-28690000D03*
D16*
X89910000Y-36340000D03*
X92910000Y-36340000D03*
D14*
X87310000Y-35040000D03*
X85310000Y-35040000D03*
D20*
X86210000Y-27390000D03*
X86210000Y-25390000D03*
D14*
X79710000Y-35940000D03*
X77710000Y-35940000D03*
D13*
X80260000Y-25740000D03*
X81360000Y-25740000D03*
D11*
X86710000Y-31590000D03*
X86710000Y-30490000D03*
D13*
X79860000Y-34290000D03*
X78760000Y-34290000D03*
X84510000Y-33290000D03*
X83410000Y-33290000D03*
D14*
X70735000Y-30440000D03*
X68735000Y-30440000D03*
D13*
X68660000Y-23190000D03*
X69760000Y-23190000D03*
D11*
X70460000Y-21840000D03*
X70460000Y-20740000D03*
D13*
X68010000Y-19740000D03*
X69110000Y-19740000D03*
D11*
X66060000Y-18990000D03*
X66060000Y-17890000D03*
D10*
G36*
X72499340Y-19315736D02*
X73135736Y-18679340D01*
X73842842Y-19386446D01*
X73206446Y-20022842D01*
X72499340Y-19315736D01*
X72499340Y-19315736D01*
G37*
G36*
X73277158Y-20093554D02*
X73913554Y-19457158D01*
X74620660Y-20164264D01*
X73984264Y-20800660D01*
X73277158Y-20093554D01*
X73277158Y-20093554D01*
G37*
D11*
X68310000Y-25540000D03*
X68310000Y-24440000D03*
D29*
X19610000Y-20800000D03*
X19610000Y-25880000D03*
D22*
X74140000Y-36190000D03*
D23*
X74140000Y-38730000D03*
X71600000Y-36190000D03*
X71600000Y-38730000D03*
X69060000Y-36190000D03*
X69060000Y-38730000D03*
X66520000Y-36190000D03*
X66520000Y-38730000D03*
X63980000Y-36190000D03*
X63980000Y-38730000D03*
D15*
X37310000Y-20940000D03*
X38210000Y-20940000D03*
X39310000Y-20940000D03*
X40210000Y-20940000D03*
X89360000Y-39090000D03*
X88460000Y-39090000D03*
D19*
X89760000Y-29190000D03*
X89760000Y-28290000D03*
D15*
X62260000Y-20490000D03*
X61360000Y-20490000D03*
X61360000Y-18990000D03*
X62260000Y-18990000D03*
D19*
X76510000Y-20415000D03*
X76510000Y-21315000D03*
X78085000Y-19715000D03*
X78085000Y-20615000D03*
D17*
X88660000Y-33590000D03*
X90160000Y-33590000D03*
X85910000Y-33240000D03*
X87410000Y-33240000D03*
D18*
X88085000Y-26140000D03*
X88085000Y-27640000D03*
D29*
X19610000Y-32650000D03*
X19610000Y-37730000D03*
D11*
X71760000Y-21840000D03*
X71760000Y-20740000D03*
X71760000Y-23090000D03*
X71760000Y-24190000D03*
D13*
X66310000Y-22940000D03*
X67410000Y-22940000D03*
D11*
X66760000Y-25940000D03*
X66760000Y-27040000D03*
X66910000Y-21640000D03*
X66910000Y-20540000D03*
X64310000Y-21940000D03*
X64310000Y-20840000D03*
D13*
X73310000Y-24390000D03*
X74410000Y-24390000D03*
D10*
G36*
X73299340Y-21665736D02*
X73935736Y-21029340D01*
X74642842Y-21736446D01*
X74006446Y-22372842D01*
X73299340Y-21665736D01*
X73299340Y-21665736D01*
G37*
G36*
X74077158Y-22443554D02*
X74713554Y-21807158D01*
X75420660Y-22514264D01*
X74784264Y-23150660D01*
X74077158Y-22443554D01*
X74077158Y-22443554D01*
G37*
D13*
X70610000Y-24540000D03*
X69510000Y-24540000D03*
X69760000Y-27140000D03*
X68660000Y-27140000D03*
X71010000Y-26890000D03*
X72110000Y-26890000D03*
D11*
X67635000Y-18540000D03*
X67635000Y-17440000D03*
D13*
X70110000Y-17490000D03*
X69010000Y-17490000D03*
D11*
X71660000Y-18990000D03*
X71660000Y-17890000D03*
D13*
X38960000Y-22290000D03*
X40060000Y-22290000D03*
D15*
X53310000Y-18040000D03*
X54210000Y-18040000D03*
X55185000Y-19340000D03*
X54285000Y-19340000D03*
D26*
X92110000Y-18190000D03*
D27*
X59650000Y-38790000D03*
D28*
X57110000Y-38790000D03*
X54570000Y-38790000D03*
D24*
X90060000Y-31740000D03*
X90060000Y-26740000D03*
D25*
X92760000Y-32740000D03*
X92760000Y-25740000D03*
D11*
X79210000Y-17940000D03*
X79210000Y-19040000D03*
D21*
X83060000Y-17940000D03*
X83060000Y-20440000D03*
X80860000Y-20440000D03*
X80860000Y-17940000D03*
D12*
X57410000Y-21330000D03*
X57410000Y-21850000D03*
X56360000Y-21850000D03*
X56360000Y-21330000D03*
M02*
